<?xml version="1.0" encoding="UTF-8" standalone="no"?>
<!DOCTYPE svg PUBLIC "-//W3C//DTD SVG 1.1//EN" "http://www.w3.org/Graphics/SVG/1.1/DTD/svg11.dtd">
<svg xmlns="http://www.w3.org/2000/svg" version="1.1" viewBox="0 0 1021 947">
<g stroke-width="2.00" fill="none" stroke-linecap="butt">
<path stroke="#80b89e" vector-effect="non-scaling-stroke" d="
  M 603.83 168.51
  L 632.54 122.73
  A 0.89 0.87 -72.7 0 1 633.30 122.32
  Q 662.65 122.53 692.00 122.43
  Q 740.50 122.25 789.00 122.25
  A 0.50 0.49 -0.0 0 0 789.50 121.76
  L 789.50 88.50
  A 0.50 0.50 0.0 0 0 789.00 88.00
  L 614.64 88.00
  A 0.93 0.92 15.6 0 0 613.85 88.44
  L 560.95 172.00
  A 0.38 0.38 -45.8 0 1 560.32 172.01
  L 504.19 88.57
  A 0.41 0.41 -45.0 0 0 503.51 88.57
  L 192.18 557.14
  Q 191.89 557.57 192.41 557.57
  L 231.94 557.44
  A 0.95 0.92 -73.0 0 0 232.72 557.01
  L 503.55 150.39
  A 0.59 0.59 -45.7 0 1 504.53 150.39
  L 540.30 203.55
  A 0.80 0.78 44.3 0 1 540.32 204.41
  L 315.82 557.02
  Q 315.51 557.50 316.08 557.50
  L 818.71 557.50
  Q 819.40 557.50 819.01 556.93
  L 581.62 203.68
  Q 581.33 203.25 581.85 203.25
  L 729.68 203.19
  A 0.51 0.50 -0.0 0 0 730.19 202.69
  L 730.25 169.37
  A 0.38 0.37 -0.0 0 0 729.87 169.00
  L 604.06 168.94
  Q 603.56 168.94 603.83 168.51"
/>
<path stroke="#918f90" vector-effect="non-scaling-stroke" d="
  M 508.29 201.41
  L 520.22 219.09
  A 0.34 0.34 44.7 0 0 520.79 219.09
  L 527.49 208.68
  A 0.80 0.79 44.7 0 0 527.48 207.82
  L 508.10 178.97
  A 0.35 0.34 -45.2 0 0 507.53 178.98
  L 254.31 556.82
  Q 253.86 557.48 254.65 557.47
  L 269.81 557.34
  A 1.00 0.94 -72.4 0 0 270.59 556.90
  L 507.72 201.41
  A 0.35 0.34 44.7 0 1 508.29 201.41"
/>
<path stroke="#918f90" vector-effect="non-scaling-stroke" d="
  M 500.57 644.64
  Q 502.43 646.31 502.44 648.81
  Q 502.55 698.41 502.50 748.49
  A 0.51 0.51 0.0 0 0 503.01 749.00
  L 516.00 749.00
  A 0.50 0.50 0.0 0 0 516.50 748.50
  Q 516.50 679.50 516.30 610.50
  Q 516.30 608.03 514.26 609.49
  A 1.37 1.33 -10.4 0 0 513.76 610.19
  Q 511.86 616.39 510.13 618.65
  Q 507.48 622.11 505.68 626.08
  Q 504.52 628.64 505.45 631.11
  Q 506.30 633.40 504.01 634.25
  Q 499.93 635.76 496.04 637.64
  Q 491.33 639.92 491.94 644.74
  Q 492.21 646.92 494.17 645.94
  Q 496.82 644.63 499.70 644.35
  A 1.12 1.12 64.7 0 1 500.57 644.64"
/>
<path stroke="#918f90" vector-effect="non-scaling-stroke" d="
  M 930.57 644.63
  Q 932.43 646.29 932.44 648.81
  Q 932.55 698.41 932.50 748.48
  A 0.52 0.52 0.0 0 0 933.02 749.00
  L 945.99 749.00
  A 0.51 0.51 0.0 0 0 946.50 748.49
  L 946.44 610.07
  A 0.89 0.78 -78.1 0 0 946.01 609.31
  Q 944.18 608.38 943.56 610.56
  Q 941.48 617.93 937.24 623.21
  Q 934.17 627.02 935.50 631.76
  A 1.79 1.78 66.8 0 1 934.70 633.78
  Q 932.44 635.12 929.48 635.93
  Q 926.53 636.74 924.22 638.72
  Q 921.58 640.98 922.01 644.54
  Q 922.28 646.88 924.39 645.84
  Q 926.83 644.63 929.69 644.35
  A 1.18 1.12 -26.1 0 1 930.57 644.63"
/>
<path stroke="#918f90" vector-effect="non-scaling-stroke" d="
  M 753.06 732.44
  L 752.94 681.57
  A 1.43 1.15 -70.8 0 0 752.62 680.67
  Q 751.46 679.37 750.42 680.46
  Q 749.88 681.02 749.65 682.35
  Q 748.80 687.27 746.44 689.94
  Q 744.42 692.22 742.77 694.79
  Q 740.39 698.49 741.66 702.48
  Q 742.31 704.49 740.30 705.15
  Q 737.31 706.13 734.43 707.02
  Q 728.57 708.85 728.08 714.75
  Q 727.89 717.00 729.96 716.39
  L 734.74 714.99
  Q 736.94 714.35 737.81 716.35
  Q 738.97 719.02 738.88 722.25
  Q 738.75 726.75 738.75 731.87
  A 0.88 0.87 -90.0 0 1 737.88 732.75
  L 587.57 733.00
  A 0.57 0.57 0.0 0 1 587.00 732.43
  Q 587.00 708.00 587.00 683.50
  Q 587.00 681.56 586.04 679.63
  A 0.88 0.76 75.2 0 0 585.32 679.14
  Q 583.90 679.11 583.31 680.81
  Q 581.37 686.43 576.76 690.05
  Q 575.58 690.98 570.77 693.14
  Q 566.54 695.05 564.19 697.94
  Q 559.47 703.73 558.56 705.56
  Q 556.48 709.79 552.96 712.76
  Q 552.46 713.18 549.65 714.62
  Q 547.91 715.51 546.66 717.16
  Q 543.47 721.38 541.94 726.44
  Q 540.57 730.95 538.90 735.36
  Q 537.53 738.98 535.74 741.09
  Q 533.77 743.42 530.94 745.69
  Q 528.51 747.63 530.44 748.61
  Q 531.20 749.00 532.62 749.00
  Q 551.84 749.00 571.98 749.00
  A 0.70 0.69 0.4 0 1 572.68 749.70
  Q 572.65 757.06 569.56 764.13
  Q 567.05 769.86 562.69 772.94
  Q 555.36 778.10 545.49 778.63
  Q 539.38 778.95 533.25 778.78
  Q 528.95 778.66 530.17 781.48
  Q 530.76 782.85 532.28 783.59
  Q 534.73 784.79 538.50 785.25
  Q 551.13 786.79 561.06 784.82
  Q 573.34 782.37 580.10 772.95
  Q 583.34 768.43 585.13 761.90
  Q 586.78 755.93 586.99 749.77
  A 0.80 0.79 -88.9 0 1 587.78 749.00
  L 906.88 749.00
  A 0.37 0.37 0.0 0 0 907.25 748.63
  L 907.25 613.30
  Q 907.25 611.30 905.57 612.38
  Q 904.71 612.93 904.02 614.39
  Q 900.16 622.63 896.25 631.35
  A 2.88 2.84 2.1 0 1 894.57 632.89
  Q 889.27 634.72 885.03 637.82
  Q 881.54 640.36 881.74 643.43
  Q 881.90 646.12 884.42 645.16
  Q 889.39 643.26 891.51 645.80
  Q 892.75 647.28 892.75 651.50
  Q 892.77 691.53 892.75 732.36
  A 0.64 0.64 0.0 0 1 892.11 733.00
  L 753.57 732.94
  A 0.51 0.50 0.0 0 1 753.06 732.44"
/>
<path stroke="#918f90" vector-effect="non-scaling-stroke" d="
  M 79.94 738.45
  Q 77.30 738.58 74.78 739.25
  Q 72.91 739.76 70.28 741.68
  Q 65.98 744.80 61.50 745.75
  Q 57.49 746.60 60.10 748.70
  A 1.49 1.30 -22.4 0 0 60.99 749.00
  L 215.01 749.00
  Q 215.98 749.00 215.31 748.30
  Q 186.47 718.40 157.45 688.30
  Q 154.68 685.42 153.31 683.44
  Q 151.23 680.42 152.52 676.63
  Q 153.76 672.98 155.57 669.55
  A 0.67 0.67 36.3 0 1 156.64 669.39
  L 234.66 748.29
  A 2.43 2.41 67.4 0 0 236.37 749.00
  L 479.69 749.00
  A 0.56 0.56 0.0 0 0 480.25 748.44
  Q 480.25 713.00 480.25 677.75
  Q 480.25 676.22 479.09 676.75
  Q 478.61 676.98 478.28 677.60
  Q 474.50 684.73 471.18 691.82
  Q 470.37 693.55 470.50 695.45
  Q 470.75 699.20 467.81 701.31
  Q 465.97 702.64 460.79 705.58
  Q 457.43 707.49 456.50 711.25
  Q 455.61 714.82 458.94 713.44
  Q 466.19 710.43 466.09 718.25
  Q 466.00 725.13 466.00 732.45
  A 0.55 0.55 0.1 0 1 465.45 733.00
  L 239.75 733.00
  A 1.19 1.18 67.8 0 1 238.90 732.64
  L 150.29 640.66
  Q 148.99 639.31 148.93 641.19
  Q 148.65 649.82 144.51 657.67
  Q 140.98 664.38 137.76 671.26
  Q 134.02 679.24 136.73 686.41
  Q 138.18 690.23 144.68 697.03
  Q 161.64 714.76 179.22 732.21
  Q 179.81 732.81 178.97 732.82
  Q 138.68 733.31 98.08 732.79
  Q 94.31 732.74 92.60 731.77
  Q 89.98 730.28 88.93 727.05
  Q 88.19 724.78 86.26 726.17
  Q 82.56 728.83 81.27 733.38
  Q 81.09 734.04 80.96 735.66
  Q 80.88 736.82 80.58 737.95
  A 0.70 0.68 6.2 0 1 79.94 738.45"
/>
<path stroke="#918f90" vector-effect="non-scaling-stroke" d="
  M 480.40 656.66
  A 9.24 9.24 0.0 0 0 471.16 647.42
  A 9.24 9.24 0.0 0 0 461.92 656.66
  A 9.24 9.24 0.0 0 0 471.16 665.90
  A 9.24 9.24 0.0 0 0 480.40 656.66"
/>
<path stroke="#918f90" vector-effect="non-scaling-stroke" d="
  M 146.32 769.17
  A 8.80 8.80 0.0 0 0 137.52 760.37
  A 8.80 8.80 0.0 0 0 128.72 769.17
  A 8.80 8.80 0.0 0 0 137.52 777.97
  A 8.80 8.80 0.0 0 0 146.32 769.17"
/>
<path stroke="#918f90" vector-effect="non-scaling-stroke" d="
  M 167.84 769.17
  A 8.80 8.80 0.0 0 0 159.04 760.37
  A 8.80 8.80 0.0 0 0 150.24 769.17
  A 8.80 8.80 0.0 0 0 159.04 777.97
  A 8.80 8.80 0.0 0 0 167.84 769.17"
/>
<path stroke="#918f90" vector-effect="non-scaling-stroke" d="
  M 731.5548 779.9132
  A 9.50 9.21 83.2 0 0 739.5752 769.3895
  A 9.50 9.21 83.2 0 0 729.3052 761.0468
  A 9.50 9.21 83.2 0 0 721.2848 771.5705
  A 9.50 9.21 83.2 0 0 731.5548 779.9132"
/>
<path stroke="#ffffff" vector-effect="non-scaling-stroke" d="
  M 591.75 927.29
  L 592.50 927.21"
/>
<path stroke="#918f90" vector-effect="non-scaling-stroke" d="
  M 592.50 927.21
  L 597.09 932.44
  Q 597.58 933.00 596.82 933.00
  Q 578.75 933.00 560.75 932.80
  Q 557.89 932.76 559.64 934.29
  A 2.93 2.82 64.7 0 0 561.52 935.00
  L 601.03 934.94
  Q 602.13 934.94 601.43 934.08
  L 588.41 918.22
  A 1.00 0.97 -57.4 0 1 588.23 917.33
  L 601.74 868.34
  Q 602.09 867.04 602.46 868.34
  L 616.37 918.52
  A 0.82 0.76 63.7 0 1 616.13 919.33
  L 606.88 926.98
  Q 605.73 927.93 607.21 927.94
  Q 624.03 928.05 641.25 928.00
  Q 642.04 928.00 643.50 927.46"
/>
<path stroke="#918f90" vector-effect="non-scaling-stroke" d="
  M 643.50 927.46
  L 647.58 932.34
  Q 648.13 933.00 647.25 933.00
  Q 629.50 933.00 611.50 932.99
  Q 608.83 932.99 610.72 934.40
  A 3.00 3.00 -27.0 0 0 612.52 935.00
  L 652.52 935.00
  Q 653.42 935.00 652.84 934.31
  L 638.06 916.88
  A 0.96 0.96 -57.8 0 1 637.86 915.99
  Q 643.90 893.45 650.13 871.22
  Q 650.15 871.17 653.16 860.12
  Q 658.19 841.74 663.56 829.56
  Q 670.12 814.72 680.77 802.07
  A 0.54 0.53 41.5 0 0 680.72 801.33
  Q 679.22 799.96 678.44 801.18
  Q 677.89 802.03 677.82 802.12
  Q 666.70 815.40 660.35 831.54
  Q 655.01 845.14 652.25 855.00
  Q 643.68 885.63 635.41 915.96
  A 2.87 2.60 34.7 0 0 635.98 918.41
  L 642.75 926.71"
/>
<path stroke="#918f90" vector-effect="non-scaling-stroke" d="
  M 642.75 926.71
  Q 641.51 926.72 640.19 925.31
  Q 639.30 924.37 635.32 920.98
  Q 633.75 919.65 633.08 918.21
  Q 632.30 916.54 631.91 914.74
  Q 631.44 912.52 632.28 909.46
  Q 640.66 879.26 649.26 849.12
  Q 653.57 834.01 657.06 825.31
  Q 663.29 809.78 675.60 796.31
  A 1.15 0.95 -32.1 0 0 675.89 795.43
  Q 675.64 793.96 674.17 794.91
  Q 657.73 805.46 638.58 811.89
  Q 638.04 812.07 638.53 812.37
  Q 647.90 817.97 646.06 829.26
  Q 644.15 840.92 641.00 852.30
  Q 637.71 864.13 637.68 864.24
  Q 634.80 875.03 631.58 885.71
  Q 631.44 886.19 631.30 885.71
  Q 622.51 855.59 614.24 825.33
  Q 614.02 824.52 613.61 824.20
  Q 612.92 823.65 612.13 824.18
  A 0.78 0.67 66.7 0 0 611.88 824.98
  Q 620.64 856.57 629.50 888.13
  Q 630.25 890.78 629.73 893.03
  Q 629.05 895.98 627.78 898.74
  Q 627.56 899.20 627.43 898.71
  L 606.90 825.37
  A 1.69 1.45 80.7 0 0 605.42 824.13
  L 599.30 824.22
  A 0.78 0.62 -81.4 0 0 598.68 824.80
  L 581.66 885.70
  Q 581.36 886.76 581.07 885.71
  L 567.27 836.30
  A 0.93 0.92 -28.9 0 1 567.55 835.35
  L 573.32 830.27
  A 0.68 0.61 -35.9 0 0 573.49 829.48
  Q 573.10 828.76 572.36 828.71
  Q 571.73 828.66 570.96 829.34
  Q 568.13 831.85 565.16 834.44
  A 1.33 1.33 61.5 0 0 564.76 835.79
  Q 572.03 861.61 579.23 887.49
  Q 580.09 890.58 579.59 893.09
  Q 578.96 896.28 577.54 899.23
  Q 577.31 899.70 577.18 899.21
  L 559.09 834.80
  A 1.55 1.52 61.6 0 1 559.54 833.24
  L 568.91 825.00
  Q 570.05 824.00 568.55 824.00
  L 530.99 824.00
  Q 530.02 824.00 530.77 824.61
  L 541.80 833.50
  A 1.54 1.49 -78.9 0 1 542.32 834.30
  L 565.69 917.94
  A 1.80 1.78 63.0 0 1 565.08 919.84
  L 556.31 926.79
  Q 554.78 928.00 556.72 928.00
  Q 574.88 928.00 591.00 928.03
  Q 591.76 928.04 591.75 927.29"
/>
<path stroke="#231f20" vector-effect="non-scaling-stroke" d="
  M 642.75 926.71
  Q 643.23 926.98 643.50 927.46"
/>
<path stroke="#918f90" vector-effect="non-scaling-stroke" d="
  M 592.50 927.21
  L 586.49 919.89
  Q 585.35 918.50 585.77 916.97
  L 600.55 863.30
  A 1.85 1.84 -44.7 0 0 600.56 862.32
  L 598.44 854.27
  Q 598.15 853.17 597.85 854.26
  Q 589.88 882.97 581.97 912.03
  Q 581.46 913.89 581.72 915.52
  Q 582.10 917.99 582.81 918.94
  Q 584.95 921.80 591.75 927.29"
/>
<path stroke="#918f90" vector-effect="non-scaling-stroke" d="
  M 391.08 875.46
  Q 407.79 869.20 408.70 852.69
  Q 409.09 845.71 406.70 840.08
  Q 403.99 833.66 398.20 829.89
  Q 396.37 828.70 397.89 830.26
  Q 405.16 837.70 406.37 847.06
  Q 407.57 856.31 402.92 863.78
  Q 398.39 871.06 389.41 873.99
  Q 387.86 874.50 386.41 874.22
  Q 385.01 873.94 383.45 873.39
  Q 381.56 872.72 383.48 872.16
  Q 389.36 870.45 393.79 866.85
  Q 398.45 863.05 400.50 857.80
  Q 402.75 852.03 401.44 845.81
  Q 399.44 836.35 392.44 831.06
  Q 386.97 826.94 379.98 824.68
  Q 374.12 822.79 366.36 822.26
  Q 340.90 820.54 318.98 834.30
  A 0.30 0.30 -46.2 0 0 318.99 834.82
  L 327.23 839.33
  A 0.91 0.81 16.3 0 1 327.69 840.07
  L 327.69 869.44
  A 0.52 0.49 -89.5 0 1 327.19 869.96
  L 318.25 869.79
  A 0.83 0.68 10.7 0 0 317.52 870.19
  L 314.53 876.71
  A 0.44 0.43 11.2 0 0 314.95 877.32
  Q 321.03 877.16 326.75 877.15
  Q 328.18 877.15 327.72 878.31
  A 1.36 1.33 48.1 0 0 327.68 879.21
  Q 327.98 880.18 327.37 880.90
  A 1.37 0.95 11.2 0 1 326.50 881.28
  L 316.43 881.90
  A 0.56 0.55 -0.6 0 0 315.90 882.43
  Q 315.81 884.58 317.75 884.21
  Q 319.21 883.93 319.28 883.92
  Q 323.23 883.54 327.17 883.31
  A 0.49 0.49 -1.7 0 1 327.69 883.80
  L 327.75 917.83
  A 2.25 1.94 -22.7 0 1 326.95 919.43
  L 317.37 927.40
  Q 316.96 927.75 317.50 927.76
  Q 349.14 928.23 374.50 928.00
  Q 380.87 927.94 387.14 926.34
  Q 394.03 924.59 398.44 920.88
  Q 405.37 915.05 406.79 906.13
  Q 408.11 897.81 404.88 890.16
  Q 400.98 880.93 391.05 876.18
  Q 390.22 875.79 391.08 875.46"
/>
<path stroke="#ffffff" vector-effect="non-scaling-stroke" d="
  M 93.54 927.50
  Q 93.83 927.24 94.21 927.25"
/>
<path stroke="#918f90" vector-effect="non-scaling-stroke" d="
  M 94.21 927.25
  L 97.89 931.87
  Q 98.80 933.00 97.40 933.00
  L 59.00 933.00
  Q 55.40 933.00 58.50 934.50
  Q 59.86 935.16 61.37 935.07
  Q 62.54 935.00 62.64 935.00
  Q 82.32 935.00 102.04 935.00
  Q 103.22 935.00 102.46 934.09
  Q 98.72 929.62 95.37 924.90
  Q 90.24 917.66 91.46 908.78
  Q 92.77 899.18 96.91 890.50
  A 0.66 0.65 -50.2 0 1 98.03 890.39
  L 110.21 907.58
  A 0.34 0.33 44.3 0 0 110.77 907.58
  Q 117.04 897.97 125.66 890.22
  A 0.60 0.60 49.5 0 1 126.53 890.29
  Q 127.52 891.49 127.67 892.43
  A 1.18 0.88 -33.0 0 1 127.35 893.30
  Q 119.95 901.17 113.88 910.11
  Q 112.42 912.25 114.58 911.91
  A 1.23 1.03 -73.6 0 0 115.34 911.40
  Q 121.09 902.88 128.28 895.47
  A 0.41 0.40 -33.3 0 1 128.95 895.60
  L 137.46 918.07
  A 0.73 0.70 60.7 0 1 137.25 918.89
  L 127.10 927.34
  Q 126.38 927.94 127.30 927.94
  L 166.08 928.00
  Q 167.88 928.00 166.44 926.90
  L 156.03 918.94
  A 2.63 2.40 -83.5 0 1 155.19 917.78
  L 140.99 879.48
  A 1.14 1.13 68.6 0 1 141.61 878.04
  Q 147.98 875.34 154.94 876.36
  Q 155.43 876.43 155.21 875.99
  Q 151.39 868.51 149.06 860.43
  A 0.40 0.40 -28.3 0 0 148.42 860.24
  L 142.70 865.18
  A 0.56 0.55 59.4 0 1 141.82 864.95
  L 130.92 835.96
  A 0.89 0.87 -37.2 0 1 131.05 835.10
  Q 132.44 833.29 137.69 827.19
  Q 139.71 824.83 136.74 825.18
  A 1.42 1.08 -66.8 0 0 135.93 825.64
  L 128.70 833.92
  A 1.74 1.67 -35.0 0 0 128.36 835.64
  Q 133.66 849.83 138.79 863.52
  Q 139.65 865.81 139.66 865.98
  Q 139.82 867.61 137.31 868.18
  A 0.61 0.60 73.0 0 1 136.62 867.81
  L 123.80 833.98
  A 1.41 1.41 -33.8 0 1 124.09 832.52
  L 131.03 825.02
  Q 131.97 824.00 130.58 824.00
  L 95.31 824.06
  Q 94.76 824.06 95.13 824.46
  L 102.38 832.40
  A 0.89 0.77 35.1 0 1 102.59 833.23
  L 92.16 862.47
  A 0.60 0.59 31.2 0 1 91.19 862.70
  Q 88.55 860.27 85.60 858.11
  Q 85.52 858.05 84.82 857.48
  Q 83.16 856.12 82.45 858.21
  A 0.79 0.68 31.3 0 0 82.71 859.00
  L 90.14 865.40
  A 0.84 0.71 32.6 0 1 90.40 866.24
  L 89.47 868.74
  A 0.41 0.39 30.8 0 1 88.83 868.88
  L 80.17 861.40
  A 0.38 0.36 -56.3 0 0 79.61 861.53
  L 73.13 874.47
  A 0.39 0.37 -73.2 0 0 73.41 875.02
  Q 78.99 875.67 84.53 878.80
  A 0.85 0.85 21.8 0 1 84.94 879.75
  Q 81.20 894.35 73.69 907.69
  Q 66.11 921.16 54.01 927.46
  Q 53.57 927.69 54.06 927.70
  Q 72.03 928.23 90.00 928.00
  Q 92.63 927.97 93.54 927.50"
/>
<path stroke="#918f90" vector-effect="non-scaling-stroke" d="
  M 94.21 927.25
  Q 86.52 918.06 89.50 905.75
  Q 91.94 895.66 95.06 888.21
  A 0.93 0.65 -59.5 0 0 94.99 887.33
  L 92.14 884.25
  A 0.31 0.27 -57.4 0 0 91.66 884.39
  Q 87.61 894.61 85.25 904.75
  Q 82.47 916.69 90.37 924.38
  Q 91.97 925.93 93.54 927.50"
/>
<path stroke="#918f90" vector-effect="non-scaling-stroke" d="
  M 214.44 921.72
  L 211.56 921.72
  A 0.54 0.50 -90.0 0 1 211.06 921.18
  L 211.00 835.29
  A 1.31 1.15 71.3 0 1 211.38 834.37
  L 221.46 824.97
  Q 222.50 824.00 221.10 824.00
  L 184.46 824.00
  Q 183.30 824.00 184.18 824.80
  L 194.40 834.13
  A 1.24 1.04 -72.1 0 1 194.75 834.99
  L 194.69 917.93
  A 1.15 0.92 74.5 0 1 194.33 918.77
  L 184.34 927.01
  Q 183.45 927.74 184.57 927.76
  Q 224.02 928.18 264.03 928.00
  Q 264.65 928.00 265.97 928.10
  Q 269.41 928.35 267.50 926.53
  Q 266.68 925.74 266.30 925.18
  Q 257.98 912.73 253.10 898.54
  Q 252.94 898.07 252.82 898.56
  Q 250.93 906.71 248.69 910.44
  Q 245.20 916.23 240.44 918.69
  Q 233.14 922.44 223.49 921.90
  Q 220.75 921.75 217.81 921.75
  A 0.56 0.56 -0.2 0 1 217.25 921.19
  L 217.25 836.99
  A 1.27 1.09 70.6 0 1 217.58 836.14
  L 224.64 829.08
  A 0.99 0.78 -32.2 0 0 224.94 828.25
  Q 224.79 827.53 224.23 827.09
  A 0.63 0.55 -47.1 0 0 223.45 827.17
  L 215.50 835.12
  A 1.74 1.70 68.0 0 0 215.00 836.34
  L 214.94 921.19
  A 0.53 0.50 90.0 0 1 214.44 921.72"
/>
<path stroke="#ffffff" vector-effect="non-scaling-stroke" d="
  M 457.54 927.50
  Q 457.83 927.24 458.21 927.25"
/>
<path stroke="#918f90" vector-effect="non-scaling-stroke" d="
  M 458.21 927.25
  L 462.15 932.22
  Q 462.77 933.01 461.78 933.01
  L 422.24 933.24
  A 0.43 0.41 -6.4 0 0 421.82 933.75
  Q 422.09 934.93 423.31 934.94
  Q 444.91 935.05 466.49 935.00
  Q 467.05 935.00 466.69 934.57
  Q 463.00 930.09 459.72 925.32
  Q 456.75 921.00 455.81 917.58
  Q 454.56 913.04 455.25 908.75
  Q 456.81 899.09 460.85 890.58
  A 0.69 0.68 -50.1 0 1 462.03 890.46
  L 474.18 907.75
  A 0.34 0.34 43.8 0 0 474.74 907.74
  Q 481.18 897.71 489.87 890.08
  A 0.52 0.50 -40.7 0 1 490.60 890.12
  Q 491.47 891.13 491.65 892.45
  A 1.17 0.95 -31.1 0 1 491.34 893.31
  Q 483.92 901.16 477.88 910.10
  Q 477.50 910.65 477.45 911.10
  Q 477.31 912.24 478.54 911.91
  A 1.56 1.09 -72.8 0 0 479.29 911.33
  Q 485.03 902.91 492.36 895.51
  A 0.37 0.37 56.8 0 1 492.97 895.64
  L 501.54 918.14
  A 0.59 0.56 59.9 0 1 501.38 918.80
  L 491.73 926.85
  Q 490.35 928.00 492.12 928.00
  L 530.46 927.94
  Q 531.72 927.93 530.72 927.17
  L 519.96 918.98
  A 1.82 1.66 10.9 0 1 519.39 918.22
  L 505.11 879.61
  A 1.36 1.35 -21.0 0 1 505.88 877.88
  Q 511.79 875.56 518.96 876.36
  Q 519.47 876.41 519.24 875.95
  Q 515.39 868.54 513.13 860.58
  A 0.57 0.51 -28.1 0 0 512.26 860.36
  L 506.43 865.00
  A 0.43 0.38 60.8 0 1 505.81 864.79
  L 494.91 835.72
  A 0.86 0.85 -34.6 0 1 495.07 834.87
  L 502.11 826.56
  A 0.97 0.72 -38.9 0 0 502.33 825.70
  Q 502.07 825.04 501.24 824.98
  A 1.12 0.95 -64.8 0 0 500.40 825.36
  L 492.71 834.07
  A 1.91 1.75 56.6 0 0 492.41 835.95
  L 503.76 866.22
  A 0.73 0.59 64.3 0 1 503.57 867.03
  L 501.47 868.36
  A 0.55 0.49 64.2 0 1 500.72 868.05
  L 487.80 833.97
  A 1.40 1.38 -34.1 0 1 488.09 832.52
  L 495.07 824.98
  Q 495.97 824.00 494.63 824.00
  L 458.99 824.00
  Q 458.40 824.00 458.81 824.43
  L 466.59 832.69
  A 0.82 0.82 -56.5 0 1 466.76 833.54
  L 456.13 862.39
  A 0.57 0.57 30.9 0 1 455.21 862.62
  Q 452.56 860.29 449.44 857.78
  Q 447.24 856.02 446.46 858.22
  A 0.73 0.66 30.6 0 0 446.70 859.00
  Q 449.58 861.29 452.32 863.75
  Q 452.40 863.82 453.40 864.51
  Q 455.18 865.76 453.33 868.53
  A 0.53 0.52 -53.2 0 1 452.55 868.65
  L 444.17 861.40
  A 0.36 0.35 -56.4 0 0 443.62 861.52
  L 437.10 874.42
  A 0.39 0.37 -72.7 0 0 437.37 874.98
  Q 443.29 875.74 448.73 878.93
  A 0.57 0.56 -68.1 0 1 448.99 879.55
  Q 444.70 896.50 435.49 911.21
  Q 431.79 917.13 428.07 920.50
  Q 423.63 924.54 418.08 927.24
  Q 417.06 927.73 418.19 927.76
  Q 436.00 928.19 454.25 928.00
  Q 456.69 927.98 457.54 927.50"
/>
<path stroke="#918f90" vector-effect="non-scaling-stroke" d="
  M 458.21 927.25
  Q 450.48 918.01 453.50 905.75
  Q 455.98 895.71 459.06 887.97
  A 0.91 0.67 -60.2 0 0 458.96 887.09
  L 456.22 884.35
  A 0.40 0.35 -57.7 0 0 455.62 884.53
  Q 453.21 890.53 451.38 896.71
  Q 448.48 906.46 448.30 909.20
  Q 447.83 916.45 452.97 922.53
  Q 455.16 925.11 457.54 927.50"
/>
<path stroke="#ffffff" vector-effect="non-scaling-stroke" d="
  M 701.54 927.50
  Q 701.83 927.24 702.21 927.25"
/>
<path stroke="#918f90" vector-effect="non-scaling-stroke" d="
  M 702.21 927.25
  L 705.89 931.87
  Q 706.80 933.00 705.40 933.00
  L 667.00 933.00
  Q 663.13 933.00 666.50 934.50
  Q 668.16 935.24 670.00 935.22
  Q 690.00 935.00 710.04 935.00
  Q 711.22 935.00 710.46 934.09
  Q 707.03 929.95 703.86 925.66
  Q 697.38 916.86 699.69 905.99
  Q 701.35 898.18 704.89 890.50
  Q 705.35 889.51 705.96 890.38
  L 718.18 907.80
  A 0.33 0.32 44.3 0 0 718.72 907.80
  Q 725.03 897.80 733.88 890.07
  A 0.51 0.50 -40.7 0 1 734.60 890.12
  Q 735.47 891.13 735.65 892.45
  A 1.14 0.94 -30.4 0 1 735.34 893.30
  Q 726.72 902.37 721.56 910.56
  Q 720.50 912.25 722.44 912.02
  A 1.19 1.05 -74.0 0 0 723.22 911.52
  Q 728.91 903.06 736.38 895.49
  A 0.34 0.34 -33.1 0 1 736.95 895.61
  L 745.56 918.17
  A 0.54 0.53 59.6 0 1 745.41 918.76
  L 735.63 926.92
  Q 734.33 928.00 736.00 928.00
  L 774.57 927.94
  Q 775.80 927.94 774.82 927.19
  L 763.96 918.99
  A 1.75 1.71 9.5 0 1 763.39 918.21
  L 749.14 879.68
  A 1.44 1.43 -21.1 0 1 749.96 877.85
  Q 755.79 875.56 762.94 876.35
  Q 763.45 876.41 763.22 875.95
  Q 759.45 868.32 756.97 860.67
  A 0.37 0.35 61.8 0 0 756.41 860.48
  L 750.81 865.09
  A 0.73 0.69 -30.5 0 1 749.69 864.83
  L 738.84 836.07
  A 1.33 1.28 -35.8 0 1 739.08 834.76
  L 746.18 826.38
  A 0.63 0.58 -45.5 0 0 746.20 825.59
  Q 745.56 824.87 744.75 825.11
  Q 744.19 825.27 743.47 826.15
  Q 740.16 830.23 736.64 833.98
  A 1.67 1.61 56.9 0 0 736.31 835.68
  L 747.58 866.03
  A 0.96 0.87 54.1 0 1 747.48 866.91
  Q 746.67 868.02 745.30 868.35
  A 0.60 0.56 73.4 0 1 744.64 867.96
  L 731.71 833.63
  A 0.82 0.82 -34.5 0 1 731.87 832.77
  L 739.01 825.09
  Q 740.03 824.00 738.54 824.00
  L 703.16 824.00
  Q 702.43 824.00 702.93 824.52
  L 710.40 832.26
  A 1.17 1.09 33.8 0 1 710.68 833.44
  L 700.18 862.47
  A 0.62 0.59 29.6 0 1 699.23 862.71
  L 692.17 857.09
  A 0.72 0.66 -42.3 0 0 691.33 857.09
  Q 689.67 858.25 690.82 859.09
  Q 691.47 859.57 691.51 859.60
  Q 694.40 862.16 697.48 864.51
  Q 699.32 865.91 697.81 867.81
  A 1.41 0.59 -51.4 0 1 696.44 868.56
  L 688.22 861.35
  A 0.37 0.37 -55.7 0 0 687.64 861.46
  L 681.19 874.37
  A 0.37 0.34 -71.1 0 0 681.42 874.89
  Q 686.85 875.82 692.25 878.60
  A 1.24 1.23 21.3 0 1 692.88 880.02
  Q 688.02 898.21 677.91 913.46
  Q 671.94 922.48 662.58 927.00
  Q 660.66 927.93 662.80 927.94
  Q 681.66 928.05 700.50 927.98
  Q 701.13 927.98 701.54 927.50"
/>
<path stroke="#918f90" vector-effect="non-scaling-stroke" d="
  M 702.21 927.25
  Q 694.52 918.06 697.50 905.75
  Q 699.94 895.66 703.06 888.21
  A 0.93 0.65 -59.5 0 0 702.99 887.33
  L 700.14 884.25
  A 0.31 0.27 -57.4 0 0 699.66 884.39
  Q 695.61 894.61 693.25 904.75
  Q 690.47 916.69 698.37 924.38
  Q 699.97 925.93 701.54 927.50"
/>
<path stroke="#918f90" vector-effect="non-scaling-stroke" d="
  M 779.70 930.42
  Q 780.51 931.22 781.52 931.86
  Q 783.30 932.99 781.19 933.00
  L 740.26 933.24
  A 0.45 0.43 -5.2 0 0 739.81 933.75
  Q 740.05 934.98 741.25 935.00
  Q 763.66 935.31 831.69 935.19
  Q 832.19 935.19 831.90 934.79
  Q 829.39 931.33 826.29 928.44
  Q 824.84 927.10 822.10 925.99
  Q 811.85 921.86 809.57 910.87
  Q 809.31 909.59 809.16 907.11
  Q 809.05 905.21 808.85 903.31
  Q 808.50 900.00 808.49 897.67
  Q 808.39 869.79 808.31 842.91
  Q 808.31 840.67 809.31 842.68
  Q 810.51 845.09 811.78 847.47
  Q 812.75 849.27 812.73 851.29
  Q 812.67 859.20 812.81 867.10
  Q 812.94 874.40 812.79 882.91
  Q 812.59 894.83 813.04 906.75
  Q 813.19 910.82 814.21 914.76
  Q 815.96 921.57 822.01 925.03
  Q 824.43 926.42 823.30 924.97
  Q 823.10 924.72 822.77 924.46
  Q 818.57 921.16 816.96 916.01
  Q 814.82 909.13 815.04 901.97
  Q 815.19 897.23 815.19 897.15
  Q 815.25 875.98 815.31 854.89
  Q 815.31 854.09 815.68 854.80
  L 853.25 927.44
  A 1.04 1.04 76.3 0 0 854.17 928.00
  L 866.57 928.00
  A 0.68 0.68 0.0 0 0 867.25 927.32
  Q 867.19 901.74 867.43 876.02
  Q 867.43 875.82 867.34 862.48
  Q 867.30 855.70 867.70 848.94
  Q 868.27 839.22 870.49 834.93
  Q 874.00 828.13 882.03 825.07
  Q 883.18 824.63 882.50 824.22
  Q 882.25 824.06 881.84 824.06
  Q 865.08 823.91 848.29 824.06
  Q 845.94 824.09 848.10 825.01
  Q 855.70 828.25 858.59 835.56
  Q 860.00 839.14 860.00 846.63
  Q 860.00 869.19 860.00 891.76
  Q 860.00 893.65 859.14 891.97
  L 829.48 833.94
  A 0.61 0.56 59.3 0 1 829.64 833.19
  L 838.76 826.94
  A 0.63 0.51 -31.4 0 0 839.01 826.23
  Q 838.66 825.53 837.96 825.18
  A 0.99 0.77 -45.2 0 0 837.08 825.29
  L 826.73 832.27
  A 0.58 0.57 60.2 0 0 826.53 833.01
  Q 842.49 864.16 858.44 894.96
  Q 859.87 897.72 860.01 900.35
  Q 860.18 903.33 859.87 906.08
  Q 859.74 907.19 859.23 906.20
  L 821.19 832.20
  A 1.11 1.11 60.4 0 1 821.59 830.75
  L 830.70 825.05
  Q 832.39 824.00 830.40 824.00
  L 791.79 824.06
  Q 790.96 824.06 791.62 824.59
  L 801.30 832.24
  A 1.06 0.99 -72.4 0 1 801.69 833.06
  Q 801.80 864.91 801.97 896.75
  Q 802.02 905.34 800.75 911.75
  Q 798.29 924.15 785.75 927.75
  Q 785.50 927.83 785.49 927.98
  A 0.31 0.19 1.5 0 0 785.81 928.19
  L 823.19 928.31
  A 1.19 0.83 63.2 0 1 823.97 928.73
  L 826.45 931.57
  Q 827.69 933.00 825.89 933.00
  L 788.00 933.00
  Q 787.66 933.00 787.10 933.30
  Q 786.48 933.63 785.91 933.10
  Q 778.53 926.20 771.09 919.70
  Q 769.97 918.71 769.44 917.33
  L 756.69 883.59
  A 0.43 0.42 80.5 0 1 757.10 883.00
  L 772.66 883.76
  Q 773.16 883.79 772.91 883.36
  Q 767.52 873.98 764.06 863.94
  Q 763.67 862.78 762.06 862.60
  A 0.35 0.33 84.1 0 0 761.71 863.05
  Q 764.30 871.61 769.02 880.29
  A 0.48 0.48 75.6 0 1 768.60 881.00
  L 754.22 881.00
  A 0.60 0.60 -10.4 0 0 753.66 881.81
  Q 760.39 899.88 767.10 917.19
  Q 768.01 919.53 769.78 921.22
  Q 773.83 925.11 778.06 928.80
  Q 778.20 928.92 779.70 930.42"
/>
<path stroke="#918f90" vector-effect="non-scaling-stroke" d="
  M 928.26 926.43
  Q 924.25 923.99 920.03 919.95
  A 2.59 2.53 -68.5 0 1 919.25 918.10
  L 919.06 836.57
  Q 919.06 834.84 920.13 833.79
  L 929.44 824.72
  Q 930.12 824.06 929.19 824.06
  L 892.77 824.00
  Q 891.18 824.00 892.41 825.07
  L 902.33 833.71
  A 1.20 0.95 -74.0 0 1 902.68 834.56
  L 902.69 917.95
  A 1.10 0.98 72.5 0 1 902.32 918.77
  L 892.24 927.12
  Q 891.50 927.73 892.45 927.76
  Q 910.15 928.33 928.68 927.80
  A 1.86 1.82 -21.6 0 1 930.08 928.39
  L 933.42 932.02
  Q 934.32 933.00 932.99 933.00
  L 896.50 933.00
  Q 893.41 933.00 896.06 934.44
  Q 897.39 935.16 898.90 935.07
  Q 900.01 935.00 900.11 935.00
  Q 918.81 935.00 937.79 935.00
  Q 939.28 935.00 938.29 933.88
  L 925.63 919.56
  A 1.36 1.24 -67.7 0 1 925.31 918.69
  L 925.25 837.49
  A 2.13 2.10 -23.1 0 1 925.86 836.01
  Q 929.69 832.19 932.83 829.34
  Q 934.30 828.01 932.61 826.97
  A 0.64 0.64 -51.4 0 0 931.82 827.06
  L 923.50 835.38
  A 1.71 1.69 -22.8 0 0 923.00 836.58
  Q 923.00 876.58 923.00 916.16
  Q 923.00 916.25 922.89 917.83
  Q 922.73 920.08 924.25 921.75
  Q 926.32 924.02 928.36 926.32
  Q 928.70 926.70 928.26 926.43"
/>
<path stroke="#918f90" vector-effect="non-scaling-stroke" d="
  M 871.20 932.94
  Q 864.47 933.05 857.75 933.10
  Q 854.40 933.12 856.52 934.59
  Q 857.02 934.94 857.72 934.95
  Q 865.81 935.09 873.31 934.95
  A 0.75 0.75 -0.4 0 0 874.04 934.21
  Q 874.39 889.72 874.04 848.50
  Q 873.98 841.67 876.06 838.06
  Q 878.53 833.80 884.25 832.25
  Q 885.43 831.93 886.03 830.29
  A 0.34 0.34 7.7 0 0 885.68 829.84
  Q 879.30 830.33 875.81 834.59
  Q 873.27 837.71 872.42 844.12
  Q 871.69 849.59 871.75 856.25
  Q 871.87 869.70 871.69 932.44
  A 0.50 0.49 -90.0 0 1 871.20 932.94"
/>
<path stroke="#8f8e8e" vector-effect="non-scaling-stroke" d="
  M 173.70 932.94
  L 132.24 933.00
  Q 130.93 933.00 131.83 933.95
  Q 133.00 935.19 134.75 935.18
  Q 157.00 935.00 179.07 935.00
  Q 180.22 935.00 179.36 934.23
  L 162.97 919.56
  Q 161.83 918.54 161.26 917.02
  L 148.56 883.41
  A 0.31 0.30 80.8 0 1 148.85 882.99
  L 164.71 883.77
  Q 165.21 883.79 164.96 883.37
  Q 159.60 874.15 156.24 864.46
  Q 155.94 863.59 155.45 863.25
  Q 154.91 862.88 154.08 862.62
  Q 153.59 862.47 153.74 862.96
  Q 156.35 871.85 161.11 880.47
  A 0.36 0.36 -14.2 0 1 160.79 881.00
  L 146.39 881.00
  A 0.75 0.75 -10.3 0 0 145.69 882.01
  L 159.55 918.57
  Q 159.96 919.63 160.92 920.53
  L 173.83 932.58
  Q 174.22 932.94 173.70 932.94"
/>
<path stroke="#8f8e8e" vector-effect="non-scaling-stroke" d="
  M 531.29 926.47
  Q 534.13 929.13 537.70 931.97
  Q 539.00 933.00 537.34 933.00
  L 496.44 933.06
  Q 494.66 933.06 496.05 934.18
  Q 497.25 935.14 498.78 935.05
  Q 499.65 935.00 499.74 935.00
  Q 521.49 935.00 543.02 935.00
  Q 544.24 935.00 543.32 934.20
  Q 536.09 927.87 529.03 921.35
  Q 528.99 921.32 527.80 920.33
  Q 525.97 918.81 525.00 916.25
  Q 518.79 899.88 512.68 883.47
  A 0.34 0.33 80.2 0 1 513.00 883.01
  L 528.44 883.65
  Q 528.93 883.67 528.70 883.25
  Q 524.40 875.37 520.06 863.94
  Q 519.61 862.75 518.25 862.72
  A 0.41 0.38 82.6 0 0 517.88 863.24
  Q 520.31 872.29 525.00 880.00
  Q 525.61 881.00 524.44 881.00
  L 510.31 881.00
  A 0.71 0.71 79.7 0 0 509.65 881.96
  Q 516.34 899.67 523.13 917.24
  Q 524.00 919.51 525.74 921.19
  Q 528.49 923.85 531.29 926.47"
/>
<path stroke="#8f8e8e" vector-effect="non-scaling-stroke" d="
  M 320.78 934.62
  A 2.29 2.26 -27.8 0 0 322.04 935.00
  Q 350.25 935.00 378.25 935.00
  Q 386.71 935.00 394.27 932.04
  Q 402.16 928.94 407.17 922.84
  Q 416.12 911.90 413.25 896.50
  Q 411.80 888.72 405.63 883.09
  A 0.74 0.63 48.7 0 0 404.80 882.97
  Q 403.99 883.46 404.72 884.18
  Q 405.40 884.85 405.54 885.06
  Q 416.31 900.49 408.53 916.50
  Q 406.32 921.04 402.94 924.20
  Q 399.34 927.56 394.90 929.58
  Q 390.14 931.74 381.28 932.48
  Q 374.29 933.07 367.25 933.05
  Q 344.25 933.00 321.25 933.09
  Q 318.46 933.10 320.78 934.62"
/>
<path stroke="#8f8e8e" vector-effect="non-scaling-stroke" d="
  M 271.44 932.94
  L 186.90 933.00
  Q 185.55 933.00 186.45 934.01
  Q 187.56 935.24 189.64 935.11
  Q 191.26 935.00 191.37 935.00
  Q 231.90 935.05 272.44 934.94
  A 0.80 0.80 -76.9 0 0 273.16 934.49
  L 276.44 927.88
  A 0.85 0.84 -50.8 0 0 276.36 927.00
  Q 268.39 916.34 263.03 904.24
  Q 262.35 902.69 260.18 902.20
  Q 259.68 902.09 259.88 902.56
  Q 265.41 916.05 273.88 926.92
  A 0.94 0.80 39.2 0 1 274.04 927.79
  L 272.17 932.49
  A 0.81 0.71 9.5 0 1 271.44 932.94"
/>
<path stroke="#80b89e" vector-effect="non-scaling-stroke" d="
  M 376.41 526.31
  L 756.37 526.31
  Q 757.19 526.31 756.73 525.63
  L 561.78 235.66
  A 0.46 0.46 43.9 0 0 561.01 235.67
  L 376.17 525.87
  Q 375.89 526.31 376.41 526.31"
/>
<path stroke="#918f90" vector-effect="non-scaling-stroke" d="
  M 560.01 269.94
  L 402.86 515.63
  Q 402.46 516.25 403.20 516.25
  L 726.26 516.25
  Q 727.03 516.25 726.60 515.61
  L 560.72 269.93
  A 0.42 0.42 -45.7 0 0 560.01 269.94"
/>
<path stroke="#918f90" vector-effect="non-scaling-stroke" d="
  M 457.44 503.18
  Q 578.22 503.64 700.24 503.50
  Q 701.65 503.50 700.87 502.33
  L 561.32 294.45
  A 0.33 0.32 44.3 0 0 560.78 294.45
  L 428.31 502.63
  Q 427.73 503.55 428.82 503.52
  Q 443.47 503.13 457.44 503.18"
/>
<path stroke="#918f90" vector-effect="non-scaling-stroke" d="
  M 567.83 717.79
  Q 566.03 721.51 563.69 723.19
  Q 558.33 727.03 557.04 732.33
  A 0.42 0.41 -83.9 0 0 557.44 732.84
  L 572.00 732.79
  A 0.55 0.51 89.5 0 0 572.50 732.24
  L 572.50 713.75
  Q 572.50 712.65 571.60 713.28
  Q 570.45 714.08 569.38 715.28
  Q 568.64 716.11 567.83 717.79"
/>
<path stroke="#918f90" vector-effect="non-scaling-stroke" d="
  M 380.73 845.49
  Q 379.44 844.92 379.06 844.44
  Q 371.93 835.14 359.98 836.02
  Q 355.46 836.35 350.91 838.71
  A 0.89 0.88 -14.1 0 0 350.44 839.49
  L 350.50 869.25
  A 0.53 0.53 1.7 0 0 351.00 869.78
  Q 357.87 870.18 364.59 869.14
  Q 372.97 867.83 377.49 864.19
  Q 382.64 860.04 384.01 853.34
  Q 385.24 847.34 383.05 841.33
  Q 378.90 829.89 365.50 828.25
  Q 354.45 826.90 344.48 833.29
  A 0.94 0.91 74.0 0 0 344.06 834.07
  L 344.00 869.49
  A 0.52 0.51 0.0 0 0 344.52 870.00
  L 347.49 870.00
  A 0.52 0.51 90.0 0 0 348.00 869.48
  L 348.06 837.56
  A 0.77 0.76 78.2 0 1 348.51 836.86
  Q 359.31 832.07 370.00 835.00
  Q 377.87 837.16 381.01 845.21
  Q 381.20 845.70 380.73 845.49"
/>
<path stroke="#918f90" vector-effect="non-scaling-stroke" d="
  M 385.13 893.66
  Q 384.98 893.64 384.84 893.58
  Q 384.60 893.49 384.39 893.20
  Q 381.46 889.12 377.29 886.70
  Q 373.83 884.69 368.35 883.88
  Q 360.18 882.67 351.29 883.60
  A 0.89 0.88 87.1 0 0 350.50 884.48
  L 350.50 921.17
  A 0.54 0.54 1.1 0 0 351.02 921.71
  Q 361.35 922.12 370.56 920.56
  Q 378.99 919.13 383.47 913.16
  Q 387.47 907.85 387.82 900.01
  Q 388.10 893.67 385.50 887.79
  Q 383.76 883.86 380.95 881.50
  Q 377.75 878.83 373.75 878.00
  Q 359.96 875.13 344.89 876.80
  A 1.01 1.00 86.8 0 0 344.00 877.80
  Q 344.00 899.01 344.00 919.29
  Q 344.00 919.39 343.87 920.69
  Q 343.72 922.23 345.21 922.14
  Q 346.02 922.08 346.80 922.14
  Q 348.24 922.24 348.10 920.82
  Q 348.00 919.75 348.00 919.67
  Q 348.00 901.45 348.00 882.40
  A 0.63 0.62 85.7 0 1 348.53 881.78
  Q 360.22 879.90 372.00 882.50
  Q 382.01 884.71 385.33 893.41
  Q 385.45 893.72 385.13 893.66"
/>
<path stroke="#918f90" vector-effect="non-scaling-stroke" d="
  M 100.31 874.70
  A 0.98 0.98 -58.6 0 1 100.05 873.62
  L 110.07 847.22
  A 1.49 1.21 -48.5 0 0 110.11 846.26
  L 108.29 841.00
  Q 108.08 840.39 107.85 841.01
  L 95.43 873.79
  A 0.88 0.83 36.4 0 0 95.58 874.63
  L 109.94 892.35
  A 0.56 0.44 48.3 0 0 110.67 892.48
  L 112.73 890.42
  A 0.77 0.58 53.5 0 0 112.74 889.57
  Q 107.66 881.41 100.31 874.70"
/>
<path stroke="#918f90" vector-effect="non-scaling-stroke" d="
  M 111.43 850.95
  L 103.24 872.53
  A 1.61 1.59 34.2 0 0 103.56 874.18
  Q 109.43 880.54 114.24 887.64
  A 0.62 0.57 -40.9 0 0 115.17 887.67
  L 122.18 880.22
  A 1.52 1.34 -35.3 0 0 122.53 878.74
  L 112.14 850.95
  Q 111.79 850.02 111.43 850.95"
/>
<path stroke="#918f90" vector-effect="non-scaling-stroke" d="
  M 464.31 874.70
  A 0.98 0.98 -58.6 0 1 464.05 873.62
  L 474.08 846.97
  A 1.47 1.34 47.5 0 0 474.08 846.02
  L 472.34 841.04
  Q 472.10 840.35 471.84 841.04
  L 459.43 873.79
  A 0.88 0.83 36.4 0 0 459.58 874.63
  L 473.94 892.35
  A 0.56 0.44 48.3 0 0 474.67 892.48
  L 476.73 890.42
  A 0.77 0.58 53.5 0 0 476.74 889.57
  Q 471.67 881.41 464.31 874.70"
/>
<path stroke="#918f90" vector-effect="non-scaling-stroke" d="
  M 475.40 851.03
  L 467.17 872.71
  A 1.31 1.29 33.9 0 0 467.45 874.07
  Q 473.31 880.30 478.05 887.41
  A 0.71 0.70 -40.2 0 0 479.15 887.50
  L 486.40 879.86
  A 0.82 0.79 -34.0 0 0 486.58 879.03
  L 476.16 851.03
  Q 475.78 850.02 475.40 851.03"
/>
<path stroke="#918f90" vector-effect="non-scaling-stroke" d="
  M 708.31 874.70
  A 0.98 0.98 -58.6 0 1 708.05 873.62
  L 718.07 847.22
  A 1.49 1.21 -48.5 0 0 718.11 846.26
  L 716.29 841.00
  Q 716.08 840.39 715.85 841.01
  L 703.44 873.78
  A 1.01 0.98 36.1 0 0 703.61 874.76
  L 717.94 892.35
  A 0.56 0.44 48.3 0 0 718.67 892.48
  L 720.73 890.42
  A 0.77 0.58 53.5 0 0 720.74 889.57
  Q 715.66 881.41 708.31 874.70"
/>
<path stroke="#918f90" vector-effect="non-scaling-stroke" d="
  M 719.62 850.48
  L 711.24 872.53
  A 1.61 1.59 34.2 0 0 711.56 874.18
  Q 717.43 880.54 722.24 887.64
  A 0.62 0.57 -40.9 0 0 723.17 887.67
  L 730.24 880.16
  A 1.38 1.21 -35.2 0 0 730.56 878.83
  L 720.00 850.48
  Q 719.81 849.97 719.62 850.48"
/>
</g>
<path fill="#ffffff" d="
  M 0.00 0.00
  L 1021.00 0.00
  L 1021.00 947.00
  L 0.00 947.00
  L 0.00 0.00
  Z
  M 603.83 168.51
  L 632.54 122.73
  A 0.89 0.87 -72.7 0 1 633.30 122.32
  Q 662.65 122.53 692.00 122.43
  Q 740.50 122.25 789.00 122.25
  A 0.50 0.49 -0.0 0 0 789.50 121.76
  L 789.50 88.50
  A 0.50 0.50 0.0 0 0 789.00 88.00
  L 614.64 88.00
  A 0.93 0.92 15.6 0 0 613.85 88.44
  L 560.95 172.00
  A 0.38 0.38 -45.8 0 1 560.32 172.01
  L 504.19 88.57
  A 0.41 0.41 -45.0 0 0 503.51 88.57
  L 192.18 557.14
  Q 191.89 557.57 192.41 557.57
  L 231.94 557.44
  A 0.95 0.92 -73.0 0 0 232.72 557.01
  L 503.55 150.39
  A 0.59 0.59 -45.7 0 1 504.53 150.39
  L 540.30 203.55
  A 0.80 0.78 44.3 0 1 540.32 204.41
  L 315.82 557.02
  Q 315.51 557.50 316.08 557.50
  L 818.71 557.50
  Q 819.40 557.50 819.01 556.93
  L 581.62 203.68
  Q 581.33 203.25 581.85 203.25
  L 729.68 203.19
  A 0.51 0.50 -0.0 0 0 730.19 202.69
  L 730.25 169.37
  A 0.38 0.37 -0.0 0 0 729.87 169.00
  L 604.06 168.94
  Q 603.56 168.94 603.83 168.51
  Z
  M 508.29 201.41
  L 520.22 219.09
  A 0.34 0.34 44.7 0 0 520.79 219.09
  L 527.49 208.68
  A 0.80 0.79 44.7 0 0 527.48 207.82
  L 508.10 178.97
  A 0.35 0.34 -45.2 0 0 507.53 178.98
  L 254.31 556.82
  Q 253.86 557.48 254.65 557.47
  L 269.81 557.34
  A 1.00 0.94 -72.4 0 0 270.59 556.90
  L 507.72 201.41
  A 0.35 0.34 44.7 0 1 508.29 201.41
  Z
  M 500.57 644.64
  Q 502.43 646.31 502.44 648.81
  Q 502.55 698.41 502.50 748.49
  A 0.51 0.51 0.0 0 0 503.01 749.00
  L 516.00 749.00
  A 0.50 0.50 0.0 0 0 516.50 748.50
  Q 516.50 679.50 516.30 610.50
  Q 516.30 608.03 514.26 609.49
  A 1.37 1.33 -10.4 0 0 513.76 610.19
  Q 511.86 616.39 510.13 618.65
  Q 507.48 622.11 505.68 626.08
  Q 504.52 628.64 505.45 631.11
  Q 506.30 633.40 504.01 634.25
  Q 499.93 635.76 496.04 637.64
  Q 491.33 639.92 491.94 644.74
  Q 492.21 646.92 494.17 645.94
  Q 496.82 644.63 499.70 644.35
  A 1.12 1.12 64.7 0 1 500.57 644.64
  Z
  M 930.57 644.63
  Q 932.43 646.29 932.44 648.81
  Q 932.55 698.41 932.50 748.48
  A 0.52 0.52 0.0 0 0 933.02 749.00
  L 945.99 749.00
  A 0.51 0.51 0.0 0 0 946.50 748.49
  L 946.44 610.07
  A 0.89 0.78 -78.1 0 0 946.01 609.31
  Q 944.18 608.38 943.56 610.56
  Q 941.48 617.93 937.24 623.21
  Q 934.17 627.02 935.50 631.76
  A 1.79 1.78 66.8 0 1 934.70 633.78
  Q 932.44 635.12 929.48 635.93
  Q 926.53 636.74 924.22 638.72
  Q 921.58 640.98 922.01 644.54
  Q 922.28 646.88 924.39 645.84
  Q 926.83 644.63 929.69 644.35
  A 1.18 1.12 -26.1 0 1 930.57 644.63
  Z
  M 753.06 732.44
  L 752.94 681.57
  A 1.43 1.15 -70.8 0 0 752.62 680.67
  Q 751.46 679.37 750.42 680.46
  Q 749.88 681.02 749.65 682.35
  Q 748.80 687.27 746.44 689.94
  Q 744.42 692.22 742.77 694.79
  Q 740.39 698.49 741.66 702.48
  Q 742.31 704.49 740.30 705.15
  Q 737.31 706.13 734.43 707.02
  Q 728.57 708.85 728.08 714.75
  Q 727.89 717.00 729.96 716.39
  L 734.74 714.99
  Q 736.94 714.35 737.81 716.35
  Q 738.97 719.02 738.88 722.25
  Q 738.75 726.75 738.75 731.87
  A 0.88 0.87 -90.0 0 1 737.88 732.75
  L 587.57 733.00
  A 0.57 0.57 0.0 0 1 587.00 732.43
  Q 587.00 708.00 587.00 683.50
  Q 587.00 681.56 586.04 679.63
  A 0.88 0.76 75.2 0 0 585.32 679.14
  Q 583.90 679.11 583.31 680.81
  Q 581.37 686.43 576.76 690.05
  Q 575.58 690.98 570.77 693.14
  Q 566.54 695.05 564.19 697.94
  Q 559.47 703.73 558.56 705.56
  Q 556.48 709.79 552.96 712.76
  Q 552.46 713.18 549.65 714.62
  Q 547.91 715.51 546.66 717.16
  Q 543.47 721.38 541.94 726.44
  Q 540.57 730.95 538.90 735.36
  Q 537.53 738.98 535.74 741.09
  Q 533.77 743.42 530.94 745.69
  Q 528.51 747.63 530.44 748.61
  Q 531.20 749.00 532.62 749.00
  Q 551.84 749.00 571.98 749.00
  A 0.70 0.69 0.4 0 1 572.68 749.70
  Q 572.65 757.06 569.56 764.13
  Q 567.05 769.86 562.69 772.94
  Q 555.36 778.10 545.49 778.63
  Q 539.38 778.95 533.25 778.78
  Q 528.95 778.66 530.17 781.48
  Q 530.76 782.85 532.28 783.59
  Q 534.73 784.79 538.50 785.25
  Q 551.13 786.79 561.06 784.82
  Q 573.34 782.37 580.10 772.95
  Q 583.34 768.43 585.13 761.90
  Q 586.78 755.93 586.99 749.77
  A 0.80 0.79 -88.9 0 1 587.78 749.00
  L 906.88 749.00
  A 0.37 0.37 0.0 0 0 907.25 748.63
  L 907.25 613.30
  Q 907.25 611.30 905.57 612.38
  Q 904.71 612.93 904.02 614.39
  Q 900.16 622.63 896.25 631.35
  A 2.88 2.84 2.1 0 1 894.57 632.89
  Q 889.27 634.72 885.03 637.82
  Q 881.54 640.36 881.74 643.43
  Q 881.90 646.12 884.42 645.16
  Q 889.39 643.26 891.51 645.80
  Q 892.75 647.28 892.75 651.50
  Q 892.77 691.53 892.75 732.36
  A 0.64 0.64 0.0 0 1 892.11 733.00
  L 753.57 732.94
  A 0.51 0.50 0.0 0 1 753.06 732.44
  Z
  M 79.94 738.45
  Q 77.30 738.58 74.78 739.25
  Q 72.91 739.76 70.28 741.68
  Q 65.98 744.80 61.50 745.75
  Q 57.49 746.60 60.10 748.70
  A 1.49 1.30 -22.4 0 0 60.99 749.00
  L 215.01 749.00
  Q 215.98 749.00 215.31 748.30
  Q 186.47 718.40 157.45 688.30
  Q 154.68 685.42 153.31 683.44
  Q 151.23 680.42 152.52 676.63
  Q 153.76 672.98 155.57 669.55
  A 0.67 0.67 36.3 0 1 156.64 669.39
  L 234.66 748.29
  A 2.43 2.41 67.4 0 0 236.37 749.00
  L 479.69 749.00
  A 0.56 0.56 0.0 0 0 480.25 748.44
  Q 480.25 713.00 480.25 677.75
  Q 480.25 676.22 479.09 676.75
  Q 478.61 676.98 478.28 677.60
  Q 474.50 684.73 471.18 691.82
  Q 470.37 693.55 470.50 695.45
  Q 470.75 699.20 467.81 701.31
  Q 465.97 702.64 460.79 705.58
  Q 457.43 707.49 456.50 711.25
  Q 455.61 714.82 458.94 713.44
  Q 466.19 710.43 466.09 718.25
  Q 466.00 725.13 466.00 732.45
  A 0.55 0.55 0.1 0 1 465.45 733.00
  L 239.75 733.00
  A 1.19 1.18 67.8 0 1 238.90 732.64
  L 150.29 640.66
  Q 148.99 639.31 148.93 641.19
  Q 148.65 649.82 144.51 657.67
  Q 140.98 664.38 137.76 671.26
  Q 134.02 679.24 136.73 686.41
  Q 138.18 690.23 144.68 697.03
  Q 161.64 714.76 179.22 732.21
  Q 179.81 732.81 178.97 732.82
  Q 138.68 733.31 98.08 732.79
  Q 94.31 732.74 92.60 731.77
  Q 89.98 730.28 88.93 727.05
  Q 88.19 724.78 86.26 726.17
  Q 82.56 728.83 81.27 733.38
  Q 81.09 734.04 80.96 735.66
  Q 80.88 736.82 80.58 737.95
  A 0.70 0.68 6.2 0 1 79.94 738.45
  Z
  M 480.40 656.66
  A 9.24 9.24 0.0 0 0 471.16 647.42
  A 9.24 9.24 0.0 0 0 461.92 656.66
  A 9.24 9.24 0.0 0 0 471.16 665.90
  A 9.24 9.24 0.0 0 0 480.40 656.66
  Z
  M 146.32 769.17
  A 8.80 8.80 0.0 0 0 137.52 760.37
  A 8.80 8.80 0.0 0 0 128.72 769.17
  A 8.80 8.80 0.0 0 0 137.52 777.97
  A 8.80 8.80 0.0 0 0 146.32 769.17
  Z
  M 167.84 769.17
  A 8.80 8.80 0.0 0 0 159.04 760.37
  A 8.80 8.80 0.0 0 0 150.24 769.17
  A 8.80 8.80 0.0 0 0 159.04 777.97
  A 8.80 8.80 0.0 0 0 167.84 769.17
  Z
  M 731.5548 779.9132
  A 9.50 9.21 83.2 0 0 739.5752 769.3895
  A 9.50 9.21 83.2 0 0 729.3052 761.0468
  A 9.50 9.21 83.2 0 0 721.2848 771.5705
  A 9.50 9.21 83.2 0 0 731.5548 779.9132
  Z
  M 591.75 927.29
  L 592.50 927.21
  L 597.09 932.44
  Q 597.58 933.00 596.82 933.00
  Q 578.75 933.00 560.75 932.80
  Q 557.89 932.76 559.64 934.29
  A 2.93 2.82 64.7 0 0 561.52 935.00
  L 601.03 934.94
  Q 602.13 934.94 601.43 934.08
  L 588.41 918.22
  A 1.00 0.97 -57.4 0 1 588.23 917.33
  L 601.74 868.34
  Q 602.09 867.04 602.46 868.34
  L 616.37 918.52
  A 0.82 0.76 63.7 0 1 616.13 919.33
  L 606.88 926.98
  Q 605.73 927.93 607.21 927.94
  Q 624.03 928.05 641.25 928.00
  Q 642.04 928.00 643.50 927.46
  L 647.58 932.34
  Q 648.13 933.00 647.25 933.00
  Q 629.50 933.00 611.50 932.99
  Q 608.83 932.99 610.72 934.40
  A 3.00 3.00 -27.0 0 0 612.52 935.00
  L 652.52 935.00
  Q 653.42 935.00 652.84 934.31
  L 638.06 916.88
  A 0.96 0.96 -57.8 0 1 637.86 915.99
  Q 643.90 893.45 650.13 871.22
  Q 650.15 871.17 653.16 860.12
  Q 658.19 841.74 663.56 829.56
  Q 670.12 814.72 680.77 802.07
  A 0.54 0.53 41.5 0 0 680.72 801.33
  Q 679.22 799.96 678.44 801.18
  Q 677.89 802.03 677.82 802.12
  Q 666.70 815.40 660.35 831.54
  Q 655.01 845.14 652.25 855.00
  Q 643.68 885.63 635.41 915.96
  A 2.87 2.60 34.7 0 0 635.98 918.41
  L 642.75 926.71
  Q 641.51 926.72 640.19 925.31
  Q 639.30 924.37 635.32 920.98
  Q 633.75 919.65 633.08 918.21
  Q 632.30 916.54 631.91 914.74
  Q 631.44 912.52 632.28 909.46
  Q 640.66 879.26 649.26 849.12
  Q 653.57 834.01 657.06 825.31
  Q 663.29 809.78 675.60 796.31
  A 1.15 0.95 -32.1 0 0 675.89 795.43
  Q 675.64 793.96 674.17 794.91
  Q 657.73 805.46 638.58 811.89
  Q 638.04 812.07 638.53 812.37
  Q 647.90 817.97 646.06 829.26
  Q 644.15 840.92 641.00 852.30
  Q 637.71 864.13 637.68 864.24
  Q 634.80 875.03 631.58 885.71
  Q 631.44 886.19 631.30 885.71
  Q 622.51 855.59 614.24 825.33
  Q 614.02 824.52 613.61 824.20
  Q 612.92 823.65 612.13 824.18
  A 0.78 0.67 66.7 0 0 611.88 824.98
  Q 620.64 856.57 629.50 888.13
  Q 630.25 890.78 629.73 893.03
  Q 629.05 895.98 627.78 898.74
  Q 627.56 899.20 627.43 898.71
  L 606.90 825.37
  A 1.69 1.45 80.7 0 0 605.42 824.13
  L 599.30 824.22
  A 0.78 0.62 -81.4 0 0 598.68 824.80
  L 581.66 885.70
  Q 581.36 886.76 581.07 885.71
  L 567.27 836.30
  A 0.93 0.92 -28.9 0 1 567.55 835.35
  L 573.32 830.27
  A 0.68 0.61 -35.9 0 0 573.49 829.48
  Q 573.10 828.76 572.36 828.71
  Q 571.73 828.66 570.96 829.34
  Q 568.13 831.85 565.16 834.44
  A 1.33 1.33 61.5 0 0 564.76 835.79
  Q 572.03 861.61 579.23 887.49
  Q 580.09 890.58 579.59 893.09
  Q 578.96 896.28 577.54 899.23
  Q 577.31 899.70 577.18 899.21
  L 559.09 834.80
  A 1.55 1.52 61.6 0 1 559.54 833.24
  L 568.91 825.00
  Q 570.05 824.00 568.55 824.00
  L 530.99 824.00
  Q 530.02 824.00 530.77 824.61
  L 541.80 833.50
  A 1.54 1.49 -78.9 0 1 542.32 834.30
  L 565.69 917.94
  A 1.80 1.78 63.0 0 1 565.08 919.84
  L 556.31 926.79
  Q 554.78 928.00 556.72 928.00
  Q 574.88 928.00 591.00 928.03
  Q 591.76 928.04 591.75 927.29
  Z
  M 391.08 875.46
  Q 407.79 869.20 408.70 852.69
  Q 409.09 845.71 406.70 840.08
  Q 403.99 833.66 398.20 829.89
  Q 396.37 828.70 397.89 830.26
  Q 405.16 837.70 406.37 847.06
  Q 407.57 856.31 402.92 863.78
  Q 398.39 871.06 389.41 873.99
  Q 387.86 874.50 386.41 874.22
  Q 385.01 873.94 383.45 873.39
  Q 381.56 872.72 383.48 872.16
  Q 389.36 870.45 393.79 866.85
  Q 398.45 863.05 400.50 857.80
  Q 402.75 852.03 401.44 845.81
  Q 399.44 836.35 392.44 831.06
  Q 386.97 826.94 379.98 824.68
  Q 374.12 822.79 366.36 822.26
  Q 340.90 820.54 318.98 834.30
  A 0.30 0.30 -46.2 0 0 318.99 834.82
  L 327.23 839.33
  A 0.91 0.81 16.3 0 1 327.69 840.07
  L 327.69 869.44
  A 0.52 0.49 -89.5 0 1 327.19 869.96
  L 318.25 869.79
  A 0.83 0.68 10.7 0 0 317.52 870.19
  L 314.53 876.71
  A 0.44 0.43 11.2 0 0 314.95 877.32
  Q 321.03 877.16 326.75 877.15
  Q 328.18 877.15 327.72 878.31
  A 1.36 1.33 48.1 0 0 327.68 879.21
  Q 327.98 880.18 327.37 880.90
  A 1.37 0.95 11.2 0 1 326.50 881.28
  L 316.43 881.90
  A 0.56 0.55 -0.6 0 0 315.90 882.43
  Q 315.81 884.58 317.75 884.21
  Q 319.21 883.93 319.28 883.92
  Q 323.23 883.54 327.17 883.31
  A 0.49 0.49 -1.7 0 1 327.69 883.80
  L 327.75 917.83
  A 2.25 1.94 -22.7 0 1 326.95 919.43
  L 317.37 927.40
  Q 316.96 927.75 317.50 927.76
  Q 349.14 928.23 374.50 928.00
  Q 380.87 927.94 387.14 926.34
  Q 394.03 924.59 398.44 920.88
  Q 405.37 915.05 406.79 906.13
  Q 408.11 897.81 404.88 890.16
  Q 400.98 880.93 391.05 876.18
  Q 390.22 875.79 391.08 875.46
  Z
  M 93.54 927.50
  Q 93.83 927.24 94.21 927.25
  L 97.89 931.87
  Q 98.80 933.00 97.40 933.00
  L 59.00 933.00
  Q 55.40 933.00 58.50 934.50
  Q 59.86 935.16 61.37 935.07
  Q 62.54 935.00 62.64 935.00
  Q 82.32 935.00 102.04 935.00
  Q 103.22 935.00 102.46 934.09
  Q 98.72 929.62 95.37 924.90
  Q 90.24 917.66 91.46 908.78
  Q 92.77 899.18 96.91 890.50
  A 0.66 0.65 -50.2 0 1 98.03 890.39
  L 110.21 907.58
  A 0.34 0.33 44.3 0 0 110.77 907.58
  Q 117.04 897.97 125.66 890.22
  A 0.60 0.60 49.5 0 1 126.53 890.29
  Q 127.52 891.49 127.67 892.43
  A 1.18 0.88 -33.0 0 1 127.35 893.30
  Q 119.95 901.17 113.88 910.11
  Q 112.42 912.25 114.58 911.91
  A 1.23 1.03 -73.6 0 0 115.34 911.40
  Q 121.09 902.88 128.28 895.47
  A 0.41 0.40 -33.3 0 1 128.95 895.60
  L 137.46 918.07
  A 0.73 0.70 60.7 0 1 137.25 918.89
  L 127.10 927.34
  Q 126.38 927.94 127.30 927.94
  L 166.08 928.00
  Q 167.88 928.00 166.44 926.90
  L 156.03 918.94
  A 2.63 2.40 -83.5 0 1 155.19 917.78
  L 140.99 879.48
  A 1.14 1.13 68.6 0 1 141.61 878.04
  Q 147.98 875.34 154.94 876.36
  Q 155.43 876.43 155.21 875.99
  Q 151.39 868.51 149.06 860.43
  A 0.40 0.40 -28.3 0 0 148.42 860.24
  L 142.70 865.18
  A 0.56 0.55 59.4 0 1 141.82 864.95
  L 130.92 835.96
  A 0.89 0.87 -37.2 0 1 131.05 835.10
  Q 132.44 833.29 137.69 827.19
  Q 139.71 824.83 136.74 825.18
  A 1.42 1.08 -66.8 0 0 135.93 825.64
  L 128.70 833.92
  A 1.74 1.67 -35.0 0 0 128.36 835.64
  Q 133.66 849.83 138.79 863.52
  Q 139.65 865.81 139.66 865.98
  Q 139.82 867.61 137.31 868.18
  A 0.61 0.60 73.0 0 1 136.62 867.81
  L 123.80 833.98
  A 1.41 1.41 -33.8 0 1 124.09 832.52
  L 131.03 825.02
  Q 131.97 824.00 130.58 824.00
  L 95.31 824.06
  Q 94.76 824.06 95.13 824.46
  L 102.38 832.40
  A 0.89 0.77 35.1 0 1 102.59 833.23
  L 92.16 862.47
  A 0.60 0.59 31.2 0 1 91.19 862.70
  Q 88.55 860.27 85.60 858.11
  Q 85.52 858.05 84.82 857.48
  Q 83.16 856.12 82.45 858.21
  A 0.79 0.68 31.3 0 0 82.71 859.00
  L 90.14 865.40
  A 0.84 0.71 32.6 0 1 90.40 866.24
  L 89.47 868.74
  A 0.41 0.39 30.8 0 1 88.83 868.88
  L 80.17 861.40
  A 0.38 0.36 -56.3 0 0 79.61 861.53
  L 73.13 874.47
  A 0.39 0.37 -73.2 0 0 73.41 875.02
  Q 78.99 875.67 84.53 878.80
  A 0.85 0.85 21.8 0 1 84.94 879.75
  Q 81.20 894.35 73.69 907.69
  Q 66.11 921.16 54.01 927.46
  Q 53.57 927.69 54.06 927.70
  Q 72.03 928.23 90.00 928.00
  Q 92.63 927.97 93.54 927.50
  Z
  M 214.44 921.72
  L 211.56 921.72
  A 0.54 0.50 -90.0 0 1 211.06 921.18
  L 211.00 835.29
  A 1.31 1.15 71.3 0 1 211.38 834.37
  L 221.46 824.97
  Q 222.50 824.00 221.10 824.00
  L 184.46 824.00
  Q 183.30 824.00 184.18 824.80
  L 194.40 834.13
  A 1.24 1.04 -72.1 0 1 194.75 834.99
  L 194.69 917.93
  A 1.15 0.92 74.5 0 1 194.33 918.77
  L 184.34 927.01
  Q 183.45 927.74 184.57 927.76
  Q 224.02 928.18 264.03 928.00
  Q 264.65 928.00 265.97 928.10
  Q 269.41 928.35 267.50 926.53
  Q 266.68 925.74 266.30 925.18
  Q 257.98 912.73 253.10 898.54
  Q 252.94 898.07 252.82 898.56
  Q 250.93 906.71 248.69 910.44
  Q 245.20 916.23 240.44 918.69
  Q 233.14 922.44 223.49 921.90
  Q 220.75 921.75 217.81 921.75
  A 0.56 0.56 -0.2 0 1 217.25 921.19
  L 217.25 836.99
  A 1.27 1.09 70.6 0 1 217.58 836.14
  L 224.64 829.08
  A 0.99 0.78 -32.2 0 0 224.94 828.25
  Q 224.79 827.53 224.23 827.09
  A 0.63 0.55 -47.1 0 0 223.45 827.17
  L 215.50 835.12
  A 1.74 1.70 68.0 0 0 215.00 836.34
  L 214.94 921.19
  A 0.53 0.50 90.0 0 1 214.44 921.72
  Z
  M 457.54 927.50
  Q 457.83 927.24 458.21 927.25
  L 462.15 932.22
  Q 462.77 933.01 461.78 933.01
  L 422.24 933.24
  A 0.43 0.41 -6.4 0 0 421.82 933.75
  Q 422.09 934.93 423.31 934.94
  Q 444.91 935.05 466.49 935.00
  Q 467.05 935.00 466.69 934.57
  Q 463.00 930.09 459.72 925.32
  Q 456.75 921.00 455.81 917.58
  Q 454.56 913.04 455.25 908.75
  Q 456.81 899.09 460.85 890.58
  A 0.69 0.68 -50.1 0 1 462.03 890.46
  L 474.18 907.75
  A 0.34 0.34 43.8 0 0 474.74 907.74
  Q 481.18 897.71 489.87 890.08
  A 0.52 0.50 -40.7 0 1 490.60 890.12
  Q 491.47 891.13 491.65 892.45
  A 1.17 0.95 -31.1 0 1 491.34 893.31
  Q 483.92 901.16 477.88 910.10
  Q 477.50 910.65 477.45 911.10
  Q 477.31 912.24 478.54 911.91
  A 1.56 1.09 -72.8 0 0 479.29 911.33
  Q 485.03 902.91 492.36 895.51
  A 0.37 0.37 56.8 0 1 492.97 895.64
  L 501.54 918.14
  A 0.59 0.56 59.9 0 1 501.38 918.80
  L 491.73 926.85
  Q 490.35 928.00 492.12 928.00
  L 530.46 927.94
  Q 531.72 927.93 530.72 927.17
  L 519.96 918.98
  A 1.82 1.66 10.9 0 1 519.39 918.22
  L 505.11 879.61
  A 1.36 1.35 -21.0 0 1 505.88 877.88
  Q 511.79 875.56 518.96 876.36
  Q 519.47 876.41 519.24 875.95
  Q 515.39 868.54 513.13 860.58
  A 0.57 0.51 -28.1 0 0 512.26 860.36
  L 506.43 865.00
  A 0.43 0.38 60.8 0 1 505.81 864.79
  L 494.91 835.72
  A 0.86 0.85 -34.6 0 1 495.07 834.87
  L 502.11 826.56
  A 0.97 0.72 -38.9 0 0 502.33 825.70
  Q 502.07 825.04 501.24 824.98
  A 1.12 0.95 -64.8 0 0 500.40 825.36
  L 492.71 834.07
  A 1.91 1.75 56.6 0 0 492.41 835.95
  L 503.76 866.22
  A 0.73 0.59 64.3 0 1 503.57 867.03
  L 501.47 868.36
  A 0.55 0.49 64.2 0 1 500.72 868.05
  L 487.80 833.97
  A 1.40 1.38 -34.1 0 1 488.09 832.52
  L 495.07 824.98
  Q 495.97 824.00 494.63 824.00
  L 458.99 824.00
  Q 458.40 824.00 458.81 824.43
  L 466.59 832.69
  A 0.82 0.82 -56.5 0 1 466.76 833.54
  L 456.13 862.39
  A 0.57 0.57 30.9 0 1 455.21 862.62
  Q 452.56 860.29 449.44 857.78
  Q 447.24 856.02 446.46 858.22
  A 0.73 0.66 30.6 0 0 446.70 859.00
  Q 449.58 861.29 452.32 863.75
  Q 452.40 863.82 453.40 864.51
  Q 455.18 865.76 453.33 868.53
  A 0.53 0.52 -53.2 0 1 452.55 868.65
  L 444.17 861.40
  A 0.36 0.35 -56.4 0 0 443.62 861.52
  L 437.10 874.42
  A 0.39 0.37 -72.7 0 0 437.37 874.98
  Q 443.29 875.74 448.73 878.93
  A 0.57 0.56 -68.1 0 1 448.99 879.55
  Q 444.70 896.50 435.49 911.21
  Q 431.79 917.13 428.07 920.50
  Q 423.63 924.54 418.08 927.24
  Q 417.06 927.73 418.19 927.76
  Q 436.00 928.19 454.25 928.00
  Q 456.69 927.98 457.54 927.50
  Z
  M 701.54 927.50
  Q 701.83 927.24 702.21 927.25
  L 705.89 931.87
  Q 706.80 933.00 705.40 933.00
  L 667.00 933.00
  Q 663.13 933.00 666.50 934.50
  Q 668.16 935.24 670.00 935.22
  Q 690.00 935.00 710.04 935.00
  Q 711.22 935.00 710.46 934.09
  Q 707.03 929.95 703.86 925.66
  Q 697.38 916.86 699.69 905.99
  Q 701.35 898.18 704.89 890.50
  Q 705.35 889.51 705.96 890.38
  L 718.18 907.80
  A 0.33 0.32 44.3 0 0 718.72 907.80
  Q 725.03 897.80 733.88 890.07
  A 0.51 0.50 -40.7 0 1 734.60 890.12
  Q 735.47 891.13 735.65 892.45
  A 1.14 0.94 -30.4 0 1 735.34 893.30
  Q 726.72 902.37 721.56 910.56
  Q 720.50 912.25 722.44 912.02
  A 1.19 1.05 -74.0 0 0 723.22 911.52
  Q 728.91 903.06 736.38 895.49
  A 0.34 0.34 -33.1 0 1 736.95 895.61
  L 745.56 918.17
  A 0.54 0.53 59.6 0 1 745.41 918.76
  L 735.63 926.92
  Q 734.33 928.00 736.00 928.00
  L 774.57 927.94
  Q 775.80 927.94 774.82 927.19
  L 763.96 918.99
  A 1.75 1.71 9.5 0 1 763.39 918.21
  L 749.14 879.68
  A 1.44 1.43 -21.1 0 1 749.96 877.85
  Q 755.79 875.56 762.94 876.35
  Q 763.45 876.41 763.22 875.95
  Q 759.45 868.32 756.97 860.67
  A 0.37 0.35 61.8 0 0 756.41 860.48
  L 750.81 865.09
  A 0.73 0.69 -30.5 0 1 749.69 864.83
  L 738.84 836.07
  A 1.33 1.28 -35.8 0 1 739.08 834.76
  L 746.18 826.38
  A 0.63 0.58 -45.5 0 0 746.20 825.59
  Q 745.56 824.87 744.75 825.11
  Q 744.19 825.27 743.47 826.15
  Q 740.16 830.23 736.64 833.98
  A 1.67 1.61 56.9 0 0 736.31 835.68
  L 747.58 866.03
  A 0.96 0.87 54.1 0 1 747.48 866.91
  Q 746.67 868.02 745.30 868.35
  A 0.60 0.56 73.4 0 1 744.64 867.96
  L 731.71 833.63
  A 0.82 0.82 -34.5 0 1 731.87 832.77
  L 739.01 825.09
  Q 740.03 824.00 738.54 824.00
  L 703.16 824.00
  Q 702.43 824.00 702.93 824.52
  L 710.40 832.26
  A 1.17 1.09 33.8 0 1 710.68 833.44
  L 700.18 862.47
  A 0.62 0.59 29.6 0 1 699.23 862.71
  L 692.17 857.09
  A 0.72 0.66 -42.3 0 0 691.33 857.09
  Q 689.67 858.25 690.82 859.09
  Q 691.47 859.57 691.51 859.60
  Q 694.40 862.16 697.48 864.51
  Q 699.32 865.91 697.81 867.81
  A 1.41 0.59 -51.4 0 1 696.44 868.56
  L 688.22 861.35
  A 0.37 0.37 -55.7 0 0 687.64 861.46
  L 681.19 874.37
  A 0.37 0.34 -71.1 0 0 681.42 874.89
  Q 686.85 875.82 692.25 878.60
  A 1.24 1.23 21.3 0 1 692.88 880.02
  Q 688.02 898.21 677.91 913.46
  Q 671.94 922.48 662.58 927.00
  Q 660.66 927.93 662.80 927.94
  Q 681.66 928.05 700.50 927.98
  Q 701.13 927.98 701.54 927.50
  Z
  M 779.70 930.42
  Q 780.51 931.22 781.52 931.86
  Q 783.30 932.99 781.19 933.00
  L 740.26 933.24
  A 0.45 0.43 -5.2 0 0 739.81 933.75
  Q 740.05 934.98 741.25 935.00
  Q 763.66 935.31 831.69 935.19
  Q 832.19 935.19 831.90 934.79
  Q 829.39 931.33 826.29 928.44
  Q 824.84 927.10 822.10 925.99
  Q 811.85 921.86 809.57 910.87
  Q 809.31 909.59 809.16 907.11
  Q 809.05 905.21 808.85 903.31
  Q 808.50 900.00 808.49 897.67
  Q 808.39 869.79 808.31 842.91
  Q 808.31 840.67 809.31 842.68
  Q 810.51 845.09 811.78 847.47
  Q 812.75 849.27 812.73 851.29
  Q 812.67 859.20 812.81 867.10
  Q 812.94 874.40 812.79 882.91
  Q 812.59 894.83 813.04 906.75
  Q 813.19 910.82 814.21 914.76
  Q 815.96 921.57 822.01 925.03
  Q 824.43 926.42 823.30 924.97
  Q 823.10 924.72 822.77 924.46
  Q 818.57 921.16 816.96 916.01
  Q 814.82 909.13 815.04 901.97
  Q 815.19 897.23 815.19 897.15
  Q 815.25 875.98 815.31 854.89
  Q 815.31 854.09 815.68 854.80
  L 853.25 927.44
  A 1.04 1.04 76.3 0 0 854.17 928.00
  L 866.57 928.00
  A 0.68 0.68 0.0 0 0 867.25 927.32
  Q 867.19 901.74 867.43 876.02
  Q 867.43 875.82 867.34 862.48
  Q 867.30 855.70 867.70 848.94
  Q 868.27 839.22 870.49 834.93
  Q 874.00 828.13 882.03 825.07
  Q 883.18 824.63 882.50 824.22
  Q 882.25 824.06 881.84 824.06
  Q 865.08 823.91 848.29 824.06
  Q 845.94 824.09 848.10 825.01
  Q 855.70 828.25 858.59 835.56
  Q 860.00 839.14 860.00 846.63
  Q 860.00 869.19 860.00 891.76
  Q 860.00 893.65 859.14 891.97
  L 829.48 833.94
  A 0.61 0.56 59.3 0 1 829.64 833.19
  L 838.76 826.94
  A 0.63 0.51 -31.4 0 0 839.01 826.23
  Q 838.66 825.53 837.96 825.18
  A 0.99 0.77 -45.2 0 0 837.08 825.29
  L 826.73 832.27
  A 0.58 0.57 60.2 0 0 826.53 833.01
  Q 842.49 864.16 858.44 894.96
  Q 859.87 897.72 860.01 900.35
  Q 860.18 903.33 859.87 906.08
  Q 859.74 907.19 859.23 906.20
  L 821.19 832.20
  A 1.11 1.11 60.4 0 1 821.59 830.75
  L 830.70 825.05
  Q 832.39 824.00 830.40 824.00
  L 791.79 824.06
  Q 790.96 824.06 791.62 824.59
  L 801.30 832.24
  A 1.06 0.99 -72.4 0 1 801.69 833.06
  Q 801.80 864.91 801.97 896.75
  Q 802.02 905.34 800.75 911.75
  Q 798.29 924.15 785.75 927.75
  Q 785.50 927.83 785.49 927.98
  A 0.31 0.19 1.5 0 0 785.81 928.19
  L 823.19 928.31
  A 1.19 0.83 63.2 0 1 823.97 928.73
  L 826.45 931.57
  Q 827.69 933.00 825.89 933.00
  L 788.00 933.00
  Q 787.66 933.00 787.10 933.30
  Q 786.48 933.63 785.91 933.10
  Q 778.53 926.20 771.09 919.70
  Q 769.97 918.71 769.44 917.33
  L 756.69 883.59
  A 0.43 0.42 80.5 0 1 757.10 883.00
  L 772.66 883.76
  Q 773.16 883.79 772.91 883.36
  Q 767.52 873.98 764.06 863.94
  Q 763.67 862.78 762.06 862.60
  A 0.35 0.33 84.1 0 0 761.71 863.05
  Q 764.30 871.61 769.02 880.29
  A 0.48 0.48 75.6 0 1 768.60 881.00
  L 754.22 881.00
  A 0.60 0.60 -10.4 0 0 753.66 881.81
  Q 760.39 899.88 767.10 917.19
  Q 768.01 919.53 769.78 921.22
  Q 773.83 925.11 778.06 928.80
  Q 778.20 928.92 779.70 930.42
  Z
  M 928.26 926.43
  Q 924.25 923.99 920.03 919.95
  A 2.59 2.53 -68.5 0 1 919.25 918.10
  L 919.06 836.57
  Q 919.06 834.84 920.13 833.79
  L 929.44 824.72
  Q 930.12 824.06 929.19 824.06
  L 892.77 824.00
  Q 891.18 824.00 892.41 825.07
  L 902.33 833.71
  A 1.20 0.95 -74.0 0 1 902.68 834.56
  L 902.69 917.95
  A 1.10 0.98 72.5 0 1 902.32 918.77
  L 892.24 927.12
  Q 891.50 927.73 892.45 927.76
  Q 910.15 928.33 928.68 927.80
  A 1.86 1.82 -21.6 0 1 930.08 928.39
  L 933.42 932.02
  Q 934.32 933.00 932.99 933.00
  L 896.50 933.00
  Q 893.41 933.00 896.06 934.44
  Q 897.39 935.16 898.90 935.07
  Q 900.01 935.00 900.11 935.00
  Q 918.81 935.00 937.79 935.00
  Q 939.28 935.00 938.29 933.88
  L 925.63 919.56
  A 1.36 1.24 -67.7 0 1 925.31 918.69
  L 925.25 837.49
  A 2.13 2.10 -23.1 0 1 925.86 836.01
  Q 929.69 832.19 932.83 829.34
  Q 934.30 828.01 932.61 826.97
  A 0.64 0.64 -51.4 0 0 931.82 827.06
  L 923.50 835.38
  A 1.71 1.69 -22.8 0 0 923.00 836.58
  Q 923.00 876.58 923.00 916.16
  Q 923.00 916.25 922.89 917.83
  Q 922.73 920.08 924.25 921.75
  Q 926.32 924.02 928.36 926.32
  Q 928.70 926.70 928.26 926.43
  Z
  M 871.20 932.94
  Q 864.47 933.05 857.75 933.10
  Q 854.40 933.12 856.52 934.59
  Q 857.02 934.94 857.72 934.95
  Q 865.81 935.09 873.31 934.95
  A 0.75 0.75 -0.4 0 0 874.04 934.21
  Q 874.39 889.72 874.04 848.50
  Q 873.98 841.67 876.06 838.06
  Q 878.53 833.80 884.25 832.25
  Q 885.43 831.93 886.03 830.29
  A 0.34 0.34 7.7 0 0 885.68 829.84
  Q 879.30 830.33 875.81 834.59
  Q 873.27 837.71 872.42 844.12
  Q 871.69 849.59 871.75 856.25
  Q 871.87 869.70 871.69 932.44
  A 0.50 0.49 -90.0 0 1 871.20 932.94
  Z
  M 173.70 932.94
  L 132.24 933.00
  Q 130.93 933.00 131.83 933.95
  Q 133.00 935.19 134.75 935.18
  Q 157.00 935.00 179.07 935.00
  Q 180.22 935.00 179.36 934.23
  L 162.97 919.56
  Q 161.83 918.54 161.26 917.02
  L 148.56 883.41
  A 0.31 0.30 80.8 0 1 148.85 882.99
  L 164.71 883.77
  Q 165.21 883.79 164.96 883.37
  Q 159.60 874.15 156.24 864.46
  Q 155.94 863.59 155.45 863.25
  Q 154.91 862.88 154.08 862.62
  Q 153.59 862.47 153.74 862.96
  Q 156.35 871.85 161.11 880.47
  A 0.36 0.36 -14.2 0 1 160.79 881.00
  L 146.39 881.00
  A 0.75 0.75 -10.3 0 0 145.69 882.01
  L 159.55 918.57
  Q 159.96 919.63 160.92 920.53
  L 173.83 932.58
  Q 174.22 932.94 173.70 932.94
  Z
  M 531.29 926.47
  Q 534.13 929.13 537.70 931.97
  Q 539.00 933.00 537.34 933.00
  L 496.44 933.06
  Q 494.66 933.06 496.05 934.18
  Q 497.25 935.14 498.78 935.05
  Q 499.65 935.00 499.74 935.00
  Q 521.49 935.00 543.02 935.00
  Q 544.24 935.00 543.32 934.20
  Q 536.09 927.87 529.03 921.35
  Q 528.99 921.32 527.80 920.33
  Q 525.97 918.81 525.00 916.25
  Q 518.79 899.88 512.68 883.47
  A 0.34 0.33 80.2 0 1 513.00 883.01
  L 528.44 883.65
  Q 528.93 883.67 528.70 883.25
  Q 524.40 875.37 520.06 863.94
  Q 519.61 862.75 518.25 862.72
  A 0.41 0.38 82.6 0 0 517.88 863.24
  Q 520.31 872.29 525.00 880.00
  Q 525.61 881.00 524.44 881.00
  L 510.31 881.00
  A 0.71 0.71 79.7 0 0 509.65 881.96
  Q 516.34 899.67 523.13 917.24
  Q 524.00 919.51 525.74 921.19
  Q 528.49 923.85 531.29 926.47
  Z
  M 320.78 934.62
  A 2.29 2.26 -27.8 0 0 322.04 935.00
  Q 350.25 935.00 378.25 935.00
  Q 386.71 935.00 394.27 932.04
  Q 402.16 928.94 407.17 922.84
  Q 416.12 911.90 413.25 896.50
  Q 411.80 888.72 405.63 883.09
  A 0.74 0.63 48.7 0 0 404.80 882.97
  Q 403.99 883.46 404.72 884.18
  Q 405.40 884.85 405.54 885.06
  Q 416.31 900.49 408.53 916.50
  Q 406.32 921.04 402.94 924.20
  Q 399.34 927.56 394.90 929.58
  Q 390.14 931.74 381.28 932.48
  Q 374.29 933.07 367.25 933.05
  Q 344.25 933.00 321.25 933.09
  Q 318.46 933.10 320.78 934.62
  Z
  M 271.44 932.94
  L 186.90 933.00
  Q 185.55 933.00 186.45 934.01
  Q 187.56 935.24 189.64 935.11
  Q 191.26 935.00 191.37 935.00
  Q 231.90 935.05 272.44 934.94
  A 0.80 0.80 -76.9 0 0 273.16 934.49
  L 276.44 927.88
  A 0.85 0.84 -50.8 0 0 276.36 927.00
  Q 268.39 916.34 263.03 904.24
  Q 262.35 902.69 260.18 902.20
  Q 259.68 902.09 259.88 902.56
  Q 265.41 916.05 273.88 926.92
  A 0.94 0.80 39.2 0 1 274.04 927.79
  L 272.17 932.49
  A 0.81 0.71 9.5 0 1 271.44 932.94
  Z"
/>
<path fill="#00703c" d="
  M 604.06 168.94
  L 729.87 169.00
  A 0.38 0.37 0.0 0 1 730.25 169.37
  L 730.19 202.69
  A 0.51 0.50 -0.0 0 1 729.68 203.19
  L 581.85 203.25
  Q 581.33 203.25 581.62 203.68
  L 819.01 556.93
  Q 819.40 557.50 818.71 557.50
  L 316.08 557.50
  Q 315.51 557.50 315.82 557.02
  L 540.32 204.41
  A 0.80 0.78 44.3 0 0 540.30 203.55
  L 504.53 150.39
  A 0.59 0.59 0.0 0 0 503.55 150.39
  L 232.72 557.01
  A 0.95 0.92 -73.0 0 1 231.94 557.44
  L 192.41 557.57
  Q 191.89 557.57 192.18 557.14
  L 503.51 88.57
  A 0.41 0.41 -44.8 0 1 504.19 88.57
  L 560.32 172.01
  A 0.38 0.38 -45.8 0 0 560.95 172.00
  L 613.85 88.44
  A 0.93 0.92 15.6 0 1 614.64 88.00
  L 789.00 88.00
  A 0.50 0.50 0.0 0 1 789.50 88.50
  L 789.50 121.76
  A 0.50 0.49 -0.0 0 1 789.00 122.25
  Q 740.50 122.25 692.00 122.43
  Q 662.65 122.53 633.30 122.32
  A 0.89 0.87 -72.7 0 0 632.54 122.73
  L 603.83 168.51
  Q 603.56 168.94 604.06 168.94
  Z
  M 376.41 526.31
  L 756.37 526.31
  Q 757.19 526.31 756.73 525.63
  L 561.78 235.66
  A 0.46 0.46 43.9 0 0 561.01 235.67
  L 376.17 525.87
  Q 375.89 526.31 376.41 526.31
  Z"
/>
<path fill="#231f20" d="
  M 507.72 201.41
  L 270.59 556.90
  A 1.00 0.94 -72.4 0 1 269.81 557.34
  L 254.65 557.47
  Q 253.86 557.48 254.31 556.82
  L 507.53 178.98
  A 0.35 0.34 -45.2 0 1 508.10 178.97
  L 527.48 207.82
  A 0.80 0.79 44.7 0 1 527.49 208.68
  L 520.79 219.09
  A 0.34 0.34 44.7 0 1 520.22 219.09
  L 508.29 201.41
  A 0.35 0.34 44.7 0 0 507.72 201.41
  Z"
/>
<path fill="#ffffff" d="
  M 376.41 526.31
  Q 375.89 526.31 376.17 525.87
  L 561.01 235.67
  A 0.46 0.46 43.9 0 1 561.78 235.66
  L 756.73 525.63
  Q 757.19 526.31 756.37 526.31
  L 376.41 526.31
  Z
  M 560.01 269.94
  L 402.86 515.63
  Q 402.46 516.25 403.20 516.25
  L 726.26 516.25
  Q 727.03 516.25 726.60 515.61
  L 560.72 269.93
  A 0.42 0.42 -45.7 0 0 560.01 269.94
  Z"
/>
<path fill="#231f20" d="
  M 560.01 269.94
  A 0.42 0.42 -45.7 0 1 560.72 269.93
  L 726.60 515.61
  Q 727.03 516.25 726.26 516.25
  L 403.20 516.25
  Q 402.46 516.25 402.86 515.63
  L 560.01 269.94
  Z
  M 457.44 503.18
  Q 578.22 503.64 700.24 503.50
  Q 701.65 503.50 700.87 502.33
  L 561.32 294.45
  A 0.33 0.32 44.3 0 0 560.78 294.45
  L 428.31 502.63
  Q 427.73 503.55 428.82 503.52
  Q 443.47 503.13 457.44 503.18
  Z"
/>
<path fill="#ffffff" d="
  M 457.44 503.18
  Q 443.47 503.13 428.82 503.52
  Q 427.73 503.55 428.31 502.63
  L 560.78 294.45
  A 0.33 0.32 44.3 0 1 561.32 294.45
  L 700.87 502.33
  Q 701.65 503.50 700.24 503.50
  Q 578.22 503.64 457.44 503.18
  Z"
/>
<path fill="#231f20" d="
  M 499.70 644.35
  Q 496.82 644.63 494.17 645.94
  Q 492.21 646.92 491.94 644.74
  Q 491.33 639.92 496.04 637.64
  Q 499.93 635.76 504.01 634.25
  Q 506.30 633.40 505.45 631.11
  Q 504.52 628.64 505.68 626.08
  Q 507.48 622.11 510.13 618.65
  Q 511.86 616.39 513.76 610.19
  A 1.37 1.33 -10.4 0 1 514.26 609.49
  Q 516.30 608.03 516.30 610.50
  Q 516.50 679.50 516.50 748.50
  A 0.50 0.50 0.0 0 1 516.00 749.00
  L 503.01 749.00
  A 0.51 0.51 0.0 0 1 502.50 748.49
  Q 502.55 698.41 502.44 648.81
  Q 502.43 646.31 500.57 644.64
  A 1.12 1.12 63.6 0 0 499.70 644.35
  Z"
/>
<path fill="#231f20" d="
  M 929.69 644.35
  Q 926.83 644.63 924.39 645.84
  Q 922.28 646.88 922.01 644.54
  Q 921.58 640.98 924.22 638.72
  Q 926.53 636.74 929.48 635.93
  Q 932.44 635.12 934.70 633.78
  A 1.79 1.78 66.8 0 0 935.50 631.76
  Q 934.17 627.02 937.24 623.21
  Q 941.48 617.93 943.56 610.56
  Q 944.18 608.38 946.01 609.31
  A 0.89 0.78 -78.1 0 1 946.44 610.07
  L 946.50 748.49
  A 0.51 0.51 0.0 0 1 945.99 749.00
  L 933.02 749.00
  A 0.52 0.52 0.0 0 1 932.50 748.48
  Q 932.55 698.41 932.44 648.81
  Q 932.43 646.29 930.57 644.63
  A 1.18 1.12 -26.1 0 0 929.69 644.35
  Z"
/>
<path fill="#231f20" d="
  M 753.57 732.94
  L 892.11 733.00
  A 0.64 0.64 0.0 0 0 892.75 732.36
  Q 892.77 691.53 892.75 651.50
  Q 892.75 647.28 891.51 645.80
  Q 889.39 643.26 884.42 645.16
  Q 881.90 646.12 881.74 643.43
  Q 881.54 640.36 885.03 637.82
  Q 889.27 634.72 894.57 632.89
  A 2.88 2.84 2.1 0 0 896.25 631.35
  Q 900.16 622.63 904.02 614.39
  Q 904.71 612.93 905.57 612.38
  Q 907.25 611.30 907.25 613.30
  L 907.25 748.63
  A 0.37 0.37 0.0 0 1 906.88 749.00
  L 587.78 749.00
  A 0.80 0.79 -88.9 0 0 586.99 749.77
  Q 586.78 755.93 585.13 761.90
  Q 583.34 768.43 580.10 772.95
  Q 573.34 782.37 561.06 784.82
  Q 551.13 786.79 538.50 785.25
  Q 534.73 784.79 532.28 783.59
  Q 530.76 782.85 530.17 781.48
  Q 528.95 778.66 533.25 778.78
  Q 539.38 778.95 545.49 778.63
  Q 555.36 778.10 562.69 772.94
  Q 567.05 769.86 569.56 764.13
  Q 572.65 757.06 572.68 749.70
  A 0.70 0.69 0.4 0 0 571.98 749.00
  Q 551.84 749.00 532.62 749.00
  Q 531.20 749.00 530.44 748.61
  Q 528.51 747.63 530.94 745.69
  Q 533.77 743.42 535.74 741.09
  Q 537.53 738.98 538.90 735.36
  Q 540.57 730.95 541.94 726.44
  Q 543.47 721.38 546.66 717.16
  Q 547.91 715.51 549.65 714.62
  Q 552.46 713.18 552.96 712.76
  Q 556.48 709.79 558.56 705.56
  Q 559.47 703.73 564.19 697.94
  Q 566.54 695.05 570.77 693.14
  Q 575.58 690.98 576.76 690.05
  Q 581.37 686.43 583.31 680.81
  Q 583.90 679.11 585.32 679.14
  A 0.88 0.76 75.2 0 1 586.04 679.63
  Q 587.00 681.56 587.00 683.50
  Q 587.00 708.00 587.00 732.43
  A 0.57 0.57 0.0 0 0 587.57 733.00
  L 737.88 732.75
  A 0.88 0.87 90.0 0 0 738.75 731.87
  Q 738.75 726.75 738.88 722.25
  Q 738.97 719.02 737.81 716.35
  Q 736.94 714.35 734.74 714.99
  L 729.96 716.39
  Q 727.89 717.00 728.08 714.75
  Q 728.57 708.85 734.43 707.02
  Q 737.31 706.13 740.30 705.15
  Q 742.31 704.49 741.66 702.48
  Q 740.39 698.49 742.77 694.79
  Q 744.42 692.22 746.44 689.94
  Q 748.80 687.27 749.65 682.35
  Q 749.88 681.02 750.42 680.46
  Q 751.46 679.37 752.62 680.67
  A 1.43 1.15 -70.8 0 1 752.94 681.57
  L 753.06 732.44
  A 0.51 0.50 0.0 0 0 753.57 732.94
  Z
  M 567.83 717.79
  Q 566.03 721.51 563.69 723.19
  Q 558.33 727.03 557.04 732.33
  A 0.42 0.41 -83.9 0 0 557.44 732.84
  L 572.00 732.79
  A 0.55 0.51 89.5 0 0 572.50 732.24
  L 572.50 713.75
  Q 572.50 712.65 571.60 713.28
  Q 570.45 714.08 569.38 715.28
  Q 568.64 716.11 567.83 717.79
  Z"
/>
<path fill="#231f20" d="
  M 80.58 737.95
  Q 80.88 736.82 80.96 735.66
  Q 81.09 734.04 81.27 733.38
  Q 82.56 728.83 86.26 726.17
  Q 88.19 724.78 88.93 727.05
  Q 89.98 730.28 92.60 731.77
  Q 94.31 732.74 98.08 732.79
  Q 138.68 733.31 178.97 732.82
  Q 179.81 732.81 179.22 732.21
  Q 161.64 714.76 144.68 697.03
  Q 138.18 690.23 136.73 686.41
  Q 134.02 679.24 137.76 671.26
  Q 140.98 664.38 144.51 657.67
  Q 148.65 649.82 148.93 641.19
  Q 148.99 639.31 150.29 640.66
  L 238.90 732.64
  A 1.19 1.18 67.8 0 0 239.75 733.00
  L 465.45 733.00
  A 0.55 0.55 0.0 0 0 466.00 732.45
  Q 466.00 725.13 466.09 718.25
  Q 466.19 710.43 458.94 713.44
  Q 455.61 714.82 456.50 711.25
  Q 457.43 707.49 460.79 705.58
  Q 465.97 702.64 467.81 701.31
  Q 470.75 699.20 470.50 695.45
  Q 470.37 693.55 471.18 691.82
  Q 474.50 684.73 478.28 677.60
  Q 478.61 676.98 479.09 676.75
  Q 480.25 676.22 480.25 677.75
  Q 480.25 713.00 480.25 748.44
  A 0.56 0.56 0.2 0 1 479.69 749.00
  L 236.37 749.00
  A 2.43 2.41 67.4 0 1 234.66 748.29
  L 156.64 669.39
  A 0.67 0.67 36.3 0 0 155.57 669.55
  Q 153.76 672.98 152.52 676.63
  Q 151.23 680.42 153.31 683.44
  Q 154.68 685.42 157.45 688.30
  Q 186.47 718.40 215.31 748.30
  Q 215.98 749.00 215.01 749.00
  L 60.99 749.00
  A 1.49 1.30 -22.4 0 1 60.10 748.70
  Q 57.49 746.60 61.50 745.75
  Q 65.98 744.80 70.28 741.68
  Q 72.91 739.76 74.78 739.25
  Q 77.30 738.58 79.94 738.45
  A 0.70 0.68 6.2 0 0 80.58 737.95
  Z"
/>
<circle fill="#231f20" cx="471.16" cy="656.66" r="9.24"/>
<path fill="#ffffff" d="
  M 569.38 715.28
  Q 570.45 714.08 571.60 713.28
  Q 572.50 712.65 572.50 713.75
  L 572.50 732.24
  A 0.55 0.51 89.5 0 1 572.00 732.79
  L 557.44 732.84
  A 0.42 0.41 -83.9 0 1 557.04 732.33
  Q 558.33 727.03 563.69 723.19
  Q 566.03 721.51 567.83 717.79
  Q 568.64 716.11 569.38 715.28
  Z"
/>
<circle fill="#231f20" cx="137.52" cy="769.17" r="8.80"/>
<circle fill="#231f20" cx="159.04" cy="769.17" r="8.80"/>
<ellipse fill="#231f20" cx="0.00" cy="0.00" transform="translate(730.43,770.48) rotate(83.2)" rx="9.50" ry="9.21"/>
<path fill="#231f20" d="
  M 642.75 926.71
  Q 643.23 926.98 643.50 927.46
  Q 642.04 928.00 641.25 928.00
  Q 624.03 928.05 607.21 927.94
  Q 605.73 927.93 606.88 926.98
  L 616.13 919.33
  A 0.82 0.76 63.7 0 0 616.37 918.52
  L 602.46 868.34
  Q 602.09 867.04 601.74 868.34
  L 588.23 917.33
  A 1.00 0.97 -57.4 0 0 588.41 918.22
  L 601.43 934.08
  Q 602.13 934.94 601.03 934.94
  L 561.52 935.00
  A 2.93 2.82 64.7 0 1 559.64 934.29
  Q 557.89 932.76 560.75 932.80
  Q 578.75 933.00 596.82 933.00
  Q 597.58 933.00 597.09 932.44
  L 592.50 927.21
  L 586.49 919.89
  Q 585.35 918.50 585.77 916.97
  L 600.55 863.30
  A 1.85 1.84 -44.7 0 0 600.56 862.32
  L 598.44 854.27
  Q 598.15 853.17 597.85 854.26
  Q 589.88 882.97 581.97 912.03
  Q 581.46 913.89 581.72 915.52
  Q 582.10 917.99 582.81 918.94
  Q 584.95 921.80 591.75 927.29
  Q 591.76 928.04 591.00 928.03
  Q 574.88 928.00 556.72 928.00
  Q 554.78 928.00 556.31 926.79
  L 565.08 919.84
  A 1.80 1.78 63.0 0 0 565.69 917.94
  L 542.32 834.30
  A 1.54 1.49 -78.9 0 0 541.80 833.50
  L 530.77 824.61
  Q 530.02 824.00 530.99 824.00
  L 568.55 824.00
  Q 570.05 824.00 568.91 825.00
  L 559.54 833.24
  A 1.55 1.52 61.6 0 0 559.09 834.80
  L 577.18 899.21
  Q 577.31 899.70 577.54 899.23
  Q 578.96 896.28 579.59 893.09
  Q 580.09 890.58 579.23 887.49
  Q 572.03 861.61 564.76 835.79
  A 1.33 1.33 61.5 0 1 565.16 834.44
  Q 568.13 831.85 570.96 829.34
  Q 571.73 828.66 572.36 828.71
  Q 573.10 828.76 573.49 829.48
  A 0.68 0.61 -35.9 0 1 573.32 830.27
  L 567.55 835.35
  A 0.93 0.92 -28.9 0 0 567.27 836.30
  L 581.07 885.71
  Q 581.36 886.76 581.66 885.70
  L 598.68 824.80
  A 0.78 0.62 -81.4 0 1 599.30 824.22
  L 605.42 824.13
  A 1.69 1.45 80.7 0 1 606.90 825.37
  L 627.43 898.71
  Q 627.56 899.20 627.78 898.74
  Q 629.05 895.98 629.73 893.03
  Q 630.25 890.78 629.50 888.13
  Q 620.64 856.57 611.88 824.98
  A 0.78 0.67 66.7 0 1 612.13 824.18
  Q 612.92 823.65 613.61 824.20
  Q 614.02 824.52 614.24 825.33
  Q 622.51 855.59 631.30 885.71
  Q 631.44 886.19 631.58 885.71
  Q 634.80 875.03 637.68 864.24
  Q 637.71 864.13 641.00 852.30
  Q 644.15 840.92 646.06 829.26
  Q 647.90 817.97 638.53 812.37
  Q 638.04 812.07 638.58 811.89
  Q 657.73 805.46 674.17 794.91
  Q 675.64 793.96 675.89 795.43
  A 1.15 0.95 -32.1 0 1 675.60 796.31
  Q 663.29 809.78 657.06 825.31
  Q 653.57 834.01 649.26 849.12
  Q 640.66 879.26 632.28 909.46
  Q 631.44 912.52 631.91 914.74
  Q 632.30 916.54 633.08 918.21
  Q 633.75 919.65 635.32 920.98
  Q 639.30 924.37 640.19 925.31
  Q 641.51 926.72 642.75 926.71
  Z"
/>
<path fill="#231f20" d="
  M 643.50 927.46
  Q 643.23 926.98 642.75 926.71
  L 635.98 918.41
  A 2.87 2.60 34.7 0 1 635.41 915.96
  Q 643.68 885.63 652.25 855.00
  Q 655.01 845.14 660.35 831.54
  Q 666.70 815.40 677.82 802.12
  Q 677.89 802.03 678.44 801.18
  Q 679.22 799.96 680.72 801.33
  A 0.54 0.53 41.5 0 1 680.77 802.07
  Q 670.12 814.72 663.56 829.56
  Q 658.19 841.74 653.16 860.12
  Q 650.15 871.17 650.13 871.22
  Q 643.90 893.45 637.86 915.99
  A 0.96 0.96 -57.8 0 0 638.06 916.88
  L 652.84 934.31
  Q 653.42 935.00 652.52 935.00
  L 612.52 935.00
  A 3.00 3.00 -23.7 0 1 610.72 934.40
  Q 608.83 932.99 611.50 932.99
  Q 629.50 933.00 647.25 933.00
  Q 648.13 933.00 647.58 932.34
  L 643.50 927.46
  Z"
/>
<path fill="#231f20" d="
  M 391.08 875.46
  Q 390.22 875.79 391.05 876.18
  Q 400.98 880.93 404.88 890.16
  Q 408.11 897.81 406.79 906.13
  Q 405.37 915.05 398.44 920.88
  Q 394.03 924.59 387.14 926.34
  Q 380.87 927.94 374.50 928.00
  Q 349.14 928.23 317.50 927.76
  Q 316.96 927.75 317.37 927.40
  L 326.95 919.43
  A 2.25 1.94 -22.7 0 0 327.75 917.83
  L 327.69 883.80
  A 0.49 0.49 -1.7 0 0 327.17 883.31
  Q 323.23 883.54 319.28 883.92
  Q 319.21 883.93 317.75 884.21
  Q 315.81 884.58 315.90 882.43
  A 0.56 0.55 -0.6 0 1 316.43 881.90
  L 326.50 881.28
  A 1.37 0.95 11.2 0 0 327.37 880.90
  Q 327.98 880.18 327.68 879.21
  A 1.36 1.33 48.1 0 1 327.72 878.31
  Q 328.18 877.15 326.75 877.15
  Q 321.03 877.16 314.95 877.32
  A 0.44 0.43 11.2 0 1 314.53 876.71
  L 317.52 870.19
  A 0.83 0.68 10.7 0 1 318.25 869.79
  L 327.19 869.96
  A 0.52 0.49 -89.5 0 0 327.69 869.44
  L 327.69 840.07
  A 0.91 0.81 16.3 0 0 327.23 839.33
  L 318.99 834.82
  A 0.30 0.30 -46.2 0 1 318.98 834.30
  Q 340.90 820.54 366.36 822.26
  Q 374.12 822.79 379.98 824.68
  Q 386.97 826.94 392.44 831.06
  Q 399.44 836.35 401.44 845.81
  Q 402.75 852.03 400.50 857.80
  Q 398.45 863.05 393.79 866.85
  Q 389.36 870.45 383.48 872.16
  Q 381.56 872.72 383.45 873.39
  Q 385.01 873.94 386.41 874.22
  Q 387.86 874.50 389.41 873.99
  Q 398.39 871.06 402.92 863.78
  Q 407.57 856.31 406.37 847.06
  Q 405.16 837.70 397.89 830.26
  Q 396.37 828.70 398.20 829.89
  Q 403.99 833.66 406.70 840.08
  Q 409.09 845.71 408.70 852.69
  Q 407.79 869.20 391.08 875.46
  Z
  M 380.73 845.49
  Q 379.44 844.92 379.06 844.44
  Q 371.93 835.14 359.98 836.02
  Q 355.46 836.35 350.91 838.71
  A 0.89 0.88 -14.1 0 0 350.44 839.49
  L 350.50 869.25
  A 0.53 0.53 1.7 0 0 351.00 869.78
  Q 357.87 870.18 364.59 869.14
  Q 372.97 867.83 377.49 864.19
  Q 382.64 860.04 384.01 853.34
  Q 385.24 847.34 383.05 841.33
  Q 378.90 829.89 365.50 828.25
  Q 354.45 826.90 344.48 833.29
  A 0.94 0.91 74.0 0 0 344.06 834.07
  L 344.00 869.49
  A 0.52 0.51 0.0 0 0 344.52 870.00
  L 347.49 870.00
  A 0.52 0.51 90.0 0 0 348.00 869.48
  L 348.06 837.56
  A 0.77 0.76 78.2 0 1 348.51 836.86
  Q 359.31 832.07 370.00 835.00
  Q 377.87 837.16 381.01 845.21
  Q 381.20 845.70 380.73 845.49
  Z
  M 385.13 893.66
  Q 384.98 893.64 384.84 893.58
  Q 384.60 893.49 384.39 893.20
  Q 381.46 889.12 377.29 886.70
  Q 373.83 884.69 368.35 883.88
  Q 360.18 882.67 351.29 883.60
  A 0.89 0.88 87.1 0 0 350.50 884.48
  L 350.50 921.17
  A 0.54 0.54 1.1 0 0 351.02 921.71
  Q 361.35 922.12 370.56 920.56
  Q 378.99 919.13 383.47 913.16
  Q 387.47 907.85 387.82 900.01
  Q 388.10 893.67 385.50 887.79
  Q 383.76 883.86 380.95 881.50
  Q 377.75 878.83 373.75 878.00
  Q 359.96 875.13 344.89 876.80
  A 1.01 1.00 86.8 0 0 344.00 877.80
  Q 344.00 899.01 344.00 919.29
  Q 344.00 919.39 343.87 920.69
  Q 343.72 922.23 345.21 922.14
  Q 346.02 922.08 346.80 922.14
  Q 348.24 922.24 348.10 920.82
  Q 348.00 919.75 348.00 919.67
  Q 348.00 901.45 348.00 882.40
  A 0.63 0.62 85.7 0 1 348.53 881.78
  Q 360.22 879.90 372.00 882.50
  Q 382.01 884.71 385.33 893.41
  Q 385.45 893.72 385.13 893.66
  Z"
/>
<path fill="#231f20" d="
  M 94.21 927.25
  Q 86.52 918.06 89.50 905.75
  Q 91.94 895.66 95.06 888.21
  A 0.93 0.65 -59.5 0 0 94.99 887.33
  L 92.14 884.25
  A 0.31 0.27 -57.4 0 0 91.66 884.39
  Q 87.61 894.61 85.25 904.75
  Q 82.47 916.69 90.37 924.38
  Q 91.97 925.93 93.54 927.50
  Q 92.63 927.97 90.00 928.00
  Q 72.03 928.23 54.06 927.70
  Q 53.57 927.69 54.01 927.46
  Q 66.11 921.16 73.69 907.69
  Q 81.20 894.35 84.94 879.75
  A 0.85 0.85 21.8 0 0 84.53 878.80
  Q 78.99 875.67 73.41 875.02
  A 0.39 0.37 -73.2 0 1 73.13 874.47
  L 79.61 861.53
  A 0.38 0.36 -56.3 0 1 80.17 861.40
  L 88.83 868.88
  A 0.41 0.39 30.8 0 0 89.47 868.74
  L 90.40 866.24
  A 0.84 0.71 32.6 0 0 90.14 865.40
  L 82.71 859.00
  A 0.79 0.68 31.3 0 1 82.45 858.21
  Q 83.16 856.12 84.82 857.48
  Q 85.52 858.05 85.60 858.11
  Q 88.55 860.27 91.19 862.70
  A 0.60 0.59 31.2 0 0 92.16 862.47
  L 102.59 833.23
  A 0.89 0.77 35.1 0 0 102.38 832.40
  L 95.13 824.46
  Q 94.76 824.06 95.31 824.06
  L 130.58 824.00
  Q 131.97 824.00 131.03 825.02
  L 124.09 832.52
  A 1.41 1.41 -33.8 0 0 123.80 833.98
  L 136.62 867.81
  A 0.61 0.60 73.0 0 0 137.31 868.18
  Q 139.82 867.61 139.66 865.98
  Q 139.65 865.81 138.79 863.52
  Q 133.66 849.83 128.36 835.64
  A 1.74 1.67 -35.0 0 1 128.70 833.92
  L 135.93 825.64
  A 1.42 1.08 -66.8 0 1 136.74 825.18
  Q 139.71 824.83 137.69 827.19
  Q 132.44 833.29 131.05 835.10
  A 0.89 0.87 -37.2 0 0 130.92 835.96
  L 141.82 864.95
  A 0.56 0.55 59.4 0 0 142.70 865.18
  L 148.42 860.24
  A 0.40 0.40 -28.3 0 1 149.06 860.43
  Q 151.39 868.51 155.21 875.99
  Q 155.43 876.43 154.94 876.36
  Q 147.98 875.34 141.61 878.04
  A 1.14 1.13 68.6 0 0 140.99 879.48
  L 155.19 917.78
  A 2.63 2.40 -83.5 0 0 156.03 918.94
  L 166.44 926.90
  Q 167.88 928.00 166.08 928.00
  L 127.30 927.94
  Q 126.38 927.94 127.10 927.34
  L 137.25 918.89
  A 0.73 0.70 60.7 0 0 137.46 918.07
  L 128.95 895.60
  A 0.41 0.40 -33.3 0 0 128.28 895.47
  Q 121.09 902.88 115.34 911.40
  A 1.23 1.03 -73.6 0 1 114.58 911.91
  Q 112.42 912.25 113.88 910.11
  Q 119.95 901.17 127.35 893.30
  A 1.18 0.88 -33.0 0 0 127.67 892.43
  Q 127.52 891.49 126.53 890.29
  A 0.60 0.60 49.5 0 0 125.66 890.22
  Q 117.04 897.97 110.77 907.58
  A 0.34 0.33 44.3 0 1 110.21 907.58
  L 98.03 890.39
  A 0.66 0.65 -50.2 0 0 96.91 890.50
  Q 92.77 899.18 91.46 908.78
  Q 90.24 917.66 95.37 924.90
  Q 98.72 929.62 102.46 934.09
  Q 103.22 935.00 102.04 935.00
  Q 82.32 935.00 62.64 935.00
  Q 62.54 935.00 61.37 935.07
  Q 59.86 935.16 58.50 934.50
  Q 55.40 933.00 59.00 933.00
  L 97.40 933.00
  Q 98.80 933.00 97.89 931.87
  L 94.21 927.25
  Z
  M 100.31 874.70
  A 0.98 0.98 -58.6 0 1 100.05 873.62
  L 110.07 847.22
  A 1.49 1.21 -48.5 0 0 110.11 846.26
  L 108.29 841.00
  Q 108.08 840.39 107.85 841.01
  L 95.43 873.79
  A 0.88 0.83 36.4 0 0 95.58 874.63
  L 109.94 892.35
  A 0.56 0.44 48.3 0 0 110.67 892.48
  L 112.73 890.42
  A 0.77 0.58 53.5 0 0 112.74 889.57
  Q 107.66 881.41 100.31 874.70
  Z
  M 111.43 850.95
  L 103.24 872.53
  A 1.61 1.59 34.2 0 0 103.56 874.18
  Q 109.43 880.54 114.24 887.64
  A 0.62 0.57 -40.9 0 0 115.17 887.67
  L 122.18 880.22
  A 1.52 1.34 -35.3 0 0 122.53 878.74
  L 112.14 850.95
  Q 111.79 850.02 111.43 850.95
  Z"
/>
<path fill="#231f20" d="
  M 214.94 921.19
  L 215.00 836.34
  A 1.74 1.70 68.0 0 1 215.50 835.12
  L 223.45 827.17
  A 0.63 0.55 -47.1 0 1 224.23 827.09
  Q 224.79 827.53 224.94 828.25
  A 0.99 0.78 -32.2 0 1 224.64 829.08
  L 217.58 836.14
  A 1.27 1.09 70.6 0 0 217.25 836.99
  L 217.25 921.19
  A 0.56 0.56 0.0 0 0 217.81 921.75
  Q 220.75 921.75 223.49 921.90
  Q 233.14 922.44 240.44 918.69
  Q 245.20 916.23 248.69 910.44
  Q 250.93 906.71 252.82 898.56
  Q 252.94 898.07 253.10 898.54
  Q 257.98 912.73 266.30 925.18
  Q 266.68 925.74 267.50 926.53
  Q 269.41 928.35 265.97 928.10
  Q 264.65 928.00 264.03 928.00
  Q 224.02 928.18 184.57 927.76
  Q 183.45 927.74 184.34 927.01
  L 194.33 918.77
  A 1.15 0.92 74.5 0 0 194.69 917.93
  L 194.75 834.99
  A 1.24 1.04 -72.1 0 0 194.40 834.13
  L 184.18 824.80
  Q 183.30 824.00 184.46 824.00
  L 221.10 824.00
  Q 222.50 824.00 221.46 824.97
  L 211.38 834.37
  A 1.31 1.15 71.3 0 0 211.00 835.29
  L 211.06 921.18
  A 0.54 0.50 90.0 0 0 211.56 921.72
  L 214.44 921.72
  A 0.53 0.50 90.0 0 0 214.94 921.19
  Z"
/>
<path fill="#231f20" d="
  M 458.21 927.25
  Q 450.48 918.01 453.50 905.75
  Q 455.98 895.71 459.06 887.97
  A 0.91 0.67 -60.2 0 0 458.96 887.09
  L 456.22 884.35
  A 0.40 0.35 -57.7 0 0 455.62 884.53
  Q 453.21 890.53 451.38 896.71
  Q 448.48 906.46 448.30 909.20
  Q 447.83 916.45 452.97 922.53
  Q 455.16 925.11 457.54 927.50
  Q 456.69 927.98 454.25 928.00
  Q 436.00 928.19 418.19 927.76
  Q 417.06 927.73 418.08 927.24
  Q 423.63 924.54 428.07 920.50
  Q 431.79 917.13 435.49 911.21
  Q 444.70 896.50 448.99 879.55
  A 0.57 0.56 -68.1 0 0 448.73 878.93
  Q 443.29 875.74 437.37 874.98
  A 0.39 0.37 -72.7 0 1 437.10 874.42
  L 443.62 861.52
  A 0.36 0.35 -56.4 0 1 444.17 861.40
  L 452.55 868.65
  A 0.53 0.52 -53.2 0 0 453.33 868.53
  Q 455.18 865.76 453.40 864.51
  Q 452.40 863.82 452.32 863.75
  Q 449.58 861.29 446.70 859.00
  A 0.73 0.66 30.6 0 1 446.46 858.22
  Q 447.24 856.02 449.44 857.78
  Q 452.56 860.29 455.21 862.62
  A 0.57 0.57 30.9 0 0 456.13 862.39
  L 466.76 833.54
  A 0.82 0.82 -56.5 0 0 466.59 832.69
  L 458.81 824.43
  Q 458.40 824.00 458.99 824.00
  L 494.63 824.00
  Q 495.97 824.00 495.07 824.98
  L 488.09 832.52
  A 1.40 1.38 -34.1 0 0 487.80 833.97
  L 500.72 868.05
  A 0.55 0.49 64.2 0 0 501.47 868.36
  L 503.57 867.03
  A 0.73 0.59 64.3 0 0 503.76 866.22
  L 492.41 835.95
  A 1.91 1.75 56.6 0 1 492.71 834.07
  L 500.40 825.36
  A 1.12 0.95 -64.8 0 1 501.24 824.98
  Q 502.07 825.04 502.33 825.70
  A 0.97 0.72 -38.9 0 1 502.11 826.56
  L 495.07 834.87
  A 0.86 0.85 -34.6 0 0 494.91 835.72
  L 505.81 864.79
  A 0.43 0.38 60.8 0 0 506.43 865.00
  L 512.26 860.36
  A 0.57 0.51 -28.1 0 1 513.13 860.58
  Q 515.39 868.54 519.24 875.95
  Q 519.47 876.41 518.96 876.36
  Q 511.79 875.56 505.88 877.88
  A 1.36 1.35 -21.0 0 0 505.11 879.61
  L 519.39 918.22
  A 1.82 1.66 10.9 0 0 519.96 918.98
  L 530.72 927.17
  Q 531.72 927.93 530.46 927.94
  L 492.12 928.00
  Q 490.35 928.00 491.73 926.85
  L 501.38 918.80
  A 0.59 0.56 59.9 0 0 501.54 918.14
  L 492.97 895.64
  A 0.37 0.37 56.8 0 0 492.36 895.51
  Q 485.03 902.91 479.29 911.33
  A 1.56 1.09 -72.8 0 1 478.54 911.91
  Q 477.31 912.24 477.45 911.10
  Q 477.50 910.65 477.88 910.10
  Q 483.92 901.16 491.34 893.31
  A 1.17 0.95 -31.1 0 0 491.65 892.45
  Q 491.47 891.13 490.60 890.12
  A 0.52 0.50 -40.7 0 0 489.87 890.08
  Q 481.18 897.71 474.74 907.74
  A 0.34 0.34 43.8 0 1 474.18 907.75
  L 462.03 890.46
  A 0.69 0.68 -50.1 0 0 460.85 890.58
  Q 456.81 899.09 455.25 908.75
  Q 454.56 913.04 455.81 917.58
  Q 456.75 921.00 459.72 925.32
  Q 463.00 930.09 466.69 934.57
  Q 467.05 935.00 466.49 935.00
  Q 444.91 935.05 423.31 934.94
  Q 422.09 934.93 421.82 933.75
  A 0.43 0.41 -6.4 0 1 422.24 933.24
  L 461.78 933.01
  Q 462.77 933.01 462.15 932.22
  L 458.21 927.25
  Z
  M 464.31 874.70
  A 0.98 0.98 -58.6 0 1 464.05 873.62
  L 474.08 846.97
  A 1.47 1.34 47.5 0 0 474.08 846.02
  L 472.34 841.04
  Q 472.10 840.35 471.84 841.04
  L 459.43 873.79
  A 0.88 0.83 36.4 0 0 459.58 874.63
  L 473.94 892.35
  A 0.56 0.44 48.3 0 0 474.67 892.48
  L 476.73 890.42
  A 0.77 0.58 53.5 0 0 476.74 889.57
  Q 471.67 881.41 464.31 874.70
  Z
  M 475.40 851.03
  L 467.17 872.71
  A 1.31 1.29 33.9 0 0 467.45 874.07
  Q 473.31 880.30 478.05 887.41
  A 0.71 0.70 -40.2 0 0 479.15 887.50
  L 486.40 879.86
  A 0.82 0.79 -34.0 0 0 486.58 879.03
  L 476.16 851.03
  Q 475.78 850.02 475.40 851.03
  Z"
/>
<path fill="#231f20" d="
  M 702.21 927.25
  Q 694.52 918.06 697.50 905.75
  Q 699.94 895.66 703.06 888.21
  A 0.93 0.65 -59.5 0 0 702.99 887.33
  L 700.14 884.25
  A 0.31 0.27 -57.4 0 0 699.66 884.39
  Q 695.61 894.61 693.25 904.75
  Q 690.47 916.69 698.37 924.38
  Q 699.97 925.93 701.54 927.50
  Q 701.13 927.98 700.50 927.98
  Q 681.66 928.05 662.80 927.94
  Q 660.66 927.93 662.58 927.00
  Q 671.94 922.48 677.91 913.46
  Q 688.02 898.21 692.88 880.02
  A 1.24 1.23 21.3 0 0 692.25 878.60
  Q 686.85 875.82 681.42 874.89
  A 0.37 0.34 -71.1 0 1 681.19 874.37
  L 687.64 861.46
  A 0.37 0.37 -55.7 0 1 688.22 861.35
  L 696.44 868.56
  A 1.41 0.59 -51.4 0 0 697.81 867.81
  Q 699.32 865.91 697.48 864.51
  Q 694.40 862.16 691.51 859.60
  Q 691.47 859.57 690.82 859.09
  Q 689.67 858.25 691.33 857.09
  A 0.72 0.66 -42.3 0 1 692.17 857.09
  L 699.23 862.71
  A 0.62 0.59 29.6 0 0 700.18 862.47
  L 710.68 833.44
  A 1.17 1.09 33.8 0 0 710.40 832.26
  L 702.93 824.52
  Q 702.43 824.00 703.16 824.00
  L 738.54 824.00
  Q 740.03 824.00 739.01 825.09
  L 731.87 832.77
  A 0.82 0.82 -34.5 0 0 731.71 833.63
  L 744.64 867.96
  A 0.60 0.56 73.4 0 0 745.30 868.35
  Q 746.67 868.02 747.48 866.91
  A 0.96 0.87 54.1 0 0 747.58 866.03
  L 736.31 835.68
  A 1.67 1.61 56.9 0 1 736.64 833.98
  Q 740.16 830.23 743.47 826.15
  Q 744.19 825.27 744.75 825.11
  Q 745.56 824.87 746.20 825.59
  A 0.63 0.58 -45.5 0 1 746.18 826.38
  L 739.08 834.76
  A 1.33 1.28 -35.8 0 0 738.84 836.07
  L 749.69 864.83
  A 0.73 0.69 -30.5 0 0 750.81 865.09
  L 756.41 860.48
  A 0.37 0.35 61.8 0 1 756.97 860.67
  Q 759.45 868.32 763.22 875.95
  Q 763.45 876.41 762.94 876.35
  Q 755.79 875.56 749.96 877.85
  A 1.44 1.43 -21.1 0 0 749.14 879.68
  L 763.39 918.21
  A 1.75 1.71 9.5 0 0 763.96 918.99
  L 774.82 927.19
  Q 775.80 927.94 774.57 927.94
  L 736.00 928.00
  Q 734.33 928.00 735.63 926.92
  L 745.41 918.76
  A 0.54 0.53 59.6 0 0 745.56 918.17
  L 736.95 895.61
  A 0.34 0.34 -33.1 0 0 736.38 895.49
  Q 728.91 903.06 723.22 911.52
  A 1.19 1.05 -74.0 0 1 722.44 912.02
  Q 720.50 912.25 721.56 910.56
  Q 726.72 902.37 735.34 893.30
  A 1.14 0.94 -30.4 0 0 735.65 892.45
  Q 735.47 891.13 734.60 890.12
  A 0.51 0.50 -40.7 0 0 733.88 890.07
  Q 725.03 897.80 718.72 907.80
  A 0.33 0.32 44.3 0 1 718.18 907.80
  L 705.96 890.38
  Q 705.35 889.51 704.89 890.50
  Q 701.35 898.18 699.69 905.99
  Q 697.38 916.86 703.86 925.66
  Q 707.03 929.95 710.46 934.09
  Q 711.22 935.00 710.04 935.00
  Q 690.00 935.00 670.00 935.22
  Q 668.16 935.24 666.50 934.50
  Q 663.13 933.00 667.00 933.00
  L 705.40 933.00
  Q 706.80 933.00 705.89 931.87
  L 702.21 927.25
  Z
  M 708.31 874.70
  A 0.98 0.98 -58.6 0 1 708.05 873.62
  L 718.07 847.22
  A 1.49 1.21 -48.5 0 0 718.11 846.26
  L 716.29 841.00
  Q 716.08 840.39 715.85 841.01
  L 703.44 873.78
  A 1.01 0.98 36.1 0 0 703.61 874.76
  L 717.94 892.35
  A 0.56 0.44 48.3 0 0 718.67 892.48
  L 720.73 890.42
  A 0.77 0.58 53.5 0 0 720.74 889.57
  Q 715.66 881.41 708.31 874.70
  Z
  M 719.62 850.48
  L 711.24 872.53
  A 1.61 1.59 34.2 0 0 711.56 874.18
  Q 717.43 880.54 722.24 887.64
  A 0.62 0.57 -40.9 0 0 723.17 887.67
  L 730.24 880.16
  A 1.38 1.21 -35.2 0 0 730.56 878.83
  L 720.00 850.48
  Q 719.81 849.97 719.62 850.48
  Z"
/>
<path fill="#231f20" d="
  M 778.06 928.80
  Q 773.83 925.11 769.78 921.22
  Q 768.01 919.53 767.10 917.19
  Q 760.39 899.88 753.66 881.81
  A 0.60 0.60 -10.4 0 1 754.22 881.00
  L 768.60 881.00
  A 0.48 0.48 75.6 0 0 769.02 880.29
  Q 764.30 871.61 761.71 863.05
  A 0.35 0.33 84.1 0 1 762.06 862.60
  Q 763.67 862.78 764.06 863.94
  Q 767.52 873.98 772.91 883.36
  Q 773.16 883.79 772.66 883.76
  L 757.10 883.00
  A 0.43 0.42 80.5 0 0 756.69 883.59
  L 769.44 917.33
  Q 769.97 918.71 771.09 919.70
  Q 778.53 926.20 785.91 933.10
  Q 786.48 933.63 787.10 933.30
  Q 787.66 933.00 788.00 933.00
  L 825.89 933.00
  Q 827.69 933.00 826.45 931.57
  L 823.97 928.73
  A 1.19 0.83 63.2 0 0 823.19 928.31
  L 785.81 928.19
  A 0.31 0.19 1.5 0 1 785.49 927.98
  Q 785.50 927.83 785.75 927.75
  Q 798.29 924.15 800.75 911.75
  Q 802.02 905.34 801.97 896.75
  Q 801.80 864.91 801.69 833.06
  A 1.06 0.99 -72.4 0 0 801.30 832.24
  L 791.62 824.59
  Q 790.96 824.06 791.79 824.06
  L 830.40 824.00
  Q 832.39 824.00 830.70 825.05
  L 821.59 830.75
  A 1.11 1.11 60.4 0 0 821.19 832.20
  L 859.23 906.20
  Q 859.74 907.19 859.87 906.08
  Q 860.18 903.33 860.01 900.35
  Q 859.87 897.72 858.44 894.96
  Q 842.49 864.16 826.53 833.01
  A 0.58 0.57 60.2 0 1 826.73 832.27
  L 837.08 825.29
  A 0.99 0.77 -45.2 0 1 837.96 825.18
  Q 838.66 825.53 839.01 826.23
  A 0.63 0.51 -31.4 0 1 838.76 826.94
  L 829.64 833.19
  A 0.61 0.56 59.3 0 0 829.48 833.94
  L 859.14 891.97
  Q 860.00 893.65 860.00 891.76
  Q 860.00 869.19 860.00 846.63
  Q 860.00 839.14 858.59 835.56
  Q 855.70 828.25 848.10 825.01
  Q 845.94 824.09 848.29 824.06
  Q 865.08 823.91 881.84 824.06
  Q 882.25 824.06 882.50 824.22
  Q 883.18 824.63 882.03 825.07
  Q 874.00 828.13 870.49 834.93
  Q 868.27 839.22 867.70 848.94
  Q 867.30 855.70 867.34 862.48
  Q 867.43 875.82 867.43 876.02
  Q 867.19 901.74 867.25 927.32
  A 0.68 0.68 0.0 0 1 866.57 928.00
  L 854.17 928.00
  A 1.04 1.04 76.3 0 1 853.25 927.44
  L 815.68 854.80
  Q 815.31 854.09 815.31 854.89
  Q 815.25 875.98 815.19 897.15
  Q 815.19 897.23 815.04 901.97
  Q 814.82 909.13 816.96 916.01
  Q 818.57 921.16 822.77 924.46
  Q 823.10 924.72 823.30 924.97
  Q 824.43 926.42 822.01 925.03
  Q 815.96 921.57 814.21 914.76
  Q 813.19 910.82 813.04 906.75
  Q 812.59 894.83 812.79 882.91
  Q 812.94 874.40 812.81 867.10
  Q 812.67 859.20 812.73 851.29
  Q 812.75 849.27 811.78 847.47
  Q 810.51 845.09 809.31 842.68
  Q 808.31 840.67 808.31 842.91
  Q 808.39 869.79 808.49 897.67
  Q 808.50 900.00 808.85 903.31
  Q 809.05 905.21 809.16 907.11
  Q 809.31 909.59 809.57 910.87
  Q 811.85 921.86 822.10 925.99
  Q 824.84 927.10 826.29 928.44
  Q 829.39 931.33 831.90 934.79
  Q 832.19 935.19 831.69 935.19
  Q 763.66 935.31 741.25 935.00
  Q 740.05 934.98 739.81 933.75
  A 0.45 0.43 -5.2 0 1 740.26 933.24
  L 781.19 933.00
  Q 783.30 932.99 781.52 931.86
  Q 780.51 931.22 779.70 930.42
  Q 778.20 928.92 778.06 928.80
  Z"
/>
<path fill="#231f20" d="
  M 928.36 926.32
  Q 926.32 924.02 924.25 921.75
  Q 922.73 920.08 922.89 917.83
  Q 923.00 916.25 923.00 916.16
  Q 923.00 876.58 923.00 836.58
  A 1.71 1.69 -22.8 0 1 923.50 835.38
  L 931.82 827.06
  A 0.64 0.64 -51.4 0 1 932.61 826.97
  Q 934.30 828.01 932.83 829.34
  Q 929.69 832.19 925.86 836.01
  A 2.13 2.10 -23.1 0 0 925.25 837.49
  L 925.31 918.69
  A 1.36 1.24 -67.7 0 0 925.63 919.56
  L 938.29 933.88
  Q 939.28 935.00 937.79 935.00
  Q 918.81 935.00 900.11 935.00
  Q 900.01 935.00 898.90 935.07
  Q 897.39 935.16 896.06 934.44
  Q 893.41 933.00 896.50 933.00
  L 932.99 933.00
  Q 934.32 933.00 933.42 932.02
  L 930.08 928.39
  A 1.86 1.82 -21.6 0 0 928.68 927.80
  Q 910.15 928.33 892.45 927.76
  Q 891.50 927.73 892.24 927.12
  L 902.32 918.77
  A 1.10 0.98 72.5 0 0 902.69 917.95
  L 902.68 834.56
  A 1.20 0.95 -74.0 0 0 902.33 833.71
  L 892.41 825.07
  Q 891.18 824.00 892.77 824.00
  L 929.19 824.06
  Q 930.12 824.06 929.44 824.72
  L 920.13 833.79
  Q 919.06 834.84 919.06 836.57
  L 919.25 918.10
  A 2.59 2.53 -68.5 0 0 920.03 919.95
  Q 924.25 923.99 928.26 926.43
  Q 928.70 926.70 928.36 926.32
  Z"
/>
<path fill="#ffffff" d="
  M 381.01 845.21
  Q 377.87 837.16 370.00 835.00
  Q 359.31 832.07 348.51 836.86
  A 0.77 0.76 78.2 0 0 348.06 837.56
  L 348.00 869.48
  A 0.52 0.51 90.0 0 1 347.49 870.00
  L 344.52 870.00
  A 0.52 0.51 -0.0 0 1 344.00 869.49
  L 344.06 834.07
  A 0.94 0.91 74.0 0 1 344.48 833.29
  Q 354.45 826.90 365.50 828.25
  Q 378.90 829.89 383.05 841.33
  Q 385.24 847.34 384.01 853.34
  Q 382.64 860.04 377.49 864.19
  Q 372.97 867.83 364.59 869.14
  Q 357.87 870.18 351.00 869.78
  A 0.53 0.53 1.7 0 1 350.50 869.25
  L 350.44 839.49
  A 0.89 0.88 -14.1 0 1 350.91 838.71
  Q 355.46 836.35 359.98 836.02
  Q 371.93 835.14 379.06 844.44
  Q 379.44 844.92 380.73 845.49
  Q 381.20 845.70 381.01 845.21
  Z"
/>
<path fill="#231f20" d="
  M 871.69 932.44
  Q 871.87 869.70 871.75 856.25
  Q 871.69 849.59 872.42 844.12
  Q 873.27 837.71 875.81 834.59
  Q 879.30 830.33 885.68 829.84
  A 0.34 0.34 7.7 0 1 886.03 830.29
  Q 885.43 831.93 884.25 832.25
  Q 878.53 833.80 876.06 838.06
  Q 873.98 841.67 874.04 848.50
  Q 874.39 889.72 874.04 934.21
  A 0.75 0.75 -0.4 0 1 873.31 934.95
  Q 865.81 935.09 857.72 934.95
  Q 857.02 934.94 856.52 934.59
  Q 854.40 933.12 857.75 933.10
  Q 864.47 933.05 871.20 932.94
  A 0.50 0.49 -90.0 0 0 871.69 932.44
  Z"
/>
<path fill="#ffffff" d="
  M 100.31 874.70
  Q 107.66 881.41 112.74 889.57
  A 0.77 0.58 53.5 0 1 112.73 890.42
  L 110.67 892.48
  A 0.56 0.44 48.3 0 1 109.94 892.35
  L 95.58 874.63
  A 0.88 0.83 36.4 0 1 95.43 873.79
  L 107.85 841.01
  Q 108.08 840.39 108.29 841.00
  L 110.11 846.26
  A 1.49 1.21 -48.5 0 1 110.07 847.22
  L 100.05 873.62
  A 0.98 0.98 -58.6 0 0 100.31 874.70
  Z"
/>
<path fill="#ffffff" d="
  M 464.31 874.70
  Q 471.67 881.41 476.74 889.57
  A 0.77 0.58 53.5 0 1 476.73 890.42
  L 474.67 892.48
  A 0.56 0.44 48.3 0 1 473.94 892.35
  L 459.58 874.63
  A 0.88 0.83 36.4 0 1 459.43 873.79
  L 471.84 841.04
  Q 472.10 840.35 472.34 841.04
  L 474.08 846.02
  A 1.47 1.34 47.5 0 1 474.08 846.97
  L 464.05 873.62
  A 0.98 0.98 -58.6 0 0 464.31 874.70
  Z"
/>
<path fill="#ffffff" d="
  M 708.31 874.70
  Q 715.66 881.41 720.74 889.57
  A 0.77 0.58 53.5 0 1 720.73 890.42
  L 718.67 892.48
  A 0.56 0.44 48.3 0 1 717.94 892.35
  L 703.61 874.76
  A 1.01 0.98 36.1 0 1 703.44 873.78
  L 715.85 841.01
  Q 716.08 840.39 716.29 841.00
  L 718.11 846.26
  A 1.49 1.21 -48.5 0 1 718.07 847.22
  L 708.05 873.62
  A 0.98 0.98 -58.6 0 0 708.31 874.70
  Z"
/>
<path fill="#ffffff" d="
  M 719.62 850.48
  Q 719.81 849.97 720.00 850.48
  L 730.56 878.83
  A 1.38 1.21 -35.2 0 1 730.24 880.16
  L 723.17 887.67
  A 0.62 0.57 -40.9 0 1 722.24 887.64
  Q 717.43 880.54 711.56 874.18
  A 1.61 1.59 34.2 0 1 711.24 872.53
  L 719.62 850.48
  Z"
/>
<path fill="#ffffff" d="
  M 111.43 850.95
  Q 111.79 850.02 112.14 850.95
  L 122.53 878.74
  A 1.52 1.34 -35.3 0 1 122.18 880.22
  L 115.17 887.67
  A 0.62 0.57 -40.9 0 1 114.24 887.64
  Q 109.43 880.54 103.56 874.18
  A 1.61 1.59 34.2 0 1 103.24 872.53
  L 111.43 850.95
  Z"
/>
<path fill="#ffffff" d="
  M 475.40 851.03
  Q 475.78 850.02 476.16 851.03
  L 486.58 879.03
  A 0.82 0.79 -34.0 0 1 486.40 879.86
  L 479.15 887.50
  A 0.71 0.70 -40.2 0 1 478.05 887.41
  Q 473.31 880.30 467.45 874.07
  A 1.31 1.29 33.9 0 1 467.17 872.71
  L 475.40 851.03
  Z"
/>
<path fill="#ffffff" d="
  M 592.50 927.21
  L 591.75 927.29
  Q 584.95 921.80 582.81 918.94
  Q 582.10 917.99 581.72 915.52
  Q 581.46 913.89 581.97 912.03
  Q 589.88 882.97 597.85 854.26
  Q 598.15 853.17 598.44 854.27
  L 600.56 862.32
  A 1.85 1.84 -44.7 0 1 600.55 863.30
  L 585.77 916.97
  Q 585.35 918.50 586.49 919.89
  L 592.50 927.21
  Z"
/>
<path fill="#1f1d1d" d="
  M 173.83 932.58
  L 160.92 920.53
  Q 159.96 919.63 159.55 918.57
  L 145.69 882.01
  A 0.75 0.75 -10.3 0 1 146.39 881.00
  L 160.79 881.00
  A 0.36 0.36 -14.2 0 0 161.11 880.47
  Q 156.35 871.85 153.74 862.96
  Q 153.59 862.47 154.08 862.62
  Q 154.91 862.88 155.45 863.25
  Q 155.94 863.59 156.24 864.46
  Q 159.60 874.15 164.96 883.37
  Q 165.21 883.79 164.71 883.77
  L 148.85 882.99
  A 0.31 0.30 80.8 0 0 148.56 883.41
  L 161.26 917.02
  Q 161.83 918.54 162.97 919.56
  L 179.36 934.23
  Q 180.22 935.00 179.07 935.00
  Q 157.00 935.00 134.75 935.18
  Q 133.00 935.19 131.83 933.95
  Q 130.93 933.00 132.24 933.00
  L 173.70 932.94
  Q 174.22 932.94 173.83 932.58
  Z"
/>
<path fill="#1f1d1d" d="
  M 531.29 926.47
  Q 528.49 923.85 525.74 921.19
  Q 524.00 919.51 523.13 917.24
  Q 516.34 899.67 509.65 881.96
  A 0.71 0.71 79.7 0 1 510.31 881.00
  L 524.44 881.00
  Q 525.61 881.00 525.00 880.00
  Q 520.31 872.29 517.88 863.24
  A 0.41 0.38 82.6 0 1 518.25 862.72
  Q 519.61 862.75 520.06 863.94
  Q 524.40 875.37 528.70 883.25
  Q 528.93 883.67 528.44 883.65
  L 513.00 883.01
  A 0.34 0.33 80.2 0 0 512.68 883.47
  Q 518.79 899.88 525.00 916.25
  Q 525.97 918.81 527.80 920.33
  Q 528.99 921.32 529.03 921.35
  Q 536.09 927.87 543.32 934.20
  Q 544.24 935.00 543.02 935.00
  Q 521.49 935.00 499.74 935.00
  Q 499.65 935.00 498.78 935.05
  Q 497.25 935.14 496.05 934.18
  Q 494.66 933.06 496.44 933.06
  L 537.34 933.00
  Q 539.00 933.00 537.70 931.97
  Q 534.13 929.13 531.29 926.47
  Z"
/>
<path fill="#ffffff" d="
  M 385.33 893.41
  Q 382.01 884.71 372.00 882.50
  Q 360.22 879.90 348.53 881.78
  A 0.63 0.62 85.7 0 0 348.00 882.40
  Q 348.00 901.45 348.00 919.67
  Q 348.00 919.75 348.10 920.82
  Q 348.24 922.24 346.80 922.14
  Q 346.02 922.08 345.21 922.14
  Q 343.72 922.23 343.87 920.69
  Q 344.00 919.39 344.00 919.29
  Q 344.00 899.01 344.00 877.80
  A 1.01 1.00 86.8 0 1 344.89 876.80
  Q 359.96 875.13 373.75 878.00
  Q 377.75 878.83 380.95 881.50
  Q 383.76 883.86 385.50 887.79
  Q 388.10 893.67 387.82 900.01
  Q 387.47 907.85 383.47 913.16
  Q 378.99 919.13 370.56 920.56
  Q 361.35 922.12 351.02 921.71
  A 0.54 0.54 1.1 0 1 350.50 921.17
  L 350.50 884.48
  A 0.89 0.88 87.1 0 1 351.29 883.60
  Q 360.18 882.67 368.35 883.88
  Q 373.83 884.69 377.29 886.70
  Q 381.46 889.12 384.39 893.20
  Q 384.60 893.49 384.84 893.58
  Q 384.98 893.64 385.13 893.66
  Q 385.45 893.72 385.33 893.41
  Z"
/>
<path fill="#1f1d1d" d="
  M 320.78 934.62
  Q 318.46 933.10 321.25 933.09
  Q 344.25 933.00 367.25 933.05
  Q 374.29 933.07 381.28 932.48
  Q 390.14 931.74 394.90 929.58
  Q 399.34 927.56 402.94 924.20
  Q 406.32 921.04 408.53 916.50
  Q 416.31 900.49 405.54 885.06
  Q 405.40 884.85 404.72 884.18
  Q 403.99 883.46 404.80 882.97
  A 0.74 0.63 48.7 0 1 405.63 883.09
  Q 411.80 888.72 413.25 896.50
  Q 416.12 911.90 407.17 922.84
  Q 402.16 928.94 394.27 932.04
  Q 386.71 935.00 378.25 935.00
  Q 350.25 935.00 322.04 935.00
  A 2.29 2.26 -27.8 0 1 320.78 934.62
  Z"
/>
<path fill="#ffffff" d="
  M 94.21 927.25
  Q 93.83 927.24 93.54 927.50
  Q 91.97 925.93 90.37 924.38
  Q 82.47 916.69 85.25 904.75
  Q 87.61 894.61 91.66 884.39
  A 0.31 0.27 -57.4 0 1 92.14 884.25
  L 94.99 887.33
  A 0.93 0.65 -59.5 0 1 95.06 888.21
  Q 91.94 895.66 89.50 905.75
  Q 86.52 918.06 94.21 927.25
  Z"
/>
<path fill="#ffffff" d="
  M 458.21 927.25
  Q 457.83 927.24 457.54 927.50
  Q 455.16 925.11 452.97 922.53
  Q 447.83 916.45 448.30 909.20
  Q 448.48 906.46 451.38 896.71
  Q 453.21 890.53 455.62 884.53
  A 0.40 0.35 -57.7 0 1 456.22 884.35
  L 458.96 887.09
  A 0.91 0.67 -60.2 0 1 459.06 887.97
  Q 455.98 895.71 453.50 905.75
  Q 450.48 918.01 458.21 927.25
  Z"
/>
<path fill="#ffffff" d="
  M 702.21 927.25
  Q 701.83 927.24 701.54 927.50
  Q 699.97 925.93 698.37 924.38
  Q 690.47 916.69 693.25 904.75
  Q 695.61 894.61 699.66 884.39
  A 0.31 0.27 -57.4 0 1 700.14 884.25
  L 702.99 887.33
  A 0.93 0.65 -59.5 0 1 703.06 888.21
  Q 699.94 895.66 697.50 905.75
  Q 694.52 918.06 702.21 927.25
  Z"
/>
<path fill="#1f1d1d" d="
  M 272.17 932.49
  L 274.04 927.79
  A 0.94 0.80 39.2 0 0 273.88 926.92
  Q 265.41 916.05 259.88 902.56
  Q 259.68 902.09 260.18 902.20
  Q 262.35 902.69 263.03 904.24
  Q 268.39 916.34 276.36 927.00
  A 0.85 0.84 -50.8 0 1 276.44 927.88
  L 273.16 934.49
  A 0.80 0.80 -76.9 0 1 272.44 934.94
  Q 231.90 935.05 191.37 935.00
  Q 191.26 935.00 189.64 935.11
  Q 187.56 935.24 186.45 934.01
  Q 185.55 933.00 186.90 933.00
  L 271.44 932.94
  A 0.81 0.71 9.5 0 0 272.17 932.49
  Z"
/>
</svg>
