<?xml version="1.0" encoding="utf-8"?>
<!-- Generator: Adobe Illustrator 22.0.1, SVG Export Plug-In . SVG Version: 6.00 Build 0)  -->
<svg version="1.1" id="Layer_1" xmlns="http://www.w3.org/2000/svg" xmlns:xlink="http://www.w3.org/1999/xlink" x="0px" y="0px"
	 viewBox="0 0 1000 1000" style="enable-background:new 0 0 1000 1000;" xml:space="preserve">
<style type="text/css">
	.st0{fill:#008DC3;}
	.st1{fill:#FFFFFF;}
</style>
<path class="st0" d="M859.8,536.6c0,42-34.4,76.2-76.7,76.2c-42.3,0-76.8-34.2-76.8-76.2V401.1c26.7-6.2,52.5-15.3,76.7-26.8
	c24.2,11.5,50,20.6,76.7,26.8V536.6z M100.3,347.5v305.6h682v0c0.2,0,0.5,0,0.7,0c64.7,0,117.1-52.2,117.1-116.5V347.5H100.3z"/>
<path class="st1" d="M800.1,405.8c0,0-6.2,1.4-10.9,6.1c14.2-3.5,28.7,5.5,28.7,5.5s-11.6-3.4-23.8,1.2
	c17.7,3.9,23.6,19.5,23.6,19.5s-10.9-10.5-25.1-12.2c7.7,7.1,8.1,20.2,8.1,20.2s-5.5-12.2-15-16.8c-0.1,3.2-0.1,6.7-0.1,10.8
	c0,12.7,0.3,24.1,0.8,33.1c1.9-0.8,3.6-0.9,3.6-0.9s-1.6,1.3-3.1,3.7c3.3-0.6,6.1,0.1,6.1,0.1s0,0.1-0.1,0.2
	c-3.2,1.3-6.5,2.9-9.9,4.8c-3.7-2.1-7.4-3.8-10.9-5.1c-0.1-0.1-0.1-0.2-0.1-0.2s3.2-0.6,6.7,0.2c-1.4-2.2-3-3.5-3-3.5s1.8,0.1,3.9,1
	c0.5-9,0.8-20.5,0.8-33.2c0-4.1,0-7.6-0.1-10.8c-9.5,4.6-15,16.8-15,16.8s0.5-13.1,8.1-20.2c-14.2,1.7-25.1,12.2-25.1,12.2
	s5.9-15.6,23.6-19.5c-12.1-4.6-23.8-1.2-23.8-1.2s14.6-9,28.7-5.5c-4.8-4.7-10.9-6.1-10.9-6.1s7.7-1,13.9,1.5c0.8-3.8,2-8,3-9.6
	c0.9,1.6,2.3,5.9,3.1,9.6C792.3,404.7,800.1,405.8,800.1,405.8 M829.5,478.6c-7.3,0.2-19.5,1.3-39.5,14.9c-0.7,0.5-1.5,1-2.2,1.5
	c3.2,2.2,5.7,3.9,7.9,5.4c1.4-1,2.7-1.4,3.4-1c0.2,0.2,0.4,0.4,0.4,0.7c0.1,0.6-0.2,1.4-0.8,2.3c3.8,2.5,5.5,3.7,6.3,4.2
	c0.6-0.8,1.7-1.4,3-1.4c1.9,0,3.4,1.3,3.3,2.9c0,1-0.7,1.9-1.7,2.4c-0.6,0.3-1.4,0.5-2.3,0.5c-3.7,0-8.3-2.7-11.9-5.1
	c-1.2,0.9-2.4,1.5-3.2,1.5c-0.3,0-0.5-0.1-0.7-0.2c-0.2-0.2-0.4-0.4-0.4-0.7c-0.1-0.7,0.3-1.6,1-2.7c-0.3-0.2-0.6-0.4-0.9-0.6l0.1,0
	c-2.3-1.4-4.9-3.1-8.2-5.2c-3.2,2.1-5.9,3.8-8.1,5.2l0.1,0c-0.3,0.2-0.6,0.4-0.9,0.6c0.7,1,1.1,2,1,2.7c-0.1,0.3-0.2,0.6-0.4,0.7
	c-0.2,0.1-0.4,0.2-0.7,0.2c-0.8,0-2-0.6-3.2-1.5c-3.7,2.4-8.2,5-11.9,5.1c-0.9,0-1.7-0.2-2.3-0.5c-1-0.5-1.7-1.4-1.7-2.4
	c0-1.6,1.5-2.8,3.3-2.9c1.3,0,2.4,0.6,3,1.4c0.8-0.5,2.5-1.7,6.2-4.2c-0.6-0.9-0.9-1.7-0.8-2.3c0-0.3,0.2-0.6,0.4-0.7
	c0.6-0.4,2,0,3.4,1c2.1-1.5,4.7-3.2,7.9-5.4c-0.7-0.5-1.4-1-2.2-1.5c-20-13.6-32.2-14.7-39.5-14.9c0,0,20.2-4.7,44.9,12.2
	c0.5,0.3,1,0.7,1.5,1c0.5-0.3,1-0.7,1.5-1C809.3,473.8,829.5,478.6,829.5,478.6 M815.6,578.5c0,0-4.4-0.3-12.9-3.1
	c-7.9-2.6-15.3-0.6-19.5,4.3c-4.3-4.9-11.6-6.9-19.5-4.3c-8.5,2.8-12.9,3.1-12.9,3.1l-9.1-41.8c3.4,0.3,9.7,1,19.9-3.7
	c7-3.2,12.6-2.6,15.4-1.4c2.8,1.2,5.1,6.1,6.2,11.5c0,0,0,0,0,1c0-1,0-1,0-1c1.1-5.4,3.4-10.3,6.2-11.5c2.8-1.2,8.4-1.8,15.4,1.4
	c10.2,4.7,16.5,4,19.9,3.7L815.6,578.5z M706.4,401.1v135.6c0,42,34.5,76.2,76.8,76.2c42.3,0,76.7-34.2,76.7-76.2V401.1
	c-26.7-6.2-52.5-15.3-76.7-26.8C758.9,385.8,733.1,394.8,706.4,401.1"/>
<path class="st0" d="M748.4,417.4c0,0,11.7-3.4,23.8,1.2c-17.7,3.9-23.6,19.5-23.6,19.5s10.9-10.5,25.1-12.2
	c-7.7,7.1-8.1,20.2-8.1,20.2s5.5-12.2,15-16.8c0.1,3.2,0.1,6.7,0.1,10.8c0,12.7-0.3,24.2-0.8,33.2c-2.1-0.9-3.9-1-3.9-1
	s1.6,1.3,3,3.5c-3.5-0.8-6.7-0.2-6.7-0.2s0,0,0.1,0.2c3.5,1.4,7.2,3.1,10.9,5.1c3.4-1.9,6.7-3.4,9.9-4.8c0-0.1,0.1-0.2,0.1-0.2
	s-2.8-0.6-6.1-0.1c1.5-2.3,3.1-3.7,3.1-3.7s-1.6,0.1-3.6,0.9c-0.5-9-0.8-20.4-0.8-33.1c0-4.1,0-7.6,0.1-10.8
	c9.4,4.6,15,16.8,15,16.8s-0.5-13.1-8.1-20.2c14.2,1.7,25,12.2,25,12.2s-6-15.6-23.6-19.5c12.1-4.6,23.8-1.2,23.8-1.2
	s-14.5-9-28.7-5.5c4.8-4.7,10.9-6.1,10.9-6.1s-7.8-1-13.9,1.5c-0.8-3.8-2.1-8-3.1-9.6c-0.9,1.6-2.2,5.9-3,9.6
	c-6.2-2.5-13.9-1.5-13.9-1.5s6.2,1.4,10.9,6.1C762.9,408.3,748.4,417.4,748.4,417.4"/>
<path class="st0" d="M807.8,505.2c-1.3,0-2.4,0.5-3,1.4c-0.8-0.5-2.5-1.7-6.3-4.2c0.6-0.9,0.9-1.7,0.8-2.3c0-0.3-0.2-0.6-0.4-0.7
	c-0.7-0.4-2,0-3.4,1c-2.1-1.5-4.7-3.2-7.9-5.4c0.7-0.5,1.4-1,2.2-1.5c20-13.6,32.2-14.7,39.5-14.9c0,0-20.2-4.7-44.9,12.2
	c-0.5,0.3-1,0.7-1.5,1c-0.5-0.3-1-0.7-1.5-1c-24.7-16.9-44.9-12.2-44.9-12.2c7.3,0.2,19.5,1.3,39.5,14.9c0.7,0.5,1.5,1,2.2,1.5
	c-3.1,2.2-5.7,3.9-7.9,5.4c-1.4-1-2.7-1.4-3.4-1c-0.2,0.2-0.4,0.4-0.4,0.7c-0.1,0.6,0.3,1.4,0.8,2.3c-3.7,2.5-5.5,3.7-6.2,4.2
	c-0.6-0.8-1.7-1.4-3-1.4c-1.9,0-3.4,1.3-3.3,2.9c0,1,0.7,1.9,1.7,2.4c0.6,0.3,1.3,0.5,2.3,0.5c3.7,0,8.3-2.7,11.9-5.1
	c1.2,0.9,2.4,1.5,3.2,1.5c0.3,0,0.5-0.1,0.7-0.2c0.2-0.2,0.4-0.4,0.4-0.7c0.1-0.7-0.3-1.6-1-2.7c0.3-0.2,0.6-0.4,0.9-0.6l-0.1,0
	c2.3-1.4,4.9-3.1,8.1-5.2c3.2,2.1,5.9,3.8,8.2,5.2l-0.1,0c0.3,0.2,0.6,0.4,0.9,0.6c-0.7,1-1.1,2-1,2.7c0,0.3,0.2,0.6,0.4,0.7
	c0.2,0.1,0.4,0.2,0.7,0.2c0.8,0,2-0.6,3.2-1.5c3.6,2.4,8.2,5,11.9,5.1c0.9,0,1.7-0.2,2.3-0.5c1-0.5,1.7-1.3,1.7-2.4
	C811.2,506.5,809.7,505.2,807.8,505.2"/>
<path class="st1" d="M774.7,556.5c-1.7,0-2.7-0.9-2.7-2.8c0-1.9,0.7-3.3,2.8-3.3c1.9,0,3,1.4,3.1,5.1
	C777.1,556.1,775.9,556.5,774.7,556.5 M774.8,547.9c-4,0-6.6,2.5-6.6,5.9c0,3.4,2.3,5.2,5.7,5.2c1.4,0,2.9-0.3,3.9-1.1
	c-0.3,3.1-1.3,4.9-4.6,4.9c-1.4,0-2.3-0.4-2.7-0.8h-1.4v2.8c1,0.4,2.2,0.7,3.9,0.7c5.6,0,8.7-3.3,8.7-9.2
	C781.7,550.7,778.8,547.9,774.8,547.9"/>
<polygon class="st1" points="758.6,550.7 758.6,553.2 759.6,553.2 761.6,552.2 761.6,565.4 765.5,565.4 765.5,548.1 762.9,548.1 "/>
<path class="st1" d="M789.7,554.3c-1.5,0-2.6,0.4-3.1,0.9h-0.1v-4h7.7v-3h-10.5v10.1h2.3c0.5-0.5,1.2-1.2,2.7-1.2
	c1.4,0,2.5,0.8,2.5,2.8c0,1.9-1.5,3-3.4,3c-1.6,0-2.7-0.6-3.3-1.2h-1.4v2.7c1.2,0.7,2.5,1.2,4.8,1.2c4.2,0,7.2-2.2,7.2-5.8
	C795.1,556,792.7,554.3,789.7,554.3"/>
<polygon class="st1" points="795.7,551.1 804.6,551.1 804.6,551.2 797.7,563.9 797.7,565.4 801.4,565.4 807.4,551.4 807.4,548.1 
	795.7,548.1 "/>
<path class="st0" d="M774.8,550.4c-2,0-2.8,1.4-2.8,3.3c0,1.8,1,2.8,2.7,2.8c1.2,0,2.4-0.4,3.1-0.9
	C777.8,551.9,776.7,550.4,774.8,550.4"/>
<path class="st0" d="M807.4,551.4l-6,14h-3.7v-1.5l6.8-12.6v-0.1h-8.9v-3h11.7V551.4z M787.9,565.6c-2.3,0-3.6-0.5-4.8-1.2v-2.7h1.4
	c0.6,0.6,1.7,1.2,3.3,1.2c1.9,0,3.4-1,3.4-3c0-2-1.1-2.8-2.5-2.8c-1.5,0-2.3,0.6-2.7,1.2h-2.3v-10.1h10.5v3h-7.7v4h0.1
	c0.6-0.4,1.6-0.9,3.1-0.9c3,0,5.4,1.7,5.4,5.4C795.1,563.4,792.1,565.6,787.9,565.6 M773,565.6c-1.7,0-2.9-0.3-3.9-0.7v-2.8h1.4
	c0.4,0.4,1.3,0.8,2.7,0.8c3.3,0,4.3-1.8,4.6-4.9c-1,0.8-2.5,1.1-3.9,1.1c-3.3,0-5.7-1.9-5.7-5.2c0-3.4,2.6-5.9,6.6-5.9
	c4,0,6.9,2.8,6.9,8.5C781.7,562.3,778.6,565.6,773,565.6 M765.5,565.4h-3.9v-13.2l-2.1,1.1h-1v-2.6l4.3-2.6h2.6V565.4z M804.7,533
	c-7-3.2-12.6-2.6-15.4-1.4c-2.8,1.2-5,6.1-6.2,11.5c0,0,0,0,0,1c0-1,0-1,0-1c-1.1-5.4-3.4-10.3-6.2-11.5c-2.8-1.2-8.5-1.8-15.4,1.4
	c-10.2,4.7-16.4,4-19.9,3.7l9.1,41.8c0,0,4.4-0.3,12.9-3.1c7.9-2.6,15.2-0.6,19.5,4.3c4.3-4.9,11.6-6.9,19.5-4.3
	c8.5,2.8,12.9,3.1,12.9,3.1l9.1-41.8C821.2,537,815,537.7,804.7,533"/>
<path class="st1" d="M663.1,469.2h-12.6v4.7h2.3c1.1,0,2.3,1.1,2.3,2v42.5h9.6v-47.2C664.7,469.9,664.2,469.2,663.1,469.2"/>
<path class="st1" d="M489.1,481.1h-9.4v-4c0-1,0.2-1.8,0.5-2.4c0.3-0.6,0.7-1.1,1.3-1.4c0.6-0.3,1.2-0.5,2-0.6
	c0.7-0.1,1.5-0.1,2.4-0.1h2.7v-4.2h-4c-2.9,0-5.2,0.7-7,2.1c-1.8,1.4-2.7,3.6-2.7,6.7v4h-5.7v4.1h19.9V481.1z"/>
<path class="st1" d="M603.4,500.9c-0.3,8.6-3.4,12.9-12.9,12.9c-5.7,0-9.1-2.3-11.3-4.5c0.9-1.6,1.5-3.3,1.9-5c0.9-4.1,1.1-8,1.1-8
	c0-5.9,3.8-10.8,9.9-10.8c6.3,0,10.4,3.5,11.2,10.8C603.2,496.3,603.5,499,603.4,500.9 M555.9,512.1c-1.6,0-3-0.3-4-0.8
	c-1.1-0.5-1.9-1.2-2.6-2.2c-0.7-0.9-1.1-2-1.4-3.1c-0.3-1.2-0.4-2.4-0.4-3.7v-17.7h0v-13.7c0-1.3-0.5-1.9-1.6-1.9h-12.6v4.7h2.3
	c1.1,0,2.3,1.1,2.3,2v20.2h0v11c0,2-0.3,3.4-0.8,4.1c-0.6,0.7-1.7,1.1-3.5,1.1h-12.4c-1.6,0-2.9-0.2-4-0.7c-1.1-0.5-1.9-1.2-2.6-2
	c-0.6-0.9-1.1-1.9-1.4-3.1c-0.3-1.2-0.4-2.5-0.4-3.9v-21.6v-10c0-1.3-0.5-1.9-1.6-1.9h-12.5v4.7h2.3c1.1,0,2.2,1.1,2.2,2v20.2h0
	v11.1c0,2-0.3,3.4-0.8,4.1c-0.6,0.7-1.7,1.1-3.5,1.1h-33.7c-3.7,0-4.7-0.1-4.7-0.1c-9.1-0.4-13.7-3.9-13.7-10.2
	c0-4.5,2.2-6.6,4.2-7.8v-3.4h-5.4c-1.7,2.1-3.6,5.8-3.6,11.3c0,10.7,7,16.1,18.5,16.2c0.2,0,3.2,0.1,3.2,0.1h35.7
	c0,0,4.1-0.2,5.7-0.5c2.4-0.6,4.1-1.6,5.3-3c1.1-1.5,1.8-3.2,2.1-5.3c0.6,2.6,1.8,4.7,3.6,6.4c1.8,1.7,4.2,2.5,7.3,2.5h11.6
	c2.2,0,4-0.2,5.4-0.7c1.5-0.4,2.6-1,3.6-1.8c1-0.8,1.7-1.7,2.2-2.8c0.5-1.1,0.9-2.3,1-3.6c0.6,2.6,1.8,4.7,3.6,6.4
	c1.6,1.5,3.8,2.3,6.4,2.5v0h4.7c6,0,10.3-1.8,13.3-4.3c3.2,2,7.9,4.9,15.7,4.9c9.7,0,16.2-3.4,19.3-9.3c0.6,2.5,1.7,4.6,3.5,6.2
	c1.6,1.5,3.8,2.4,6.4,2.5c0.2,0,0.3,0,0.5,0h0.4h20.9v-31.7v-15.4c0-1.3-0.5-1.9-1.6-1.9h-12.6v4.7h2.3c1.1,0,2.3,1.1,2.3,2v10.7
	V512h-11.7H619c-3.2,0-5.4-0.9-6.7-2.8c-0.4-0.6-0.8-1.3-1-2.1c0.8-2.2,1.2-4.6,1.2-7.3c0-11.8-8.3-19.1-20.5-19.1
	c-11.8,0-18.4,7-18.4,17.7l-0.1,2.5c0,11.3-9.2,11.2-14.6,11.2L555.9,512.1z"/>
<path class="st1" d="M224.7,481.2c-6.9,0-11.3,0.9-14,2v7.8h5.6c0.7-3.7,3.7-4.8,8.7-4.8c7.7,0,12.5,4.7,12.5,14.2v11.7h-31.2v6.1
	h40.3v-17.9C246.5,488.5,237.9,481.2,224.7,481.2"/>
<path class="st1" d="M310.5,496.6c0.3-1.9,1.9-3.5,4.5-5.2c3.2-1.8,7.2-2.6,12-2.6c4.8,0,8.8,0.9,12.1,2.6c2.5,1.5,4,3.2,4.3,5.2
	L327,510.4C319.5,504.4,314.1,499.8,310.5,496.6 M264.7,507.7c-0.3-1.5-0.5-3.1-0.5-4.7c0-2.4,0.4-4.4,1.2-5.9
	c0.8-1.6,1.8-2.8,2.9-3.8c1.1-1,2.4-1.6,3.7-2c1.3-0.4,2.6-0.6,3.7-0.6h5.8v21.6h-15.2C265.6,510.8,265.1,509.3,264.7,507.7
	 M364.7,518.4c2.1,0,3.9-0.2,5.4-0.7c1.5-0.4,2.7-1,3.7-1.8c1-0.8,1.7-1.7,2.2-2.8c0.5-1.1,0.9-2.3,1-3.7c0.6,2.6,1.8,4.7,3.6,6.4
	c1.8,1.7,4.2,2.6,7.3,2.6h0.8c4.2,0,7.2-0.8,9-2.5c1.8-1.6,2.9-3.8,3.3-6.5c0.6,2.6,1.8,4.7,3.6,6.4c1.8,1.7,4.2,2.6,7.3,2.6h13.9
	v-17.8v-15.9H417h-5.3v4.8h3.1c1,0,2.2,1,2.2,1.9v9.2h0v11.8h-7.5c-1.6,0-2.9-0.2-4-0.7c-1.1-0.5-2-1.2-2.6-2
	c-0.7-0.9-1.1-1.9-1.4-3.1c-0.2-1.1-0.4-2.2-0.4-3.4v-13.5h-14v4.8h3.2c1,0,2.1,0.9,2.1,1.8v11.1c0,1.9-0.3,3.3-0.8,4
	c-0.6,0.7-2.6,1.1-4.2,1.1h-1.8c-1.6,0-2.9-0.2-4-0.7c-1.1-0.5-2-1.2-2.6-2c-0.6-0.9-1.1-1.9-1.4-3.1c-0.3-1.2-0.4-2.5-0.4-3.9v-8.3
	h0v0h-14v4.9h3.1c1.1,0,2.2,1,2.2,1.9v5v1.2c0,1.9-0.3,3.3-0.9,4c-0.6,0.7-1.7,1.1-3.4,1.1l-24.8,0c-1.3,0-2.6-0.1-3.9-0.3
	c9.9-8.2,15.4-12.6,16.3-13.4c0-4-2.3-7.7-7.1-10.9c-5.1-3.4-11-5-17.8-5c-6.9,0-12.9,1.6-17.8,4.9c-4.9,3.3-7.3,7-7.3,11
	c8.6,7.2,13.9,11.7,16.2,13.4c-1.2,0.3-2.4,0.4-3.7,0.4h-23.1v-27.7h-14.9c-2.9,0-5.6,0.5-8.3,1.4c-2.6,0.9-5,2.3-6.9,4
	c-2,1.7-3.6,3.8-4.8,6.3c-1.2,2.5-1.8,5.2-1.8,8.2c0,2.3,0.4,4.6,1,7c0.7,2.4,1.6,4.6,2.7,6.8h21.9c-2.7,3.5-5.2,5.6-9.4,6.7v4.3
	h7.3c3.3-1.7,7.2-5.5,10.6-11h27c0,0,6,0,11-3.3c4.2,2.6,8.7,3.3,11.6,3.3H364.7z"/>
<path class="st1" d="M237.7,396.6c1.4,0,2.6-0.4,3.6-1.3c0.9-0.9,1.4-1.9,1.4-3.2c0-1.1-0.5-2.2-1.4-3c-0.9-0.9-2.1-1.3-3.6-1.3
	c-1.4,0-2.5,0.4-3.5,1.3c-1,0.9-1.5,1.9-1.5,3c0,1.3,0.5,2.3,1.5,3.2C235.1,396.2,236.3,396.6,237.7,396.6"/>
<path class="st1" d="M223.7,396.6c1.4,0,2.5-0.4,3.5-1.3c1-0.9,1.5-1.9,1.5-3.2c0-1.1-0.5-2.2-1.5-3c-1-0.9-2.2-1.3-3.5-1.3
	c-1.4,0-2.5,0.4-3.5,1.3c-1,0.9-1.4,1.9-1.4,3c0,1.3,0.5,2.3,1.4,3.2C221.2,396.2,222.4,396.6,223.7,396.6"/>
<path class="st1" d="M641.3,447.8c-1.4,0-2.6,0.4-3.6,1.2c-0.9,0.8-1.4,1.9-1.4,3.1c0,1.2,0.5,2.2,1.4,3c0.9,0.8,2.1,1.3,3.6,1.3
	c1.4,0,2.5-0.4,3.5-1.3c1-0.8,1.4-1.8,1.4-3c0-1.3-0.5-2.3-1.4-3.1C643.8,448.2,642.6,447.8,641.3,447.8"/>
<path class="st1" d="M478.2,425c-0.3,8.6-3.4,12.9-12.9,12.9c-5.6,0-9.1-2.3-11.3-4.5c0.9-1.6,1.5-3.3,1.9-4.9c0.8-4.1,1.1-8,1.1-8
	c0-5.9,3.8-10.8,9.9-10.8c6.3,0,10.4,3.5,11.2,10.8C478.1,420.4,478.4,423.1,478.2,425 M330.9,420.7c0.3-1.8,1.9-3.5,4.5-5.1
	c3.2-1.7,7.1-2.6,11.9-2.6c4.7,0,8.8,0.9,12,2.6c2.5,1.5,4,3.2,4.3,5.1l-16.3,13.7C339.9,428.3,334.5,423.8,330.9,420.7
	 M227.5,437.6c-5.4,0-11-2.2-11-13.3c0-10.7,6-13.6,12.2-13.6c3.8,0,7,1.4,9.5,3v19.8C235.6,435.8,232.2,437.6,227.5,437.6
	 M238.3,441.3L238.3,441.3c0,0.1,0.1,0.3,0.1,0.4c0.2,0.4,0.7,0.6,1.5,0.6h96.2h0c0,0,5.9,0,10.9-3.3c4.1,2.6,8.6,3.3,11.5,3.3H437
	c6,0,10.3-1.8,13.3-4.3c3.3,1.9,7.9,4.9,15.6,4.9c14.1,0,21.3-7.2,21.3-18.8c0-11.7-8.3-19.1-20.4-19.1c-11.8,0-18.4,7-18.4,17.7
	l-0.1,2.5c0,10.2-7.4,11.1-12.8,11.2v0h-76c-1.3,0-2.6-0.1-3.9-0.3c9.9-8.1,15.3-12.5,16.2-13.3c0-4-2.3-7.7-7.1-10.8
	c-5-3.3-10.9-5-17.7-5c-6.9,0-12.8,1.6-17.7,4.9c-4.8,3.2-7.2,6.9-7.2,10.9c8.5,7.2,13.8,11.6,16,13.3c-1.3,0.3-2.4,0.3-3.7,0.3
	l-87.7,0v-30.5h-5c-1.1,0-2.8,1.3-3.4,4.2c-2.8-2.7-6.8-4.6-12.9-4.6c-8.4,0-18.1,5.2-18.1,19.2c0,14,9,17.9,17.4,17.9
	c6,0,10.6-2.3,13.3-4.8V441.3z"/>
<path class="st1" d="M665.9,436.2h-3.6c-0.5,0-1.5-0.6-1.8-1.4l-3.1-13.6c-2.8-9-10.4-13.7-14.8-14.7c-2.4-0.7-6.7-1-7.3-1.1
	c-0.4,0-0.7,0-1.1,0c-7.9,0-15.6,1.7-18.8,3.3l-0.8,0.4v5.5h4.3l0.4-0.3c1.8-1.4,8.2-3.5,14.3-3.5l0.9,0c7.3,0,13.2,4.4,15.1,11.1
	l2.9,14.3l-138.8,0V395c0-1.3-0.4-1.9-1.6-1.9h-12.6v4.7h2.3c1.1,0,2.2,1.1,2.2,2v42.5h0h161.6V436.2z"/>
<path class="st1" d="M206.2,588.9h2c0.7,0,1.5-0.9,1.5-1.5v-23.8c0-0.7-0.7-1.6-1.5-1.6h-2v-3.1H219v3.1h-3.9v14.6l11.5-12
	c1.5-1.5,1.1-2.6-0.6-2.6h-0.8v-3.1h11.6v3.1h-1.3c-0.8,0-1.7,0.6-2.6,1.6l-9,9l10.1,14.9c0.5,0.8,1.3,1.5,2.1,1.5h1.3v3h-8.6v-2.8
	l-8.6-12.8l-4.8,4.8v7.8h3.9v3h-12.8V588.9z"/>
<path class="st1" d="M243.4,561.7c0-1.6,1.3-2.9,2.9-2.9c1.6,0,2.9,1.3,2.9,2.9c0,1.6-1.3,2.9-2.9,2.9
	C244.6,564.6,243.4,563.3,243.4,561.7 M240.7,588.9h1.9c0.6,0,1.3-0.7,1.3-1.3v-15.9c0-0.6-0.6-1.3-1.2-1.3h-2.1v-3.2h7.5
	c0.7,0,0.9,0.6,0.9,2.2v18.3c0,0.7,0.7,1.3,1.3,1.3h1.9v3h-11.4V588.9z"/>
<path class="st1" d="M255.4,588.9h1.9c0.6,0,1.3-0.7,1.3-1.3v-15.9c0-0.6-0.6-1.3-1.3-1.3h-2v-3.2h7.3c0.7,0,1.2,0.7,1.2,3v0.7
	c2.5-2.3,5.9-4,9.8-4c3.5,0,6.5,1.3,6.5,6.1v14.6c0,0.7,0.7,1.3,1.2,1.3h1.6v3h-11.4v-3h3.4v-14.2c0-3.1-1.4-3.8-3.9-3.8
	c-2.7,0-5.1,1.1-7.3,2.4v15.6h3.5v3h-11.7V588.9z"/>
<path class="st1" d="M301,574.8c0-2.9-1.7-4.8-4.8-4.8c-3,0-4.7,1.8-4.7,4.8c0,2.9,1.7,4.7,4.7,4.7C299.3,579.5,301,577.7,301,574.8
	 M303,592.7c0-1.9-1.1-2.8-3.8-2.8h-8.1c-1,0.8-1.7,1.8-1.7,3.2c0,2.2,1.3,3.6,6.1,3.6C300.7,596.8,303,595,303,592.7 M284.8,594.2
	c0-2.9,2-4.4,4.3-5.6c-1.1-0.6-1.9-1.7-1.9-3.4c0-2,1.1-3.4,2.5-4.6c-1.8-1.3-2.9-3.4-2.9-5.8c0-4.7,3.6-7.9,9.5-7.9
	c1.1,0,2.1,0.1,3.1,0.3h8.5v3.2h-2.1c-0.5,0-1.1,0.4-1.1,0.8c0.7,1,1.1,2.2,1.1,3.6c0,4.6-3.6,7.6-9.5,7.6c-1.8,0-3.3-0.3-4.6-0.8
	c-0.4,0.6-0.7,1.3-0.7,2.1c0,1.2,0.8,1.8,2.3,1.8h7c4.9,0,7.5,1.9,7.5,6.1c0,4.9-3.4,8.4-12.6,8.4
	C287.6,600,284.8,597.6,284.8,594.2"/>
<path class="st1" d="M326.2,590.7c-0.3,0-0.6,0.5-0.7,1.2h-3.6v-9.6h3.8l0.5,4c1.7,1.6,3.4,2.5,6.9,2.5c3.8,0,6.3-1.7,6.3-5.4
	c0-4.5-3.3-5-8.2-6.3c-5.8-1.6-8.7-4-8.7-9.6c0-6,4.4-8.9,10.5-8.9c3.4,0,5,0.9,6,1.4c0.3,0,0.6-0.6,0.7-1h3.5v8.7h-3.7l-0.5-3.3
	c-1.2-1.1-2.8-2.3-6-2.3c-3.4,0-5.8,1.3-5.8,4.9c0,3.9,3,4.5,7.6,5.8c6.3,1.7,9.6,3.7,9.6,9.8c0,6.3-3.9,9.7-11.2,9.7
	C329.3,592.3,327.4,591.4,326.2,590.7"/>
<path class="st1" d="M363.7,586.2v-5.4c-1.4-0.3-3-0.5-4.6-0.5c-3.6,0-5.8,1.3-5.8,4.3c0,3,1.7,4.2,4.6,4.2
	C360.5,588.9,362.2,587.8,363.7,586.2 M348.2,584.8c0-5.1,4.1-7.5,9.8-7.5c2.2,0,3.9,0.2,5.7,0.7v-3.3c0-3.2-1.8-4.3-5-4.3
	c-3.3,0-5.1,1.1-6.5,2.3h-2.4v-3.9c2.1-1,5.2-1.9,9.7-1.9c5.8,0,9.3,1.8,9.3,7.3v13.2c0,0.9,0.6,1.5,1.5,1.5h1.3v2.5
	c-0.7,0.4-1.8,0.8-3.3,0.8c-2.7,0-4.1-1.1-4.5-3.4c-1.8,2.3-4.3,3.4-7.6,3.4C351.5,592.2,348.2,589.7,348.2,584.8"/>
<path class="st1" d="M376.5,586.1v-14.4c0-0.6-0.7-1.3-1.3-1.3h-1.8v-3.2h8.2v17.3c0,3.2,1.7,4,4,4c2.6,0,5.1-1.1,7.1-2.4v-15.7
	h-3.6v-3.2h8.7v20.4c0,0.6,0.7,1.3,1.3,1.3h1.9v3h-7.2c-0.7,0-1.1-0.6-1.1-2.9v-0.6c-2.6,2.3-5.6,3.8-9.6,3.8
	C379.7,592.3,376.5,590.9,376.5,586.1"/>
<path class="st1" d="M422.3,585.7v-13.2c-1.6-1.2-3.4-2.1-6-2.1c-3.7,0-7.2,2-7.2,9.2c0,7.6,3.3,9.3,6.5,9.3
	C418.6,589,420.6,587.5,422.3,585.7 M403.8,579.8c0-9.4,5.9-12.9,10.9-12.9c3.7,0,6,1.3,7.6,2.9V562h-3.6v-3.1h7.8
	c0.7,0,1,0.5,1,1.3v27.4c0,0.6,0.7,1.3,1.3,1.3h1.8v3h-7.2c-0.6,0-0.9-0.7-1-3.4c-1.7,2-4.4,3.7-8.2,3.7
	C409.1,592.2,403.8,589.3,403.8,579.8"/>
<path class="st1" d="M443.9,580.1v-16.4c0-0.7-0.7-1.6-1.5-1.6h-1.9v-3.1h13.1v3.1h-4.2v18.2c0,6.6,3.3,8.2,8.1,8.2
	c4.7,0,8-1.6,8-8.2v-18.2h-4.2v-3.1h11.6v3.1H471c-0.7,0-1.5,0.9-1.5,1.6v16.4c0,8.4-4.3,12.3-12.7,12.3
	C448.8,592.5,443.9,588.5,443.9,580.1"/>
<path class="st1" d="M474.6,589.1h1.9c0.6,0,1.3-0.7,1.3-1.3v-15.9c0-0.5-0.7-1.3-1.3-1.3h-2v-3.2h7.3c0.7,0,1.2,0.7,1.2,3v0.7
	c2.5-2.3,5.9-4,9.8-4c3.6,0,6.5,1.3,6.5,6.1v14.6c0,0.7,0.7,1.3,1.2,1.3h1.6v3h-11.4v-3h3.4V575c0-3.1-1.4-3.8-3.9-3.8
	c-2.7,0-5.1,1.1-7.3,2.4v15.6h3.5v3h-11.7V589.1z"/>
<path class="st1" d="M507,561.9c0-1.6,1.3-2.9,2.9-2.9c1.6,0,2.9,1.3,2.9,2.9s-1.3,2.9-2.9,2.9C508.3,564.8,507,563.5,507,561.9
	 M504.4,589.1h1.9c0.6,0,1.3-0.7,1.3-1.3v-15.9c0-0.5-0.6-1.3-1.2-1.3h-2.1v-3.2h7.5c0.7,0,0.9,0.6,0.9,2.2v18.3
	c0,0.7,0.7,1.3,1.3,1.3h1.8v3h-11.4V589.1z"/>
<path class="st1" d="M519,572.1c-0.4-0.9-1-1.5-1.8-1.5h-0.9v-3.2h11v3.2h-3.5l6.2,16.6h0.1l5.3-13.8c0.6-1.6,0.5-2.8-1.3-2.8h-1.2
	v-3.2h10v3.2h-0.9c-0.8,0-1.5,0.6-1.9,1.6l-8.2,20H527L519,572.1z"/>
<path class="st1" d="M560.8,577.5c-0.2-5.2-2.2-7.2-5.8-7.2c-3.7,0-6.2,2.4-6.7,7.2H560.8z M542.9,579.8c0-7.8,4.9-12.7,12.1-12.7
	c7,0,11,3.6,11,11.9c0,0.7,0,1.4,0,1.6h-17.7c0.2,5.8,2.7,8.6,7.7,8.6c3.5,0,5.1-1.2,6.4-2.8h2.9v3.5c-1.9,1.3-4.7,2.6-9.7,2.6
	C547.2,592.4,542.9,587.6,542.9,579.8"/>
<path class="st1" d="M569.7,589.1h1.8c0.6,0,1.3-0.7,1.3-1.3v-15.9c0-0.5-0.7-1.3-1.3-1.3h-2v-3.2h7.3c0.7,0,1.2,0.6,1.2,3.3v0.8
	c1.7-2.2,3.9-4.3,7.4-4.3c0.6,0,1,0.1,1.4,0.2v4.2h-1c-3.8,0-6,0.9-7.8,2.5v15h3.9v3h-12.2V589.1z"/>
<path class="st1" d="M588.9,591v-5.1h3.1c0.6,2.3,2.2,3.2,5.5,3.2c3.4,0,5.5-1.2,5.5-3.8c0-2.3-1.7-3-5.9-3.6
	c-5.1-0.7-7.8-2.4-7.8-7.3c0-4.6,3.5-7.3,9.5-7.3c3.9,0,6.3,0.6,8.2,1.2v4.9h-3c-0.5-1.8-1.9-2.7-5.4-2.7c-3,0-4.8,1.2-4.8,3.2
	c0,2.2,1.3,2.9,5.6,3.6c5.7,0.9,8.4,2.4,8.4,7.3c0,4.7-3.3,7.8-10.2,7.8C593.1,592.4,590.7,591.7,588.9,591"/>
<path class="st1" d="M613.2,561.9c0-1.6,1.3-2.9,2.9-2.9c1.6,0,2.9,1.3,2.9,2.9s-1.3,2.9-2.9,2.9
	C614.5,564.8,613.2,563.5,613.2,561.9 M610.6,589.1h1.8c0.6,0,1.3-0.7,1.3-1.3v-15.9c0-0.5-0.6-1.3-1.2-1.3h-2.1v-3.2h7.5
	c0.7,0,1,0.6,1,2.2v18.3c0,0.7,0.7,1.3,1.3,1.3h1.9v3h-11.4V589.1z"/>
<path class="st1" d="M625.6,586.3v-15.7h-3.2v-3.2h3.2v-6.7h5.1v6.7h5.6v3.2h-5.6v15.1c0,2.8,0.9,3.4,3.5,3.4h2.5v2.8
	c-0.9,0.3-2.4,0.6-4.1,0.6C628.1,592.5,625.6,590.9,625.6,586.3"/>
<path class="st1" d="M643.2,596.9c2.8-0.8,5-2.6,6.9-5.4l-8.4-19.4c-0.4-0.9-1-1.5-1.8-1.5H639v-3.2h11v3.2h-3.7l6.4,15.2l5.1-12.5
	c0.7-1.6,0.6-2.8-1.2-2.8h-1.2v-3.2h10.2v3.2h-1.1c-0.8,0-1.4,0.6-1.9,1.6l-7.9,18.1c-2.3,5.2-4.9,8.1-7.3,9.6h-4.3V596.9z"/>
</svg>
