<?xml version="1.0" encoding="utf-8"?>
<!-- Generator: Adobe Illustrator 22.0.1, SVG Export Plug-In . SVG Version: 6.00 Build 0)  -->
<svg version="1.1" id="Layer_1" xmlns="http://www.w3.org/2000/svg" xmlns:xlink="http://www.w3.org/1999/xlink" x="0px" y="0px"
	 viewBox="0 0 1000 1000" style="enable-background:new 0 0 1000 1000;" xml:space="preserve">
<style type="text/css">
	.st0{display:none;fill:#808184;}
	.st1{display:none;fill:#EC1C24;}
	.st2{fill:#00574A;}
	.st3{fill-rule:evenodd;clip-rule:evenodd;fill:#00574A;}
	.st4{fill-rule:evenodd;clip-rule:evenodd;fill:#DCA945;}
</style>
<g>
	<polygon class="st0" points="513.8,396 515.7,396 515.7,398.6 513.8,398.6 513.8,396 513.8,396 	"/>
	<polygon class="st0" points="509.6,396 511.5,396 511.5,398.6 509.6,398.6 509.6,396 509.6,396 	"/>
	<polygon class="st0" points="518,396 519.9,396 519.9,398.6 518,398.6 518,396 518,396 	"/>
	<polygon class="st0" points="522.2,396 524.1,396 524.1,398.6 522.2,398.6 522.2,396 522.2,396 	"/>
	<polygon class="st0" points="513.8,400.3 515.7,400.3 515.7,402.8 513.8,402.8 513.8,400.3 513.8,400.3 	"/>
	<polygon class="st0" points="509.6,400.3 511.5,400.3 511.5,402.8 509.6,402.8 509.6,400.3 509.6,400.3 	"/>
	<polygon class="st0" points="518,400.3 519.9,400.3 519.9,402.8 518,402.8 518,400.3 518,400.3 	"/>
	<polygon class="st0" points="522.2,400.3 524.1,400.3 524.1,402.8 522.2,402.8 522.2,400.3 522.2,400.3 	"/>
	<polygon class="st0" points="513.8,391.7 515.7,391.7 515.7,394.3 513.8,394.3 513.8,391.7 513.8,391.7 	"/>
	<polygon class="st1" points="509.6,387.5 511.5,387.5 511.5,394.3 509.6,394.3 509.6,387.5 509.6,387.5 	"/>
	<polygon class="st0" points="518,391.7 519.9,391.7 519.9,394.3 518,394.3 518,391.7 518,391.7 	"/>
	<polygon class="st0" points="513.8,387.5 515.7,387.5 515.7,390.1 513.8,390.1 513.8,387.5 513.8,387.5 	"/>
	<polygon class="st0" points="518,387.5 519.9,387.5 519.9,390.1 518,390.1 518,387.5 518,387.5 	"/>
	<polygon class="st1" points="513.8,382.2 515.7,382.2 515.7,385.8 513.8,385.8 513.8,382.2 513.8,382.2 	"/>
	<polygon class="st0" points="513.8,404.5 515.7,404.5 515.7,408.2 513.8,408.2 513.8,404.5 513.8,404.5 	"/>
	<polygon class="st0" points="509.6,404.5 511.5,404.5 511.5,408.7 509.6,408.7 509.6,404.5 509.6,404.5 	"/>
	<polygon class="st0" points="518,404.5 519.9,404.5 519.9,407.7 518,407.7 518,404.5 518,404.5 	"/>
	<polygon class="st1" points="505.4,396 507.3,396 507.3,409.5 505.4,409.5 505.4,396 505.4,396 	"/>
	<g>
		<polygon class="st0" points="522.2,404.5 524.1,404.5 524.1,407.2 522.2,407.2 522.2,404.5 522.2,404.5 		"/>
	</g>
	<path class="st1" d="M524.5,411.3c-0.3,0.3-0.6,0-0.9,0.2c0,0,0-0.2-0.1-0.1c-0.3,0.3-0.7,0.1-1.1-0.1l0-0.1
		c-0.1,0-0.2,0.1-0.2,0.1l0-0.1c0,0.1-0.1,0-0.2,0.1l-0.1-0.2l0,0.1c-0.1,0.3-0.3,0-0.4,0.1l0-0.1c-0.2,0.2-0.5,0.1-0.8,0.2l0-0.2
		c0,0.1-0.1,0.2-0.2,0.2c0-0.1-0.1,0.1-0.2,0l0,0c-0.1,0.1-0.1-0.1-0.1,0.1l0-0.1c0,0.2-0.1-0.1-0.1,0v0l-0.1,0l0,0
		c-0.1,0-0.2-0.1-0.2,0.1c0-0.1,0.1,0,0-0.2c-0.4,0.1-0.7,0.1-1.1,0.1l-0.1-0.1l-0.2,0.1l0-0.1c-0.1-0.1-0.1,0.2-0.1,0.1l0-0.1
		c-0.1,0.1-0.1,0.1-0.2,0.1l0-0.1c-0.1,0.1-0.1,0-0.2,0.1l0-0.1c-0.1-0.1,0,0.2-0.1,0.1l0-0.1c-0.1,0.2-0.2,0.1-0.3,0.2l0,0l-0.3,0
		c0,0,0-0.2-0.1-0.2c0,0.2-0.2,0.1-0.1,0.3c-0.1,0-0.2-0.1-0.3,0c0-0.1,0-0.2,0-0.2l-0.1-0.1c0-0.1,0.1,0,0-0.1l-0.2,0.1
		c-0.1,0.1-0.1,0.3-0.2,0.3l0-0.2l-0.1,0.3c0,0,0-0.1-0.1-0.1l0,0.1c0,0-0.1,0-0.2-0.1l0-0.1l-0.1,0.1l0,0c0,0-0.1,0.1-0.1,0.2
		c0,0,0-0.1,0-0.1l-0.2,0.1l0-0.1l-0.3,0.2c0,0.1,0-0.1,0-0.1c-0.1-0.1-0.3,0.2-0.4,0l0,0.1c-0.1,0-0.1-0.1-0.1-0.1c0-0.1,0,0-0.1,0
		c0,0,0,0,0,0c-0.1,0.1-0.3,0.2-0.4,0.1c0,0-0.1,0.2-0.1,0.2l0-0.1c0-0.1-0.1,0-0.1-0.1c-0.1,0.1,0.2-0.1,0.2,0c0-0.1-0.1,0.2-0.1,0
		c-0.1,0-0.1,0.1-0.2,0c0,0,0-0.1,0-0.1l-0.1,0.1l0,0c0,0.1-0.1,0,0,0.1c0-0.1-0.1,0.1-0.1-0.1v-0.1l-0.1,0.2l0-0.1
		c0,0.2-0.1,0-0.1,0.2c-0.1-0.1-0.2,0-0.2-0.1c-0.1,0.1-0.1,0.1-0.2,0.1l0-0.1c0-0.1-0.1,0-0.1,0c0,0-0.1-0.1-0.2-0.2l0,0.2
		c-0.1-0.2-0.2,0.1-0.2,0c0,0,0.1-0.1,0-0.2c-0.1-0.2-0.1,0.2-0.2,0.1l0,0.2c-0.1-0.1-0.1,0.1-0.1-0.1c0,0.1-0.1,0-0.1,0.1
		c-0.2-0.1-0.3,0.1-0.5-0.2l-0.1,0.1c0,0.1,0-0.1,0.1,0l0,0.1c0,0-0.1,0-0.1-0.2c-0.1-0.1-0.1,0.3-0.2,0.2l-0.1-0.1l-0.1,0.1
		c-0.1,0-0.1-0.1-0.1-0.3l-0.1,0.1l-0.1-0.1c0.1,0.1,0,0.1,0,0.1l0,0l-0.1,0l0.1,0.1l-0.1,0.1c0-0.1-0.1-0.1-0.1-0.1l0,0.1
		c0-0.1-0.1,0,0-0.1l0.1,0c0,0,0-0.1-0.1-0.1c0,0.1,0,0.2,0,0.2l0-0.1l-0.1,0l0,0.1l0,0c0,0.1-0.1,0.1-0.1,0.2l-0.1-0.1l0,0
		c-0.1,0-0.1,0-0.1,0.1v0l-0.1,0.1c-0.1-0.1-0.1-0.4-0.1-0.2c-0.1,0-0.1,0.2,0,0.3c-0.1,0-0.2,0.1-0.3,0l0,0.1c-0.2,0-0.3,0.2-0.5,0
		l0-0.2c0,0.1-0.1-0.1,0,0.1l0.1,0.2c-0.1,0.1-0.2,0.1-0.3,0l0,0.1c0-0.1-0.1-0.1-0.1-0.1l0,0.1l-0.1-0.1c0,0,0,0.2-0.1,0.1l0-0.1
		c0,0.1-0.1,0.2-0.2,0.2l-0.1-0.1l0,0.1l-0.2-0.2c-0.1,0.3-0.3,0.4-0.5,0.4l0-0.1c-0.1,0,0,0.1,0,0.1l-0.1-0.2
		c-0.1,0-0.1,0.1-0.1,0.2c0,0.1,0-0.1,0,0c0,0-0.1,0-0.1,0.1l-0.1-0.2l0,0.1c-0.1-0.1,0-0.3-0.1-0.5l0,0c-0.1-0.1,0.1-0.2,0-0.2
		c0,0.1,0,0.3,0,0.3c-0.1,0.1,0,0.3-0.1,0.3c0-0.1,0.1,0,0-0.1c-0.1-0.1-0.1,0.1-0.1,0.1l0,0.2l-0.1-0.1c0,0.1,0,0.2,0,0.2
		c0,0.2-0.1,0-0.1,0.1c-0.1-0.1,0-0.3-0.1-0.3c0,0.1,0,0.2,0,0.3l-0.1-0.2c-0.1-0.1,0,0.2-0.1,0l0,0.1l-0.1-0.1c0,0-0.1,0.2-0.1,0
		c0,0-0.1,0,0,0.1c0.1,0.1,0-0.1,0.1,0c-0.1-0.1-0.1,0-0.1,0.1l0-0.1l0,0.1l0-0.1l0,0.1c-0.1,0.1-0.1-0.2-0.1-0.1l0-0.1l-0.1,0
		l0,0.3c0,0.1-0.1-0.1-0.1,0l0-0.1c0,0-0.1-0.1-0.2-0.1c0,0,0,0.2,0,0.2l-0.1-0.1l0,0.2l-0.2-0.2l0-0.2l0,0c0-0.1-0.1-0.1-0.1-0.2
		l-0.1,0.1c0.2,0.2,0,0.3,0.1,0.5c-0.1,0.1-0.3-0.4-0.2-0.1c0,0,0.1,0.2,0.1,0.1c-0.1,0,0,0.2-0.1,0.2c0-0.1-0.1-0.2-0.1-0.3
		c0,0.1,0.1,0,0.1,0c-0.1-0.1-0.1-0.2-0.1-0.2c0,0-0.1,0.1,0,0.2c0,0.1,0.1,0,0.1,0.1c-0.1,0.1-0.1-0.1-0.1,0.1c0,0,0.1,0.1,0.1,0.1
		l0,0.1l0-0.1c-0.1,0,0,0.1-0.1,0.2l-0.1-0.1c0-0.1,0.1,0,0-0.2l-0.1,0.1l0-0.1c0,0-0.2-0.2-0.2-0.1l0.1,0.1l-0.1,0.2
		c-0.1-0.1-0.1,0-0.1-0.1c0.1,0.1,0.2,0,0.2-0.1c-0.1-0.1,0.1,0,0-0.2c-0.1,0-0.2-0.1-0.2-0.2l0,0.1l0.1,0.2c-0.1,0-0.1,0.1-0.1,0.2
		l-0.1-0.2l-0.3,0.1c0.1,0.1-0.1,0.1,0.1,0.2c0.1,0,0.2,0.1,0.2,0.2l-0.1-0.1c0,0.1-0.1-0.1-0.1,0.1c0-0.1-0.1-0.2-0.2-0.3
		c0,0.1-0.1-0.1-0.1,0l-0.1,0.3c-0.2,0-0.2,0.2-0.2,0.2c-0.1,0-0.2-0.2-0.2-0.1c0,0,0.2,0.1,0,0.1l0,0c0,0-0.2,0-0.1,0.2l-0.1-0.1
		l0,0.1l-0.1-0.1c-0.1,0-0.1,0.1-0.1,0.2l0.1,0c0,0.1-0.1,0.1-0.1,0.2l-0.1,0l0,0.1c-0.1,0-0.2,0-0.1,0l-0.2-0.2l0.2,0.1
		c0.1,0,0.1-0.1,0-0.1l0,0.1c-0.1,0-0.1-0.1-0.2-0.2l0,0.1v-0.2l0.1,0.1c-0.1-0.1-0.1-0.2,0-0.2c0.2,0.1,0-0.2,0.2-0.2l0.1,0.3
		l0.1,0c0-0.1-0.1-0.2-0.1-0.3l0.1,0.1c0-0.1-0.1-0.2,0-0.2l0.4-0.2l0.1,0.1c-0.1-0.2,0.1-0.2,0.2-0.3c0.2,0,0.2-0.2,0.4-0.1
		l0.6-0.4l0,0.1c0-0.1,0.1,0.1,0.1,0c-0.1-0.1,0-0.2,0-0.2c0.1,0,0.2-0.1,0.3-0.3l0,0.1c0-0.2,0.2-0.1,0.3-0.1l0.1,0.1
		c0-0.2,0.1-0.2,0.1-0.3l0.3,0c0.2-0.3,0.5-0.2,0.8-0.5l0,0.1c0.2-0.3,0.6-0.2,0.8-0.4l0,0.2c0.1,0,0.2-0.1,0.1-0.2
		c0.1,0,0.2-0.1,0.2,0c0.1,0,0.1-0.1,0.1-0.1l0.4,0l0,0l0,0.1c0-0.1,0.2,0,0.1-0.2c0.2,0.1,0.3-0.2,0.5,0l0-0.1
		c0.1,0,0.3,0.1,0.4-0.1l0,0.1l0-0.1c0.2-0.2,0.5,0,0.7,0c0.3-0.2,0.7-0.1,1.1-0.2l0,0c0.1-0.2,0.3,0.1,0.4-0.1l0.1,0.1
		c0.1-0.1,0.3,0.1,0.4-0.1l0,0c0.1,0.1,0.2-0.1,0.4,0l0,0.1c0.1,0.1,0.1-0.2,0.2,0l0-0.1c0.3,0,0.6-0.1,1-0.2c0.2,0.1,0,0.4,0.2,0.2
		l0,0c0.1-0.1,0.1,0.2,0.2,0.1c0-0.1,0-0.1,0-0.2c0.1,0.1,0.2,0.2,0.3,0.1l0,0.1c0.1-0.2,0.3-0.1,0.4-0.3l2.1-0.3
		c0.7,0,1.4-0.1,2.1,0c0.2,0.2,0.2,0.2,0.4,0.1l0,0.1c0-0.1,0.1,0,0.1-0.1l0.8,0l0,0.1l0.1-0.1l0,0l0-0.1c0.7-0.1,1.3,0.2,2,0.2
		c0.2,0.1,0.4,0,0.5,0c0.5,0.2,0.9,0.4,1.5,0.3C524.8,410.8,524.7,411.2,524.5,411.3L524.5,411.3L524.5,411.3z"/>
	<path class="st1" d="M505.9,414C506,414,506,413.9,505.9,414C506,413.9,506,414.1,505.9,414L505.9,414L505.9,414z"/>
	<polygon class="st1" points="506.2,413.8 506.3,413.7 506.3,413.8 506.2,413.8 506.2,413.8 	"/>
	<polygon class="st1" points="512.6,412.1 512.6,412.2 512.6,412.1 512.6,412.1 512.6,412.1 	"/>
	<path class="st1" d="M515.6,411.9C515.6,411.8,515.6,411.9,515.6,411.9L515.6,411.9L515.6,411.9L515.6,411.9z"/>
	<polygon class="st1" points="517.1,411.5 517.1,411.5 517.1,411.4 517.1,411.5 517.1,411.5 	"/>
	<path class="st1" d="M418.5,386.8c0.1,0.1,0.2,0.2,0.4,0.2c0.1,0.1,0.3,0.1,0.4,0.1c0.2,0,0.3,0,0.4-0.1c0.1-0.1,0.3-0.1,0.4-0.2
		c0.1-0.1,0.2-0.2,0.2-0.4c0.1-0.1,0.1-0.3,0.1-0.4c0-0.3-0.1-0.6-0.3-0.8c-0.2-0.2-0.5-0.3-0.8-0.3c-0.3,0-0.6,0.1-0.8,0.3
		c-0.2,0.2-0.3,0.5-0.3,0.8c0,0.2,0,0.3,0.1,0.4C418.4,386.5,418.4,386.6,418.5,386.8L418.5,386.8z"/>
	<path class="st1" d="M421.4,386.8c0.1,0.1,0.2,0.2,0.4,0.2c0.1,0.1,0.3,0.1,0.4,0.1c0.2,0,0.3,0,0.4-0.1c0.1-0.1,0.3-0.1,0.4-0.2
		c0.1-0.1,0.2-0.2,0.2-0.4c0.1-0.1,0.1-0.3,0.1-0.4c0-0.3-0.1-0.6-0.3-0.8c-0.2-0.2-0.5-0.3-0.8-0.3c-0.3,0-0.6,0.1-0.8,0.3
		c-0.2,0.2-0.3,0.5-0.3,0.8c0,0.2,0,0.3,0.1,0.4C421.3,386.5,421.3,386.6,421.4,386.8L421.4,386.8z"/>
	<path class="st1" d="M387.8,397.9c-0.1-0.1-0.2-0.2-0.3-0.2c-0.1-0.1-0.3-0.1-0.4-0.1c-0.3,0-0.6,0.1-0.8,0.3
		c-0.2,0.2-0.3,0.5-0.3,0.8c0,0.1,0,0.3,0.1,0.4c0.1,0.1,0.1,0.2,0.2,0.3c0.1,0.1,0.2,0.2,0.3,0.2c0.1,0.1,0.3,0.1,0.4,0.1
		c0.2,0,0.3,0,0.4-0.1c0.1-0.1,0.2-0.1,0.3-0.2c0.1-0.1,0.2-0.2,0.2-0.3c0.1-0.1,0.1-0.3,0.1-0.4c0-0.2,0-0.3-0.1-0.4
		C388,398.1,387.9,398,387.8,397.9L387.8,397.9z"/>
	<path class="st1" d="M390.9,397.9c-0.1-0.1-0.2-0.2-0.3-0.2c-0.1-0.1-0.3-0.1-0.4-0.1c-0.3,0-0.6,0.1-0.8,0.3
		c-0.2,0.2-0.3,0.5-0.3,0.8c0,0.1,0,0.3,0.1,0.4c0.1,0.1,0.1,0.2,0.2,0.3c0.1,0.1,0.2,0.2,0.3,0.2c0.1,0.1,0.3,0.1,0.4,0.1
		c0.2,0,0.3,0,0.4-0.1c0.1-0.1,0.2-0.1,0.3-0.2c0.1-0.1,0.2-0.2,0.2-0.3c0.1-0.1,0.1-0.3,0.1-0.4c0-0.2,0-0.3-0.1-0.4
		C391,398.1,391,398,390.9,397.9L390.9,397.9z"/>
	<path class="st1" d="M414.4,391.7c-0.2,0.3-0.4,0.6-0.7,0.9c-0.3,0.3-0.6,0.5-1,0.7c-0.4,0.2-0.8,0.4-1.3,0.5
		c-0.2-0.3-0.4-0.6-0.6-0.9c-0.3-0.3-0.6-0.6-0.9-1c-0.3-0.3-0.7-0.6-1-0.9c-0.3-0.3-0.7-0.6-1-0.8c0.5-0.1,1-0.1,1.6-0.2
		c0.6,0,1.2-0.1,1.8-0.1c0.4,0,0.8,0,1.1,0c0.4,0,0.7,0.1,1,0.1c0.3,0.1,0.6,0.1,0.8,0.2c0.2,0.1,0.3,0.1,0.4,0.2
		C414.6,391,414.5,391.3,414.4,391.7L414.4,391.7z M400.8,394.3c-0.2,0.3-0.4,0.6-0.7,0.8c-0.3,0.2-0.6,0.4-1,0.6
		c-0.4,0.1-0.8,0.2-1.2,0.2c-0.4,0-0.8-0.1-1.2-0.2c-0.4-0.1-0.7-0.3-1-0.6c-0.3-0.2-0.5-0.5-0.6-0.8c-0.2-0.3-0.2-0.7-0.2-1
		c0-0.4,0.1-0.7,0.2-1c0.2-0.3,0.4-0.6,0.7-0.8c0.3-0.2,0.6-0.4,1-0.6c0.4-0.1,0.8-0.2,1.2-0.2c0.4,0,0.8,0.1,1.2,0.2
		c0.4,0.1,0.7,0.3,1,0.6c0.3,0.2,0.5,0.5,0.7,0.8c0.2,0.3,0.2,0.7,0.2,1C401.1,393.6,401,394,400.8,394.3L400.8,394.3z M430.8,383.4
		v10.5h-1.9h-0.2h-0.6v-10.5h-2.3v10.5h-2h-0.1h-1.5v-5.3h-2.3v5.3H418h-0.1h-2.2c0.6-0.5,0.6-0.7,0.9-1.3c0.3-0.6,0.5-1.4,0.5-2.2
		c0-0.5-0.2-0.9-0.5-1.2c-0.3-0.3-0.7-0.6-1.2-0.8c-0.5-0.2-1.1-0.3-1.8-0.4c-0.7-0.1-1.4-0.1-2.1-0.1c-0.6,0-1.1,0-1.7,0.1
		c-0.6,0-1.1,0.1-1.7,0.2c-0.5,0.1-1,0.2-1.5,0.3c-0.4,0.1-0.8,0.2-1.1,0.3v2c0.1,0.1,0.3,0.2,0.5,0.4c0.2,0.2,0.4,0.3,0.7,0.5
		c0.2,0.2,0.5,0.4,0.7,0.6c0.3,0.2,0.5,0.4,0.8,0.7c0.2,0.2,0.1,0,0.3,0.3c0.2,0.2,0.4,0.4,0.6,0.6h-4.6h-0.2h-1.2
		c0-0.2,0-0.3,0.1-0.5c0-0.2,0-0.4,0-0.5c0-0.7-0.1-0.9-0.4-1.4c-0.3-0.6-0.6-1.1-1.1-1.5c-0.5-0.4-1-0.8-1.6-1
		c-0.6-0.2-1.3-0.4-2-0.4c-0.7,0-1.4,0.1-2,0.4c-0.6,0.2-1.2,0.6-1.6,1c-0.5,0.4-0.8,0.9-1.1,1.5c-0.3,0.6-0.4,1.2-0.4,1.8
		c0,0.3,0,0.2,0,0.6h-1.1h-0.2h-1.9v-5.3h-2.3v5.3H386h-0.2h-1.4c0.1-0.5,0.1-0.6,0.1-1.1c0-0.4,0-0.3,0-0.7l0-3.1h-2.3l0,3.2
		c0,0.5,0,0.9-0.1,1.3c0,0.4-0.1,0.8-0.3,1.3c-0.1,0.5-0.3,0.9-0.6,1.3c-0.2,0.4-0.5,0.7-0.8,1c-0.3,0.3-0.7,0.5-1.1,0.7
		c-0.4,0.2-0.9,0.2-1.4,0.2c-0.2,0-0.5,0-0.7-0.1c-0.2,0-0.5-0.1-0.8-0.2l-0.1,1.8c0.4,0.1,0.7,0.2,1.1,0.3c0.4,0.1,0.7,0.1,1,0.1
		c0.7,0,1.4-0.1,2.1-0.4c0.6-0.3,1.2-0.6,1.7-1.1c0.3-0.3,0.6-0.7,0.9-1c0.3-0.4,0.5-0.8,0.7-1.2h1.9h0.2h5.7h0.2h2.1
		c0.5,0.6,1.1,1,1.8,1.3c0.7,0.3,1.4,0.5,2.3,0.5c0.8,0,1.6-0.2,2.3-0.5c0.7-0.3,1.3-0.8,1.8-1.3h2.2h0.2h13.4h0.1h5.8h0.1h4.9h0.2
		h3.2c0.3,0,0.5-0.1,0.7-0.3c0.2-0.2,0.3-0.4,0.3-0.7v-11.8H430.8L430.8,383.4z"/>
	<path class="st1" d="M454.4,397.9c-0.1-0.1-0.2-0.2-0.4-0.2c-0.1-0.1-0.3-0.1-0.4-0.1c-0.3,0-0.6,0.1-0.8,0.3
		c-0.2,0.2-0.3,0.5-0.3,0.8c0,0.2,0,0.3,0.1,0.4c0.1,0.1,0.1,0.3,0.2,0.4c0.1,0.1,0.2,0.2,0.4,0.2c0.1,0.1,0.3,0.1,0.4,0.1
		c0.2,0,0.3,0,0.4-0.1c0.1-0.1,0.3-0.1,0.4-0.2c0.1-0.1,0.2-0.2,0.2-0.4c0.1-0.1,0.1-0.3,0.1-0.4c0-0.2,0-0.3-0.1-0.4
		C454.6,398.1,454.5,398,454.4,397.9L454.4,397.9z"/>
	<path class="st1" d="M457.5,397.9c-0.1-0.1-0.2-0.2-0.4-0.2c-0.1-0.1-0.3-0.1-0.4-0.1c-0.3,0-0.6,0.1-0.8,0.3
		c-0.2,0.2-0.3,0.5-0.3,0.8c0,0.2,0,0.3,0.1,0.4c0.1,0.1,0.1,0.3,0.2,0.4c0.1,0.1,0.2,0.2,0.4,0.2c0.1,0.1,0.3,0.1,0.4,0.1
		c0.2,0,0.3,0,0.4-0.1c0.1-0.1,0.3-0.1,0.4-0.2c0.1-0.1,0.2-0.2,0.2-0.4c0.1-0.1,0.1-0.3,0.1-0.4c0-0.2,0-0.3-0.1-0.4
		C457.7,398.1,457.6,398,457.5,397.9L457.5,397.9z"/>
	<path class="st1" d="M441.3,393.9c0.3-2.6,1.6-3.6,3.8-3.7c0.5,0,0.9,0.1,1.3,0.3c0.4,0.2,0.8,0.4,1.2,0.8c0.3,0.3,0.6,0.8,0.9,1.3
		c0.2,0.5,0.4,0.7,0.5,1.4L441.3,393.9L441.3,393.9z M491.5,383.4v10.5h-1.9h-0.2h-1.3c-0.1-0.6-0.2-1.1-0.4-1.6
		c-0.2-0.5-0.5-0.9-0.8-1.3c-0.3-0.4-0.7-0.8-1.2-1.1c-0.5-0.3-0.9-0.6-1.5-0.8c-0.5-0.2-1.1-0.4-1.7-0.5c-0.6-0.1-1.2-0.2-1.8-0.3
		c-0.6,0-1.3,0-1.9,0c-0.6,0.1-1.2,0.2-1.8,0.3l0.1,2.3c0.6-0.2,1.1-0.3,1.7-0.4c0.6-0.1,1.2-0.1,1.8,0c0.6,0,1.2,0.1,1.8,0.3
		c0.6,0.1,1.2,0.4,1.7,0.7c0.5,0.3,0.9,0.7,1.3,1.1c0.4,0.4,0.5,0.4,0.6,1.2h-11.1h-0.2h-1c0-0.3-0.1-0.6-0.2-1
		c-0.1-0.4-0.2-0.8-0.4-1.2c-0.2-0.4-0.4-0.8-0.8-1.2c-0.3-0.4-0.7-0.7-1.2-1c-0.5-0.3-1.1-0.5-1.8-0.7c-0.7-0.2-1.5-0.3-2.5-0.3
		h-4.1c0.5-0.7,0.5-0.7,1.1-1.2c0.6-0.5,1.3-0.7,2-1c0.5-0.1,1-0.3,1.4-0.3c0.5-0.1,1-0.1,1.4-0.2c0.5,0,0.9-0.1,1.3-0.1
		c0.4,0,0.8,0,1.1,0v-2.3c-0.4,0-0.8,0-1.2,0c-0.4,0-0.9,0-1.4,0.1c-0.5,0-1,0.1-1.6,0.2c-0.5,0.1-1.1,0.2-1.6,0.4
		c-0.5,0.2-1.1,0.4-1.6,0.7c-0.5,0.3-1,0.6-1.5,1c-0.5,0.4-0.9,0.8-1.3,1.3c-0.4,0.5-0.8,1-1,1.7c-0.1,0.5-0.1,0.8-0.1,1
		c0,0.2,0.1,0.4,0.2,0.5c0.1,0.2,0.3,0.3,0.5,0.4c0.2,0.1,0.4,0.1,0.7,0.1v0h5.6c0.7,0,1.2,0.1,1.7,0.2c0.5,0.1,0.7,0.3,1.1,0.5
		c0.4,0.2,0.7,0.4,0.9,0.6c0.2,0.2,0.4,0.5,0.6,0.7c0.1,0.3,0.3,0.5,0.3,0.8c0.1,0.3,0,0.1,0.1,0.3h-13.2h-0.2h-1.9v-5.3h-2.1v5.3
		h-1.7h-0.2h-1.2c-0.1-1-0.3-1.5-0.7-2.3c-0.4-0.8-0.8-1.4-1.4-1.9c-0.5-0.5-1.2-0.9-1.8-1.2c-0.7-0.3-1.4-0.4-2-0.4
		c-0.7,0-1.4,0.1-2.1,0.4c-0.7,0.3-1.3,0.7-1.9,1.2c-0.6,0.6-1,1.2-1.4,2.1c-0.4,0.8-0.6,1.6-0.6,2.7c-0.4,0.2-0.7,0.4-0.9,0.6
		c-0.3,0.2-0.7,0.7-0.9,1c-0.2,0.3-0.3,0.6-0.4,0.9c-0.1,0.3-0.1,0.7-0.1,1.1c0,0.6,0.1,1.3,0.4,2c0.3,0.7,0.6,1.3,1.2,1.9l1.6-1.2
		c-0.4-0.4-0.6-0.9-0.8-1.4c-0.2-0.5-0.3-0.9-0.3-1.4c0-0.3,0-0.5,0.1-0.7c0.1-0.2,0.2-0.4,0.4-0.6c0.2-0.2,0.4-0.3,0.7-0.4
		c0.3-0.1,0.6-0.2,1.1-0.2h11.1h0.2h5.7h0.2h16.4h0.2h14.5h0.2h3.2c0.3,0,0.5-0.1,0.7-0.3c0.2-0.2,0.3-0.4,0.3-0.7v-11.8H491.5
		L491.5,383.4z"/>
	<polygon class="st1" points="498.3,383.4 498.3,396.2 496,396.2 496,383.4 498.3,383.4 498.3,383.4 	"/>
	<polygon class="st0" points="380.2,409 376.4,409 376.4,404 380.2,404 380.2,405 378,405 378,405.9 380.1,405.9 380.1,406.9 
		378,406.9 378,408 380.2,408 380.2,409 	"/>
	<polygon class="st0" points="385.1,409 381.2,409 381.2,404 382.8,404 382.8,407.8 385.1,407.8 385.1,409 	"/>
	<polygon class="st0" points="393.5,409 392,409 392,407.1 389.7,407.1 389.7,409 388.2,409 388.2,404 389.7,404 389.7,405.8 
		392,405.8 392,404 393.5,404 393.5,409 	"/>
	<path class="st0" d="M397.9,407.1l-0.7-1.8l-0.7,1.8H397.9L397.9,407.1z M400.3,409h-1.6l-0.4-1h-2.2l-0.4,1h-1.6l2.2-5h1.7
		L400.3,409L400.3,409z"/>
	<polygon class="st0" points="406.2,409 404.4,409 402.4,406.7 402.4,409 400.9,409 400.9,404 402.4,404 402.4,406.2 404.3,404 
		405.9,404 404,406.4 406.2,409 	"/>
	<polygon class="st0" points="410.7,409 406.9,409 406.9,404 410.6,404 410.6,405 408.4,405 408.4,405.9 410.5,405.9 410.5,406.9 
		408.4,406.9 408.4,408 410.7,408 410.7,409 	"/>
	<polygon class="st0" points="415.5,409 411.7,409 411.7,404 415.4,404 415.4,405 413.2,405 413.2,405.9 415.3,405.9 415.3,406.9 
		413.2,406.9 413.2,408 415.5,408 415.5,409 	"/>
	<polygon class="st0" points="422.3,409 420.8,409 420.8,406.1 419.5,407.8 419.3,407.8 418,406.1 418,409 416.5,409 416.5,404 
		417.9,404 419.4,405.9 421,404 422.3,404 422.3,409 	"/>
	<polygon class="st0" points="425.8,404 428.5,404 428.5,404.6 426.5,404.6 426.5,406 428.5,406 428.5,406.7 426.5,406.7 426.5,409 
		425.8,409 425.8,404 	"/>
	<path class="st0" d="M431.7,404.6c-0.6,0-1.1,0.2-1.4,0.5c-0.4,0.4-0.6,0.8-0.6,1.4c0,0.5,0.2,1,0.6,1.4c0.4,0.4,0.8,0.5,1.4,0.5
		c0.6,0,1-0.2,1.4-0.6c0.4-0.4,0.6-0.8,0.6-1.4c0-0.5-0.2-1-0.6-1.4C432.8,404.8,432.3,404.6,431.7,404.6L431.7,404.6z M431.7,403.9
		c0.8,0,1.4,0.2,2,0.7c0.5,0.5,0.8,1.1,0.8,1.9s-0.3,1.4-0.8,1.9c-0.5,0.5-1.2,0.7-2,0.7c-0.8,0-1.4-0.2-1.9-0.7
		c-0.5-0.5-0.8-1.1-0.8-1.8c0-0.8,0.3-1.4,0.8-1.9C430.3,404.1,430.9,403.9,431.7,403.9L431.7,403.9z"/>
	<path class="st0" d="M436.3,404.6h-0.2v1.6h0.3c0.4,0,0.6,0,0.8-0.1c0.1-0.1,0.2-0.2,0.3-0.3c0.1-0.1,0.1-0.3,0.1-0.4
		c0-0.2,0-0.3-0.1-0.4c-0.1-0.1-0.2-0.2-0.4-0.3C436.9,404.6,436.7,404.6,436.3,404.6L436.3,404.6z M435.4,409V404h1.3
		c0.5,0,0.9,0.1,1.2,0.4c0.3,0.3,0.5,0.6,0.5,1c0,0.3-0.1,0.6-0.2,0.8c-0.1,0.2-0.4,0.4-0.6,0.5c0.2,0.1,0.3,0.3,0.5,0.4
		c0.2,0.2,0.4,0.5,0.7,1c0.2,0.3,0.3,0.5,0.4,0.6l0.3,0.4h-0.9l-0.2-0.3c0,0,0,0,0-0.1l-0.1-0.2l-0.2-0.4l-0.2-0.4
		c-0.1-0.2-0.3-0.4-0.4-0.5c-0.1-0.1-0.2-0.2-0.3-0.3c-0.1-0.1-0.3-0.1-0.5-0.1h-0.2v2.2H435.4L435.4,409z"/>
	<path class="st0" d="M446.3,407.9v0.8c-0.5,0.3-1.1,0.4-1.8,0.4c-0.6,0-1-0.1-1.4-0.3c-0.4-0.2-0.7-0.5-0.9-0.9
		c-0.2-0.4-0.3-0.8-0.3-1.3c0-0.7,0.3-1.4,0.8-1.9c0.5-0.5,1.2-0.8,1.9-0.8c0.5,0,1.1,0.1,1.8,0.4v0.8c-0.6-0.3-1.2-0.5-1.7-0.5
		c-0.6,0-1.1,0.2-1.4,0.5c-0.4,0.4-0.6,0.8-0.6,1.4c0,0.6,0.2,1,0.6,1.4c0.4,0.4,0.9,0.5,1.4,0.5
		C445.1,408.4,445.7,408.2,446.3,407.9L446.3,407.9z"/>
	<path class="st0" d="M449.7,404.6c-0.6,0-1.1,0.2-1.4,0.5c-0.4,0.4-0.6,0.8-0.6,1.4c0,0.5,0.2,1,0.6,1.4c0.4,0.4,0.8,0.5,1.4,0.5
		c0.6,0,1-0.2,1.4-0.6c0.4-0.4,0.6-0.8,0.6-1.4c0-0.5-0.2-1-0.6-1.4C450.7,404.8,450.2,404.6,449.7,404.6L449.7,404.6z M449.7,403.9
		c0.8,0,1.4,0.2,2,0.7c0.5,0.5,0.8,1.1,0.8,1.9s-0.3,1.4-0.8,1.9c-0.5,0.5-1.2,0.7-2,0.7c-0.8,0-1.4-0.2-1.9-0.7
		c-0.5-0.5-0.8-1.1-0.8-1.8c0-0.8,0.3-1.4,0.8-1.9C448.2,404.1,448.9,403.9,449.7,403.9L449.7,403.9z"/>
	<polygon class="st0" points="457.3,404 458,404 458,409 457.4,409 454,405.1 454,409 453.3,409 453.3,404 453.9,404 457.3,407.9 
		457.3,404 	"/>
	<path class="st0" d="M460.3,406.9l-0.6-0.3c-0.3-0.2-0.6-0.4-0.7-0.6c-0.1-0.2-0.2-0.4-0.2-0.7c0-0.4,0.1-0.7,0.4-1
		c0.3-0.2,0.6-0.4,1.1-0.4c0.4,0,0.8,0.1,1.2,0.4v0.8c-0.4-0.4-0.8-0.5-1.2-0.5c-0.2,0-0.4,0.1-0.6,0.2c-0.2,0.1-0.2,0.2-0.2,0.4
		c0,0.2,0.1,0.3,0.2,0.4c0.1,0.1,0.3,0.3,0.5,0.4l0.6,0.3c0.6,0.4,0.9,0.8,0.9,1.4c0,0.4-0.1,0.7-0.4,1c-0.3,0.3-0.6,0.4-1.1,0.4
		c-0.5,0-1-0.2-1.4-0.5v-0.9c0.4,0.5,0.8,0.7,1.4,0.7c0.2,0,0.4-0.1,0.6-0.2c0.2-0.1,0.2-0.3,0.2-0.5
		C461,407.5,460.8,407.2,460.3,406.9L460.3,406.9z"/>
	<polygon class="st0" points="462.1,404 466.3,404 466.3,404.6 464.5,404.6 464.5,409 463.8,409 463.8,404.6 462.1,404.6 462.1,404 
			"/>
	<path class="st0" d="M467.9,404.6h-0.2v1.6h0.3c0.4,0,0.6,0,0.8-0.1c0.1-0.1,0.2-0.2,0.3-0.3c0.1-0.1,0.1-0.3,0.1-0.4
		c0-0.2,0-0.3-0.1-0.4c-0.1-0.1-0.2-0.2-0.4-0.3S468.3,404.6,467.9,404.6L467.9,404.6z M467,409V404h1.3c0.5,0,0.9,0.1,1.2,0.4
		c0.3,0.3,0.5,0.6,0.5,1c0,0.3-0.1,0.6-0.2,0.8c-0.1,0.2-0.4,0.4-0.6,0.5c0.2,0.1,0.3,0.3,0.5,0.4c0.2,0.2,0.4,0.5,0.7,1
		c0.2,0.3,0.3,0.5,0.4,0.6l0.3,0.4H470l-0.2-0.3c0,0,0,0,0-0.1l-0.1-0.2l-0.2-0.4l-0.2-0.4c-0.1-0.2-0.3-0.4-0.4-0.5
		c-0.1-0.1-0.2-0.2-0.3-0.3c-0.1-0.1-0.3-0.1-0.5-0.1h-0.2v2.2H467L467,409z"/>
	<path class="st0" d="M474.8,404h0.7v2.9c0,0.4,0,0.7-0.1,0.9c-0.1,0.2-0.1,0.4-0.2,0.5c-0.1,0.1-0.2,0.2-0.3,0.4
		c-0.4,0.3-0.9,0.5-1.6,0.5c-0.7,0-1.2-0.2-1.6-0.5c-0.1-0.1-0.2-0.2-0.3-0.4c-0.1-0.1-0.2-0.3-0.2-0.5c-0.1-0.2-0.1-0.5-0.1-0.9
		V404h0.7v2.9c0,0.5,0.1,0.8,0.2,1c0.1,0.2,0.3,0.3,0.5,0.4c0.2,0.1,0.5,0.2,0.8,0.2c0.4,0,0.8-0.1,1.1-0.3c0.1-0.1,0.2-0.3,0.3-0.4
		c0.1-0.2,0.1-0.4,0.1-0.8V404L474.8,404z"/>
	<path class="st0" d="M480.9,407.9v0.8c-0.5,0.3-1.1,0.4-1.8,0.4c-0.6,0-1-0.1-1.4-0.3c-0.4-0.2-0.7-0.5-0.9-0.9
		c-0.2-0.4-0.3-0.8-0.3-1.3c0-0.7,0.3-1.4,0.8-1.9c0.5-0.5,1.2-0.8,1.9-0.8c0.5,0,1.1,0.1,1.8,0.4v0.8c-0.6-0.3-1.2-0.5-1.7-0.5
		c-0.6,0-1.1,0.2-1.4,0.5c-0.4,0.4-0.6,0.8-0.6,1.4c0,0.6,0.2,1,0.6,1.4c0.4,0.4,0.9,0.5,1.4,0.5
		C479.7,408.4,480.3,408.2,480.9,407.9L480.9,407.9z"/>
	<polygon class="st0" points="481.3,404 485.6,404 485.6,404.6 483.8,404.6 483.8,409 483.1,409 483.1,404.6 481.3,404.6 481.3,404 
			"/>
	<polygon class="st0" points="486.3,404 487,404 487,409 486.3,409 486.3,404 	"/>
	<path class="st0" d="M490.6,404.6c-0.6,0-1.1,0.2-1.4,0.5c-0.4,0.4-0.6,0.8-0.6,1.4c0,0.5,0.2,1,0.6,1.4c0.4,0.4,0.8,0.5,1.4,0.5
		c0.6,0,1-0.2,1.4-0.6c0.4-0.4,0.6-0.8,0.6-1.4c0-0.5-0.2-1-0.6-1.4C491.7,404.8,491.2,404.6,490.6,404.6L490.6,404.6z M490.6,403.9
		c0.8,0,1.4,0.2,2,0.7c0.5,0.5,0.8,1.1,0.8,1.9s-0.3,1.4-0.8,1.9c-0.5,0.5-1.2,0.7-2,0.7c-0.8,0-1.4-0.2-1.9-0.7
		c-0.5-0.5-0.8-1.1-0.8-1.8c0-0.8,0.3-1.4,0.8-1.9C489.2,404.1,489.8,403.9,490.6,403.9L490.6,403.9z"/>
	<polygon class="st0" points="498.3,404 499,404 499,409 498.3,409 494.9,405.1 494.9,409 494.3,409 494.3,404 494.8,404 
		498.3,407.9 498.3,404 	"/>
</g>
<g>
	<path class="st2" d="M865.2,529h20.9v-28.5c-4.2-0.1-4.5-0.2-8.7-0.2c-6.2,0-12.1,3.9-12.1,10.2V529L865.2,529z M595.3,489.4v28.5
		c0,19.7,31.2,19.7,31.2,0v-28.5h15.9v24.1c0,41.8-63,42.1-63,0v-24.1H595.3L595.3,489.4z M600.5,477.4c0-4.8,3.7-8.6,8.5-8.6
		c4.8,0,8.6,3.7,8.6,8.6c0,4.8-3.8,8.5-8.6,8.5C604.3,485.9,600.5,482.1,600.5,477.4L600.5,477.4z M654,487.1
		c50,0,41.8-4.7,41.8,47.4c0,3.7-3,6.8-6.6,6.8l-39.3,0V529l28.5,0c0-30.9,0.8-28.4-24.2-28.4L654,487.1L654,487.1z M715.2,541.1
		c-5,0-7.9-3.9-7.9-8.6v-61.7h15.8V529l47,0c-3.4-4.6-9.9-13.8-11.7-19c-5.2-14.6,9.6-23.9,22.7-23.9h16.4c11.7,0,27,8.2,23.3,22
		c-1.8,6.7-8.3,15.6-12.2,20.8l42.6,0v-18.4c0-17.1,7.5-24.8,26.2-24.5l22.9,0l0,47.3c0,4.1-2.6,7.8-7,7.8H715.2L715.2,541.1z
		 M788.9,527.3h0.7l14.2-19c4.2-5.7-1.1-8.4-6.3-8.4H781c-5,0-10.5,2.8-6.3,8.4L788.9,527.3L788.9,527.3z"/>
	<polygon class="st3" points="433.6,479.5 487.6,423.7 499.8,535.6 512.1,423.9 565.9,479.5 499.8,548 433.6,479.5 	"/>
	<polygon class="st4" points="490.9,370.5 500.3,322.4 508.5,371.1 552.4,342.1 525.4,385.5 578.8,397.5 525.5,406.1 541.2,438.9 
		498.8,400 466.5,434.3 477.1,405.4 433.9,398.3 476.2,387.7 454.9,347.4 490.9,370.5 	"/>
	<path class="st2" d="M100.1,544.6l0.4-65.6c13,0.2,22.3,4.3,31.3,14.7c8.9-10.5,18.1-14.5,31-14.7l-0.1,65.6h-13.1l0.1-50.6
		c-3.5,1.8-11.3,10.3-11.3,14.2l-0.2,36.4h-13.1l0.1-36.5c-0.1-4.1-8-12.5-11.8-14.3l-0.3,50.8L100.1,544.6L100.1,544.6z M223,479
		h9.3v24.4H223V479L223,479z M253.9,523.5h11.3C264.2,488.3,253.9,492.5,253.9,523.5L253.9,523.5z M265.1,536.6h-11.3l0,9.3h-13.1
		l0-35.4c0-9.2,4.4-31.3,15.9-31.4h6.1c10.1,0.1,15.6,22.6,15.6,31.4l0,35.4h-13.1L265.1,536.6L265.1,536.6z M188.5,523.5h11.3
		C198.9,488.3,188.5,492.5,188.5,523.5L188.5,523.5z M199.8,536.6h-11.3l0,9.3h-13.1l0-35.4c0-9.2,4.4-31.3,15.9-31.4h6.1
		c10.1,0.1,15.6,22.6,15.6,31.4l0,35.4h-13.1L199.8,536.6L199.8,536.6z M381.3,548.7l0-69.7l7.5,0.5c5,0.4,12.1,6.3,18.2,14.2v-14.2
		h14.2v69.1h-14.2V524c-1.5-7.4-7.2-16.3-11.7-22.5l0,47.2H381.3L381.3,548.7z M371.2,492.1l-19.5,0l0.1,12.9h20.1v13.2h-20
		l0.1,17.5l19.6,0v13.1l-32.6,0l-0.3-69.7l32.7,0V492.1L371.2,492.1z M301.3,492.2v43l11.6,0c3.2,0,5-0.4,5-3.8l-0.5-33.4
		c0-4.3-2.2-5.7-6.3-5.8L301.3,492.2L301.3,492.2z M288.1,479l30.7,0.2c9.7,0.1,12.3,10.4,12.3,18.3l0,25.3
		c-0.1,8.8,1.3,25.6-11.6,25.5l-31.3-0.1V479L288.1,479z"/>
	<path class="st3" d="M141.2,609.5h5.2v4h-5.2V609.5L141.2,609.5z M887.7,601.8h2.6c2,0.1,3-0.7,3.1-2.4v-10.2h6.2v11.4
		c0,2.5-1.1,4.3-3.3,5.3c-0.9,0.4-2,0.7-3.3,0.8h-11.5v0c-0.1,0-0.2,0-0.3,0h-11.8v-0.1c-0.3,0-0.5,0.1-0.8,0.1H862h-2.8h-7.3h-2.4
		h-7.8h-2.4h-7.8h-2.4h-8.3h-1.8h-2.9c-0.4,1.8-1.4,3.4-3,4.7c-2.1,1.6-5.2,2.3-9.1,2.1l0.1-3.8c0.3,0,0.5,0.1,0.8,0.1
		c1.6,0,3.1-0.5,4.2-1.7c0.8-0.8,1.2-2.1,1.2-3.9v-15h6v12.5h2.8h1.8h8.3h2.4h7.8h2.4h7.8h2.4h7.3h2.8h3.8c2,0.1,3-0.7,3.1-2.4
		v-10.2h6.2v11.4c0,0.4,0,0.8-0.1,1.1h3.4c2,0.1,3-0.7,3.1-2.4v-10.2h6.1v11.4C887.7,601.1,887.7,601.4,887.7,601.8L887.7,601.8z
		 M881.6,577.3h5.2v4h-5.2V577.3L881.6,577.3z M886.1,582.6h5.2v4h-5.2V582.6L886.1,582.6z M877.4,582.6h5.2v4h-5.2V582.6
		L877.4,582.6z M766.2,601.8h27.9c0.4-4-1-6.9-4.3-8.7c-2.3-1-5.8-1.5-10.6-1.4l-6.6,0l9.2-12.3h6.1l-5.1,7.3c0.8,0,1.6,0.1,2.4,0.2
		c4.3,0.1,8,1.4,11.1,4c2.5,2.7,3.8,6,3.8,9.9v0.4l0,5.6h-31.6h-2.2h-6.9h-3.4h-1.3c-2.4,0-4.5-0.5-6.1-1.5
		c-1.8-1.2-2.9-2.4-3.5-3.8c-1.1,0.7-2,1.1-2.5,1.4c-0.9,0.5-2.4,0.8-4.5,0.8c-2.2,0-4.1-0.4-5.8-1.1c-1.7-0.7-2.9-1.9-3.7-3.5
		c-0.7-1.4-1.1-3-1.1-4.8c0-1.1,0.2-2.1,0.5-3.1c0.6-1.8,1.6-3.4,2.9-4.6c0.8-0.7,2.1-1.5,3.7-2.4c1.9-0.8,4.4-1.2,7.5-1.1h9.4
		l0.1,11.9c-0.1,0-0.1,0.9,0,2.8c0.3,2.5,1.5,3.8,3.7,3.9h0.9h3.4L766.2,601.8L766.2,601.8L766.2,601.8z M744.7,586.9
		c-2.1-0.1-3.7,0-4.9,0.2c-2.4,0.5-4,1.5-4.7,3c-0.5,1.1-0.8,2.2-0.8,3.5c0,1.1,0.2,2.1,0.7,2.9c0.5,0.9,1.2,1.7,2.2,2.2
		c1,0.6,2,0.9,2.9,0.8c1.6-0.2,2.9-1,3.8-2.3c0.6-0.9,0.9-2,0.9-3.4C744.8,593.3,744.7,591.1,744.7,586.9L744.7,586.9z M735.2,576.7
		h5.2v4h-5.2V576.7L735.2,576.7z M743.9,576.7h5.2v4h-5.2V576.7L743.9,576.7z M707.6,579.3l6.6,0v27.5l-6.7,0.1L707.6,579.3
		L707.6,579.3z M697,579.4h6.5v21.3c0,2.5-1.4,4.4-4.3,5.6c-1.1,0.4-2.4,0.6-3.8,0.6h-4.6h-1.7h-15.1v0.1c-4.5,0-7.7,0-9.5,0
		c-1.1,0-2.3-0.3-3.5-0.8c-1-0.4-1.7-0.8-2.1-1.3c-0.2-0.3-0.4-0.4-0.6-0.4c-0.2,0-0.4,0.1-0.5,0.3c-1.3,1.5-3.3,2.2-6.2,2.2h-5.5
		H644h-6.5h-3.9H608v-5h16.8c0.1-0.3,0.1-0.7,0.1-1.1c0-1.2-0.4-2.4-1.1-3.4c-1.4-1.8-3.1-2.9-5.3-3.3c-1-0.2-2.2-0.3-3.7-0.3
		c-0.5,0-1,0-1.6,0v-4.3c0.6-0.1,1.2-0.1,1.8-0.1c2.6,0,5.1,0.4,7.4,1.1c2,0.7,3.6,1.6,4.8,2.6c0.9,0.8,1.7,1.9,2.4,3.3
		c0.3,0.7,0.6,1.7,0.9,3.1c0.2,1.1,0.3,1.8,0.3,2.2v0.2h2.6h3.9h8.6v0h5.6c1.2-0.2,2.1-0.6,2.7-1.3c-1-1.9-2.6-3.2-4.8-3.8
		c-1-0.3-1.9-0.6-2.7-0.9L646,592c1.6-1.4,3.9-2.5,7.1-3.2c1.3-0.4,2.9-0.6,4.9-0.7c3.5,0,6.6,0.7,9.2,2.1c1,0.5,2,1.1,2.8,1.7
		c1.2,1,1.3,2,0.3,2.8c-1.7,0.6-4,2.6-6.9,6.2c0.4,0.6,1.2,0.9,2.4,1h5.6v-0.1h3.8c2.5,0.2,3.9-0.8,4.1-3v-9.5h7v9.6
		c0,1.5-0.4,2.5-1.1,2.9l3.8,0v0h2.6c0.4,0,1,0,1.8,0c2.1-0.2,3.2-1.3,3.5-3.3V579.4L697,579.4z M675.7,582.7h5.2v4h-5.2
		L675.7,582.7L675.7,582.7z M684.3,582.7h5.2v4h-5.2V582.7L684.3,582.7z M654.2,593.7c1.1-0.5,2.4-0.8,3.8-0.8c1.6,0,3.1,0.3,4.5,1
		c-1.7,1.5-3,2.7-3.9,3.5C657.5,595.5,656,594.2,654.2,593.7L654.2,593.7z M589.3,609.5h5.2v4h-5.2V609.5L589.3,609.5z M597.8,589.3
		h6.1v11.4c0,2.5-1.1,4.3-3.3,5.3c-0.9,0.4-2,0.7-3.3,0.8h-7.4h-2h-7.6h-3h-4.7c-0.3,1.2-0.8,2.3-1.6,3.5c-3.1,4.2-7.9,6.4-14.3,6.6
		c-6.3-0.4-11-2.2-14-5.6c-2.7-3-4.2-6.9-4.5-11.6v-10.5h6v7.9c0,3,0.5,5.6,1.4,7.6c2.4,4.2,6,6.3,11,6.4c3.2-0.2,5.5-0.8,7.2-2.1
		c1.2-0.7,2.3-1.9,3.3-3.6c0.9-2,1.3-5.1,1.3-9.3v-7h6v12.6h3h3.1h7.5h2h4.7c2,0.1,3.1-0.7,3.1-2.4v-2.7L597.8,589.3L597.8,589.3z
		 M598,609.5h5.2v4H598V609.5L598,609.5z M554.2,583h5.2v4h-5.2V583L554.2,583z M518.6,579.3l6.6,0v27.5l-6.7,0.1L518.6,579.3
		L518.6,579.3z M508,579.4h6.5v21.3c0,2.5-1.4,4.4-4.3,5.6c-1.1,0.4-2.4,0.6-3.8,0.6h-3.4v0.1c-4.5,0-7.7,0-9.5,0
		c-1.1,0-2.3-0.3-3.5-0.8c-1-0.4-1.7-0.8-2.1-1.3c-0.2-0.3-0.4-0.4-0.7-0.4c-0.2,0-0.4,0.1-0.5,0.3c-1.3,1.5-3.3,2.2-6.2,2.2h-5.5
		H473h-8h-2.4h-8.3h-1.8h-2.9c-0.4,1.8-1.4,3.4-3,4.7c-2.1,1.6-5.2,2.3-9.1,2.1l0.1-3.8c0.3,0,0.5,0.1,0.8,0.1
		c1.6,0,3.1-0.5,4.2-1.7c0.8-0.8,1.2-2.1,1.2-3.9v-15h6v12.5h2.8h1.8h8.3h2.4h10.1v0h5.6c1.2-0.2,2.1-0.6,2.7-1.3
		c-1-1.9-2.6-3.2-4.8-3.8c-1-0.3-1.9-0.6-2.7-0.9L475,592c1.6-1.4,3.9-2.5,7.1-3.2c1.3-0.4,2.9-0.6,4.9-0.7c3.5,0,6.6,0.7,9.2,2.1
		c1,0.5,2,1.1,2.8,1.7c1.2,1,1.3,2,0.3,2.8c-1.7,0.6-4,2.6-6.9,6.2c0.4,0.6,1.2,0.9,2.4,1h5.3v-0.1h2.6c0.4,0,1,0,1.8,0
		c2.1-0.2,3.2-1.3,3.5-3.3V579.4L508,579.4z M483.2,593.7c1.1-0.5,2.4-0.8,3.8-0.8c1.6,0,3.1,0.3,4.5,1c-1.7,1.5-3,2.7-3.9,3.5
		C486.5,595.5,485,594.2,483.2,593.7L483.2,593.7z M419.4,609.5h5.2v4h-5.2L419.4,609.5L419.4,609.5z M424.1,589.3h6.2v11.4
		c0,2.5-1.1,4.3-3.3,5.3c-0.9,0.4-2,0.7-3.3,0.8h-7.4h-1.9h-15.5h-2h-8.2h-2.4h-6.8h-3.4h-1.3c-2.4,0-4.5-0.5-6.1-1.5
		c-1.8-1.2-2.9-2.4-3.5-3.8c-1.1,0.7-2,1.1-2.5,1.4c-0.9,0.5-2.4,0.8-4.5,0.8c-2.2,0-4.1-0.4-5.8-1.1c-1.7-0.7-2.9-1.9-3.7-3.5
		c-0.7-1.4-1.1-3-1.1-4.8c0-1.1,0.2-2.1,0.5-3.1c0.6-1.8,1.6-3.4,2.9-4.6c0.8-0.7,2.1-1.5,3.7-2.4c1.9-0.8,4.4-1.2,7.5-1.1h9.4
		l0.1,11.9c-0.1,0-0.1,0.9,0,2.8c0.3,2.5,1.5,3.8,3.7,3.9h0.9h3.4h6.8h2.4h8.2v0h3.8c2.5,0.2,3.9-0.8,4.1-3v-9.5h7v9.6
		c0,1.5-0.4,2.5-1.1,2.9l5.5,0h4.7c2,0.1,3.1-0.7,3.1-2.4v-2.7V589.3L424.1,589.3z M399,609.5h5.2v4h-5.2L399,609.5L399,609.5z
		 M407.7,609.5h5.2v4h-5.2L407.7,609.5L407.7,609.5z M364.9,586.9c-2.1-0.1-3.7,0-4.9,0.2c-2.4,0.5-4,1.5-4.7,3
		c-0.5,1.1-0.8,2.2-0.8,3.5c0,1.1,0.2,2.1,0.7,2.9c0.5,0.9,1.2,1.7,2.2,2.2c1,0.6,2,0.9,2.9,0.8c1.6-0.2,2.9-1,3.8-2.3
		c0.6-0.9,0.9-2,0.9-3.4C364.9,593.3,364.9,591.1,364.9,586.9L364.9,586.9z M355.4,576.7h5.2v4h-5.2V576.7L355.4,576.7z
		 M364.1,576.7h5.2v4h-5.2V576.7L364.1,576.7z M327.7,579.3l6.6,0v27.5l-6.7,0.1L327.7,579.3L327.7,579.3z M317.2,579.4h6.5v21.3
		c0,2.5-1.4,4.4-4.3,5.6c-1.1,0.4-2.4,0.6-3.8,0.6h-4.4h-1.9h-9.1v0c-0.1,0-0.2,0-0.3,0h-11.5v0c-0.1,0-0.2,0-0.3,0h-11.8v-0.1
		c-0.3,0-0.5,0.1-0.8,0.1h-6h-3.3h-6.8H257h-7.1v0.1c-4.5,0-7.7,0-9.5,0c-1.1,0-2.3-0.3-3.5-0.8c-1-0.4-1.7-0.8-2.1-1.3
		c-0.2-0.3-0.4-0.4-0.6-0.4c-0.2,0-0.4,0.1-0.5,0.3c-1.3,1.5-3.3,2.2-6.2,2.2h-5.5h-2.1h-7.7h-2.7h-1.3c-0.4,1.8-1.4,3.4-3,4.7
		c-1.9,1.4-4.6,2.1-8.1,2.1h-1l0.1-3.8c0.3,0,0.5,0.1,0.8,0.1c1.7,0,3.1-0.5,4.2-1.7c0.5-0.6,0.9-1.3,1.1-2.2
		c-1.5,0.6-3.2,0.8-5,0.8c-3.4,0-6.1-1-8-3.1c-1.2-1.3-1.9-3.1-2.1-5.4c0-1.1,0.2-2.2,0.6-3.3c0.5-1.2,1.1-2.3,1.9-3.1
		c1.7-1.9,4.4-2.9,8.1-3h0.3c3.1,0,5.8,1.1,8.2,3.4c1.3,1.4,2.1,3.5,2.2,6.1c0,0.2,0,0.4,0,0.5l0,2.9h3.8v0h9.8v0h5.6
		c1.2-0.2,2.1-0.6,2.7-1.3c-1-1.9-2.6-3.2-4.7-3.8c-1-0.3-1.9-0.6-2.7-0.9l-0.9-3.8c1.6-1.4,3.9-2.5,7.1-3.2
		c1.3-0.4,2.9-0.6,4.9-0.7c3.5,0,6.6,0.7,9.2,2.1c1,0.5,2,1.1,2.8,1.7c1.2,1,1.3,2,0.3,2.8c-1.7,0.6-4,2.6-6.9,6.2
		c0.4,0.6,1.2,0.9,2.4,1h5.2v0H257h2.4h6.8h3.3h3.3c2,0.1,3-0.7,3.1-2.4v-10.2h6.2v11.4c0,0.4,0,0.8-0.1,1.1h3.4
		c2,0.1,3-0.7,3.1-2.4v-10.2h6.1v11.4c0,0.4,0,0.8-0.1,1.1h2.6c2,0.1,3.1-0.7,3.1-2.4v-10.2h6.2v11.4c0,0.4,0,0.8-0.1,1.1h2.8v0h2.6
		c0.4,0,1,0,1.8,0c2.1-0.2,3.2-1.3,3.5-3.3V579.4L317.2,579.4z M230.1,593.7c1.1-0.5,2.4-0.8,3.8-0.8c1.6,0,3.1,0.3,4.5,1
		c-1.7,1.5-3,2.7-3.9,3.5C233.3,595.5,231.9,594.2,230.1,593.7L230.1,593.7z M197.4,592.7c0.2,0,0.4-0.1,0.6-0.1
		c2.1,0,3.5,1.2,4.1,3.5c0.2,0.6,0.3,1.1,0.3,1.6c0,1.2-0.4,2.3-1.3,3.3c-0.6,0.7-1.2,1.1-1.7,1.3c-0.4,0.1-1,0.2-1.7,0.2
		c-2.1,0-3.6-0.8-4.3-2.5c-0.4-0.8-0.5-1.6-0.5-2.4c0-0.9,0.2-1.8,0.7-2.6c0.4-0.7,0.9-1.2,1.5-1.5
		C195.9,593,196.7,592.7,197.4,592.7L197.4,592.7z M165.4,589.4c0.6-0.1,1.2-0.1,1.8-0.1c2.6,0,5.1,0.4,7.4,1.1
		c2,0.7,3.6,1.6,4.8,2.6c0.9,0.8,1.7,1.9,2.4,3.3c0.3,0.7,0.6,1.7,0.9,3.1c0.2,1.1,0.3,1.8,0.3,2.2v5.2h-22.9v-5h16.8
		c0.1-0.3,0.1-0.7,0.1-1.1c0-1.2-0.4-2.4-1.1-3.4c-1.4-1.8-3.1-2.9-5.3-3.3c-1-0.2-2.2-0.3-3.7-0.3c-0.5,0-1,0-1.6,0V589.4
		L165.4,589.4z M132.7,606.8h-3.4H128c-2.4,0-4.5-0.5-6.1-1.5c-1.8-1.2-2.9-2.4-3.5-3.8c-1.1,0.7-2,1.1-2.5,1.4
		c-0.9,0.5-2.4,0.8-4.5,0.8c-2.2,0-4.1-0.4-5.8-1.1c-1.7-0.7-2.9-1.9-3.7-3.5c-0.7-1.4-1.1-3-1.1-4.8c0-1.1,0.2-2.1,0.5-3.1
		c0.6-1.8,1.6-3.4,2.9-4.6c0.8-0.7,2.1-1.5,3.7-2.4c1.9-0.8,4.4-1.2,7.5-1.1h9.4l0.1,11.9c-0.1,0-0.1,0.9,0,2.8
		c0.3,2.5,1.5,3.8,3.7,3.9h0.9h3.4h7.2h2h4.7c2,0.1,3.1-0.7,3.1-2.4v-2.7l0-7.5h6.1v11.4c0,2.5-1.1,4.3-3.3,5.3
		c-0.9,0.4-2,0.7-3.3,0.8h-7.4h-2H132.7L132.7,606.8z M149.9,609.5h5.2v4h-5.2V609.5L149.9,609.5z M118.1,586.9
		c-2.1-0.1-3.7,0-4.9,0.2c-2.4,0.5-4,1.5-4.7,3c-0.5,1.1-0.8,2.2-0.8,3.5c0,1.1,0.2,2.1,0.7,2.9c0.5,0.9,1.2,1.7,2.2,2.2
		c1,0.6,2,0.9,2.9,0.8c1.6-0.2,2.9-1,3.8-2.3c0.6-0.9,0.9-2,0.9-3.4C118.1,593.3,118.1,591.1,118.1,586.9L118.1,586.9z M108.6,576.7
		h5.2v4h-5.2V576.7L108.6,576.7z M117.3,576.7h5.2v4h-5.2V576.7L117.3,576.7z"/>
	<path class="st2" d="M117.5,633.4l-0.4,6.2c-1.1-0.5-2.1-0.9-3.2-1.2c-1-0.3-2-0.4-2.9-0.4c-1.4,0-2.4,0.3-3.1,0.9
		c-0.7,0.6-1.1,1.5-1.1,2.6c0,1,0.3,1.9,0.9,2.6c0.6,0.7,1.9,1.6,3.8,2.6c3.2,1.7,5.3,3.3,6.2,4.8c0.9,1.4,1.4,3.3,1.4,5.7
		c0,3.3-1,6-2.9,7.9c-2,1.9-4.6,2.9-8,2.9c-1.2,0-2.4-0.1-3.7-0.4c-1.3-0.3-2.7-0.6-4.2-1.1l0.5-6.2c1.3,0.7,2.5,1.2,3.7,1.6
		c1.2,0.3,2.3,0.5,3.3,0.5c1.4,0,2.5-0.4,3.3-1.1c0.8-0.7,1.2-1.7,1.2-3c0-1.8-1.6-3.6-4.9-5.5c-0.4-0.2-0.7-0.4-0.9-0.5
		c-2.6-1.5-4.3-2.9-5.2-4.3c-0.9-1.4-1.3-3.2-1.3-5.3c0-3.2,0.9-5.8,2.8-7.7c1.9-1.9,4.5-2.8,7.9-2.8c1,0,2.1,0.1,3.2,0.3
		C115.1,632.7,116.3,633,117.5,633.4L117.5,633.4z M142,655.4c-0.3,0-0.6-0.1-0.9-0.1c-0.3,0-0.7,0-1.1,0c-1.6,0-2.8,0.3-3.6,1
		c-0.8,0.7-1.2,1.7-1.2,3c0,1.1,0.3,1.9,0.8,2.5c0.5,0.6,1.3,0.9,2.2,0.9c1.3,0,2.3-0.5,2.9-1.4c0.6-1,0.9-2.5,0.9-4.5V655.4
		L142,655.4z M148.6,652.7v9.5c0,1.1,0,2.1,0.1,2.9c0,0.8,0.1,1.6,0.2,2.4h-6.3l-0.3-3.3c-0.9,1.3-1.9,2.3-3,2.9
		c-1.1,0.6-2.4,1-3.8,1c-2,0-3.6-0.7-4.8-2.2c-1.2-1.5-1.8-3.4-1.8-5.8c0-2.9,0.9-5.1,2.8-6.6c1.9-1.5,4.6-2.3,8.1-2.3h2.2v-0.7
		c0-1.4-0.4-2.4-1.1-3.1c-0.8-0.7-1.9-1.1-3.3-1.1c-1,0-2.1,0.2-3.1,0.6c-1,0.4-2,1-2.9,1.8l-0.3-5.8c1.4-0.6,2.8-1,4.1-1.3
		c1.3-0.3,2.6-0.4,3.8-0.4c3.5,0,5.9,0.8,7.3,2.5C147.9,645.2,148.6,648.3,148.6,652.7L148.6,652.7z M160.8,641.7h6.7v16
		c0,1.4,0.2,2.4,0.6,3.1c0.4,0.7,1.1,1,2,1c1,0,1.8-0.5,2.3-1.4c0.5-0.9,0.8-2.2,0.8-4v-14.7h6.7V662c0,1.5,0,2.7,0.1,3.4
		c0,0.8,0.1,1.5,0.2,2.1H174c-0.1-0.7-0.1-1.4-0.2-2c0-0.6-0.1-1.3-0.1-1.9c-0.5,1.4-1.4,2.5-2.5,3.3c-1.1,0.8-2.4,1.2-3.9,1.2
		c-2.1,0-3.8-0.7-4.9-2.2c-1.1-1.5-1.6-3.6-1.6-6.5V641.7L160.8,641.7z M205.4,653.5c0-2.1-0.3-3.7-0.9-4.9
		c-0.6-1.2-1.5-1.7-2.6-1.7c-1.1,0-2,0.7-2.6,2c-0.6,1.3-0.9,3.2-0.9,5.8c0,2.6,0.3,4.5,0.9,5.8c0.6,1.3,1.4,1.9,2.6,1.9
		c1.1,0,2-0.6,2.6-1.7c0.6-1.1,0.9-2.8,0.9-4.9V653.5L205.4,653.5z M205.4,630.1h6.7v37.4h-6.3c-0.1-0.6-0.1-1.2-0.1-1.9
		c0-0.7,0-1.4,0-2.1c-0.7,1.6-1.6,2.7-2.6,3.4c-1,0.8-2.2,1.1-3.6,1.1c-2.6,0-4.6-1.2-6-3.5c-1.4-2.3-2.1-5.7-2.1-10
		c0-4.4,0.7-7.8,2.1-10.1c1.4-2.3,3.4-3.4,6.1-3.4c1.3,0,2.4,0.3,3.3,1c0.9,0.6,1.8,1.7,2.6,3.2V630.1L205.4,630.1z M224.7,641.7
		h6.7v25.9h-6.7V641.7L224.7,641.7z M224.7,630.5h6.7v6.8h-6.7V630.5L224.7,630.5z M273.7,639.7l-3.7,14.1h6.9L273.7,639.7
		L273.7,639.7z M269.7,632.9h8.2l9.5,34.7h-7.3l-1.8-7.7h-9.9l-1.9,7.7h-6.9L269.7,632.9L269.7,632.9z M310.1,641.2v6.9
		c0,0-0.1,0-0.3,0c-0.7-0.2-1.1-0.2-1.3-0.2c-1.7,0-2.9,0.6-3.7,1.7c-0.8,1.1-1.2,3-1.2,5.5v12.4H297v-20.3c0-1.5,0-2.6-0.1-3.4
		c0-0.8-0.1-1.5-0.2-2.2h6.1c0,0.1,0,0.2,0,0.3c0.1,1.6,0.2,2.7,0.2,3.4v0.8c0.5-1.6,1.3-2.8,2.3-3.7c1.1-0.9,2.3-1.4,3.6-1.4
		c0.2,0,0.6,0,1,0.1C310.1,641.2,310.1,641.2,310.1,641.2L310.1,641.2z M331.5,655.4c-0.3,0-0.6-0.1-0.9-0.1c-0.3,0-0.7,0-1.1,0
		c-1.6,0-2.8,0.3-3.6,1c-0.8,0.7-1.2,1.7-1.2,3c0,1.1,0.3,1.9,0.8,2.5c0.5,0.6,1.3,0.9,2.2,0.9c1.3,0,2.3-0.5,2.9-1.4
		c0.6-1,0.9-2.5,0.9-4.5V655.4L331.5,655.4z M338.1,652.7v9.5c0,1.1,0,2.1,0.1,2.9c0,0.8,0.1,1.6,0.2,2.4h-6.3l-0.3-3.3
		c-0.9,1.3-1.9,2.3-3,2.9c-1.1,0.6-2.4,1-3.8,1c-2,0-3.6-0.7-4.8-2.2c-1.2-1.5-1.8-3.4-1.8-5.8c0-2.9,0.9-5.1,2.8-6.6
		c1.9-1.5,4.6-2.3,8.1-2.3h2.2v-0.7c0-1.4-0.4-2.4-1.1-3.1c-0.8-0.7-1.9-1.1-3.3-1.1c-1,0-2.1,0.2-3.1,0.6c-1,0.4-2,1-2.9,1.8
		l-0.3-5.8c1.4-0.6,2.8-1,4.1-1.3c1.3-0.3,2.6-0.4,3.8-0.4c3.5,0,5.9,0.8,7.3,2.5C337.4,645.2,338.1,648.3,338.1,652.7L338.1,652.7z
		 M357.3,655.8c0,2.1,0.3,3.7,0.9,4.9c0.6,1.1,1.5,1.7,2.6,1.7c1.1,0,2-0.6,2.6-1.9c0.6-1.3,0.9-3.2,0.9-5.8c0-2.5-0.3-4.5-0.9-5.8
		c-0.6-1.3-1.5-2-2.6-2c-1.1,0-2,0.6-2.6,1.7c-0.6,1.1-0.9,2.8-0.9,4.9V655.8L357.3,655.8z M350.5,630.1h6.7v15.2
		c0.8-1.5,1.6-2.5,2.6-3.2c0.9-0.6,2-1,3.3-1c2.7,0,4.7,1.1,6.1,3.4c1.4,2.3,2.1,5.6,2.1,10.1c0,4.4-0.7,7.7-2.1,10
		c-1.4,2.3-3.4,3.5-6,3.5c-1.4,0-2.6-0.4-3.6-1.1c-1-0.7-1.9-1.9-2.6-3.4c0,1.1-0.1,1.9-0.1,2.5c0,0.6-0.1,1.1-0.1,1.5h-6.3V630.1
		L350.5,630.1z M382.7,641.7h6.7v25.9h-6.7V641.7L382.7,641.7z M382.7,630.5h6.7v6.8h-6.7V630.5L382.7,630.5z M413.4,655.4
		c-0.3,0-0.6-0.1-0.9-0.1c-0.3,0-0.7,0-1.1,0c-1.6,0-2.8,0.3-3.6,1c-0.8,0.7-1.2,1.7-1.2,3c0,1.1,0.3,1.9,0.8,2.5
		c0.5,0.6,1.3,0.9,2.2,0.9c1.3,0,2.3-0.5,2.9-1.4c0.6-1,0.9-2.5,0.9-4.5V655.4L413.4,655.4z M420,652.7v9.5c0,1.1,0,2.1,0.1,2.9
		c0,0.8,0.1,1.6,0.2,2.4h-6.3l-0.3-3.3c-0.9,1.3-1.9,2.3-3,2.9c-1.1,0.6-2.4,1-3.8,1c-2,0-3.6-0.7-4.8-2.2c-1.2-1.5-1.8-3.4-1.8-5.8
		c0-2.9,0.9-5.1,2.8-6.6c1.9-1.5,4.6-2.3,8.1-2.3h2.2v-0.7c0-1.4-0.4-2.4-1.1-3.1c-0.8-0.7-1.9-1.1-3.3-1.1c-1,0-2.1,0.2-3.1,0.6
		c-1,0.4-2,1-2.9,1.8l-0.3-5.8c1.4-0.6,2.8-1,4.1-1.3c1.3-0.3,2.6-0.4,3.8-0.4c3.5,0,5.9,0.8,7.3,2.5
		C419.3,645.2,420,648.3,420,652.7L420,652.7z M451.5,649.9v17.7h-6.8v-16c0-1.4-0.2-2.4-0.6-3.1c-0.4-0.7-1.1-1-1.9-1
		c-1,0-1.8,0.5-2.3,1.4c-0.5,0.9-0.8,2.2-0.8,4v14.7h-6.7v-20.3c0-1.5,0-2.6-0.1-3.4c0-0.8-0.1-1.5-0.2-2.2h6.1
		c0.1,0.8,0.1,1.5,0.2,2.1c0,0.6,0.1,1.2,0.1,1.8c0.5-1.4,1.4-2.5,2.5-3.3c1.2-0.8,2.5-1.2,3.9-1.2c2.1,0,3.7,0.7,4.8,2.2
		C451,644.8,451.5,647,451.5,649.9L451.5,649.9z M483.1,632.9h9.9l5.5,23.2l5.6-23.2h10v34.7h-6.3v-28.8l-7.2,28.8h-4.4l-7.3-28.8
		v28.8h-6V632.9L483.1,632.9z M527,641.7h6.7v25.9H527V641.7L527,641.7z M527,630.5h6.7v6.8H527V630.5L527,630.5z M565.5,649.9v17.7
		h-6.8v-16c0-1.4-0.2-2.4-0.6-3.1c-0.4-0.7-1.1-1-1.9-1c-1,0-1.8,0.5-2.3,1.4c-0.5,0.9-0.8,2.2-0.8,4v14.7h-6.7v-20.3
		c0-1.5,0-2.6-0.1-3.4c0-0.8-0.1-1.5-0.2-2.2h6.1c0.1,0.8,0.1,1.5,0.2,2.1c0,0.6,0.1,1.2,0.1,1.8c0.5-1.4,1.4-2.5,2.5-3.3
		c1.2-0.8,2.5-1.2,3.9-1.2c2.1,0,3.7,0.7,4.8,2.2C564.9,644.8,565.5,647,565.5,649.9L565.5,649.9z M577.8,641.7h6.7v25.9h-6.7V641.7
		L577.8,641.7z M577.8,630.5h6.7v6.8h-6.7V630.5L577.8,630.5z M616.2,649.9v17.7h-6.8v-16c0-1.4-0.2-2.4-0.6-3.1
		c-0.4-0.7-1.1-1-1.9-1c-1,0-1.8,0.5-2.3,1.4c-0.5,0.9-0.8,2.2-0.8,4v14.7h-6.7v-20.3c0-1.5,0-2.6-0.1-3.4c0-0.8-0.1-1.5-0.2-2.2
		h6.1c0.1,0.8,0.1,1.5,0.2,2.1c0,0.6,0.1,1.2,0.1,1.8c0.5-1.4,1.4-2.5,2.5-3.3c1.2-0.8,2.5-1.2,3.9-1.2c2.1,0,3.7,0.7,4.8,2.2
		C615.7,644.8,616.2,647,616.2,649.9L616.2,649.9z M641.5,653.2c0-2-0.3-3.6-0.9-4.7c-0.6-1.1-1.5-1.7-2.6-1.7c-1.1,0-2,0.6-2.6,1.9
		c-0.6,1.2-0.9,3.1-0.9,5.4c0,2.5,0.3,4.5,0.9,5.7c0.6,1.3,1.4,1.9,2.6,1.9c1.1,0,1.9-0.6,2.5-1.7c0.6-1.1,0.9-2.7,0.9-4.7V653.2
		L641.5,653.2z M641.7,645.7c0-0.7,0-1.3,0-2c0-0.7,0.1-1.3,0.1-2h6.5v0.2c-0.1,3.7-0.2,5.8-0.2,6.5v14.4c0,3.7-0.2,6.3-0.5,7.7
		c-0.3,1.5-0.9,2.8-1.7,4c-1,1.4-2.2,2.4-3.8,3.1c-1.6,0.7-3.5,1-5.7,1c-1.4,0-2.7-0.1-4.1-0.4c-1.3-0.2-2.7-0.6-3.9-1.1l0.3-6.2
		c1,0.7,2.1,1.2,3.2,1.5c1.2,0.3,2.3,0.5,3.5,0.5c2.1,0,3.6-0.6,4.5-1.8c0.9-1.2,1.4-3.2,1.4-6c0-0.4,0-0.7,0-0.9c0-0.2,0-0.4,0-0.6
		c-0.8,1.4-1.6,2.4-2.5,3c-0.9,0.6-2.1,0.9-3.4,0.9c-2.7,0-4.7-1.1-6.1-3.4c-1.4-2.2-2-5.6-2-10c0-4.1,0.7-7.3,2.1-9.6
		c1.4-2.3,3.4-3.4,5.9-3.4c1.4,0,2.6,0.4,3.7,1.1C640.2,643,641,644.1,641.7,645.7L641.7,645.7z M700.3,633.9l-0.3,6.5
		c-0.9-0.6-1.9-1.1-2.8-1.4c-0.9-0.3-1.9-0.4-3.1-0.4c-2.6,0-4.6,1-5.9,3c-1.4,2-2.1,4.9-2.1,8.6c0,3.8,0.7,6.7,2.2,8.7
		c1.4,2,3.5,3.1,6.1,3.1c1,0,1.9-0.2,2.9-0.5c0.9-0.3,1.9-0.8,2.9-1.5l0.3,6.7c-1.1,0.5-2.2,0.9-3.4,1.1c-1.2,0.2-2.5,0.4-3.8,0.4
		c-4.5,0-8-1.6-10.7-4.9c-2.6-3.2-4-7.6-4-13.1c0-5.4,1.3-9.8,3.9-13c2.6-3.3,6.1-4.9,10.5-4.9c1.2,0,2.4,0.1,3.6,0.4
		C697.8,633,699.1,633.4,700.3,633.9L700.3,633.9z M721,646.6c-1.1,0-2,0.7-2.6,2.1c-0.6,1.4-0.9,3.4-0.9,6c0,2.6,0.3,4.5,0.9,5.9
		c0.6,1.4,1.5,2.1,2.6,2.1c1.1,0,2-0.7,2.6-2.1c0.6-1.4,0.9-3.4,0.9-6c0-2.6-0.3-4.6-0.9-6C723,647.3,722.1,646.6,721,646.6
		L721,646.6z M721,641.1c3.4,0,6,1.2,7.9,3.5c1.8,2.3,2.7,5.7,2.7,10c0,4.3-0.9,7.6-2.8,10c-1.8,2.3-4.5,3.5-7.8,3.5
		c-3.4,0-6-1.2-7.8-3.5c-1.8-2.4-2.8-5.7-2.8-10c0-4.3,0.9-7.7,2.7-10C715,642.3,717.6,641.1,721,641.1L721,641.1z M761.4,645.4
		c0.6-1.4,1.4-2.4,2.5-3.2c1.1-0.7,2.4-1.1,3.9-1.1c2,0,3.6,0.7,4.6,2.2c1.1,1.5,1.6,3.7,1.6,6.5v17.7h-6.8v-16
		c0-1.4-0.2-2.4-0.6-3.1c-0.4-0.7-1-1-1.8-1c-1,0-1.8,0.4-2.3,1.4c-0.5,0.9-0.8,2.2-0.8,4v14.7h-6.7v-16c0-1.4-0.2-2.4-0.6-3.1
		c-0.4-0.7-1-1-1.9-1c-1,0-1.7,0.4-2.2,1.4c-0.5,0.9-0.8,2.2-0.8,4v14.7H743v-20.3c0-1.5,0-2.6-0.1-3.4c0-0.8-0.1-1.5-0.2-2.2h6.1
		c0.1,0.8,0.1,1.5,0.2,2.1c0,0.6,0.1,1.2,0.1,1.8c0.5-1.4,1.3-2.5,2.4-3.3c1.1-0.8,2.3-1.2,3.7-1.2c1.5,0,2.7,0.4,3.7,1.1
		C760.1,642.9,760.9,644,761.4,645.4L761.4,645.4z M793.2,664v14.4h-6.7v-30.1c0-0.2,0-1.4-0.1-3.4c0-1.3-0.1-2.4-0.1-3.3h6.5
		c0,0.4,0.1,0.9,0.1,1.5c0,0.6,0.1,1.4,0.1,2.5c0.7-1.5,1.6-2.7,2.6-3.4c1-0.7,2.2-1.1,3.6-1.1c2.6,0,4.6,1.2,6,3.5
		c1.4,2.3,2.1,5.7,2.1,10c0,4.4-0.7,7.8-2.1,10.1c-1.4,2.3-3.4,3.4-6.1,3.4c-1.3,0-2.4-0.3-3.3-1C794.8,666.5,794,665.5,793.2,664
		L793.2,664z M793.2,655.7c0,2.1,0.3,3.7,0.9,4.9c0.6,1.1,1.5,1.7,2.6,1.7c1.1,0,2-0.6,2.6-1.9c0.6-1.3,0.9-3.2,0.9-5.7
		c0-2.6-0.3-4.5-0.9-5.8c-0.6-1.3-1.4-2-2.6-2c-1.1,0-2,0.6-2.6,1.7c-0.6,1.2-0.9,2.8-0.9,4.9V655.7L793.2,655.7z M830.1,655.4
		c-0.3,0-0.6-0.1-0.9-0.1c-0.3,0-0.7,0-1.1,0c-1.6,0-2.8,0.3-3.6,1c-0.8,0.7-1.2,1.7-1.2,3c0,1.1,0.3,1.9,0.8,2.5
		c0.5,0.6,1.3,0.9,2.2,0.9c1.3,0,2.3-0.5,2.9-1.4c0.6-1,0.9-2.5,0.9-4.5V655.4L830.1,655.4z M836.7,652.7v9.5c0,1.1,0,2.1,0.1,2.9
		c0,0.8,0.1,1.6,0.2,2.4h-6.3l-0.3-3.3c-0.9,1.3-1.9,2.3-3,2.9c-1.1,0.6-2.4,1-3.8,1c-2,0-3.6-0.7-4.8-2.2c-1.2-1.5-1.8-3.4-1.8-5.8
		c0-2.9,0.9-5.1,2.8-6.6c1.9-1.5,4.6-2.3,8.1-2.3h2.2v-0.7c0-1.4-0.4-2.4-1.1-3.1c-0.8-0.7-1.9-1.1-3.3-1.1c-1,0-2.1,0.2-3.1,0.6
		c-1,0.4-2,1-2.9,1.8l-0.3-5.8c1.4-0.6,2.8-1,4.1-1.3c1.3-0.3,2.6-0.4,3.8-0.4c3.5,0,5.9,0.8,7.3,2.5
		C836,645.2,836.7,648.3,836.7,652.7L836.7,652.7z M868.2,649.9v17.7h-6.8v-16c0-1.4-0.2-2.4-0.6-3.1c-0.4-0.7-1.1-1-1.9-1
		c-1,0-1.8,0.5-2.3,1.4c-0.5,0.9-0.8,2.2-0.8,4v14.7h-6.7v-20.3c0-1.5,0-2.6-0.1-3.4c0-0.8-0.1-1.5-0.2-2.2h6.1
		c0.1,0.8,0.1,1.5,0.2,2.1c0,0.6,0.1,1.2,0.1,1.8c0.5-1.4,1.4-2.5,2.5-3.3c1.2-0.8,2.5-1.2,3.9-1.2c2.1,0,3.7,0.7,4.8,2.2
		C867.7,644.8,868.2,647,868.2,649.9L868.2,649.9z M878.1,641.7h7.2l4.3,18.9l4.1-18.9h6.6l-7.7,27.5c-1.1,3.8-2.2,6.3-3.5,7.6
		c-1.2,1.3-3,1.9-5.3,1.9c-0.7,0-1.4-0.1-2-0.2c-0.6-0.1-1.2-0.2-1.9-0.5l0.5-5.6c0.4,0.1,0.7,0.2,1,0.3c0.3,0.1,0.5,0.1,0.7,0.1
		c1,0,1.8-0.3,2.4-0.8c0.6-0.5,1-1.4,1.3-2.5l0.3-1.1L878.1,641.7L878.1,641.7z"/>
</g>
</svg>
