<?xml version="1.0" encoding="utf-8"?>
<!-- Generator: Adobe Illustrator 22.0.1, SVG Export Plug-In . SVG Version: 6.00 Build 0)  -->
<svg version="1.1" id="Layer_1" xmlns="http://www.w3.org/2000/svg" xmlns:xlink="http://www.w3.org/1999/xlink" x="0px" y="0px"
	 viewBox="0 0 1000 1000" style="enable-background:new 0 0 1000 1000;" xml:space="preserve">
<style type="text/css">
	.st0{fill:#327992;}
	.st1{fill:#3C99AC;}
	.st2{fill:#43B2C4;}
</style>
<g>
	<g>
		<path class="st0" d="M462.4,649.5h-15.1c-1.1,0-2.1,0.9-2.1,2.1v41.9c0,8.2-6.7,14.9-14.9,14.9h-80.8v-44.4
			c0-19.3-15.6-34.9-34.9-34.9h-28.3c-3.5,0-6.3,2.8-6.3,6.3v96.9c0,4.3-3.5,7.8-7.8,7.8h-29.9c-11.7-2.1-19.2-10.8-22.5-22.5v-31.2
			c0-1.8-1.5-3.3-3.3-3.3h-9.9c-1.7,0-3.2,1.3-3.3,3l-0.9,31.5c0,23,17,41.7,40,41.7h29.9c14.9,0,27-12.1,27-27v-84h15.4
			c8.7,0,15.7,7.1,15.7,15.7v63.6h99.9c18.8,0,34-15.2,34-34v-41.9C464.4,650.4,463.5,649.5,462.4,649.5z"/>
		<path class="st0" d="M507.7,613.7h-14.3c-1.3,0-2.4,1.1-2.4,2.4v107.2c0,1.3,1.1,2.4,2.4,2.4h14.3c1.3,0,2.4-1.1,2.4-2.4V616.1
			C510.1,614.8,509,613.7,507.7,613.7z"/>
		<path class="st0" d="M462.8,612.8h-14.3c-1.3,0-2.4,1.1-2.4,2.4v16.5c0,1.3,1.1,2.4,2.4,2.4h14.3c1.3,0,2.4-1.1,2.4-2.4v-16.5
			C465.2,613.9,464.1,612.8,462.8,612.8z"/>
		<path class="st0" d="M225.3,651.2h2.2h7.9c2.3,0,4.2-1.9,4.2-4.2c0-2.3-1.9-4.2-4.2-4.2h-7.9h-2.2c-5.7,0-10.3-4.6-10.3-10.3v-2.6
			c0-4.4,3.6-8,8-8H233c2.3,0,4.2-1.9,4.2-4.2c0-2.3-1.9-4.2-4.2-4.2H223c-9,0-16.4,7.4-16.4,16.4v2.6c0,3.8,1.2,7.3,3.1,10.3h-5.1
			c-2.3,0-4.2,1.9-4.2,4.2c0,2.3,1.9,4.2,4.2,4.2H225.3z"/>
	</g>
	<g>
		<path class="st0" d="M285.7,788.4h15.7c1.9,0,3.4,1.5,3.4,3.4v104.9c0,1.9-1.5,3.4-3.4,3.4h-13.3c-1.8,0-3.3-1.4-3.4-3.3
			l-2.3-62.4l-20.1,41c-0.6,1.2-1.8,1.9-3.1,1.9l-10.1,0c-1.2,0-2.4-0.7-3-1.7l-22.8-41.1v62.3c0,1.9-1.5,3.4-3.4,3.4h-14.3
			c-1.9,0-3.4-1.5-3.4-3.4V791.8c0-1.9,1.5-3.4,3.4-3.4h15.9c1.3,0,2.4,0.7,3,1.9l29.6,58.1l28.3-58
			C283.2,789.1,284.4,788.4,285.7,788.4z"/>
		<path class="st0" d="M536.6,788.4h12.6c2.2,0,3.9,2.1,3.3,4.3l-28,105c-0.4,1.5-1.7,2.5-3.3,2.5h-12.1c-1.5,0-2.9-1-3.3-2.5
			l-20-70.6l-20,70.6c-0.4,1.5-1.7,2.5-3.3,2.5h-13.8c-1.5,0-2.9-1-3.3-2.5l-28-105c-0.6-2.2,1.1-4.3,3.3-4.3h15.5
			c1.6,0,2.9,1.1,3.3,2.6l16.9,66.8l19.6-66.9c0.4-1.4,1.8-2.4,3.3-2.4h12.2c1.5,0,2.8,1,3.2,2.4l21.1,67.3l17.5-67.1
			C533.8,789.4,535.1,788.4,536.6,788.4z"/>
		<path class="st0" d="M417.6,895.6l-39.7-107.1c-0.5-1.3-1.8-2.2-3.2-2.2H364c-1.4,0-2.7,0.9-3.2,2.2l-40.3,107.1
			c-0.8,2.2,0.8,4.6,3.2,4.6h15.8c1.5,0,2.8-0.9,3.2-2.3l5.7-17.4h21.9c2.4,0,4-2.4,3.2-4.6l-4.4-11.4c-0.5-1.3-1.8-2.2-3.2-2.2
			h-11.5l0,0l1.3-3.9l14.3-38.1l12.4,38.1l5.3,16.1l7.6,23.3c0.5,1.4,1.8,2.3,3.2,2.3h15.9C416.8,900.2,418.5,897.8,417.6,895.6z"/>
		<path class="st0" d="M653.1,895.6l-39.7-107.1c-0.5-1.3-1.8-2.2-3.2-2.2h-10.7c-1.4,0-2.7,0.9-3.2,2.2L556,895.6
			c-0.8,2.2,0.8,4.6,3.2,4.6h15.8c1.5,0,2.8-0.9,3.2-2.3l5.7-17.4h21.9c2.4,0,4-2.4,3.2-4.6l-4.4-11.4c-0.5-1.3-1.8-2.2-3.2-2.2
			h-11.5l0,0l1.3-3.9l14.3-38.1l12.4,38.1l5.3,16.1l7.6,23.3c0.5,1.4,1.8,2.3,3.2,2.3h15.9C652.3,900.2,653.9,897.8,653.1,895.6z"/>
		<path class="st0" d="M737.1,788.4h14c1.9,0,3.4,1.5,3.4,3.4v104.9c0,1.9-1.5,3.4-3.4,3.4h-13.4c-1.1,0-2.2-0.6-2.8-1.5l-44.1-66.4
			v64.5c0,1.9-1.5,3.4-3.4,3.4h-15.8c-1.9,0-3.4-1.5-3.4-3.4V791.8c0-1.9,1.5-3.4,3.4-3.4h14.9c1.1,0,2.2,0.6,2.8,1.5l44.3,67v-65.1
			C733.7,789.9,735.2,788.4,737.1,788.4z"/>
		<path class="st0" d="M781.1,788.4h15c1.9,0,3.4,1.5,3.4,3.4v104.9c0,1.9-1.5,3.4-3.4,3.4h-15c-1.9,0-3.4-1.5-3.4-3.4V791.8
			C777.7,789.9,779.2,788.4,781.1,788.4z"/>
	</g>
	<path class="st0" d="M761.7,629.1c-21.6-0.4-39.2,17.8-39.2,39.3v20.4c0,10.7-8.7,19.4-19.4,19.4h-91.7V637l0.1-1.8
		c-18.2-5.3-34.5-5.8-40.7-5.8c-0.1,0-0.2,0-0.3,0c-0.9,0-1.6,0-2,0c-0.1,0-0.2,0-0.2,0c-0.1,0-0.1,0-0.1,0v0
		c-10.2,0.5-19.8,5.6-25.6,14.2c-3.6,5.3-5.7,11.7-5.7,18.6V692c0,19.6,15.9,35.5,35.5,35.5c1,0,1.9-0.8,1.9-1.9v-15.4
		c0-1-0.8-1.9-1.9-1.9c-9,0-16.3-7.3-16.3-16.3v-29.8c0-7.8,6.3-14.1,14.1-14.1h22.1v86.1c0,3.6-2.9,6.5-6.5,6.5h-42.3
		c-1.8,0-3.3,1.5-3.3,3.3v8.7c0,1.7,1.3,3.1,3,3.2l42.6,4c14.2,0,25.7-11.5,25.7-25.7v-6.8H703c21.3,0,38.6-17.3,38.6-38.6v-21.2
		c0-11,9.2-19.9,20.4-19.4c10.4,0.5,18.4,9.5,18.4,20v39.1h-22.8c-1.5,0-2.9,0.9-3.5,2.3l-4.7,11.7c-1,2.5,0.8,5.1,3.5,5.1H794
		c3.1,0,5.6-2.5,5.6-5.6v-53.2C799.6,646.6,782.7,629.5,761.7,629.1z"/>
	<path class="st1" d="M523.3,183.2L504,101.8c-0.3-1.2-1.4-2-2.6-2l0,0c-1.2,0-2.3,0.8-2.6,2l-19.3,81.4c0,0-2.2,9.6,6.3,7.9
		c8.5-1.6,4.8-2.8,15.6-2.8s7,1.2,15.6,2.8C525.5,192.8,523.3,183.2,523.3,183.2z"/>
	<path class="st2" d="M596,136l-43.9,71.2c-0.6,1-0.5,2.4,0.4,3.3v0c0.9,0.9,2.2,1,3.3,0.4l71.2-43.9c0,0,8.4-5.2,1.2-10.1
		c-7.2-4.9-5.4-1.4-13-9s-4.1-5.8-9-13C601.2,127.6,596,136,596,136z"/>
	<path class="st1" d="M578.9,283.1l81.4-19.3c1.2-0.3,2-1.4,2-2.6l0,0c0-1.2-0.8-2.3-2-2.6l-81.4-19.3c0,0-9.6-2.2-7.9,6.3
		s2.8,4.8,2.8,15.6c0,10.8-1.2,7-2.8,15.6C569.3,285.3,578.9,283.1,578.9,283.1z"/>
	<path class="st2" d="M626.7,355.4l-71.2-43.9c-1-0.6-2.4-0.5-3.3,0.4l0,0c-0.9,0.9-1,2.2-0.4,3.3l43.9,71.2c0,0,5.2,8.4,10.1,1.2
		c4.9-7.2,1.4-5.4,9-13c7.6-7.6,5.8-4.1,13-9C635.1,360.6,626.7,355.4,626.7,355.4z"/>
	<path class="st2" d="M407,386.2l43.9-71.2c0.6-1,0.5-2.4-0.4-3.3l0,0c-0.9-0.9-2.2-1-3.3-0.4l-71.2,43.9c0,0-8.4,5.2-1.2,10.1
		c7.2,4.9,5.4,1.4,13,9c7.6,7.6,4.1,5.8,9,13C401.8,394.6,407,386.2,407,386.2z"/>
	<path class="st1" d="M423.4,238.8L342,258.1c-1.2,0.3-2,1.4-2,2.6v0c0,1.2,0.8,2.3,2,2.6l81.4,19.3c0,0,9.6,2.2,7.9-6.3
		c-1.6-8.5-2.8-4.8-2.8-15.6c0-10.8,1.2-7,2.8-15.6C433,236.6,423.4,238.8,423.4,238.8z"/>
	<path class="st2" d="M376.2,167.1l71.2,43.9c1,0.6,2.4,0.5,3.3-0.4l0,0c0.9-0.9,1-2.2,0.4-3.3l-43.9-71.2c0,0-5.2-8.4-10.1-1.2
		c-4.9,7.2-1.4,5.4-9,13c-7.6,7.6-5.8,4.1-13,9C367.8,161.9,376.2,167.1,376.2,167.1z"/>
	<path class="st0" d="M665.4,442.3L665.4,442.3c-1.3-0.6-2.8-0.5-4,0.2l-39.1,25.3c-2.3,1.5-2.5,4.9-0.4,6.6l5.9,4.8
		C595.5,509,541,519.5,532,519.8c-9,0.3-9.9-9.6-9.9-9.6l-7-204.8l-0.1-0.1c18.6-5.8,32.2-23.2,32.2-43.7
		c0-25.3-20.5-45.8-45.8-45.8c-25.3,0-45.8,20.5-45.8,45.8c0,20.7,13.7,38.1,32.5,43.8l0,0l-7,204.8c0,0-0.9,9.9-9.9,9.6
		c-9-0.3-63.5-10.8-95.8-40.4l6.3-5.1c2-1.6,1.8-4.6-0.3-6l-39.5-25.6c-1.2-0.8-2.7-0.9-4-0.2l0,0c-1.7,0.8-2.6,2.7-2.2,4.5
		l9.5,47.2c0.6,2.8,3.9,3.9,6.1,2.1l7.5-6.3c0,0,47.8,70.1,142.2,70.1h1.5c94.4,0,142.2-70.1,142.2-70.1l7,5.9
		c2.4,2,6.1,0.7,6.7-2.3l9.4-46.6C668,445,667.1,443.2,665.4,442.3z M478.4,261.6c0-12.7,10.3-23,23-23c12.7,0,23,10.3,23,23
		c0,12.7-10.3,23-23,23C488.7,284.6,478.4,274.3,478.4,261.6z"/>
</g>
</svg>
