<?xml version="1.0" encoding="utf-8"?>
<!-- Generator: Adobe Illustrator 24.0.1, SVG Export Plug-In . SVG Version: 6.00 Build 0)  -->
<svg version="1.1" id="Layer_1" xmlns="http://www.w3.org/2000/svg" xmlns:xlink="http://www.w3.org/1999/xlink" x="0px" y="0px"
	 viewBox="0 0 1000 1000" style="enable-background:new 0 0 1000 1000;" xml:space="preserve">
<style type="text/css">
	.st0{fill:#9E925E;}
	.st1{fill-rule:evenodd;clip-rule:evenodd;fill:#9E925E;}
	.st2{fill:#008556;}
	.st3{fill-rule:evenodd;clip-rule:evenodd;fill:#008556;}
</style>
<g>
	<g>
		<g>
			<path class="st0" d="M210.4,758.9H210l-20.6-40.6h-9.1v52.9h3.9v-43.1h0.6l22,43.1h1.8l21.7-43.4h0.3v43.4h8.9v-52.9h-8.9
				L210.4,758.9z M251.3,731.9v39.3h8.1v-41.6H257L251.3,731.9z M258.6,710.7c-0.4-0.4-0.9-0.7-1.5-0.9c-0.6-0.2-1.2-0.3-1.8-0.3
				c-0.6,0-1.2,0.1-1.8,0.3c-0.6,0.2-1,0.5-1.5,0.9c-0.4,0.4-0.7,0.8-1,1.3c-0.3,0.5-0.4,1-0.4,1.6c0,0.6,0.1,1.1,0.4,1.6
				c0.3,0.5,0.6,0.9,1,1.3c0.4,0.4,0.9,0.7,1.5,0.9c0.6,0.2,1.2,0.3,1.8,0.3c0.6,0,1.2-0.1,1.8-0.3c0.6-0.2,1.1-0.5,1.5-0.9
				c0.4-0.4,0.8-0.8,1-1.3c0.3-0.5,0.4-1,0.4-1.6c0-0.6-0.1-1.1-0.4-1.6C259.3,711.5,259,711.1,258.6,710.7 M300.4,733.2
				c-0.9-1.1-2-2-3.3-2.6c-1.3-0.6-2.6-1-4-1c-2.8,0-5.5,0.7-8.1,2.1c-2.7,1.4-5.2,3.5-7.7,6.2v-7.4h-8.1v40.8h8.1V741
				c0.9-0.9,1.9-1.7,2.9-2.4c1-0.7,2-1.3,3-1.9c1-0.5,2-0.9,2.9-1.2c1-0.3,1.9-0.4,2.7-0.4c1.9,0,3.5,0.7,4.7,2.1
				c1.2,1.4,1.8,3.4,1.8,6.1v27.9h8.1v-29.3c0-1.7-0.3-3.3-0.8-4.8C302.1,735.6,301.4,734.3,300.4,733.2 M320.4,710.7
				c-0.4-0.4-0.9-0.7-1.5-0.9c-0.6-0.2-1.2-0.3-1.8-0.3c-0.6,0-1.2,0.1-1.8,0.3c-0.6,0.2-1,0.5-1.5,0.9c-0.4,0.4-0.8,0.8-1,1.3
				c-0.3,0.5-0.4,1-0.4,1.6c0,0.6,0.1,1.1,0.4,1.6c0.3,0.5,0.6,0.9,1,1.3c0.4,0.4,0.9,0.7,1.5,0.9c0.6,0.2,1.2,0.3,1.8,0.3
				c0.6,0,1.2-0.1,1.8-0.3c0.6-0.2,1.1-0.5,1.5-0.9c0.4-0.4,0.7-0.8,1-1.3c0.3-0.5,0.4-1,0.4-1.6c0-0.6-0.1-1.1-0.4-1.6
				C321.2,711.5,320.8,711.1,320.4,710.7 M313.2,731.9v39.3h8.1v-41.6h-2.4L313.2,731.9z M356,751.9c-1.1-1-2.4-1.8-3.8-2.6
				c-1.4-0.7-2.9-1.4-4.4-2.1c-1.5-0.7-3-1.3-4.4-1.9c-1.4-0.6-2.7-1.3-3.8-2c-1.1-0.7-2-1.6-2.7-2.5c-0.7-0.9-1-2-1-3.2
				c0-0.7,0.2-1.4,0.6-2.1c0.4-0.7,0.9-1.2,1.6-1.7c0.7-0.5,1.5-0.9,2.5-1.2c1-0.3,2-0.4,3.2-0.4c2.2,0,4.2,0.6,6.1,1.9
				c1.9,1.2,3.6,3.1,5.2,5.7l3-2.7c-1.2-1.6-2.4-2.9-3.5-3.9c-1.1-1-2.3-1.8-3.4-2.3c-1.1-0.5-2.3-0.9-3.5-1.1
				c-1.2-0.2-2.5-0.3-3.8-0.3c-2,0-3.9,0.3-5.6,0.8c-1.7,0.6-3.2,1.4-4.4,2.4c-1.2,1-2.2,2.2-2.9,3.6c-0.7,1.4-1,2.9-1,4.6
				c0,1.8,0.3,3.3,0.9,4.5c0.6,1.3,1.4,2.4,2.5,3.4c1,1,2.2,1.8,3.5,2.6c1.3,0.7,2.6,1.4,4,2.1c1.4,0.6,2.7,1.3,4,1.9
				c1.3,0.6,2.5,1.3,3.5,2c1,0.7,1.9,1.6,2.5,2.5c0.6,0.9,0.9,2,0.9,3.3c0,0.8-0.2,1.5-0.6,2.2c-0.4,0.7-0.9,1.4-1.6,1.9
				c-0.7,0.6-1.5,1-2.4,1.3c-0.9,0.3-2,0.5-3.1,0.5c-1.2,0-2.2-0.1-3.3-0.4c-1-0.3-2-0.8-2.9-1.4c-0.9-0.6-1.8-1.4-2.8-2.4
				c-0.9-1-1.9-2.2-2.8-3.6l-3.3,3c1.2,1.6,2.5,2.9,3.7,3.9c1.3,1,2.6,1.8,3.8,2.3c1.3,0.5,2.5,0.9,3.8,1.1c1.3,0.2,2.5,0.3,3.7,0.3
				c2.6,0,4.9-0.3,6.9-1c2-0.6,3.6-1.5,4.9-2.6c1.3-1.1,2.3-2.4,2.9-3.9c0.6-1.5,1-3.1,1-4.8c0-1.7-0.3-3.2-1-4.5
				C358,754,357.2,752.9,356,751.9 M385.7,766.3c-0.7,0.5-1.6,0.7-2.5,0.7c-0.6,0-1.2-0.1-1.7-0.3c-0.6-0.2-1-0.5-1.4-0.9
				c-0.4-0.4-0.7-0.9-0.9-1.4c-0.2-0.5-0.3-1.1-0.3-1.7v-28.8h9.2v-3.4h-9.2v-14h-2.3c-0.4,2.1-0.9,4-1.4,5.9
				c-0.5,1.9-1.3,3.5-2.2,4.9c-0.9,1.4-2.1,2.5-3.6,3.3c-1.5,0.8-3.3,1.2-5.6,1.2v2h7.1v28.8c0,1.4,0.2,2.7,0.5,3.9
				c0.3,1.2,0.8,2.2,1.5,3c0.7,0.8,1.5,1.5,2.5,1.9c1,0.5,2.2,0.7,3.6,0.7c2.6,0,4.9-0.5,6.7-1.6c1.8-1.1,3.2-2.6,4.3-4.4l-2-1.4
				C387.1,765.3,386.4,765.9,385.7,766.3 M418.8,731c-0.6-0.4-1.2-0.8-2-1.1c-0.8-0.3-1.6-0.4-2.5-0.4c-1.1,0-2.2,0.2-3.2,0.7
				c-1.1,0.5-2.1,1.1-3.1,1.9c-1,0.8-1.9,1.7-2.8,2.7c-0.9,1-1.8,2.1-2.5,3.3v-7.7h-8.1v40.8h8.1v-28.3c0.6-0.9,1.1-1.8,1.7-2.5
				c0.6-0.8,1.1-1.4,1.7-2c0.5-0.6,1.1-1,1.6-1.3c0.5-0.3,1.1-0.5,1.6-0.5c0.7,0,1.3,0.1,1.7,0.3c0.5,0.2,0.9,0.4,1.4,0.6
				c0.4,0.2,0.9,0.5,1.5,0.7c0.5,0.2,1.3,0.3,2.2,0.3c1.5,0,2.6-0.3,3.4-1c0.8-0.7,1.2-1.7,1.2-3c0-0.7-0.2-1.3-0.5-1.9
				C419.8,732,419.3,731.5,418.8,731 M446.7,759.9l-15.8-29.4h-9.2l20.9,38.9l-2.7,6.1c-0.3,0.7-0.7,1.5-1.1,2.4
				c-0.4,0.9-0.9,1.7-1.4,2.4c-0.5,0.7-1.1,1.3-1.8,1.8c-0.7,0.5-1.4,0.7-2.2,0.7c-0.8,0-1.4-0.1-1.9-0.3c-0.5-0.2-0.9-0.4-1.3-0.6
				c-0.4-0.2-0.9-0.5-1.3-0.6c-0.5-0.2-1.2-0.3-2-0.3c-0.7,0-1.4,0.1-2,0.4c-0.6,0.2-1.1,0.6-1.5,1c-0.4,0.4-0.7,0.9-1,1.4
				c-0.2,0.5-0.3,1.1-0.3,1.7c0,0.7,0.2,1.3,0.5,1.9c0.3,0.6,0.8,1.1,1.4,1.5c0.6,0.4,1.3,0.7,2.1,1c0.8,0.2,1.6,0.3,2.5,0.3
				c1.3,0,2.6-0.2,3.9-0.7c1.3-0.5,2.7-1.2,3.9-2.1c1.3-1,2.5-2.2,3.6-3.6c1.1-1.5,2.2-3.2,3-5.2l20.8-47.9h-4.3L446.7,759.9z
				 M527.1,735.4c-1.9-1.8-4.2-3.2-6.8-4.3c-2.6-1-5.5-1.6-8.6-1.6c-3.1,0-6,0.6-8.6,1.7c-2.7,1.1-4.9,2.7-6.8,4.7
				c-1.9,2-3.4,4.3-4.5,6.9c-1.1,2.7-1.6,5.5-1.6,8.5c0,2.9,0.5,5.6,1.6,8.1c1.1,2.5,2.6,4.7,4.5,6.6c1.9,1.9,4.2,3.4,6.8,4.4
				c2.6,1.1,5.5,1.6,8.6,1.6c3.1,0,6-0.6,8.6-1.8c2.6-1.2,4.9-2.8,6.8-4.8c1.9-2,3.4-4.4,4.5-7.1c1.1-2.7,1.6-5.6,1.6-8.7
				c0-2.8-0.5-5.4-1.6-7.8C530.5,739.3,529,737.2,527.1,735.4 M523.3,759.7c-0.5,1.9-1.3,3.5-2.3,4.9c-1,1.4-2.1,2.5-3.5,3.3
				c-1.3,0.8-2.8,1.2-4.4,1.2c-2.2,0-4.2-0.6-5.9-1.7c-1.7-1.1-3.2-2.7-4.4-4.6c-1.2-1.9-2.1-4.2-2.7-6.8c-0.6-2.6-1-5.4-1-8.4
				c0-2.1,0.3-4,0.9-5.8c0.6-1.8,1.4-3.4,2.3-4.8c1-1.4,2.1-2.4,3.4-3.2c1.3-0.8,2.6-1.2,4-1.2c2.7,0,4.9,0.5,6.7,1.7
				c1.8,1.1,3.3,2.6,4.4,4.5c1.1,1.9,2,4.2,2.5,6.7c0.5,2.6,0.8,5.3,0.8,8.3C524.1,755.9,523.8,757.8,523.3,759.7 M569.5,711.5
				c-1-0.6-2.1-1.1-3.6-1.5c-1.4-0.4-3-0.5-4.8-0.5c-2.1,0-4.1,0.4-5.9,1.2c-1.9,0.8-3.5,2-4.8,3.4c-1.4,1.5-2.5,3.2-3.2,5.1
				c-0.8,2-1.2,4.1-1.2,6.3v4.8h-8.5v3.4h8.5v37.4h8.1v-37.4H565v-3.4h-10.9v-9.7c0-1,0.1-2.1,0.4-3c0.3-1,0.7-1.9,1.2-2.6
				c0.5-0.8,1.1-1.4,1.8-1.8c0.7-0.5,1.5-0.7,2.3-0.7c1.1,0,1.9,0.2,2.5,0.6c0.6,0.4,1,0.9,1.3,1.4c0.3,0.6,0.5,1.2,0.7,1.9
				c0.2,0.7,0.4,1.3,0.7,1.9c0.3,0.6,0.7,1.1,1.2,1.4c0.5,0.4,1.3,0.6,2.3,0.6c0.6,0,1.1-0.1,1.6-0.3c0.5-0.2,1-0.4,1.3-0.8
				c0.4-0.3,0.7-0.7,0.9-1.2c0.2-0.5,0.3-1,0.3-1.6c0-1-0.3-1.9-0.8-2.7C571.2,712.9,570.5,712.1,569.5,711.5 M631.8,742.4h-26.6
				v-24.1h-8.9v52.9h8.9v-25.4h26.6v25.4h8.9v-52.9h-8.9V742.4z M685.3,759.6c-0.9,1.2-2.1,2.3-3.4,3.2c-1.3,0.9-2.8,1.7-4.4,2.2
				c-1.6,0.6-3.3,0.9-5.1,0.9c-2.1,0-4-0.5-5.8-1.4c-1.8-1-3.3-2.3-4.6-4c-1.3-1.7-2.3-3.7-3-6.1c-0.7-2.3-1.1-4.9-1.1-7.6h30.4
				c0-2.3-0.4-4.5-1.3-6.5c-0.9-2.1-2.1-3.9-3.7-5.5c-1.6-1.6-3.5-2.8-5.7-3.8c-2.2-0.9-4.7-1.4-7.4-1.4c-3,0-5.8,0.6-8.2,1.7
				c-2.5,1.1-4.6,2.7-6.3,4.7c-1.7,2-3.1,4.4-4.1,7.2c-1,2.8-1.4,5.8-1.4,9.1c0,2.7,0.5,5.3,1.6,7.7c1,2.4,2.5,4.5,4.3,6.3
				c1.8,1.8,3.9,3.2,6.3,4.2c2.4,1,5,1.6,7.8,1.6c2.1,0,4.2-0.4,6.3-1.2c2.1-0.8,4-1.9,5.7-3.2c1.7-1.4,3.3-3,4.6-4.8
				c1.3-1.8,2.2-3.8,2.8-5.9l-2.3-1C686.9,757.2,686.2,758.4,685.3,759.6 M659.1,739.2c0.6-1.3,1.3-2.5,2.2-3.4c0.9-1,1.9-1.7,3-2.3
				c1.1-0.6,2.3-0.8,3.5-0.8c1.5,0,2.8,0.3,4.1,0.8c1.3,0.6,2.4,1.3,3.3,2.3c1,1,1.7,2.1,2.2,3.5c0.5,1.3,0.8,2.8,0.8,4.3l-20.3,0
				C658.2,741.9,658.5,740.5,659.1,739.2 M724,732.5c-1.1-0.9-2.6-1.7-4.5-2.2c-1.8-0.5-4.1-0.8-6.8-0.8c-2.2,0-4.3,0.2-6.3,0.7
				c-2,0.5-3.8,1.2-5.2,2c-1.5,0.9-2.7,1.9-3.6,3c-0.9,1.2-1.3,2.4-1.3,3.8c0,0.7,0.1,1.3,0.3,1.9c0.2,0.6,0.5,1.1,0.9,1.5
				c0.4,0.4,0.8,0.8,1.4,1c0.5,0.2,1.1,0.4,1.7,0.4c0.8,0,1.5-0.2,2-0.5c0.5-0.3,0.9-0.7,1.2-1.2c0.3-0.5,0.5-1.1,0.6-1.7
				c0.1-0.7,0.2-1.3,0.2-2.1c0-0.8,0.1-1.5,0.3-2.3c0.2-0.7,0.5-1.4,1-2c0.5-0.6,1.2-1.1,2-1.4c0.9-0.4,2-0.5,3.4-0.5
				c1.2,0,2.3,0.2,3.3,0.5c1,0.3,1.8,0.9,2.5,1.7c0.7,0.8,1.2,1.8,1.6,3.1c0.4,1.3,0.5,2.8,0.5,4.7v2.5c-1.8,0.5-3.7,0.9-5.6,1.5
				c-1.9,0.5-3.8,1.1-5.6,1.8c-1.8,0.7-3.5,1.5-5.1,2.3c-1.6,0.9-3,1.9-4.2,3c-1.2,1.1-2.2,2.4-2.9,3.8c-0.7,1.4-1,3-1,4.7
				c0,1.4,0.2,2.8,0.7,4c0.5,1.2,1.2,2.3,2.1,3.2c0.9,0.9,2,1.6,3.3,2.2c1.3,0.5,2.7,0.8,4.3,0.8c1.7,0,3.2-0.2,4.5-0.6
				c1.3-0.4,2.5-0.9,3.6-1.5c1.1-0.6,2.1-1.3,3-2.1c0.9-0.7,1.9-1.5,2.8-2.2v5.6h8.1v-30.8c0-1.6-0.3-3.1-0.8-4.4
				C726,734.6,725.1,733.5,724,732.5 M719.1,762.7c-0.8,0.6-1.6,1.2-2.4,1.7c-0.8,0.5-1.5,1-2.3,1.4c-0.8,0.4-1.6,0.7-2.4,1
				c-0.8,0.2-1.7,0.4-2.6,0.4c-0.9,0-1.7-0.2-2.5-0.6c-0.8-0.4-1.5-0.9-2.1-1.6c-0.6-0.7-1.1-1.4-1.5-2.4c-0.4-0.9-0.5-1.8-0.5-2.8
				c0-1,0.2-1.9,0.7-2.8c0.5-0.9,1.1-1.7,2-2.5c0.8-0.8,1.8-1.5,2.9-2.2c1.1-0.7,2.2-1.3,3.4-1.9c1.2-0.6,2.4-1.1,3.7-1.6
				c1.2-0.5,2.5-0.9,3.6-1.3V762.7z M738.4,711.8v59.4h8.1v-61.7h-2.3L738.4,711.8z M774.2,766.3c-0.8,0.5-1.6,0.7-2.5,0.7
				c-0.6,0-1.2-0.1-1.7-0.3c-0.5-0.2-1-0.5-1.4-0.9c-0.4-0.4-0.7-0.9-0.9-1.4c-0.2-0.5-0.3-1.1-0.3-1.7v-28.8h9.2v-3.4h-9.2v-14H765
				c-0.4,2.1-0.9,4-1.4,5.9c-0.5,1.9-1.3,3.5-2.2,4.9c-0.9,1.4-2.1,2.5-3.6,3.3c-1.5,0.8-3.4,1.2-5.6,1.2v2h7.1v28.8
				c0,1.4,0.2,2.7,0.5,3.9c0.3,1.2,0.8,2.2,1.5,3c0.7,0.8,1.5,1.5,2.5,1.9c1,0.5,2.2,0.7,3.6,0.7c2.6,0,4.9-0.5,6.6-1.6
				c1.8-1.1,3.2-2.6,4.3-4.4l-2-1.4C775.6,765.3,774.9,765.9,774.2,766.3 M816.4,737.1c-0.5-1.5-1.3-2.8-2.2-3.9
				c-0.9-1.1-2-2-3.3-2.6c-1.3-0.6-2.6-1-4-1c-2.8,0-5.5,0.7-8.1,2.1c-2.7,1.4-5.2,3.5-7.7,6.2v-28.3h-2.3l-5.8,2.3v59.4h8.1V741
				c0.9-0.9,1.9-1.7,2.8-2.4c1-0.7,2-1.3,2.9-1.9c1-0.5,2-0.9,2.9-1.2c1-0.3,1.9-0.4,2.7-0.4c1.9,0,3.5,0.7,4.7,2.1
				c1.2,1.4,1.8,3.4,1.8,6.1v27.9h8.1v-29.3C817.2,740.2,817,738.6,816.4,737.1"/>
			<path class="st1" d="M618.3,393.3c-4.9,3-9.9,6.3-12.5,8.1c-8,5.6-16.2,11.5-24.3,17.6c-35.8,27.1-71.3,58.9-98.4,89.4h-64.7
				c0,0,158.3-136.6,230.9-147.1c64.7-9.3,89.9,37.5,84.5,87.9c0.7-6.2,0.6-12.5-0.4-18.1c-2.3-13.5-8-24.6-15.9-33.2
				c-6.4-7-14.3-13.2-24.9-17.2c-9.2-3.5-19-5-29.7-4C663,376.8,644.3,377.6,618.3,393.3"/>
			<path class="st1" d="M378.9,393.3c4.9,3,9.9,6.3,12.5,8.1c8,5.6,16.2,11.5,24.3,17.6c35.8,27.1,71.3,58.9,98.4,89.4h64.7
				c0,0-158.3-136.6-230.9-147.1c-64.7-9.3-89.9,37.5-84.5,87.9c-0.7-6.2-0.6-12.5,0.4-18.1c2.3-13.5,8-24.6,15.9-33.2
				c6.4-7,14.3-13.2,24.9-17.2c9.1-3.5,19-5,29.7-4C334.2,376.8,352.8,377.6,378.9,393.3"/>
			<path class="st2" d="M495.4,659.7h-28.8l0.3-1.8c0.9-5,1.3-10.3,1.3-13.3c0-17.6-7.8-38.2-29.8-38.2c-7.5,0-14.8,3.4-20.8,7.6
				c-6.9,4.8-13,10.8-17.7,17.8c-5.2,8-9.2,16.9-13.6,25.3c-0.4,0.8-0.9,1.7-1.3,2.5h-0.5v-34h-8.9v34h-26v-3.4
				c0-36-26-48.7-48.3-48.7h-34.3v7.6c2.5-0.2,31.7-0.3,33.1-0.3c24.9,0,39.8,16.2,39.9,43.3l0,1.5h-110v-57.3
				c-2.6-0.3-7.3-0.5-9.3-0.5c-16.2,0-40.3,11.7-40.3,36.8c0,8.4,3,15.5,8.8,20.5c5.3,4.6,12.7,7.2,20.7,7.2h2.8l5.7-6.1l0.5-0.5
				h-6.5c-13.3,0-22.3-8.6-22.3-21.5c0-11.8,5.7-18.8,10.5-22.6c6-4.7,13.1-6.4,17.3-6.4h3.1v57.1h283.1V564.2h-8.9V659.7z
				 M457.7,658.6l-0.3,1.1h-63.8l0.4-1.8c5.6-24.8,27.9-44.1,43.4-44.1c5,0,21.3,2.3,21.3,32.5C458.7,648.1,458.7,654.6,457.7,658.6
				 M532.5,666.3h8.9V564.2h-8.9V666.3z M204.1,587.7c3.8,0,6.8-3,6.8-6.8c0-3.8-3-6.8-6.8-6.8c-3.7,0-6.8,3-6.8,6.8
				C197.3,584.7,200.3,587.7,204.1,587.7 M609.4,587.8c3.8,0,6.8-3,6.8-6.8c0-3.8-3-6.8-6.8-6.8c-3.7,0-6.8,3-6.8,6.8
				C602.6,584.8,605.6,587.8,609.4,587.8 M224.4,587.7c3.7,0,6.8-3,6.8-6.8c0-3.8-3-6.8-6.8-6.8c-3.7,0-6.8,3-6.8,6.8
				C217.6,584.7,220.6,587.7,224.4,587.7 M701.8,666.3h8.9V564.2h-8.9V666.3z M585.8,639.4c0,15.3,12.7,26.9,29.5,26.9h20v-63.9
				c-2.6-0.3-5.5-0.5-8.7-0.5C603.7,601.9,585.8,618.4,585.8,639.4 M626.4,659.7h-8.5c-15.5,0-22.5-10.8-22.5-21.5
				c0-18.8,14.3-29,27.7-29h3.3V659.7z M745.6,574.2c-3.7,0-6.8,3-6.8,6.8c0,3.7,3,6.8,6.8,6.8c3.7,0,6.8-3,6.8-6.8
				C752.3,577.3,749.3,574.2,745.6,574.2 M811.5,603.9c-23.2,0-41.4,15.8-41.4,36.1c0,19.3,16.9,26.3,28.3,26.3c1.6,0,2.7,0,3.4-0.1
				l4.4-4.6l1.9-2h-5.9c-11.3,0-22.6-6.4-22.6-20.7c0-12.8,11.8-27.1,27.7-27.1h1.5v55.8c0,10.7-2,20.6-16.5,20.6
				c-1.2,0-2.9-0.2-4.6-0.5l-1.1,6.8c2.1,0.4,4.5,0.7,8,0.7c6.9,0,23.1-2.3,23.1-23.8v-67C815.2,604.1,813.2,603.9,811.5,603.9
				 M741.1,671.9c0,11.7-4.7,16.5-16.2,16.5c-1.2,0-3-0.2-4.4-0.5l-1.1,7.1c3.6,0.5,5.2,0.6,8,0.6c6.8,0,22.7-2.1,22.7-21.1v-63.1
				h-8.9V671.9z M629.7,574.2c-3.8,0-6.8,3-6.8,6.8c0,3.7,3,6.8,6.8,6.8c3.7,0,6.8-3,6.8-6.8C636.4,577.3,633.4,574.2,629.7,574.2
				 M665.6,671.9c0,11.7-4.7,16.5-16.2,16.5c-1.2,0-3-0.2-4.4-0.5l-1.1,7.1c3.6,0.5,5.2,0.6,8,0.6c6.8,0,22.6-2.1,22.6-21.1v-63.1
				h-8.9V671.9z"/>
			<polygon class="st2" points="364.8,427.3 342.8,405.2 323.4,424.6 304,405.2 282,427.3 304,449.4 323.4,430 342.8,449.4 			"/>
			<path class="st2" d="M600.2,263.1c-1.7-3.9-3.7-7.8-6.1-11.5c-20-31-58.2-43.1-91.6-31.4c-2-7.2-3.5-11.3-3.5-11.3
				s-1.6,4.2-3.5,11.3c-33.3-11.7-71.5,0.5-91.5,31.4c-2.4,3.7-4.4,7.6-6.1,11.5c14.1-15.5,33.4-24.2,53.4-25.4
				c-18.6,14.3-30.6,36.8-30.6,62c0,4.4,0.4,8.8,1.1,13c3.8-22.8,17.6-42.3,36.6-53.9c-12,24-11.5,53.5,4.1,77.7
				c2.4,3.7,5.1,7.2,8,10.3c-13-30.1-5.7-65.2,18-87.7c-0.5,5.8-0.9,12-0.9,18.3c0,37.9,11.4,68.6,11.4,68.6s11.4-30.7,11.4-68.6
				c0-6.3-0.3-12.4-0.9-18.3c23.7,22.5,31,57.6,18,87.7c2.9-3.2,5.6-6.6,8-10.3c15.6-24.2,16.2-53.7,4.1-77.7
				c19.1,11.6,32.8,31.1,36.6,53.9c0.7-4.2,1.1-8.5,1.1-13c0-25.3-12-47.7-30.6-62C566.8,238.9,586.2,247.6,600.2,263.1"/>
			<path class="st3" d="M419.9,391.8c0,0,56.3-81.2,155.2,24.1c93.2,99.2,128.1,82.5,154.6,51c0,0-1.4,3.9-3.8,7.6
				c-1.8,2.9-2.9,4.5-3.3,5c-13.2,17.7-32,28.7-55.1,28.9c-29.7,0.3-66.5-17.5-107.7-63C468.1,344.1,419.9,391.8,419.9,391.8"/>
		</g>
	</g>
</g>
</svg>
