<?xml version="1.0" encoding="utf-8"?>
<!-- Generator: Adobe Illustrator 23.0.1, SVG Export Plug-In . SVG Version: 6.00 Build 0)  -->
<svg version="1.1" id="Layer_1" xmlns="http://www.w3.org/2000/svg" xmlns:xlink="http://www.w3.org/1999/xlink" x="0px" y="0px"
	 viewBox="0 0 1000 1000" style="enable-background:new 0 0 1000 1000;" xml:space="preserve">
<style type="text/css">
	.st0{fill:#76777A;}
	.st1{fill:#007297;}
</style>
<path class="st0" d="M514.6,614.9c-4.2-3-9.7-4.5-16.7-4.5h-26.2c-3,0-5.1-0.7-6.4-2.1c-1.3-1.5-2-3.4-2-6v-3.3
	c0-2.7,0.6-4.7,1.7-5.8c1.1-1.1,2.9-1.7,5.3-1.7h47.2v-16.9h-44.3c-4.3,0-8.1,0.4-11.2,1.1c-3.4,0.8-6.3,2.2-8.5,4.3
	c-2.3,2.1-4,4.8-5,8.1c-1,3.2-1.5,7.1-1.5,11.8v3.7c0,8.2,2.3,14,6.8,17.3c4.3,3.1,10.2,4.7,17.8,4.7h25.9c2.5,0,4.3,0.6,5.7,1.7
	c1.2,1.1,1.8,2.7,1.8,5v6.5c0,5-2.2,7-7.5,7h-48.6v16.9h49.1c8.3,0,14.4-2.3,18.1-6.7c3.6-4.3,5.4-10.8,5.4-19.3v-5.3
	C521.2,623.5,519,618,514.6,614.9"/>
<path class="st0" d="M684.1,574.4h-36.4v17.7h36.4c6.7,0,9.7,3.5,9.7,11.4v3.8h-28.9c-14.2,0-21.7,7.3-21.7,21v12.1
	c0,7.1,1.8,12.6,5.4,16.4c3.6,3.8,9.1,5.7,16.4,5.7h45.4V603C710.2,584.3,701.2,574.4,684.1,574.4 M693.7,623v22.8h-28
	c-4.8,0-6.7-2-6.7-7v-8.4c0-5.2,1.9-7.3,6.7-7.3H693.7z"/>
<polygon class="st0" points="731.3,588.4 742.9,588.4 747.2,556.3 727,556.3 "/>
<path class="st0" d="M803.6,574.1h-36.4v17.7h36.4c6.7,0,9.7,3.5,9.7,11.4v3.8h-28.9c-14.2,0-21.7,7.3-21.7,21V640
	c0,7.1,1.8,12.6,5.4,16.4c3.6,3.8,9.1,5.7,16.4,5.7h45.4v-59.5C829.8,584,820.7,574.1,803.6,574.1 M813.3,622.6v22.8h-28
	c-4.7,0-6.7-2-6.7-7V630c0-5.2,1.9-7.3,6.7-7.3H813.3z"/>
<path class="st0" d="M900.2,590.2v-15.7h-20.4v-27.8h-16.9v86.8c0,24,13.6,29.1,25.1,29.1h11.9v-16.6H889c-4.3,0-9.2-1.4-9.2-12
	v-43.7H900.2z"/>
<path class="st0" d="M293.3,574.2h-20.6c-14.8,0-26.8,12.3-26.8,27.5V635c0,15.2,12,27.5,26.8,27.5h20.6c14.8,0,26.8-12.3,26.8-27.5
	v-33.3C320.2,586.6,308.1,574.2,293.3,574.2 M303.7,601.7V635c0,5.8-4.6,10.6-10.3,10.6h-20.6c-5.7,0-10.3-4.8-10.3-10.6v-33.3
	c0-5.8,4.6-10.6,10.3-10.6h20.6C299,591.1,303.7,595.9,303.7,601.7"/>
<path class="st0" d="M416.4,610.6c-0.1-24.9-16.8-36.2-32.2-36.2h-36.1v88h16.5v-71.1h19.6c8,0,15.7,7.8,15.7,16.1v51.8l0.2,3.2
	h16.4v-51.6L416.4,610.6z"/>
<path class="st0" d="M223.6,610.7l0-0.1c-0.1-22.3-13.5-33.7-27.3-35.8l-0.3-0.4h-4.5h0h-13l0.2,0.2c-7.8,0.9-15.1,4.7-20.4,10.7
	c-6.1-6.9-14.8-10.9-23.9-10.9h-36v88h16.5v-71.1h19.5c8.5,0,15.7,7.2,15.7,15.7c0,0.1,0,0.2,0,52.9v2.5h16.5v-2.5
	c0-50,0-52.8,0-52.9c0-8.6,7-15.7,15.7-15.7h9.3c8,0,15.7,7.8,15.7,16.1v51.8l0.2,3.2h16.4V610.7z"/>
<path class="st0" d="M618.9,610.7l0-0.1c-0.1-24.9-16.8-36.2-32.2-36.2h-19.6v-27.8h-16.5v27.8v88h16.5h0v-71.1h19.6
	c8,0,15.7,7.8,15.7,16.1v51.8l0.2,3.2h16.4V610.7z"/>
<path class="st1" d="M755.7,362.9c0-12.2-25.6-24.2-25.6-24.2s-26,25-25.1,25.8l28.8,24.1C733.8,388.7,755.7,375.1,755.7,362.9"/>
<path class="st1" d="M607.4,364.5l28.8,24.1c0,0,21.9-13.5,21.9-25.7s-25.5-24.1-25.5-24.1S606.5,363.8,607.4,364.5"/>
<path class="st1" d="M593.2,362.9c0-12.2-25.6-24.2-25.6-24.2s-26,25-25.1,25.8l28.8,24.1C571.4,388.7,593.2,375.1,593.2,362.9"/>
<path class="st1" d="M618.8,313.8c0-12.2-25.6-24.2-25.6-24.2s-26,25-25.1,25.7l28.8,24.2C596.9,339.5,618.8,326,618.8,313.8"/>
<path class="st1" d="M900.2,411.4c-0.3-7.1-4.6-32.8-39.3-32.8h-20.6l-51.9,54.5v47c0,2.5,0.3,4.9,0.8,7.1c-15.2,0-33.1,0.1-41.9-15
	c-3.6-6.1-4.7-13.2-4.7-20.2V408l-27.3,27.9v44.2c0,2.4,0.2,4.7,0.5,7.1c-15.2,0-33,0-41.8-15c-3.6-6.1-4.7-13.2-4.7-20.2v-66.6
	L642,413.4v66.7c0,2.4,0.2,4.7,0.5,7.1c-7-0.7-13.9-4.1-19.3-8.6c-7.9-6.5-12.6-16-12.7-26.4v-52.8l-27.3,27.9v52.8
	c0,2.4,0.3,4.8,0.8,7.1c-7.1-0.6-14.1-4.1-19.6-8.6c-7.9-6.5-12.6-16-12.7-26.4v-66.7l-27.2,27.9v66.7c0,2.4,0.3,4.8,0.8,7.1
	c-15.2,0-33.2,0.1-42-15c-3.6-6.1-4.7-13.2-4.7-20.2V282.4l-27.3,27.9v171.4l0.1-0.1c0.4,10.8,3.9,21.4,13.2,27.4
	c7.3,4.7,16.2,6,24.7,6.2c3.6,0.1,7.2-0.1,10.8-0.1c1.3,0,4.1-2.9,4.7-3.4c3.4-3,6.7-6.3,9.9-9.6c3.2-3.3,6.4-6.6,9.4-10.2
	c0.2-0.2,1-1.5,1.8-2.6c1.9,6.7,5.8,12.6,11.4,17.2c6,4.9,13.8,8.6,21.6,8.7c1.3,0,4.1-2.9,4.7-3.4c3.4-3,6.7-6.3,9.9-9.6
	c3.2-3.3,6.4-6.6,9.4-10.2c0.2-0.2,1.1-1.5,1.9-2.6c1.9,6.7,5.8,12.6,11.3,17.1c6,4.9,13.8,8.6,21.6,8.7c1.3,0,4.1-2.9,4.7-3.4
	c3.4-3,6.7-6.3,9.9-9.6c3.2-3.3,6.4-6.6,9.3-10.2c0.2-0.2,0.8-1.1,1.5-2.1c1.6,7.7,5.3,14.6,12.2,19.1c7.3,4.7,16.2,6,24.7,6.2
	c3.6,0.1,7.2-0.1,10.8-0.1c1.3,0,4.1-2.9,4.7-3.4c3.4-3,6.7-6.3,9.9-9.6c3.2-3.3,6.4-6.6,9.3-10.2c0.2-0.2,0.8-1.1,1.5-2.1l0,0.1
	c1.6,7.7,5.3,14.6,12.2,19.1c7.3,4.7,16.2,6,24.7,6.2c3.6,0.1,7.2-0.1,10.8-0.1c1.3,0,4.1-2.9,4.7-3.4c3.4-3,6.7-6.3,9.9-9.6
	c3.2-3.3,6.4-6.6,9.4-10.2c0.2-0.2,1-1.3,1.7-2.4c5.7,19.2,29,25.7,47.7,25.7h6.4l56.5-56.9C900.2,458.4,900.2,412.1,900.2,411.4
	 M840,484.4c-25.7,0-24.4-22-24.5-32.2V406h39.3c13.6,0,18,20.6,18,44.8c0,0.6,0,27.2,0,33.6C866.6,484.4,840.7,484.4,840,484.4"/>
<path class="st1" d="M270.8,383.4l29.7,24.9c0,0,23-14.2,23-27c0-12.8-26.8-25.4-26.8-25.4s-21.9,21-25.8,26
	c-0.4-12.7-26.8-25.1-26.8-25.1s-27.3,26.2-26.4,27l30.2,25.4C248,409.2,269.4,395.9,270.8,383.4"/>
<polygon class="st1" points="483.8,261.3 516.9,229.1 516.9,218.9 495.3,239.4 448.8,223.8 446.4,223.1 414.2,255 414.2,265.1 
	434.1,245.1 481.6,260.6 "/>
<path class="st1" d="M415.4,415.4c-1.9-3.4-6.4-10-6.4-10l-29.9,29c0,0,12.9,21.8,13.1,35.3c0.1,5.6,0-0.2,0,5.4v10.9H156.5
	c-21.1,0-29.6-5.9-29.6-34.7l14.4-14.9v-16.6l-43.1,44.3c0,0.2,0,15.8,0.1,16.3c0.3,7.4,1.9,14.9,6.2,21.1
	c3.6,5.1,8.9,8.7,14.7,10.7c9.7,3.5,19.9,3,30,2.9h229l43.9-39.5v-12.6C422.1,446.9,423.6,430.2,415.4,415.4"/>
<path class="st0" d="M111.7,759.1L111.7,759.1c-0.3-0.1-1.5-0.4-3.6-0.9c-2-0.5-3.4-0.9-4.2-1.3c-0.8-0.3-1.3-0.7-1.5-1.1
	c-0.3-0.4-0.4-1-0.4-1.8v-0.6c0-0.9,0.4-1.7,1.3-2.4c0.9-0.7,2.2-1.1,3.9-1.1c1.9,0,3.4,0.4,4.3,1.1c0.9,0.7,1.4,1.8,1.4,3.2v0.4
	h3.7v-0.4c0-1.1-0.2-2.1-0.5-2.9c-0.3-0.9-0.8-1.6-1.4-2.2c-0.6-0.6-1.3-1.1-2.1-1.4c-0.8-0.4-1.7-0.6-2.6-0.8s-1.8-0.2-2.8-0.2
	c-2.6,0-4.7,0.6-6.3,1.8c-1.7,1.2-2.5,2.9-2.5,4.9v0.3c0,1.7,0.4,3.2,1.1,4.3c0.7,1.1,2.1,2,4,2.6c0.3,0.1,1.3,0.4,3.6,0.9
	c2,0.5,3.4,0.9,4.2,1.3c0.8,0.3,1.3,0.7,1.5,1.2c0.2,0.5,0.4,1.1,0.4,1.8v0.8c0,0.9-0.4,1.7-1.3,2.4c-0.8,0.7-2.1,1.1-3.9,1.1
	c-1.9,0-3.4-0.4-4.3-1.1c-0.9-0.7-1.4-1.8-1.4-3.2v-1.1h-3.7v1.1c0,1.1,0.2,2.1,0.5,2.9c0.3,0.9,0.8,1.6,1.4,2.2
	c0.6,0.6,1.3,1.1,2.1,1.4c0.8,0.4,1.6,0.6,2.6,0.8c0.9,0.1,1.8,0.2,2.8,0.2c2.6,0,4.7-0.6,6.4-1.8c1.7-1.2,2.5-2.9,2.5-4.9V766
	c0-1.7-0.4-3.2-1.1-4.3C114.9,760.5,113.6,759.7,111.7,759.1"/>
<path class="st0" d="M161.5,753.1c-0.8,0.2-1.6,0.5-2.4,0.9c-0.8,0.4-1.4,1-2,1.6c-0.5,0.7-1,1.5-1.3,2.6c-0.3,1-0.5,2.2-0.5,3.5
	v2.2c0,1.3,0.2,2.5,0.5,3.5c0.3,1,0.8,1.9,1.3,2.6c0.5,0.6,1.2,1.2,2,1.6c0.8,0.4,1.5,0.7,2.4,0.9c0.8,0.2,1.6,0.3,2.6,0.3h8.2v-20
	H164C163.1,752.8,162.2,752.9,161.5,753.1 M158.8,762.5c0-2.3,0.4-4,1.3-5c0.8-1,2.1-1.5,4-1.5h4.7v13.5H164c-1.8,0-3.1-0.5-4-1.4
	c-0.8-1-1.3-2.7-1.3-5V762.5z"/>
<rect x="178.7" y="745.4" class="st0" width="3.5" height="27.4"/>
<rect x="188.6" y="745.4" class="st0" width="3.5" height="27.4"/>
<path class="st0" d="M206.7,756.6c-0.8-0.7-1.1-1.5-1.1-2.7v-0.6c0-1,0.4-1.8,1.2-2.4c0.8-0.6,2-0.9,3.6-0.9c1.6,0,2.8,0.3,3.6,0.9
	c0.8,0.6,1.2,1.4,1.2,2.4v1.5h3.5v-1.5c0-0.5,0-0.9-0.1-1.4c-0.1-0.5-0.3-1.1-0.7-1.7c-0.3-0.6-0.8-1.2-1.4-1.7
	c-0.6-0.5-1.4-0.9-2.5-1.2c-1-0.3-2.2-0.5-3.6-0.5c-1.4,0-2.6,0.2-3.6,0.5c-1,0.3-1.9,0.8-2.4,1.3c-0.6,0.5-1,1.1-1.4,1.7
	c-0.4,0.7-0.6,1.2-0.7,1.7c-0.1,0.5-0.1,0.9-0.1,1.4v0.7c0,0.4,0,0.8,0.1,1.3c0.1,0.4,0.2,0.9,0.4,1.4c0.2,0.5,0.5,1.1,0.9,1.6
	c0.3,0.4,0.6,0.7,1,1c-1.7,1.2-2.5,3-2.5,5.4v1.2c0,0.7,0.1,1.4,0.2,2c0.2,0.6,0.5,1.3,0.9,1.9c0.4,0.6,1,1.1,1.6,1.6
	c0.6,0.4,1.5,0.8,2.4,1.1c0.9,0.3,2.1,0.4,3.3,0.4h8.1v-12h2.9v-3.3h-11.2C208.7,757.5,207.5,757.2,206.7,756.6 M210.5,769.6
	c-1.6,0-2.9-0.4-3.7-1.1c-0.8-0.7-1.2-1.6-1.2-2.8v-1.1c0-1.1,0.3-2,1.1-2.8c0.7-0.7,1.7-1.1,2.9-1.1h5.6v8.8H210.5z"/>
<polygon class="st0" points="244.2,767.4 236.8,747.3 236.8,747.1 231.4,747.1 231.4,772.8 235.1,772.8 235.1,752.6 242.3,772.6 
	242.4,772.8 245.8,772.8 253.3,752.5 253.3,772.8 257,772.8 257,747.1 251.5,747.1 "/>
<path class="st0" d="M278.1,755.2L278.1,755.2c-0.6-0.7-1.2-1.2-2-1.6c-0.7-0.4-1.5-0.7-2.4-0.9c-1.6-0.3-3.6-0.3-5.1,0
	c-0.8,0.2-1.6,0.5-2.4,0.9c-0.8,0.4-1.4,1-2,1.6c-0.5,0.7-1,1.5-1.3,2.6c-0.3,1-0.5,2.2-0.5,3.5v3c0,1.3,0.2,2.5,0.5,3.5
	c0.3,1,0.8,1.9,1.3,2.6c0.5,0.6,1.2,1.2,2,1.6c0.8,0.4,1.5,0.7,2.4,0.9c0.8,0.2,1.6,0.2,2.6,0.2c1,0,1.9-0.1,2.8-0.3
	c0.9-0.2,1.7-0.6,2.5-1.1c0.8-0.5,1.5-1.2,2.1-2.1c0.6-0.9,0.9-2,1.1-3.2l0.1-0.4h-3.6l-0.1,0.3c-0.3,1.3-0.9,2.2-1.7,2.7
	c-0.8,0.6-1.9,0.9-3.3,0.9c-1.8,0-3.1-0.5-3.9-1.4c-0.8-0.9-1.2-2.4-1.3-4.5h14v-2.8c0-1.3-0.2-2.5-0.5-3.5
	C279.1,756.8,278.7,755.9,278.1,755.2 M276.5,760.9H266c0.1-1.8,0.6-3.1,1.4-3.9c0.8-0.9,2.1-1.3,3.8-1.3c1.7,0,3,0.4,3.9,1.3
	C275.8,757.8,276.3,759.1,276.5,760.9"/>
<path class="st0" d="M298.4,752.8h-4.8c-0.9,0-1.8,0.1-2.6,0.3c-0.8,0.2-1.6,0.5-2.4,0.9c-0.8,0.4-1.4,1-2,1.7
	c-0.5,0.7-1,1.5-1.3,2.6c-0.3,1-0.5,2.2-0.5,3.5v2.1c0,1.3,0.2,2.5,0.5,3.5c0.3,1,0.8,1.9,1.3,2.6c0.5,0.6,1.2,1.2,2,1.6
	c0.8,0.4,1.5,0.7,2.4,0.9c0.8,0.2,1.6,0.3,2.6,0.3h8.2v-27.4h-3.4V752.8z M288.5,762.5c0-2.3,0.4-4,1.3-5c0.8-1,2.1-1.5,4-1.5h4.8
	v13.5h-4.8c-1.8,0-3.1-0.5-4-1.4c-0.8-1-1.3-2.7-1.3-5V762.5z"/>
<rect x="308.3" y="752.8" class="st0" width="3.5" height="20"/>
<path class="st0" d="M331.7,763.6c0,2.4-0.4,4.1-1.1,5c-0.7,0.9-2.1,1.4-3.9,1.4c-1.8,0-3.2-0.5-3.9-1.4c-0.7-0.9-1.1-2.6-1.1-5
	v-10.7h-3.5v11.5c0,1.3,0.1,2.5,0.4,3.5c0.3,1,0.7,1.9,1.2,2.6c0.5,0.7,1.1,1.2,1.9,1.7c0.7,0.4,1.5,0.7,2.3,0.9
	c0.8,0.2,1.7,0.2,2.6,0.2c0.9,0,1.8-0.1,2.6-0.2c0.8-0.2,1.6-0.5,2.3-0.9c0.7-0.4,1.4-1,1.9-1.7c0.5-0.7,0.9-1.5,1.2-2.6
	c0.3-1,0.4-2.2,0.4-3.5v-11.5h-3.4V763.6z"/>
<polygon class="st0" points="383.9,772.8 398.7,772.8 398.7,769.6 387.6,769.6 387.6,761.4 398,761.4 398,758.2 387.6,758.2 
	387.6,750.3 398.7,750.3 398.7,747.1 383.9,747.1 "/>
<path class="st0" d="M455.3,755.2L455.3,755.2c-0.6-0.7-1.2-1.2-2-1.6c-0.8-0.4-1.6-0.7-2.4-0.9c-1.6-0.3-3.6-0.3-5.1,0
	c-0.8,0.2-1.6,0.5-2.4,0.9c-0.8,0.4-1.4,1-2,1.6c-0.5,0.7-1,1.5-1.3,2.6c-0.3,1-0.5,2.2-0.5,3.5v3c0,1.3,0.2,2.5,0.5,3.5
	c0.3,1,0.8,1.9,1.3,2.6c0.5,0.6,1.2,1.2,2,1.6c0.8,0.4,1.5,0.7,2.4,0.9c0.8,0.2,1.6,0.2,2.6,0.2c1,0,1.9-0.1,2.8-0.3
	c0.9-0.2,1.7-0.6,2.5-1.1c0.8-0.5,1.5-1.2,2-2.1c0.6-0.9,1-2,1.2-3.2l0.1-0.4h-3.6l-0.1,0.3c-0.3,1.3-0.9,2.2-1.7,2.7
	c-0.8,0.6-1.9,0.9-3.3,0.9c-1.8,0-3.1-0.5-3.9-1.4c-0.8-0.9-1.2-2.4-1.3-4.5h14v-2.8c0-1.3-0.2-2.5-0.5-3.5
	C456.3,756.8,455.9,755.9,455.3,755.2 M453.7,760.9h-10.4c0.1-1.8,0.6-3.1,1.4-3.9c0.8-0.9,2.1-1.3,3.8-1.3c1.7,0,3,0.4,3.9,1.3
	C453,757.8,453.5,759.1,453.7,760.9"/>
<path class="st0" d="M491.9,755.7c-0.6-0.7-1.2-1.2-2-1.6c-0.7-0.4-1.5-0.7-2.4-0.9c-0.8-0.2-1.6-0.3-2.6-0.3h-8.2v27.4h3.5v-7.4
	h4.7c0.9,0,1.8-0.1,2.6-0.3c0.8-0.2,1.6-0.5,2.4-0.9c0.8-0.4,1.4-1,2-1.6c0.5-0.7,1-1.5,1.3-2.6c0.3-1,0.5-2.2,0.5-3.5v-2.2
	c0-1.3-0.2-2.5-0.5-3.5C492.9,757.2,492.5,756.3,491.9,755.7 M490.3,762.5v0.6c0,2.3-0.4,4-1.3,5c-0.8,1-2.2,1.5-4,1.5h-4.7v-13.5
	h4.7c1.8,0,3.2,0.5,4,1.5C489.8,758.5,490.3,760.2,490.3,762.5"/>
<rect x="513.4" y="752.8" class="st0" width="3.5" height="20"/>
<path class="st0" d="M534.5,761.8c-0.4-0.1-1.5-0.4-3.1-0.8c-1.7-0.4-2.9-0.7-3.5-0.9c-0.9-0.3-1.3-0.6-1.4-0.8
	c-0.2-0.2-0.3-0.7-0.3-1.2V758c0-0.6,0.3-1.2,1-1.6c0.7-0.5,1.9-0.7,3.4-0.7c4.5,0,4.5,2,4.5,2.7v0.4h3.5v-0.4c0-1-0.2-2-0.7-2.8
	c-0.4-0.8-1-1.4-1.8-1.9c-0.8-0.4-1.6-0.8-2.5-1c-0.9-0.2-1.9-0.3-3-0.3c-2.2,0-4.1,0.5-5.6,1.4c-1.5,1-2.3,2.3-2.3,4v0.2
	c0,1.4,0.3,2.6,1,3.4c0.6,0.8,1.7,1.5,3.1,1.9c0.3,0.1,1.3,0.4,3.1,0.8c1.7,0.4,2.9,0.7,3.5,0.9c0.9,0.3,1.3,0.6,1.5,0.8
	c0.2,0.2,0.3,0.7,0.3,1.2v0.4c0,0.7,0,2.7-4.2,2.7c-4.5,0-4.5-2.1-4.5-2.7v-1.6h-3.5v1.6c0,1,0.2,2,0.6,2.8c0.4,0.8,1.1,1.4,1.8,1.9
	c0.7,0.4,1.6,0.8,2.5,1c0.9,0.2,1.9,0.3,3,0.3c1,0,2-0.1,2.9-0.3c0.9-0.2,1.7-0.5,2.4-1c0.7-0.4,1.3-1.1,1.8-1.9
	c0.4-0.8,0.6-1.7,0.6-2.8v-0.3c0-1.4-0.3-2.6-0.9-3.4C536.9,762.9,535.9,762.3,534.5,761.8"/>
<path class="st0" d="M559.1,755.2c-0.5-0.7-1.2-1.2-2-1.6c-0.8-0.4-1.5-0.7-2.4-0.9c-1.6-0.3-3.6-0.3-5.2,0
	c-0.8,0.2-1.6,0.5-2.3,0.9c-0.8,0.4-1.4,1-2,1.6c-0.5,0.7-1,1.5-1.3,2.6c-0.3,1-0.5,2.2-0.5,3.5v3c0,1.3,0.2,2.5,0.5,3.5
	c0.3,1,0.8,1.9,1.3,2.6c0.5,0.6,1.2,1.2,2,1.6c0.8,0.4,1.5,0.7,2.4,0.9c0.8,0.2,1.7,0.2,2.6,0.2c1,0,1.9-0.1,2.8-0.3
	c0.9-0.2,1.7-0.6,2.5-1.1c0.8-0.5,1.5-1.2,2-2.1c0.6-0.9,1-2,1.2-3.2l0.1-0.4h-3.6l-0.1,0.3c-0.3,1.3-0.9,2.2-1.7,2.7
	c-0.8,0.6-1.9,0.9-3.3,0.9c-1.8,0-3.1-0.5-4-1.4c-0.8-0.9-1.2-2.4-1.3-4.5h14v-2.8c0-1.3-0.2-2.5-0.5-3.5
	C560.1,756.7,559.7,755.9,559.1,755.2 M557.4,760.9H547c0.1-1.8,0.6-3.1,1.4-3.9c0.8-0.9,2.1-1.3,3.8-1.3s3,0.4,3.8,1.3
	C556.8,757.8,557.3,759.1,557.4,760.9"/>
<path class="st0" d="M577.8,761.8c-0.4-0.1-1.6-0.4-3.1-0.8c-1.7-0.4-2.8-0.7-3.5-0.9c-0.9-0.3-1.3-0.6-1.4-0.7
	c-0.2-0.3-0.3-0.7-0.3-1.3V758c0-0.6,0.3-1.2,1-1.6c0.7-0.5,1.9-0.7,3.4-0.7c4.5,0,4.5,2,4.5,2.7v0.4h3.5v-0.4c0-1-0.2-2-0.6-2.8
	c-0.4-0.8-1-1.4-1.8-1.9c-0.8-0.4-1.6-0.8-2.5-1c-0.9-0.2-1.9-0.3-3-0.3c-2.3,0-4.2,0.5-5.6,1.4c-1.5,1-2.3,2.3-2.3,4v0.2
	c0,1.4,0.3,2.6,1,3.4c0.6,0.8,1.7,1.5,3.1,1.9c0.4,0.1,1.4,0.4,3.1,0.8c1.7,0.4,2.9,0.7,3.5,0.9c0.9,0.3,1.3,0.6,1.5,0.8
	c0.2,0.2,0.3,0.7,0.3,1.2v0.4c0,0.7,0,2.7-4.2,2.7c-4.5,0-4.5-2.1-4.5-2.7v-1.6h-3.5v1.6c0,1,0.2,2,0.7,2.8c0.4,0.8,1,1.4,1.8,1.9
	c0.8,0.4,1.6,0.8,2.5,1c0.9,0.2,1.9,0.3,3,0.3c1,0,2-0.1,2.9-0.3c0.9-0.2,1.7-0.5,2.4-1c0.7-0.4,1.3-1.1,1.8-1.9
	c0.4-0.8,0.6-1.7,0.6-2.8v-0.3c0-1.4-0.3-2.6-1-3.4C580.3,762.9,579.2,762.3,577.8,761.8"/>
<path class="st0" d="M600.8,751.4c0.9-1,2.4-1.5,4.3-1.5c1.8,0,3.2,0.4,4.1,1.3c0.9,0.9,1.5,2.3,1.6,4.2l0,0.3h3.7v-0.4
	c0-1.3-0.2-2.4-0.6-3.4c-0.4-1-0.8-1.9-1.4-2.5c-0.6-0.7-1.3-1.2-2.1-1.6c-0.8-0.4-1.7-0.7-2.5-0.9c-1.8-0.4-3.9-0.3-5.6,0
	c-0.9,0.2-1.7,0.5-2.6,0.9c-0.8,0.4-1.5,1-2.1,1.7c-0.6,0.6-1.1,1.5-1.4,2.6c-0.3,1-0.5,2.2-0.5,3.5v8.8c0,1.3,0.2,2.5,0.5,3.5
	c0.4,1,0.8,1.9,1.4,2.6c0.6,0.7,1.3,1.2,2.1,1.7c0.8,0.4,1.7,0.7,2.6,0.9c0.9,0.2,1.8,0.3,2.8,0.3c2.2,0,4-0.2,5.5-0.7
	c1.5-0.5,2.8-1.2,3.9-2.3l0.1-0.1V759h-8.3v3.2h4.6v6.5c-0.7,0.4-1.4,0.7-2.1,0.9c-0.8,0.2-2.1,0.3-3.6,0.3c-1.9,0-3.4-0.5-4.3-1.5
	c-0.9-1-1.4-2.7-1.4-5.1v-7C599.4,754.2,599.9,752.5,600.8,751.4"/>
<path class="st0" d="M635.5,755.2L635.5,755.2c-0.6-0.7-1.2-1.2-2-1.6c-0.8-0.4-1.6-0.7-2.4-0.9s-1.6-0.3-2.6-0.3
	c-0.9,0-1.8,0.1-2.6,0.3c-0.8,0.2-1.6,0.5-2.4,0.9c-0.8,0.4-1.4,1-2,1.6c-0.5,0.7-1,1.5-1.3,2.6c-0.3,1-0.5,2.2-0.5,3.5v3
	c0,1.3,0.2,2.5,0.5,3.5c0.3,1,0.8,1.9,1.3,2.6c0.5,0.6,1.2,1.2,2,1.6c0.8,0.4,1.6,0.7,2.4,0.9c0.8,0.2,1.6,0.2,2.6,0.2
	c1,0,1.9-0.1,2.8-0.3c0.9-0.2,1.7-0.6,2.5-1.1c0.8-0.5,1.5-1.2,2-2.1c0.6-0.9,0.9-2,1.2-3.2l0.1-0.4h-3.6l-0.1,0.3
	c-0.3,1.3-0.9,2.2-1.7,2.7c-0.8,0.6-1.9,0.9-3.3,0.9c-1.8,0-3.1-0.5-3.9-1.4c-0.8-0.9-1.2-2.4-1.3-4.5h14v-2.8
	c0-1.3-0.2-2.5-0.5-3.5C636.5,756.8,636.1,755.9,635.5,755.2 M633.8,760.9h-10.4c0.1-1.8,0.6-3.1,1.4-3.9c0.8-0.9,2.1-1.3,3.8-1.3
	c1.7,0,3,0.4,3.9,1.3C633.2,757.8,633.7,759.1,633.8,760.9"/>
<path class="st0" d="M657.7,754.8c-0.7-0.7-1.6-1.2-2.8-1.5c-1.1-0.3-2.5-0.5-4.3-0.5h-7.5v20h3.5v-16.7h4.4c1.1,0,2,0.1,2.7,0.3
	c0.7,0.2,1.2,0.4,1.5,0.8c0.4,0.4,0.6,0.8,0.8,1.3c0.1,0.6,0.2,1.3,0.2,2.1v12.2h3.5V761c0-1.4-0.1-2.7-0.4-3.7
	C658.9,756.4,658.4,755.5,657.7,754.8"/>
<path class="st0" d="M680.7,755.2L680.7,755.2c-0.6-0.7-1.2-1.2-2-1.6c-0.8-0.4-1.6-0.7-2.4-0.9c-1.6-0.3-3.6-0.3-5.1,0
	c-0.8,0.2-1.6,0.5-2.4,0.9c-0.8,0.4-1.4,1-2,1.6c-0.5,0.7-1,1.5-1.3,2.6c-0.3,1-0.5,2.2-0.5,3.5v3c0,1.3,0.2,2.5,0.5,3.5
	c0.3,1,0.8,1.9,1.3,2.6c0.5,0.6,1.2,1.2,2,1.6c0.8,0.4,1.5,0.7,2.4,0.9c0.8,0.2,1.6,0.2,2.6,0.2c1,0,1.9-0.1,2.8-0.3
	c0.9-0.2,1.7-0.6,2.5-1.1c0.8-0.5,1.5-1.2,2-2.1c0.6-0.9,1-2,1.2-3.2l0.1-0.4h-3.6l-0.1,0.3c-0.3,1.3-0.9,2.2-1.7,2.7
	c-0.8,0.6-1.9,0.9-3.3,0.9c-1.8,0-3.1-0.5-3.9-1.4c-0.8-0.9-1.2-2.4-1.3-4.5h14v-2.8c0-1.3-0.2-2.5-0.5-3.5
	C681.7,756.8,681.2,755.9,680.7,755.2 M679,760.9h-10.4c0.1-1.8,0.6-3.1,1.4-3.9c0.8-0.9,2.1-1.3,3.8-1.3c1.7,0,3,0.4,3.9,1.3
	C678.4,757.8,678.9,759.1,679,760.9"/>
<polygon class="st0" points="688.2,772.8 691.7,772.8 691.7,756.1 697.3,756.1 697.3,752.8 688.2,752.8 "/>
<path class="st0" d="M706.3,753.1c-0.8,0.2-1.6,0.5-2.4,0.9c-0.8,0.4-1.4,1-2,1.6c-0.5,0.7-1,1.5-1.3,2.6c-0.3,1-0.5,2.2-0.5,3.5
	v2.2c0,1.3,0.2,2.5,0.5,3.5c0.3,1,0.8,1.9,1.3,2.6c0.5,0.6,1.2,1.2,2,1.6c0.8,0.4,1.5,0.7,2.4,0.9c0.8,0.2,1.7,0.3,2.6,0.3h8.2v-20
	h-8.2C708,752.8,707.1,752.9,706.3,753.1 M703.6,762.5c0-2.3,0.4-4,1.3-5c0.8-1,2.1-1.5,4-1.5h4.7v13.5h-4.7c-1.8,0-3.1-0.5-4-1.4
	c-0.8-1-1.3-2.7-1.3-5V762.5z"/>
<rect x="723.5" y="745.4" class="st0" width="3.5" height="27.4"/>
<path class="st0" d="M750.3,747.1h-4.5l-8.1,25.2l-0.2,0.5h3.9l1.7-5.4h9.8l1.7,5.4h3.9l-8.2-25.5L750.3,747.1z M751.8,764.2h-7.7
	l3.8-12L751.8,764.2z"/>
<path class="st0" d="M776,763.6c0,2.4-0.4,4.1-1.1,5c-0.7,0.9-2.1,1.4-3.9,1.4c-1.8,0-3.2-0.5-3.9-1.4c-0.7-0.9-1.1-2.6-1.1-5v-10.7
	h-3.5v11.5c0,1.3,0.1,2.5,0.4,3.5c0.3,1,0.7,1.9,1.2,2.6c0.5,0.7,1.1,1.2,1.9,1.7c0.7,0.4,1.5,0.7,2.3,0.9c0.8,0.2,1.7,0.2,2.6,0.2
	c0.9,0,1.8-0.1,2.6-0.2c0.8-0.2,1.6-0.5,2.3-0.9c0.7-0.4,1.4-1,1.9-1.7c0.5-0.7,0.9-1.5,1.2-2.6c0.3-1,0.4-2.2,0.4-3.5v-11.5H776
	V763.6z"/>
<path class="st0" d="M814.1,754.8c-0.7-0.7-1.6-1.2-2.8-1.5c-1.1-0.3-2.6-0.4-4.3-0.4h-4v-7.4h-3.5v27.4h3.5v-16.7h4.4
	c1.1,0,2,0.1,2.7,0.3c0.7,0.2,1.2,0.4,1.5,0.8c0.4,0.4,0.6,0.8,0.8,1.4c0.2,0.5,0.2,1.2,0.2,2.1v12.2h3.5V761c0-1.5-0.1-2.7-0.4-3.7
	C815.3,756.4,814.8,755.5,814.1,754.8"/>
<path class="st0" d="M837.1,755.2L837.1,755.2c-0.6-0.7-1.2-1.2-2-1.6c-0.8-0.4-1.6-0.7-2.4-0.9c-1.6-0.3-3.6-0.3-5.1,0
	c-0.8,0.2-1.6,0.5-2.4,0.9c-0.8,0.4-1.4,1-2,1.6c-0.5,0.7-1,1.5-1.3,2.6c-0.3,1-0.5,2.2-0.5,3.5v3.1c0,1.3,0.2,2.5,0.5,3.5
	c0.3,1,0.8,1.9,1.3,2.6c0.5,0.6,1.2,1.2,2,1.7c0.8,0.4,1.5,0.7,2.4,0.9c0.8,0.2,1.7,0.2,2.6,0.2c0.9,0,1.8-0.1,2.6-0.2
	c0.8-0.2,1.6-0.5,2.4-0.9c0.8-0.4,1.4-1,2-1.7c0.6-0.7,1-1.5,1.3-2.6c0.3-1,0.5-2.2,0.5-3.5v-3.1c0-1.3-0.2-2.5-0.5-3.5
	S837.6,755.9,837.1,755.2 M835.4,762.1v1.5c0,2.3-0.4,4-1.3,5c-0.8,1-2.2,1.5-4,1.5c-1.8,0-3.1-0.5-4-1.5c-0.8-1-1.3-2.6-1.3-5v-1.5
	c0-2.3,0.4-4,1.3-5c0.8-1,2.1-1.4,4-1.4c1.8,0,3.2,0.5,4,1.4C835,758.1,835.4,759.7,835.4,762.1"/>
<rect x="858.6" y="752.8" class="st0" width="3.5" height="20"/>
<polygon class="st0" points="874,747.1 870.5,747.1 870.5,752.8 867.3,752.8 867.3,756.1 870.5,756.1 870.5,772.8 874,772.8 
	874,756.1 877.3,756.1 877.3,752.8 874,752.8 "/>
<path class="st0" d="M896.5,752.8l-6.1,16.1l-5.9-15.8l-0.1-0.2h-3.7l7.2,19c0.2,0.5,0.5,0.9,1.1,1.2l-2.8,7.2h3.7l10.4-27.4H896.5z
	"/>
<polygon class="st0" points="844.6,772.8 848.1,772.8 848.1,756.1 853.7,756.1 853.7,752.8 844.6,752.8 "/>
<polygon class="st0" points="499.5,772.8 502.9,772.8 502.9,756.1 508.5,756.1 508.5,752.8 499.5,752.8 "/>
<polygon class="st0" points="462.9,772.8 466.4,772.8 466.4,756.1 471.9,756.1 471.9,752.8 462.9,752.8 "/>
<polygon class="st0" points="790.9,747.1 787.4,747.1 787.4,752.8 784.2,752.8 784.2,756.1 787.4,756.1 787.4,772.8 790.9,772.8 
	790.9,756.1 794.2,756.1 794.2,752.8 790.9,752.8 "/>
<polygon class="st0" points="433.1,747.1 429.6,747.1 429.6,752.8 426.4,752.8 426.4,756.1 429.6,756.1 429.6,772.8 433.1,772.8 
	433.1,756.1 436.4,756.1 436.4,752.8 433.1,752.8 "/>
<path class="st0" d="M419.1,754.8c-0.7-0.7-1.6-1.2-2.8-1.5c-1.1-0.3-2.5-0.5-4.3-0.5h-7.5v20h3.5v-16.7h4.4c1.1,0,2,0.1,2.7,0.3
	c0.7,0.2,1.2,0.4,1.5,0.8c0.4,0.4,0.6,0.8,0.8,1.3c0.2,0.6,0.2,1.3,0.2,2.1v12.2h3.5V761c0-1.4-0.1-2.7-0.4-3.7
	C420.3,756.4,419.8,755.5,419.1,754.8"/>
<path class="st0" d="M516.9,747.9c-0.1-0.3-0.4-0.5-0.7-0.7c-0.6-0.3-1.6-0.3-2.2,0c-0.3,0.2-0.6,0.4-0.7,0.6
	c-0.1,0.2-0.2,0.4-0.2,0.6c0,0.2-0.1,0.4-0.1,0.5c0,0.1,0,0.3,0.1,0.6c0,0.2,0.1,0.4,0.2,0.6c0.1,0.3,0.4,0.5,0.7,0.6h0
	c0.3,0.1,0.7,0.2,1.1,0.2c0.4,0,0.8-0.1,1.1-0.2c0.3-0.1,0.6-0.4,0.7-0.6c0.1-0.2,0.2-0.4,0.2-0.6c0-0.2,0-0.4,0-0.5
	c0-0.2,0-0.4,0-0.5C517.1,748.3,517.1,748.1,516.9,747.9"/>
<path class="st0" d="M311.9,747.9c-0.1-0.3-0.4-0.5-0.7-0.6c-0.6-0.3-1.6-0.3-2.2,0c-0.3,0.2-0.6,0.4-0.7,0.6
	c-0.1,0.2-0.2,0.4-0.2,0.6c0,0.2-0.1,0.3-0.1,0.6c0,0.2,0,0.4,0,0.5c0,0.2,0.1,0.3,0.2,0.6c0.1,0.3,0.4,0.5,0.7,0.6
	c0.3,0.1,0.7,0.2,1.1,0.2c0.4,0,0.8-0.1,1.1-0.2c0.3-0.1,0.6-0.4,0.7-0.6c0.1-0.2,0.2-0.4,0.2-0.6c0-0.2,0-0.4,0-0.5
	c0-0.2,0-0.4,0-0.5C312.1,748.3,312,748.1,311.9,747.9"/>
<path class="st0" d="M862.1,747.9c-0.1-0.3-0.4-0.5-0.7-0.7c-0.6-0.3-1.6-0.3-2.2,0c-0.3,0.2-0.6,0.4-0.7,0.6
	c-0.1,0.2-0.2,0.4-0.2,0.6c0,0.2-0.1,0.4-0.1,0.5c0,0.1,0,0.3,0.1,0.6c0,0.2,0.1,0.4,0.2,0.6c0.1,0.3,0.4,0.5,0.7,0.6
	c0.3,0.1,0.7,0.2,1.1,0.2c0.4,0,0.8-0.1,1.1-0.2c0.3-0.1,0.6-0.4,0.7-0.6c0.1-0.2,0.2-0.4,0.2-0.6c0-0.2,0-0.4,0-0.5
	c0-0.2,0-0.4,0-0.5C862.3,748.3,862.2,748.1,862.1,747.9"/>
<path class="st0" d="M366.8,754.9c-0.6-0.7-1.6-1.2-2.7-1.6c-1.1-0.3-2.5-0.5-4.1-0.5h-18.6v20h3.5v-16.7h8.1v16.7h3.5v-16.7h3.5
	c1.1,0,2,0.1,2.7,0.3c0.6,0.2,1.2,0.4,1.5,0.8c0.4,0.4,0.6,0.8,0.8,1.3c0.1,0.6,0.2,1.2,0.2,2.1v12.2h3.5V761c0-1.4-0.1-2.6-0.4-3.6
	C367.9,756.5,367.5,755.6,366.8,754.9"/>
<path class="st0" d="M148.1,754.9c-0.6-0.7-1.5-1.2-2.7-1.6c-1.1-0.3-2.5-0.5-4.1-0.5h-18.6v20h3.5v-16.7h8.1v16.7h3.5v-16.7h3.4
	c1.1,0,2,0.1,2.7,0.3c0.7,0.2,1.2,0.4,1.5,0.8c0.4,0.4,0.6,0.8,0.8,1.3c0.1,0.6,0.2,1.3,0.2,2.1v12.2h3.5V761c0-1.4-0.1-2.6-0.4-3.6
	C149.2,756.5,148.8,755.6,148.1,754.9"/>
<rect x="896.6" y="693.9" class="st0" width="3.6" height="35.4"/>
<path class="st0" d="M885.2,693.9v31.7h-8.5v-7.8c0-2.3-0.2-4.1-0.6-5.6c-0.4-1.5-1-2.7-1.9-3.5c-0.9-0.9-1.9-1.5-3.2-1.9
	c-1.2-0.4-2.8-0.5-4.7-0.5h-6v3.6h6.2c1.2,0,2.1,0.1,2.9,0.3c0.8,0.2,1.4,0.6,2,1.1c0.6,0.6,1,1.3,1.2,2.3c0.2,1,0.4,2.2,0.4,3.7
	v8.3h-3.6v-5.2c0-1.1-0.1-2.2-0.4-3.1c-0.3-0.9-0.7-1.6-1.1-2.2s-1-1-1.7-1.4c-0.7-0.4-1.3-0.6-2-0.8c-0.7-0.1-1.4-0.2-2.2-0.2
	c-0.8,0-1.5,0.1-2.2,0.2c-0.7,0.2-1.4,0.4-2,0.8c-0.6,0.4-1.2,0.8-1.7,1.4c-0.5,0.6-0.8,1.3-1.1,2.2c-0.3,0.9-0.4,1.9-0.4,3.1v0.2
	c0,1.1,0.1,3.1,0.4,3.9c0.1,0.4,0.3,0.7,0.5,1h-11v-18.5h-3.6v18.5h-13.3v-18.5h-3.6v18.5h-12.4v-10.8c0-1.1-0.1-2.2-0.4-3.1
	c-0.3-0.9-0.6-1.6-1.1-2.2c-0.5-0.6-1-1-1.7-1.4c-0.7-0.4-1.3-0.6-2-0.8c-0.7-0.2-1.4-0.2-2.2-0.2h-3.2c-0.7,0-1.4,0.1-2.1,0.2
	c-0.7,0.1-1.4,0.4-2,0.8c-0.7,0.4-1.2,0.8-1.7,1.4c-0.5,0.6-0.8,1.3-1.1,2.2c-0.3,0.9-0.4,1.9-0.4,3.1v6.8c0,1.1,0.1,2.2,0.4,3.1
	c0.3,0.9,0.7,1.6,1.1,2.2c0.5,0.6,1,1,1.7,1.4c0.6,0.4,1.3,0.6,2,0.8s1.4,0.2,2.2,0.2h87.9v-35.4H885.2z M807.9,725.6H801
	c-1.3,0-2.3-0.4-3-1.1c-0.6-0.7-0.9-1.9-0.9-3.6v-5.4c0-1.7,0.3-2.9,0.9-3.6c0.6-0.7,1.5-1.1,2.8-1.1h3.2c1.4,0,2.3,0.4,3,1.1
	c0.6,0.7,0.9,1.9,0.9,3.6V725.6z M865.9,725.6h-3.7H862c-1.3,0-2.3-0.4-3-1.1c-0.9-0.9-0.9-2.5-0.9-2.5c0-0.2,0-1.3,0-1.4
	c0-1.4,0.4-2.4,0.9-3.1c0.6-0.7,1.6-1.1,3-1.1s2.3,0.4,3,1.1c0.6,0.7,0.9,1.9,0.9,3.6V725.6z"/>
<path class="st0" d="M829.3,703.6h0.4V701h-3c-0.5-0.3-0.9-0.9-0.8-1.5c0.2-0.8,1.2-1.3,2.6-1.3h1.5v-2.5h-1.8
	c-3.2,0-4.8,1.2-4.9,3.7c0,0.5,0.1,1.1,0.3,1.7h-2.2v2.5h4.3H829.3z"/>
<path class="st0" d="M844.9,737.3c0.3,0.2,0.7,0.2,1.2,0.2c0.5,0,0.9-0.1,1.2-0.2c0.3-0.2,0.6-0.4,0.7-0.6c0.1-0.3,0.2-0.5,0.3-0.7
	c0-0.2,0.1-0.4,0.1-0.6c0-0.2,0-0.4-0.1-0.6c0-0.2-0.1-0.4-0.3-0.7c-0.1-0.2-0.4-0.5-0.7-0.6c-0.3-0.1-0.7-0.2-1.2-0.2
	c-0.5,0-0.9,0.1-1.2,0.2c-0.3,0.2-0.6,0.4-0.7,0.6c-0.1,0.3-0.2,0.5-0.3,0.7c0,0.2-0.1,0.4-0.1,0.6c0,0.2,0,0.4,0.1,0.6
	c0,0.2,0.1,0.4,0.3,0.7C844.4,736.9,844.6,737.1,844.9,737.3"/>
<path class="st0" d="M840.3,737.3c0.3-0.2,0.6-0.4,0.7-0.6c0.1-0.3,0.2-0.5,0.3-0.7c0-0.2,0.1-0.4,0.1-0.6c0-0.2,0-0.4-0.1-0.6
	c0-0.2-0.1-0.4-0.3-0.7c-0.1-0.2-0.4-0.5-0.7-0.6c-0.3-0.1-0.7-0.2-1.2-0.2c-0.5,0-0.9,0.1-1.2,0.2c-0.3,0.2-0.6,0.4-0.7,0.6
	c-0.1,0.3-0.2,0.5-0.3,0.7c0,0.2-0.1,0.4-0.1,0.6c0,0.2,0,0.4,0.1,0.6c0,0.2,0.1,0.4,0.3,0.7c0.1,0.3,0.4,0.5,0.7,0.6
	c0.3,0.2,0.7,0.2,1.2,0.2C839.6,737.5,840,737.4,840.3,737.3"/>
<path class="st0" d="M804.1,702.4c0.1,0.3,0.4,0.5,0.7,0.6c0.3,0.1,0.7,0.2,1.2,0.2c0.5,0,0.9-0.1,1.2-0.2c0.3-0.2,0.6-0.4,0.7-0.6
	c0.1-0.3,0.2-0.5,0.3-0.7c0-0.2,0.1-0.4,0.1-0.6c0-0.2,0-0.4-0.1-0.6c0-0.2-0.1-0.4-0.3-0.7c-0.1-0.3-0.4-0.5-0.7-0.6
	c-0.3-0.1-0.7-0.2-1.2-0.2c-0.5,0-0.9,0.1-1.2,0.2c-0.3,0.2-0.6,0.4-0.7,0.6c-0.1,0.3-0.2,0.5-0.3,0.7c0,0.2-0.1,0.4-0.1,0.6
	c0,0.2,0,0.4,0.1,0.6C803.8,701.9,803.9,702.1,804.1,702.4"/>
<path class="st0" d="M797,702.4c0.1,0.3,0.4,0.5,0.7,0.6c0.3,0.1,0.8,0.2,1.2,0.2c0.5,0,0.9-0.1,1.2-0.2c0.3-0.2,0.6-0.4,0.7-0.6
	c0.1-0.3,0.2-0.5,0.3-0.7c0-0.2,0.1-0.4,0.1-0.6c0-0.2,0-0.4-0.1-0.6c0-0.2-0.1-0.4-0.3-0.7c-0.1-0.3-0.4-0.5-0.7-0.6
	c-0.3-0.1-0.7-0.2-1.2-0.2c-0.5,0-0.9,0.1-1.2,0.2c-0.3,0.2-0.6,0.4-0.7,0.6c-0.1,0.3-0.2,0.5-0.3,0.7c0,0.2-0.1,0.4-0.1,0.6
	c0,0.2,0,0.4,0.1,0.6C796.7,701.9,796.8,702.1,797,702.4"/>
<path class="st0" d="M642.3,693.9v31.7h-9.5v-31.7h-3.6v31.7h-7.5v-10.8c0-1.1-0.1-2.2-0.4-3.1c-0.3-0.9-0.6-1.6-1.1-2.2
	s-1-1-1.7-1.4c-0.7-0.4-1.3-0.6-2-0.8c-0.7-0.2-1.4-0.2-2.2-0.2H611c-0.7,0-1.4,0.1-2.1,0.2c-0.7,0.1-1.4,0.4-2,0.8
	c-0.7,0.4-1.2,0.8-1.7,1.4c-0.5,0.6-0.8,1.3-1.1,2.2c-0.3,0.8-0.4,1.8-0.4,2.8h0v0.1c0,0,0,0.1,0,0.1v2.3c0,3-0.6,5.2-1.6,6.5
	c-1.1,1.4-2.9,2.1-5.6,2.1h-4.3v-18.5h-3.6v18.5h-15.4v-18.5h-3.6v18.5h-3.4c-2.6,0-4.5-0.7-5.6-2.1c-1.1-1.4-1.6-3.7-1.6-7v-7.5
	h-3.6h0v7.5c0,3.3-0.5,5.6-1.6,7c-1.1,1.4-3,2.1-5.6,2.1h-3.4V709h-3.6v16.6h-16.6v-31.7h-3.6v35.4h27.2c1.2,0,2.3-0.1,3.4-0.3
	c1-0.2,2-0.6,2.9-1.2c0.9-0.5,1.7-1.3,2.4-2.1c0.1-0.2,0.2-0.4,0.3-0.5c0.1,0.2,0.2,0.4,0.3,0.5c0.6,0.8,1.4,1.5,2.4,2.1
	c0.9,0.5,1.9,0.9,3,1.2c0.9,0.2,1.9,0.3,3,0.3v0h30.7c1.2,0,2.3-0.1,3.4-0.3c1-0.2,2-0.6,2.9-1.2c0.8-0.5,1.4-1.1,2-1.8
	c0.1,0.3,0.2,0.6,0.4,0.8c0.5,0.6,1,1,1.7,1.4c0.6,0.4,1.3,0.6,2,0.8s1.4,0.2,2.2,0.2H646v-35.4H642.3z M618.1,725.6h-6.9
	c-1.3,0-2.3-0.4-3-1.1c-0.6-0.7-0.9-1.9-0.9-3.6v-5.4c0-1.7,0.3-2.9,0.9-3.6c0.6-0.7,1.5-1.1,2.8-1.1h3.2c1.3,0,2.3,0.4,3,1.1
	c0.6,0.7,0.9,1.9,0.9,3.6V725.6z"/>
<path class="st0" d="M516.2,688.8l3.5-2.7c1.1,1.1,2.3,1.6,3.7,1.6c1.5,0,2.9-0.6,4.2-1.7v2.9c-1.1,1-2.6,1.5-4.3,1.5
	c-1.5,0-2.7-0.4-3.6-1.3l-2.1,1.5L516.2,688.8z"/>
<path class="st0" d="M510.3,725.6h-24.4c-2.6,0-4.5-0.7-5.6-2.1c-1.1-1.4-1.6-3.7-1.6-7v-4.2h-3.6v5.5c0,1.7,0.2,3.2,0.6,4.5
	c0.4,1.3,0.9,2.4,1.5,3.3c0.6,0.8,1.4,1.5,2.4,2.1c0.9,0.5,1.9,0.9,2.9,1.2c0.9,0.2,1.9,0.3,3,0.3v0h24.8h0.3h3.3v-22.2h-3.6V725.6z
	"/>
<path class="st0" d="M559.1,699.7c-0.1,0.3-0.2,0.5-0.3,0.7c0,0.2-0.1,0.4-0.1,0.6s0,0.4,0.1,0.6c0,0.2,0.1,0.4,0.3,0.7
	c0.1,0.2,0.4,0.5,0.7,0.6c0.3,0.1,0.8,0.2,1.2,0.2c0.5,0,0.9-0.1,1.2-0.2c0.3-0.2,0.6-0.4,0.7-0.6c0.1-0.3,0.2-0.5,0.3-0.7
	c0-0.2,0.1-0.4,0.1-0.6s0-0.4-0.1-0.6c0-0.2-0.1-0.4-0.3-0.7c-0.1-0.3-0.4-0.5-0.7-0.6c-0.3-0.1-0.7-0.2-1.2-0.2
	c-0.5,0-0.9,0.1-1.2,0.2C559.5,699.3,559.2,699.5,559.1,699.7"/>
<path class="st0" d="M588.4,702.4c0.1,0.3,0.4,0.5,0.7,0.6c0.3,0.1,0.7,0.2,1.2,0.2c0.5,0,0.9-0.1,1.2-0.2c0.3-0.2,0.6-0.4,0.7-0.6
	c0.1-0.3,0.2-0.5,0.3-0.7c0-0.2,0.1-0.4,0.1-0.6c0-0.2,0-0.4-0.1-0.6c0-0.2-0.1-0.4-0.3-0.7c-0.1-0.3-0.4-0.5-0.7-0.6
	c-0.3-0.1-0.8-0.2-1.2-0.2c-0.5,0-0.9,0.1-1.2,0.2c-0.3,0.2-0.6,0.4-0.7,0.6c-0.1,0.3-0.2,0.5-0.3,0.7c0,0.2-0.1,0.4-0.1,0.6
	c0,0.2,0,0.4,0.1,0.6C588.2,701.9,588.3,702.1,588.4,702.4"/>
<path class="st0" d="M556.1,696.8c0.1,0.3,0.4,0.5,0.7,0.6c0.3,0.1,0.7,0.2,1.2,0.2c0.5,0,0.9-0.1,1.2-0.2c0.3-0.2,0.6-0.4,0.7-0.6
	c0.1-0.3,0.2-0.5,0.3-0.7c0-0.2,0.1-0.4,0.1-0.6c0-0.2,0-0.4-0.1-0.6c0-0.2-0.1-0.4-0.3-0.7c-0.1-0.2-0.4-0.5-0.7-0.6
	c-0.3-0.1-0.8-0.2-1.2-0.2c-0.5,0-0.9,0.1-1.2,0.2c-0.3,0.2-0.6,0.4-0.7,0.6c-0.1,0.3-0.2,0.5-0.3,0.7c0,0.2-0.1,0.4-0.1,0.6
	c0,0.2,0,0.4,0.1,0.6C555.9,696.3,555.9,696.5,556.1,696.8"/>
<path class="st0" d="M552,702.4c0.1,0.3,0.4,0.5,0.7,0.6c0.3,0.1,0.8,0.2,1.2,0.2c0.5,0,0.9-0.1,1.2-0.2c0.3-0.2,0.6-0.4,0.7-0.6
	c0.1-0.3,0.2-0.5,0.3-0.7c0-0.2,0.1-0.4,0.1-0.6c0-0.2,0-0.4-0.1-0.6c0-0.2-0.1-0.4-0.3-0.7c-0.1-0.3-0.4-0.5-0.7-0.6
	c-0.3-0.1-0.7-0.2-1.2-0.2c-0.5,0-0.9,0.1-1.2,0.2c-0.3,0.2-0.6,0.4-0.7,0.6c-0.1,0.3-0.2,0.5-0.3,0.7c0,0.2-0.1,0.4-0.1,0.6
	c0,0.2,0,0.4,0.1,0.6C551.7,701.9,551.8,702.1,552,702.4"/>
<path class="st0" d="M496.1,702.4c0.1,0.3,0.4,0.5,0.7,0.6c0.3,0.1,0.7,0.2,1.2,0.2c0.5,0,0.9-0.1,1.2-0.2c0.3-0.2,0.6-0.4,0.7-0.6
	c0.1-0.3,0.2-0.5,0.3-0.7c0-0.2,0.1-0.4,0.1-0.6c0-0.2,0-0.4-0.1-0.6c0-0.2-0.1-0.4-0.3-0.7c-0.1-0.3-0.4-0.5-0.7-0.6
	c-0.3-0.1-0.8-0.2-1.2-0.2c-0.5,0-0.9,0.1-1.2,0.2c-0.3,0.2-0.6,0.4-0.7,0.6c-0.1,0.3-0.2,0.5-0.3,0.7c0,0.2-0.1,0.4-0.1,0.6
	c0,0.2,0,0.4,0.1,0.6C495.9,701.9,496,702.1,496.1,702.4"/>
<path class="st0" d="M489,702.4c0.1,0.3,0.4,0.5,0.7,0.6c0.3,0.1,0.7,0.2,1.2,0.2c0.5,0,0.9-0.1,1.2-0.2c0.3-0.2,0.6-0.4,0.7-0.6
	c0.1-0.3,0.2-0.5,0.3-0.7c0-0.2,0.1-0.4,0.1-0.6c0-0.2,0-0.4-0.1-0.6c0-0.2-0.1-0.4-0.3-0.7c-0.1-0.3-0.4-0.5-0.7-0.6
	c-0.3-0.1-0.8-0.2-1.2-0.2c-0.5,0-0.9,0.1-1.2,0.2c-0.3,0.2-0.6,0.4-0.7,0.6c-0.1,0.3-0.2,0.5-0.3,0.7c0,0.2-0.1,0.4-0.1,0.6
	c0,0.2,0,0.4,0.1,0.6C488.8,701.9,488.9,702.1,489,702.4"/>
<rect x="454.8" y="693.9" class="st0" width="3.6" height="35.4"/>
<path class="st0" d="M443.5,693.9v31.7h-8.4v-9.4c0-3.2-2.2-6.4-5.5-8c-2.6-1.2-7.9-2.4-15.2,2.3v-3.4h-3.6v18.5h-8.3
	c-2.3,0-4.3-0.2-6.1-0.7c3.5-3.3,6.1-6.4,6.4-10c0.3-4.1-2.1-6.9-6.6-7.6c-4.8-0.7-10.7,1-11,1.1l-0.9,0.3l-0.3,0.9
	c-1,3-1.2,8,2.3,12.9c0.8,1.1,1.8,2.1,2.8,3c-0.5,0.1-1,0.2-1.4,0.2H373v-18.5h-3.6v18.5h-13.7v-18.4h-3.6v18.2
	c0,1.5-0.1,2.8-0.3,3.8c-0.2,1-0.6,1.8-1.1,2.4c-0.5,0.6-1.1,1-1.7,1.3c-0.7,0.3-1.5,0.5-2.5,0.5v4c1.1-0.1,2-0.2,2.9-0.4
	c0.9-0.2,1.7-0.6,2.5-1.1c0.8-0.5,1.5-1.2,2.1-2c0.5-0.8,1-1.9,1.3-3.2c0.1-0.5,0.2-1,0.3-1.5h32.1c1.7,0,3.5-0.6,5.2-1.7
	c2.7,1.1,5.9,1.7,9.6,1.7h44.7v-35.4H443.5z M392.5,723.4c-1.4-0.8-2.6-1.9-3.5-3.1c-2.4-3.3-2.5-6.2-2-8.7c1.7-0.4,5.5-1.2,8.5-0.7
	c3.4,0.5,3.7,2.3,3.6,3.7C398.8,718,395.8,720.9,392.5,723.4 M431.5,725.6h-17.1V715c5.2-3.9,10.1-5.2,13.7-3.4
	c2.4,1.1,3.4,3.2,3.4,4.7V725.6z"/>
<path class="st0" d="M390.1,702.4c0.1,0.3,0.4,0.5,0.7,0.6c0.3,0.1,0.7,0.2,1.2,0.2c0.5,0,0.9-0.1,1.2-0.2c0.3-0.2,0.6-0.4,0.7-0.6
	c0.1-0.3,0.2-0.5,0.3-0.7c0-0.2,0.1-0.4,0.1-0.6c0-0.2,0-0.4-0.1-0.6c0-0.2-0.1-0.4-0.3-0.7c-0.1-0.3-0.4-0.5-0.7-0.6
	c-0.3-0.1-0.8-0.2-1.2-0.2c-0.5,0-0.9,0.1-1.2,0.2c-0.3,0.2-0.6,0.4-0.7,0.6c-0.1,0.3-0.2,0.5-0.3,0.7c0,0.2-0.1,0.4-0.1,0.6
	c0,0.2,0,0.4,0.1,0.6C389.9,701.9,390,702.1,390.1,702.4"/>
<path class="st0" d="M336.7,702.4c0.1,0.3,0.4,0.5,0.7,0.6c0.3,0.1,0.8,0.2,1.2,0.2c0.5,0,0.9-0.1,1.2-0.2c0.3-0.2,0.6-0.4,0.7-0.6
	c0.1-0.3,0.2-0.5,0.3-0.7c0-0.2,0.1-0.4,0.1-0.6c0-0.2,0-0.4-0.1-0.6c0-0.2-0.1-0.4-0.3-0.7c-0.1-0.3-0.4-0.5-0.7-0.6
	c-0.3-0.1-0.7-0.2-1.2-0.2c-0.5,0-0.9,0.1-1.2,0.2c-0.3,0.2-0.6,0.4-0.7,0.6c-0.1,0.3-0.2,0.5-0.3,0.7c0,0.2-0.1,0.4-0.1,0.6
	c0,0.2,0,0.4,0.1,0.6C336.4,701.9,336.5,702.1,336.7,702.4"/>
<path class="st0" d="M329.6,702.4c0.1,0.3,0.4,0.5,0.7,0.6c0.3,0.1,0.7,0.2,1.2,0.2c0.5,0,0.9-0.1,1.2-0.2c0.3-0.2,0.6-0.4,0.7-0.6
	c0.1-0.3,0.2-0.5,0.3-0.7c0-0.2,0.1-0.4,0.1-0.6c0-0.2,0-0.4-0.1-0.6c0-0.2-0.1-0.4-0.3-0.7c-0.1-0.3-0.4-0.5-0.7-0.6
	c-0.3-0.1-0.8-0.2-1.2-0.2c-0.5,0-0.9,0.1-1.2,0.2c-0.3,0.2-0.6,0.4-0.7,0.6c-0.1,0.3-0.2,0.5-0.3,0.7c0,0.2-0.1,0.4-0.1,0.6
	c0,0.2,0,0.4,0.1,0.6C329.3,701.9,329.4,702.1,329.6,702.4"/>
<path class="st0" d="M373.5,737.3c0.3,0.2,0.8,0.2,1.2,0.2c0.5,0,0.9-0.1,1.2-0.2c0.3-0.2,0.6-0.4,0.7-0.6c0.1-0.3,0.2-0.5,0.3-0.7
	c0-0.2,0.1-0.4,0.1-0.6c0-0.2,0-0.4-0.1-0.6c0-0.2-0.1-0.4-0.3-0.7c-0.1-0.2-0.4-0.5-0.7-0.6c-0.3-0.1-0.7-0.2-1.2-0.2
	c-0.5,0-0.9,0.1-1.2,0.2c-0.3,0.2-0.6,0.4-0.7,0.6c-0.1,0.3-0.2,0.5-0.3,0.7c0,0.2-0.1,0.4-0.1,0.6c0,0.2,0,0.4,0.1,0.6
	c0,0.2,0.1,0.4,0.3,0.7C372.9,736.9,373.2,737.1,373.5,737.3"/>
<path class="st0" d="M369.6,734c-0.1-0.3-0.4-0.5-0.7-0.6c-0.3-0.1-0.8-0.2-1.2-0.2c-0.5,0-0.9,0.1-1.2,0.2
	c-0.3,0.2-0.6,0.4-0.7,0.6c-0.1,0.3-0.2,0.5-0.3,0.7c0,0.2-0.1,0.4-0.1,0.6c0,0.2,0,0.4,0.1,0.6c0,0.2,0.1,0.4,0.3,0.7
	c0.1,0.2,0.4,0.5,0.7,0.6c0.3,0.1,0.7,0.2,1.2,0.2c0.5,0,0.9-0.1,1.2-0.2c0.3-0.2,0.6-0.4,0.7-0.6c0.1-0.3,0.2-0.5,0.3-0.7
	c0-0.2,0.1-0.4,0.1-0.6c0-0.2,0-0.4-0.1-0.6C369.8,734.5,369.7,734.3,369.6,734"/>
<path class="st0" d="M329.3,728.3c0.7,0.4,1.3,0.6,2,0.8c0.7,0.1,1.5,0.2,2.3,0.2h10.6v-3.4v-0.2v-10.8c0-1.1-0.1-2.2-0.4-3.1
	c-0.3-0.9-0.7-1.6-1.1-2.2c-0.5-0.6-1-1-1.7-1.4c-0.7-0.4-1.3-0.6-2-0.8c-0.7-0.2-1.4-0.2-2.2-0.2h-3.2c-0.7,0-1.4,0.1-2.1,0.2
	c-0.7,0.1-1.4,0.4-2,0.8c-0.7,0.4-1.2,0.8-1.7,1.4c-0.5,0.6-0.8,1.3-1.1,2.2c-0.3,0.9-0.4,1.9-0.4,3.1v6.8c0,1.1,0.1,2.2,0.4,3.1
	c0.3,0.9,0.7,1.6,1.1,2.2C328.1,727.4,328.6,727.9,329.3,728.3 M329.7,715.5c0-1.7,0.3-2.9,0.9-3.6c0.6-0.7,1.5-1.1,2.8-1.1h3.2
	c1.4,0,2.3,0.4,3,1.1c0.6,0.7,0.9,1.9,0.9,3.6v10.2h-6.9c-1.3,0-2.3-0.4-3-1.1c-0.6-0.7-0.9-2-0.9-3.6V715.5z"/>
<rect x="773.8" y="693.9" class="st0" width="3.6" height="35.4"/>
<path class="st0" d="M677.3,702.4c0.1,0.3,0.4,0.5,0.7,0.6c0.3,0.1,0.7,0.2,1.2,0.2c0.5,0,0.9-0.1,1.2-0.2c0.3-0.2,0.6-0.4,0.7-0.6
	c0.1-0.3,0.2-0.5,0.3-0.7c0-0.2,0.1-0.4,0.1-0.6c0-0.2,0-0.4-0.1-0.6c0-0.2-0.1-0.4-0.3-0.7c-0.1-0.3-0.4-0.5-0.7-0.6
	c-0.3-0.1-0.7-0.2-1.2-0.2c-0.5,0-0.9,0.1-1.2,0.2c-0.3,0.2-0.6,0.4-0.7,0.6c-0.1,0.3-0.2,0.5-0.3,0.7c0,0.2-0.1,0.4-0.1,0.6
	c0,0.2,0,0.4,0.1,0.6C677,701.9,677.1,702.1,677.3,702.4"/>
<path class="st0" d="M670.2,702.4c0.1,0.3,0.4,0.5,0.7,0.6c0.3,0.1,0.7,0.2,1.2,0.2c0.5,0,0.9-0.1,1.2-0.2c0.3-0.2,0.6-0.4,0.7-0.6
	c0.1-0.3,0.2-0.5,0.3-0.7c0-0.2,0.1-0.4,0.1-0.6c0-0.2,0-0.4-0.1-0.6c0-0.2-0.1-0.4-0.3-0.7c-0.1-0.3-0.4-0.5-0.7-0.6
	c-0.3-0.1-0.8-0.2-1.2-0.2c-0.5,0-0.9,0.1-1.2,0.2c-0.3,0.2-0.6,0.4-0.7,0.6c-0.1,0.3-0.2,0.5-0.3,0.7c0,0.2-0.1,0.4-0.1,0.6
	c0,0.2,0,0.4,0.1,0.6C669.9,701.9,670,702.1,670.2,702.4"/>
<path class="st0" d="M762.5,693.9v31.7h-8.1v0v0c-2.2,0-4.2-0.2-5.9-0.6c3.3-2.9,6-7,6.2-10.5c0.1-1.8-0.2-6.2-6.7-7.2
	c-4.7-0.7-10.7,1-11,1.1l-0.9,0.3l-0.3,0.9c-0.9,2.6-1.4,8.3,2,13c0.8,1.1,1.7,2.1,2.8,2.9c-0.4,0.1-0.7,0.1-1.1,0.1h-13.3v-31.7
	h-3.6v35.4h16.9c1.6,0,3.4-0.6,5.2-1.5c2.6,1,5.7,1.5,9.2,1.5h12.2v-35.4H762.5z M744.4,723.6c-1.5-0.8-2.8-1.9-3.7-3.2
	c-2.1-2.9-2.2-6.5-1.7-8.8c1.8-0.4,5.5-1.2,8.5-0.7c3.8,0.6,3.7,2.5,3.6,3.3C750.8,717.3,747.7,721.3,744.4,723.6"/>
<path class="st0" d="M715.7,729.3v-14.5c0-1.1-0.1-2.2-0.4-3.1c-0.3-0.9-0.6-1.6-1.1-2.2c-0.5-0.6-1-1-1.7-1.4
	c-0.7-0.4-1.3-0.6-2-0.8c-0.7-0.2-1.4-0.2-2.2-0.2h-3.2c-0.7,0-1.4,0.1-2.1,0.2c-0.7,0.1-1.4,0.4-2,0.8c-0.7,0.4-1.2,0.8-1.7,1.4
	c-0.5,0.6-0.8,1.3-1.1,2.2c-0.3,0.8-0.4,1.8-0.4,2.8h-0.1v2c0,3.3-0.5,5.6-1.6,7c-1.1,1.4-2.9,2.1-5.6,2.1h-5.6v-10.8
	c0-1.1-0.1-2.2-0.4-3.1c-0.3-0.9-0.7-1.6-1.1-2.2c-0.5-0.6-1-1-1.7-1.4c-0.7-0.4-1.3-0.6-2-0.8c-0.7-0.2-1.4-0.2-2.2-0.2H674
	c-0.7,0-1.4,0.1-2.1,0.2c-0.7,0.1-1.4,0.4-2,0.8c-0.7,0.4-1.2,0.8-1.7,1.4s-0.8,1.3-1.1,2.2c-0.3,0.9-0.4,1.9-0.4,3.1v6.8
	c0,1.1,0.1,2.2,0.4,3.1c0.3,0.9,0.7,1.6,1.1,2.2c0.5,0.5,1,1,1.7,1.4c0.7,0.4,1.3,0.6,2,0.8s1.4,0.2,2.2,0.2h16.2
	c1.2,0,2.3-0.1,3.4-0.3c1-0.2,2-0.6,2.9-1.2c0.8-0.5,1.4-1.1,2-1.8c0.1,0.3,0.3,0.6,0.4,0.9c0.5,0.5,1,1,1.7,1.4
	c0.6,0.4,1.3,0.6,2,0.8c0.7,0.1,1.4,0.2,2.2,0.2H715.7z M671.2,724.6c-0.6-0.7-0.9-1.9-0.9-3.6v-5.4c0-1.7,0.3-2.9,0.9-3.6
	c0.6-0.7,1.5-1.1,2.8-1.1h3.2c1.3,0,2.3,0.4,3,1.1c0.6,0.7,0.9,1.9,0.9,3.6v10.2h-6.9C672.8,725.6,671.8,725.3,671.2,724.6
	 M702.2,724.6c-0.6-0.7-0.9-1.9-0.9-3.6v-5.4c0-1.7,0.3-2.9,0.9-3.6c0.6-0.7,1.5-1.1,2.8-1.1h3.2c1.3,0,2.3,0.4,3,1.1
	c0.6,0.7,0.9,1.9,0.9,3.6v10.2h-6.9C703.8,725.6,702.8,725.3,702.2,724.6"/>
<rect x="280.7" y="693.9" class="st0" width="3.6" height="35.4"/>
<path class="st0" d="M189.8,725.6h-3.4c-2.6,0-4.5-0.7-5.6-2.1c-1.1-1.4-1.6-3.7-1.6-7V709h-3.6v7.5c0,3.3-0.5,5.6-1.6,7
	c-1.1,1.4-3,2.1-5.6,2.1H165V709h-3.6v16.6h-9.9v-9.4c0-3.2-2.2-6.4-5.5-8c-2.6-1.3-7.9-2.4-15.2,2.3v-16.6H127v31.7h-9.7v-10.8
	c0-1.1-0.1-2.2-0.4-3.1c-0.3-0.9-0.7-1.6-1.1-2.2c-0.5-0.6-1-1-1.7-1.4c-0.7-0.4-1.3-0.6-2-0.8c-0.7-0.2-1.4-0.2-2.3-0.2h-3.2
	c-0.7,0-1.4,0.1-2.1,0.2c-0.7,0.1-1.4,0.4-2,0.8c-0.6,0.4-1.2,0.8-1.7,1.4c-0.5,0.6-0.8,1.3-1.1,2.2c-0.3,0.9-0.4,1.9-0.4,3.1v6.8
	c0,1.1,0.1,2.2,0.4,3.1c0.3,0.9,0.7,1.6,1.1,2.2c0.5,0.6,1,1,1.7,1.4c0.7,0.4,1.3,0.6,2,0.8s1.4,0.2,2.2,0.2h61.7
	c1.2,0,2.3-0.1,3.4-0.3c1-0.2,2-0.6,2.9-1.2c0.9-0.5,1.7-1.3,2.4-2.1c0.1-0.2,0.2-0.4,0.3-0.5c0.1,0.2,0.2,0.4,0.3,0.5
	c0.6,0.8,1.4,1.5,2.4,2.1c0.9,0.5,1.9,0.9,2.9,1.2c0.9,0.2,1.9,0.3,3,0.3v0h7.4v-22.2h-3.6V725.6z M113.6,725.6h-6.9
	c-1.3,0-2.3-0.4-3-1.1c-0.6-0.7-0.9-1.9-0.9-3.6v-5.4c0-1.7,0.3-2.9,0.9-3.6c0.6-0.7,1.5-1.1,2.8-1.1h3.2c1.4,0,2.3,0.4,3,1.1
	c0.6,0.7,0.9,1.9,0.9,3.6V725.6z M147.8,725.6h-17.1V715c5.2-3.9,10.1-5.2,13.7-3.5c2.4,1.1,3.4,3.2,3.4,4.7V725.6z"/>
<path class="st0" d="M109.8,702.4c0.1,0.3,0.4,0.5,0.7,0.6c0.3,0.1,0.7,0.2,1.2,0.2c0.5,0,0.9-0.1,1.2-0.2c0.3-0.2,0.6-0.4,0.7-0.6
	c0.1-0.3,0.2-0.5,0.3-0.7c0-0.2,0.1-0.4,0.1-0.6c0-0.2,0-0.4-0.1-0.6c0-0.2-0.1-0.4-0.3-0.7c-0.1-0.3-0.4-0.5-0.7-0.6
	c-0.3-0.1-0.8-0.2-1.2-0.2c-0.5,0-0.9,0.1-1.2,0.2c-0.3,0.2-0.6,0.4-0.7,0.6c-0.1,0.3-0.2,0.5-0.3,0.7c0,0.2-0.1,0.4-0.1,0.6
	c0,0.2,0,0.4,0.1,0.6C109.6,701.9,109.7,702.1,109.8,702.4"/>
<path class="st0" d="M102.7,702.4c0.1,0.3,0.4,0.5,0.7,0.6c0.3,0.1,0.7,0.2,1.2,0.2c0.5,0,0.9-0.1,1.2-0.2c0.3-0.2,0.6-0.4,0.7-0.6
	c0.1-0.3,0.2-0.5,0.3-0.7c0-0.2,0.1-0.4,0.1-0.6c0-0.2,0-0.4-0.1-0.6c0-0.2-0.1-0.4-0.3-0.7c-0.1-0.3-0.4-0.5-0.7-0.6
	c-0.3-0.1-0.7-0.2-1.2-0.2c-0.5,0-0.9,0.1-1.2,0.2c-0.3,0.2-0.6,0.4-0.7,0.6c-0.1,0.3-0.2,0.5-0.3,0.7c0,0.2-0.1,0.4-0.1,0.6
	c0,0.2,0,0.4,0.1,0.6C102.5,701.9,102.6,702.1,102.7,702.4"/>
<path class="st0" d="M230.9,702.4c0.1,0.3,0.4,0.5,0.7,0.6c0.3,0.1,0.8,0.2,1.2,0.2c0.5,0,0.9-0.1,1.2-0.2c0.3-0.2,0.6-0.4,0.7-0.6
	c0.1-0.3,0.2-0.5,0.3-0.7c0-0.2,0.1-0.4,0.1-0.6c0-0.2,0-0.4-0.1-0.6c0-0.2-0.1-0.4-0.3-0.7c-0.1-0.3-0.4-0.5-0.7-0.6
	c-0.3-0.1-0.7-0.2-1.2-0.2c-0.5,0-0.9,0.1-1.2,0.2c-0.3,0.2-0.6,0.4-0.7,0.6c-0.1,0.3-0.2,0.5-0.3,0.7c0,0.2-0.1,0.4-0.1,0.6
	c0,0.2,0,0.4,0.1,0.6C230.6,701.9,230.7,702.1,230.9,702.4"/>
<path class="st0" d="M223.8,702.4c0.1,0.3,0.4,0.5,0.7,0.6c0.3,0.1,0.7,0.2,1.2,0.2c0.5,0,0.9-0.1,1.2-0.2c0.3-0.2,0.6-0.4,0.7-0.6
	c0.1-0.3,0.2-0.5,0.3-0.7c0-0.2,0.1-0.4,0.1-0.6c0-0.2,0-0.4-0.1-0.6c0-0.2-0.1-0.4-0.3-0.7c-0.1-0.3-0.4-0.5-0.7-0.6
	c-0.3-0.1-0.7-0.2-1.2-0.2c-0.5,0-0.9,0.1-1.2,0.2c-0.3,0.2-0.6,0.4-0.7,0.6c-0.1,0.3-0.2,0.5-0.3,0.7c0,0.2-0.1,0.4-0.1,0.6
	c0,0.2,0,0.4,0.1,0.6C223.5,701.9,223.6,702.1,223.8,702.4"/>
<path class="st0" d="M309.4,729.3v-14.5c0-1.1-0.1-2.2-0.4-3.1s-0.6-1.6-1.1-2.2c-0.5-0.6-1-1-1.7-1.4c-0.7-0.4-1.3-0.6-2-0.8
	c-0.7-0.1-1.4-0.2-2.2-0.2h-3.2c-0.7,0-1.4,0.1-2.1,0.2c-0.7,0.1-1.4,0.4-2,0.8c-0.7,0.4-1.2,0.8-1.7,1.4c-0.5,0.6-0.8,1.3-1.1,2.2
	c-0.3,0.9-0.4,1.9-0.4,3.1v6.8c0,1.1,0.1,2.2,0.4,3.1c0.3,0.9,0.7,1.6,1.1,2.2c0.5,0.6,1,1,1.7,1.4c0.6,0.4,1.3,0.6,2,0.8
	c0.7,0.1,1.4,0.2,2.2,0.2h6.8c0,5.2-3,5.7-5.5,5.7h-3.9v4h3.9C309.9,738.9,309.4,730.7,309.4,729.3 M305.8,717.5v8.2h-6.9
	c-1.3,0-2.3-0.4-2.9-1.1c-0.6-0.7-0.9-1.9-0.9-3.6v-5.4c0-1.7,0.3-2.9,0.9-3.6c0.6-0.7,1.5-1.1,2.8-1.1h3.2c1.3,0,2.3,0.4,3,1.1
	c0.6,0.7,0.9,1.9,0.9,3.6V717.5z"/>
<path class="st0" d="M269.3,693.9v31.7h-8.7v-10.8c0-1.1-0.1-2.2-0.4-3.1c-0.3-0.9-0.7-1.6-1.1-2.2c-0.5-0.6-1-1-1.7-1.4
	c-0.7-0.4-1.3-0.6-2-0.8c-0.7-0.2-1.4-0.2-2.2-0.2h-3.2c-0.7,0-1.4,0.1-2.1,0.2c-0.7,0.1-1.4,0.4-2,0.8c-0.7,0.4-1.2,0.8-1.7,1.4
	c-0.5,0.6-0.8,1.3-1.1,2.2c-0.3,0.8-0.4,1.8-0.4,2.8h0v0.1c0,0,0,0.1,0,0.1v2.3c0,3-0.6,5.2-1.6,6.5c-1.1,1.4-2.9,2.1-5.6,2.1h-4.3
	v-18.5h-3.6v18.5H218v0v-10.8c0-1.1-0.1-2.2-0.4-3.1c-0.3-0.9-0.7-1.6-1.1-2.2c-0.5-0.6-1-1-1.7-1.4c-0.7-0.4-1.3-0.6-2-0.8
	c-0.7-0.2-1.5-0.2-2.3-0.2h-3.2c-0.7,0-1.4,0.1-2.1,0.2c-0.7,0.1-1.4,0.4-2,0.8c-0.7,0.4-1.2,0.8-1.7,1.4c-0.5,0.6-0.8,1.3-1.1,2.2
	c-0.3,0.9-0.4,1.9-0.4,3.1v6.8c0,1.1,0.1,2.2,0.4,3.1c0.3,0.9,0.7,1.6,1.1,2.2c0.5,0.6,1,1,1.7,1.4c0.7,0.4,1.3,0.6,2,0.8
	c0.7,0.1,1.4,0.2,2.2,0.2h6.8c0,5.2-3,5.7-5.5,5.7h-3.9v4h3.9c9.8,0,9.3-8.2,9.3-9.7h17.4c1.2,0,2.3-0.1,3.4-0.3
	c1-0.2,2-0.6,2.9-1.2c0.8-0.5,1.4-1.1,2-1.8c0.1,0.3,0.2,0.6,0.4,0.8c0.5,0.6,1,1,1.7,1.4c0.6,0.4,1.3,0.6,2,0.8
	c0.7,0.1,1.4,0.2,2.2,0.2H273v-35.4H269.3z M214.4,717.5v8.2h-6.9c-1.3,0-2.3-0.4-3-1.1c-0.6-0.7-0.9-1.9-0.9-3.6v-5.4
	c0-1.7,0.3-2.9,0.9-3.6c0.6-0.7,1.5-1.1,2.8-1.1h3.2c1.3,0,2.3,0.4,3,1.1c0.6,0.7,0.9,1.9,0.9,3.6V717.5z M257,725.6h-6.9
	c-1.3,0-2.3-0.4-3-1.1c-0.6-0.7-0.9-1.9-0.9-3.6v-5.4c0-1.7,0.3-2.9,0.9-3.6c0.6-0.7,1.5-1.1,2.8-1.1h3.2c1.4,0,2.3,0.4,3,1.1
	c0.6,0.7,0.9,1.9,0.9,3.6V725.6z"/>
</svg>
