<?xml version="1.0" encoding="utf-8"?>
<!-- Generator: Adobe Illustrator 22.0.1, SVG Export Plug-In . SVG Version: 6.00 Build 0)  -->
<svg version="1.1" id="Layer_1" xmlns="http://www.w3.org/2000/svg" xmlns:xlink="http://www.w3.org/1999/xlink" x="0px" y="0px"
	 viewBox="0 0 1000 1000" style="enable-background:new 0 0 1000 1000;" xml:space="preserve">
<style type="text/css">
	.st0{fill-rule:evenodd;clip-rule:evenodd;fill:#0073B7;}
	.st1{fill-rule:evenodd;clip-rule:evenodd;fill:#F5B43A;}
</style>
<g>
	<path class="st0" d="M430.6,524.5l-7,7.2c-8.2,8-15.7,8.9-22.2,2.4c-6.8-6.8-5.8-14.2,2.2-22.2l7.2-7.2c8.2-8.2,15.7-8.9,22.2-2.4
		C439.5,508.8,438.8,516.3,430.6,524.5L430.6,524.5z M319.6,303.8c7,8.9,7,11.3-3.1,19.1l-71.9,54.3c-2.2,1.7-2.9,4.6,1.9,4.6h102.3
		c24.6,0,28.9,5.6,28.9,28.9v29.4c0,6,1.9,10.1,9.7,10.1h63.9c7.7,0,9.7-4.1,9.7-10.1v-44.4c0-12.5,3.1-14,14.5-14
		c11.3,0,14.5,1.4,14.5,14v44.4c0,27-6.8,33.8-33.8,33.8H99.3c1.9-17.4,17.4-23.6,37.9-23.6h202.9c6.3,0,8.7-1.7,8.7-7.7V413
		c0-5.3-1.5-7.7-8.7-7.7H227.4c-18.8,0-24.4-10.1-24.4-18.8c0-8,5.8-14.7,13.5-20.5l84.2-63.9C310.9,294.3,312.6,294.8,319.6,303.8
		L319.6,303.8z M518.9,313.4c0-12.6,3.1-14,14.5-14c11.3,0,14.5,1.5,14.5,14v126.6c0,6,1.9,10.1,9.6,10.1h94.1c8,0,9.6-4.1,9.6-10.1
		v-44.4c0-12.5,3.1-14,14.5-14c11.3,0,14.5,1.4,14.5,14v44.4c0,6,1.9,10.1,9.6,10.1h63.9c8,0,9.7-4.1,9.7-10.1v-44.4
		c0-12.5,3.1-14,14.5-14c11.3,0,14.5,1.4,14.5,14v44.4c0,6,1.9,10.1,9.7,10.1h48.3c8,0,9.6-4.1,9.6-10.1v-44.4
		c0-12.5,3.1-14,14.5-14c11.3,0,14.5,1.4,14.5,14v44.4c0,27-6.8,33.8-33.8,33.8H552.6c-27,0-33.8-6.8-33.8-33.8V313.4L518.9,313.4z"
		/>
	<path class="st1" d="M766.2,688.7c0-34.3,30.9-79,91.3-79c6.9,0,9.2,4.6,9.2,10.7v29.9c0,8.4-0.8,11-10.5,11
		c-9.7,0-10.5-2.6-10.5-11v-15.6c0-2.8-0.5-3.3-1.5-3.3c-32.2,0-56,33.5-56,48.3c0,2.3,0.3,3.6,5.6,3.6h78
		c14.6,0,26.6,4.6,28.4,19.2H781.3C772.6,702.5,766.2,700,766.2,688.7L766.2,688.7z M731.2,692v-59.8c0-1.3-0.5-1.5-2.3-1.5h-4.3
		c-8.7,0-11.3-2.3-11.3-10c0-7.7,2.6-10,11.3-10h18.2c6.1,0,10,2.6,10,9.5V692c0,9.7-2.8,11.2-10.7,11.2
		C733.7,703.3,731.2,701.7,731.2,692L731.2,692z M625.3,702.5c-20,0-25.3-5.4-25.3-25.1V545c0-9.7,2.8-11,11.5-11
		c8.7,0,11.5,1.3,11.5,11v132.5c0,3.8,1,5.9,5.6,5.9h59.1c5.4,0,5.6-1.3,5.6-3.6c0-9.7-13.6-37.1-55-49.9c-7.2-2-7.9-6.1-5.6-12.8
		c2.8-7.7,7.4-7.4,13.3-5.9c48.8,14.3,69.6,46.3,69.6,77.5c0,11.2-6.6,13.8-15.1,13.8H625.3L625.3,702.5z M482.8,702.5
		c-8.4,0-15.1-2.6-15.1-13.8c0-47.6,52.2-79,72.1-79c6.9,0,9.2,4.6,9.2,10.7v29.9c0,8.4-0.5,11-10.5,11c-9.7,0-10.5-2.6-10.5-11V635
		c0-0.5,0-0.8-0.5-0.8c-8.4,0-37.6,25.1-37.6,45.5c0,2.3,0.3,3.6,5.6,3.6h59.8c4.6,0,5.6-2,5.6-5.9v-81.1c0-9.7,2.8-11.2,11.5-11.2
		c8.7,0,11.5,1.5,11.5,11.2v81.1c0,19.7-5.4,25.1-25.3,25.1H482.8L482.8,702.5z M745.7,585.6l-4.9,4.9c-6.6,6.6-12.5,7.2-17.6,2
		c-5.4-5.4-4.6-11.3,1.8-17.6l4.9-5.1c6.6-6.4,12.5-7.2,17.6-1.8C752.9,573.1,752.1,579,745.7,585.6L745.7,585.6z M435.3,702.5
		c17.6,0,21.7-4.4,21.7-21.7v-10c0-17.4-3.6-21.7-21.7-21.7H377c-0.8,0-1.3-0.3-1.3-1c0-2.3,24.8-17.6,71.9-18.7
		c7.2-0.3,9-3.3,8.4-10.2c-0.3-5.9-2.3-9.5-11-9.5c-62.4,0-97.9,30.4-97.9,46.8c0,7.2,4.2,11.8,20.4,11.8h61.7c4.6,0,5.1,1,5.1,4.3
		v6.4c0,3.6-1,4.4-5.1,4.4h-82.9c-14.6,0-26.6,4.6-28.1,19.2H435.3L435.3,702.5z"/>
</g>
</svg>
