<?xml version="1.0" encoding="utf-8"?>
<!-- Generator: Adobe Illustrator 22.0.1, SVG Export Plug-In . SVG Version: 6.00 Build 0)  -->
<svg version="1.1" id="Layer_1" xmlns="http://www.w3.org/2000/svg" xmlns:xlink="http://www.w3.org/1999/xlink" x="0px" y="0px"
	 viewBox="0 0 1000 1000" style="enable-background:new 0 0 1000 1000;" xml:space="preserve">
<style type="text/css">
	.st0{fill-rule:evenodd;clip-rule:evenodd;fill:#0054A2;}
	.st1{fill-rule:evenodd;clip-rule:evenodd;fill:#00549F;}
	.st2{fill-rule:evenodd;clip-rule:evenodd;fill:#00569F;}
	.st3{fill-rule:evenodd;clip-rule:evenodd;fill:#0057A0;}
	.st4{fill-rule:evenodd;clip-rule:evenodd;fill:#00579E;}
	.st5{fill-rule:evenodd;clip-rule:evenodd;fill:#00589D;}
	.st6{fill-rule:evenodd;clip-rule:evenodd;fill:#005A9D;}
	.st7{fill-rule:evenodd;clip-rule:evenodd;fill:#005A9A;}
	.st8{fill-rule:evenodd;clip-rule:evenodd;fill:#005C9A;}
	.st9{fill-rule:evenodd;clip-rule:evenodd;fill:#005D9A;}
	.st10{fill-rule:evenodd;clip-rule:evenodd;fill:#005E99;}
	.st11{fill-rule:evenodd;clip-rule:evenodd;fill:#006199;}
	.st12{fill-rule:evenodd;clip-rule:evenodd;fill:#00649A;}
	.st13{fill-rule:evenodd;clip-rule:evenodd;fill:#006597;}
	.st14{fill-rule:evenodd;clip-rule:evenodd;fill:#006697;}
	.st15{fill-rule:evenodd;clip-rule:evenodd;fill:#006696;}
	.st16{fill-rule:evenodd;clip-rule:evenodd;fill:#006997;}
	.st17{fill-rule:evenodd;clip-rule:evenodd;fill:#006A95;}
	.st18{fill-rule:evenodd;clip-rule:evenodd;fill:#006B94;}
	.st19{fill-rule:evenodd;clip-rule:evenodd;fill:#006D93;}
	.st20{fill-rule:evenodd;clip-rule:evenodd;fill:#006F95;}
	.st21{fill-rule:evenodd;clip-rule:evenodd;fill:#006F93;}
	.st22{fill-rule:evenodd;clip-rule:evenodd;fill:#007091;}
	.st23{fill-rule:evenodd;clip-rule:evenodd;fill:#007290;}
	.st24{fill-rule:evenodd;clip-rule:evenodd;fill:#007490;}
	.st25{fill-rule:evenodd;clip-rule:evenodd;fill:#007590;}
	.st26{fill-rule:evenodd;clip-rule:evenodd;fill:#007890;}
	.st27{fill-rule:evenodd;clip-rule:evenodd;fill:#00798F;}
	.st28{fill-rule:evenodd;clip-rule:evenodd;fill:#007C8F;}
	.st29{fill-rule:evenodd;clip-rule:evenodd;fill:#007C8E;}
	.st30{fill-rule:evenodd;clip-rule:evenodd;fill:#007E8C;}
	.st31{fill-rule:evenodd;clip-rule:evenodd;fill:#007F8C;}
	.st32{fill-rule:evenodd;clip-rule:evenodd;fill:#00818B;}
	.st33{fill-rule:evenodd;clip-rule:evenodd;fill:#00818A;}
	.st34{fill-rule:evenodd;clip-rule:evenodd;fill:#008389;}
	.st35{fill-rule:evenodd;clip-rule:evenodd;fill:#008487;}
	.st36{fill-rule:evenodd;clip-rule:evenodd;fill:#008688;}
	.st37{fill-rule:evenodd;clip-rule:evenodd;fill:#008686;}
	.st38{fill-rule:evenodd;clip-rule:evenodd;fill:#008987;}
	.st39{fill-rule:evenodd;clip-rule:evenodd;fill:#008984;}
	.st40{fill-rule:evenodd;clip-rule:evenodd;fill:#008B84;}
	.st41{fill-rule:evenodd;clip-rule:evenodd;fill:#008D84;}
	.st42{fill-rule:evenodd;clip-rule:evenodd;fill:#008E82;}
	.st43{fill-rule:evenodd;clip-rule:evenodd;fill:#008F82;}
	.st44{fill-rule:evenodd;clip-rule:evenodd;fill:#009181;}
	.st45{fill-rule:evenodd;clip-rule:evenodd;fill:#009380;}
	.st46{fill-rule:evenodd;clip-rule:evenodd;fill:#009480;}
	.st47{fill-rule:evenodd;clip-rule:evenodd;fill:#009680;}
	.st48{fill-rule:evenodd;clip-rule:evenodd;fill:#00967E;}
	.st49{fill-rule:evenodd;clip-rule:evenodd;fill:#00987F;}
	.st50{fill-rule:evenodd;clip-rule:evenodd;fill:#009A7D;}
	.st51{fill-rule:evenodd;clip-rule:evenodd;fill:#FFFFFF;}
</style>
<g>
	<path class="st0" d="M445.8,615.5c-2-0.8-5.6-1.5-8.4-1.5c-4.9,0-11,1-15.3,3.1v38.4h11.5v-33c1-0.5,2.8-0.8,4.3-0.8
		c2,0,3.8,0.3,5.4,1L445.8,615.5L445.8,615.5z M604.1,634.9c0,4.3-0.3,13-6.4,13c-6.1,0-6.1-8.7-6.1-13c0-4.3,0-13.6,6.1-13.6
		C603.9,621.4,604.1,630.6,604.1,634.9L604.1,634.9z M615.6,635.2c0-11.3-5.6-21.2-17.9-21.2c-12.3,0-17.6,10-17.6,21.2
		c0,11.2,5.4,20.7,17.6,20.7C610,655.9,615.6,646.4,615.6,635.2L615.6,635.2z M578,654.1l-1.5-7.2c-2,1-3.8,1.3-6.1,1.3
		c-2.8,0-5.1-1.3-6.1-3.3c-2-2.8-2.6-6.9-2.6-9.7c0-2.8,0.5-6.1,1.8-9c1.3-2.8,3.8-4.3,6.9-4.3c1.8,0,4.3,0.5,5.9,1.5l1.5-7.4
		c-2.6-1.3-6.4-2-10-2c-11.5,0-17.9,10-17.9,21c0,13,6.1,21,17.9,21C571.1,655.9,575.2,655.4,578,654.1L578,654.1z M544.8,655.4
		v-28.9c0-8.9-5.9-12.5-14.3-12.5c-4.6,0-9.2,1.5-12.8,3.6c-3.6-2.6-8.9-3.6-13.3-3.6c-5.1,0-12.5,1.5-16.6,3.3v38.1h11.5v-33
		c1.3-0.5,3.1-0.8,5.4-0.8c3.3,0,6.1,1.5,6.1,5.1v28.6h11.5v-32c1.3-1,4.1-1.8,5.9-1.8c3.1,0,5.1,1.8,5.1,5.4v28.4H544.8
		L544.8,655.4z M480.1,655.4v-38.9c-4.9-1.5-9.2-2.6-13.6-2.6c-14.6,0-22.8,9.5-22.8,23.8c0,9.2,4.3,18.4,14.6,18.4
		c4.1,0,8.2-1.8,10.5-4.1v3.3H480.1L480.1,655.4z M418,655.4l-18.4-57.8h-12.3l-18.9,57.8h11.8l3.6-12.5h18.2l3.6,12.5H418
		L418,655.4z M352.3,603.2c0-3.3-2.8-5.9-6.4-5.9c-3.6,0-6.4,2.6-6.4,5.9c0,3.3,2.8,5.9,6.4,5.9
		C349.4,609.1,352.3,606.5,352.3,603.2L352.3,603.2z M340.2,655.4h11.5V615h-11.5V655.4L340.2,655.4z M331.5,653.1v-56.5H320V615
		c-2-0.3-4.1-0.5-6.1-0.5c-11.8,0-18.2,10-18.2,21c0,12.8,6.9,20.7,19.7,20.7C320,656.2,327.2,655.1,331.5,653.1L331.5,653.1z
		 M290.4,652.8V615h-11.5v32.2c-0.8,0.8-3.6,1-5.1,1c-3.6,0-5.6-1.8-5.6-5.4V615h-11.5v26.8c0,11,5.4,14.3,15.9,14.3
		C279.1,656.2,286.8,654.6,290.4,652.8L290.4,652.8z M249.2,655.4v-38.9c-4.9-1.5-9.2-2.6-13.6-2.6c-14.6,0-22.8,9.5-22.8,23.8
		c0,9.2,4.3,18.4,14.6,18.4c4.1,0,8.2-1.8,10.5-4.1v3.3H249.2L249.2,655.4z M208.6,639.3c0-5.6-2.8-9.7-6.6-12.8
		c-2-1.5-7.4-4.3-11.3-6.4c-3.3-1.5-6.6-3.8-6.6-7.4c0-4.3,3.3-6.4,7.7-6.4c4.3-0.3,8.2,1,11.8,2.6l3.1-8.2
		c-4.3-2.3-10.2-3.6-15.3-3.6c-10.5,0-18.9,5.4-18.9,16.1c0,6.9,3.8,11,7.9,13.6c3.3,1.8,7.7,3.8,10.5,5.4c3.8,2,5.9,4.3,5.9,7.7
		c0,4.6-4.6,6.6-8.9,6.6c-4.6,0-11-2-13-2.8l-2.6,8.4c5.6,2.3,11,3.6,16.9,3.6C198.8,655.6,208.6,650,208.6,639.3L208.6,639.3z
		 M468.6,645.9c-1.5,1.3-3.6,2-5.6,2c-6.1,0-7.2-7.7-7.2-12.5c0-6.6,2.3-14.8,10.2-14.8c0.8,0,1.8,0.3,2.6,0.5V645.9L468.6,645.9z
		 M399.8,635.2h-14.1l7.2-25.6h0.3L399.8,635.2L399.8,635.2z M320,648c-1,0.5-2.6,0.8-3.8,0.8c-7.4,0-8.4-8.2-8.4-13.8
		c0-6.1,1.3-14.1,8.9-14.1c1,0,2.3,0.3,3.3,0.5V648L320,648z M237.7,645.9c-1.8,1.3-3.6,2-5.6,2c-6.1,0-7.2-7.7-7.2-12.5
		c0-6.6,2.3-14.8,10.2-14.8c0.8,0,1.8,0.3,2.6,0.5V645.9L237.7,645.9z"/>
	<path class="st0" d="M536.4,552.3c0,4.6-0.3,13.6-6.6,13.6c-6.4,0-6.4-9.2-6.4-13.6c0-4.3,0-13.8,6.4-13.8
		C536.1,538.5,536.4,548,536.4,552.3L536.4,552.3z M555.3,573.3H567v-57.8h-11.8V573.3L555.3,573.3z M589.8,573.8v-41.9H578v43.2
		c0,6.1-3.6,7.9-8.7,7.9c-3.3,0-8.2-1.3-11-2.3l-2.6,7.2c3.8,2,11.3,3.6,15.6,3.6C583.1,591.5,589.8,585.3,589.8,573.8L589.8,573.8z
		 M548.1,552.6c0-11.5-5.6-21.7-18.4-21.7c-12.5,0-18.2,10.2-18.2,21.7c0,1.5,0.3,3.3,0.5,4.9c0.3,1.5,0.5,3.1,0.5,3.8
		c0,3.1-1.5,4.6-6.4,4.6h-8.4c2.8-1.8,4.6-5.6,4.6-9c0-15.3-23-16.4-23-26.8c0-4.6,4.1-5.9,8.2-5.9c3.3,0,7.7,0.8,11.2,2.6l2.8-7.9
		c-3.8-2.3-10-3.6-16.1-3.6c-9.2,0-18.4,4.9-18.4,14.8c0,17.6,22.8,17.4,22.8,28.1c0,4.9-3.1,7.7-11.8,7.7h-16.4v-32
		c-3.3-1.8-9.2-3.1-14.8-3.1c-14.1,0-21.5,8.7-21.5,22.5c0,10.7,5.6,20.2,17.1,20.2c2.3,0,5.4-0.3,7.4-1.5v3.1
		c0,5.6-3.3,7.9-8.7,7.9c-3.3,0-8.2-1.3-11-2.3l-2.6,7.2c3.8,2,11.2,3.6,15.6,3.6c11.8,0,18.4-6.6,18.4-18.2H508
		c4.1,0,7.7-1.3,9.7-3.8c0.8,0.8,2.6,2,3.6,2.6c2.3,1.3,5.1,2,8.4,2C542.5,574.1,548.1,564.1,548.1,552.6L548.1,552.6z M394.4,573.3
		h12v-57.8h-12V573.3L394.4,573.3z M383.2,559.8v-44.2h-11.8v45c0,3.6-2.3,5.6-5.9,5.6c-5.1,0-8.7-1-11.5-2.3v-32h-12v33.5
		c-1.5,0.8-4.1,1-5.6,1c-3.8,0-5.9-1.3-5.9-5.4v-29.1h-11.8v33c-1.3,1-3.6,1.5-5.6,1.5c-4.1,0-5.6-2-5.6-5.6v-28.9h-12v28.4
		c0,3.8-1.8,5.6-5.9,5.6H263v-26.1c1-0.5,3.3-1,4.9-1c2,0,3.3,0.8,4.3,1.8c1.3,1.3,1.5,4.9,1.5,8.2c0,4.6-0.5,9.2-0.8,11.5h11.2
		c0.3-2.8,1-9.2,1-13.3c0-2.6-0.3-5.1-0.8-6.9c-1.5-6.9-7.4-9.2-16.1-9.2c-5.9,0-13.8,1.5-17.4,3.3v31.7h-10.5v-32
		c-3.1-1.8-8.9-3.1-14.6-3.1c-14.3,0-21.7,8.7-21.7,22.5c0,10.7,5.9,20.2,17.1,20.2c2.3,0,5.4-0.3,7.4-1.5v3.1
		c0,5.6-3.3,7.9-8.7,7.9c-3.3,0-7.9-1.3-11-2.3l-2.6,7.2c3.8,2,11.5,3.6,15.9,3.6c11.5,0,18.2-6.6,18.2-18.2c5.6,0,13,0,18.9,0h30.7
		c3.3,0,6.6-1,8.4-2.8c1.8,2,6.6,3.8,11.3,3.8c4.9,0,10-0.8,13.3-3.8c3.6,3.1,8.9,3.8,13.6,3.8c5.4,0,10.5-1.3,13.6-3.1
		c3.8,1.5,9.2,3.1,15.6,3.1C376,574.3,383.2,570.8,383.2,559.8L383.2,559.8z M199.6,552.9c0-7.2-1.5-12.5-4.9-16.4
		c-3.3-3.6-7.9-5.6-13.8-5.6c-3.1,0-7.2,0.8-10,2l1.8,7.4c1.8-0.8,4.1-1.3,5.9-1.3c3.3,0,5.6,1.8,6.9,4.1c1.3,2.8,1.8,7.2,1.8,9.7
		c0,3.6-0.5,8.2-3.1,11c-1.5,1.8-3.3,2.3-7.2,2.3h-8.2l-1.5,7.9h12.3c5.6,0,10.7-1.5,14.3-5.4C197.6,564.6,199.6,559,199.6,552.9
		L199.6,552.9z M119.8,519.9c0-3.1-2.8-5.6-6.1-5.6s-6.1,2.6-6.1,5.6c0,3.1,2.8,5.6,6.1,5.6S119.8,522.9,119.8,519.9L119.8,519.9z
		 M135.2,519.9c0-3.1-2.6-5.6-6.1-5.6c-3.3,0-6.1,2.6-6.1,5.6c0,3.1,2.8,5.6,6.1,5.6C132.6,525.5,135.2,522.9,135.2,519.9
		L135.2,519.9z M150.8,585.8c0-3.1-2.8-5.6-6.1-5.6c-3.3,0-6.1,2.6-6.1,5.6c0,2.8,2.8,5.6,6.1,5.6
		C148,591.5,150.8,588.6,150.8,585.8L150.8,585.8z M166.1,585.8c0-3.1-2.8-5.6-6.1-5.6c-3.3,0-6.1,2.6-6.1,5.6
		c0,2.8,2.8,5.6,6.1,5.6C163.3,591.5,166.1,588.6,166.1,585.8L166.1,585.8z M165.6,559.8v-27.9h-11.8v28.6c0,3.6-2.3,5.6-5.6,5.6
		c-3.8,0-9.7-1-12.8-2.6v-29.7c-2.8-1.5-8.7-3.1-14.8-3.1c-14.3,0-21.5,10.2-21.5,22.8c0,14.8,9.2,20.7,18.7,20.7
		c5.4,0,10-1.8,13-3.8c5.1,2.6,11.5,3.8,17.6,3.8C158.4,574.3,165.6,571,165.6,559.8L165.6,559.8z M449.9,565.6
		c-1,0.5-2.3,0.8-3.6,0.8c-7.4,0-8.4-6.9-8.4-13.6c0-7.9,1.5-14.8,8.4-14.8c1,0,2.6,0,3.6,0.5V565.6L449.9,565.6z M228.8,565.6
		c-1,0.5-2.3,0.8-3.6,0.8c-7.4,0-8.4-6.9-8.4-13.6c0-7.9,1.5-14.8,8.4-14.8c1,0,2.8,0,3.6,0.5V565.6L228.8,565.6z M123.7,565.9
		c-1.3,0.5-2.6,1-4.1,1c-7.7,0-8.2-7.9-8.2-13.8c0-5.9,0.8-15.3,8.4-15.3c1.3,0,2.6,0.3,3.8,0.8V565.9L123.7,565.9z M600.3,573.3
		c0,0,0-34,0-36.1c0-5.6,2.6-8.2-0.8-13.6c-3.1-4.6,0.8-8.2,0.8-8.2H612c0,0-3.8,3.8-0.5,8.2c3.3,4.3,0.5,8.7,0.5,13.8
		c0,4.6,0,35.8,0,35.8H600.3L600.3,573.3z"/>
	<path class="st0" d="M900.1,343.4C900.1,343.5,900.2,343.5,900.1,343.4l0.1,229.6H670.6V343.4H900.1L900.1,343.4z"/>
	<path class="st0" d="M834.2,343.4c25.9,17.4,48.3,39.6,66,65.3v164.3H670.6V343.4H834.2L834.2,343.4z"/>
	<path class="st0" d="M670.6,345.1c8.5-1.1,17.1-1.6,25.8-1.6c104.3,0,190.5,77.7,203.8,178.2v51.4H670.6V345.1L670.6,345.1z"/>
	<path class="st1" d="M670.6,346.6c8.5-1.1,17.1-1.6,25.8-1.6c112.5,0,203.8,91.3,203.8,203.8c0,8.2-0.5,16.3-1.5,24.3H670.6V346.6
		L670.6,346.6z"/>
	<path class="st2" d="M670.6,348.4c8.5-1.1,17.1-1.6,25.8-1.6c111.7,0,202.3,90.5,202.3,202c0,8.2-0.5,16.3-1.5,24.3H670.6V348.4
		L670.6,348.4z"/>
	<path class="st3" d="M670.6,349.9c8.5-1.1,17.1-1.6,25.8-1.6c110.7,0,200.5,89.7,200.5,200.5c0,8.2-0.5,16.3-1.5,24.3H670.6V349.9
		L670.6,349.9z"/>
	<path class="st4" d="M670.6,351.8c8.5-1.1,17.1-1.7,25.8-1.7c109.9,0,198.9,89,198.9,198.7c0,8.2-0.5,16.3-1.5,24.3H670.6V351.8
		L670.6,351.8z"/>
	<path class="st5" d="M670.6,353.3c8.5-1.1,17.1-1.7,25.8-1.7c108.9,0,197.1,88.2,197.1,197.1c0,8.2-0.5,16.3-1.5,24.3H670.6V353.3
		L670.6,353.3z"/>
	<path class="st6" d="M670.6,354.9c8.5-1.1,17.1-1.7,25.8-1.7c107.9,0,195.6,87.7,195.6,195.6c0,8.2-0.5,16.3-1.5,24.3H670.6V354.9
		L670.6,354.9z"/>
	<path class="st7" d="M670.6,356.7c8.4-1.1,17.1-1.7,25.8-1.7c107.1,0,194.1,86.7,194.1,193.8c0,8.2-0.5,16.3-1.5,24.3H670.6V356.7
		L670.6,356.7z"/>
	<path class="st8" d="M670.6,358.2c8.4-1.1,17.1-1.7,25.8-1.7c106.4,0,192.3,86.2,192.3,192.3c0,8.2-0.5,16.3-1.5,24.3H670.6V358.2
		L670.6,358.2z"/>
	<path class="st9" d="M670.6,360c8.4-1.1,17.1-1.7,25.8-1.7c105.3,0,190.7,85.4,190.7,190.5c0,8.2-0.5,16.3-1.5,24.3h-215V360
		L670.6,360z"/>
	<path class="st10" d="M670.6,361.6c8.4-1.2,17.1-1.8,25.8-1.8c104.3,0,189,84.6,189,189c0,8.2-0.5,16.3-1.6,24.3H670.6V361.6
		L670.6,361.6z"/>
	<path class="st11" d="M670.6,363.4c8.4-1.2,17.1-1.8,25.8-1.8c103.6,0,187.4,83.9,187.4,187.2c0,8.2-0.5,16.3-1.6,24.3H670.6V363.4
		L670.6,363.4z"/>
	<path class="st11" d="M670.6,364.9c8.4-1.2,17.1-1.8,25.8-1.8c102.5,0,185.6,83.1,185.6,185.6c0,8.2-0.5,16.3-1.6,24.3H670.6V364.9
		L670.6,364.9z"/>
	<path class="st12" d="M670.6,366.7c8.4-1.2,17.1-1.8,25.8-1.8c101.8,0,184.1,82.3,184.1,183.8c0,8.2-0.5,16.3-1.6,24.3H670.6V366.7
		L670.6,366.7z"/>
	<path class="st13" d="M670.6,368.3c8.4-1.2,17.1-1.8,25.8-1.8c100.7,0,182.3,81.6,182.3,182.3c0,8.2-0.6,16.3-1.6,24.3H670.6V368.3
		L670.6,368.3z"/>
	<path class="st14" d="M670.6,369.8c8.4-1.2,17.1-1.8,25.8-1.8c100,0,180.8,81.1,180.8,180.8c0,8.2-0.6,16.3-1.6,24.3h-205V369.8
		L670.6,369.8z"/>
	<path class="st15" d="M670.6,371.6c8.4-1.2,17.1-1.9,25.8-1.9c99,0,179.2,80,179.2,179c0,8.2-0.6,16.3-1.7,24.3H670.6V371.6
		L670.6,371.6z"/>
	<path class="st16" d="M670.6,373.2c8.4-1.2,17.1-1.9,25.8-1.9c97.9,0,177.5,79.5,177.5,177.5c0,8.2-0.6,16.3-1.7,24.3H670.6V373.2
		L670.6,373.2z"/>
	<path class="st17" d="M670.6,375c8.4-1.2,17.1-1.9,25.8-1.9c97.2,0,175.9,78.8,175.9,175.7c0,8.2-0.6,16.3-1.7,24.3H670.6V375
		L670.6,375z"/>
	<path class="st18" d="M670.6,376.5c8.4-1.3,17-1.9,25.8-1.9c96.1,0,174.1,78,174.1,174.1c0,8.2-0.6,16.4-1.7,24.3H670.6V376.5
		L670.6,376.5z"/>
	<path class="st19" d="M670.6,378.3c8.4-1.3,17-1.9,25.8-1.9c95.4,0,172.6,77,172.6,172.3c0,8.2-0.6,16.4-1.7,24.3H670.6V378.3
		L670.6,378.3z"/>
	<path class="st20" d="M670.6,379.9c8.4-1.3,17-1.9,25.8-1.9c94.4,0,170.8,76.5,170.8,170.8c0,8.2-0.6,16.4-1.7,24.3H670.6V379.9
		L670.6,379.9z"/>
	<path class="st21" d="M670.6,381.5c8.4-1.3,17-2,25.8-2c93.6,0,169.3,75.9,169.3,169.3c0,8.3-0.6,16.4-1.7,24.3H670.6V381.5
		L670.6,381.5z"/>
	<path class="st22" d="M670.6,383.3c8.4-1.3,17-2,25.8-2c92.6,0,167.7,74.9,167.7,167.5c0,8.2-0.6,16.4-1.8,24.3H670.6V383.3
		L670.6,383.3z"/>
	<path class="st23" d="M670.6,384.8c8.4-1.3,17-2,25.8-2c91.5,0,165.9,74.4,165.9,165.9c0,8.3-0.6,16.4-1.8,24.3h-190V384.8
		L670.6,384.8z"/>
	<path class="st24" d="M670.6,386.6c8.4-1.3,17-2,25.8-2c90.8,0,164.4,73.4,164.4,164.2c0,8.3-0.6,16.4-1.8,24.3H670.6V386.6
		L670.6,386.6z"/>
	<path class="st25" d="M670.6,388.2c8.4-1.3,17-2.1,25.8-2.1c90,0,162.6,72.9,162.6,162.6c0,8.3-0.6,16.4-1.8,24.3H670.6V388.2
		L670.6,388.2z"/>
	<path class="st26" d="M670.6,389.7c8.4-1.4,17-2.1,25.8-2.1c89,0,161.1,72.1,161.1,161.1c0,8.3-0.6,16.4-1.8,24.3H670.6V389.7
		L670.6,389.7z"/>
	<path class="st27" d="M670.6,391.6c8.4-1.4,17-2.1,25.8-2.1c88,0,159.3,71.3,159.3,159.3c0,8.3-0.6,16.4-1.8,24.3H670.6V391.6
		L670.6,391.6z"/>
	<path class="st28" d="M670.6,393.1c8.4-1.4,17-2.1,25.8-2.1c87.2,0,157.8,70.8,157.8,157.8c0,8.3-0.6,16.4-1.9,24.3H670.6V393.1
		L670.6,393.1z"/>
	<path class="st29" d="M670.6,394.9c8.4-1.4,17-2.1,25.8-2.1c86.2,0,156.2,69.8,156.2,156c0,8.3-0.7,16.4-1.9,24.3H670.6V394.9
		L670.6,394.9z"/>
	<path class="st30" d="M670.6,396.5c8.4-1.4,17-2.2,25.8-2.2c85.4,0,154.4,69,154.4,154.4c0,8.3-0.7,16.4-1.9,24.3H670.6V396.5
		L670.6,396.5z"/>
	<path class="st31" d="M670.6,398c8.4-1.4,17-2.2,25.8-2.2c84.4,0,152.9,68.5,152.9,152.9c0,8.3-0.7,16.4-1.9,24.3H670.6V398
		L670.6,398z"/>
	<path class="st32" d="M670.6,399.9c8.4-1.4,17-2.2,25.8-2.2c83.6,0,151.1,67.8,151.1,151.1c0,8.3-0.7,16.4-1.9,24.3h-175V399.9
		L670.6,399.9z"/>
	<path class="st33" d="M670.6,401.4c8.4-1.5,17-2.2,25.8-2.2c82.6,0,149.6,67,149.6,149.6c0,8.3-0.7,16.4-2,24.3H670.6V401.4
		L670.6,401.4z"/>
	<path class="st34" d="M670.6,403.2c8.4-1.5,17-2.3,25.8-2.3c81.6,0,148,66.2,148,147.8c0,8.3-0.7,16.4-2,24.3H670.6V403.2
		L670.6,403.2z"/>
	<path class="st35" d="M670.6,404.8c8.4-1.5,17-2.3,25.8-2.3c80.8,0,146.3,65.5,146.3,146.3c0,8.3-0.7,16.4-2,24.3H670.6V404.8
		L670.6,404.8z"/>
	<path class="st36" d="M670.6,406.6c8.4-1.5,17-2.3,25.8-2.3c80,0,144.7,64.7,144.7,144.5c0,8.3-0.7,16.4-2,24.3H670.6V406.6
		L670.6,406.6z"/>
	<path class="st37" d="M670.6,408.2c8.4-1.5,17-2.3,25.8-2.3c79,0,142.9,63.9,142.9,142.9c0,8.3-0.7,16.4-2.1,24.3H670.6V408.2
		L670.6,408.2z"/>
	<path class="st38" d="M670.6,410c8.4-1.5,17-2.4,25.8-2.4c78,0,141.4,63.2,141.4,141.1c0,8.3-0.7,16.4-2.1,24.3H670.6V410
		L670.6,410z"/>
	<path class="st39" d="M670.6,411.5c8.4-1.6,17-2.4,25.8-2.4c77.2,0,139.6,62.6,139.6,139.6c0,8.3-0.7,16.4-2.1,24.3H670.6V411.5
		L670.6,411.5z"/>
	<path class="st40" d="M670.6,413.1c8.4-1.6,17-2.4,25.8-2.4c76.2,0,138.1,61.9,138.1,138.1c0,8.3-0.7,16.4-2.1,24.3H670.6V413.1
		L670.6,413.1z"/>
	<path class="st41" d="M670.6,414.9c8.4-1.6,17-2.4,25.8-2.4c75.4,0,136.5,61.1,136.5,136.3c0,8.3-0.7,16.4-2.2,24.3H670.6V414.9
		L670.6,414.9z"/>
	<path class="st42" d="M670.6,416.5c8.4-1.6,17-2.5,25.8-2.5c74.4,0,134.8,60.3,134.8,134.8c0,8.3-0.8,16.4-2.2,24.3H670.6V416.5
		L670.6,416.5z"/>
	<path class="st43" d="M670.6,418.3c8.4-1.6,17-2.5,25.8-2.5c73.6,0,133.2,59.6,133.2,133c0,8.3-0.8,16.4-2.2,24.3H670.6V418.3
		L670.6,418.3z"/>
	<path class="st44" d="M670.6,419.9c8.3-1.7,17-2.5,25.8-2.5c72.6,0,131.4,58.8,131.4,131.4c0,8.3-0.8,16.4-2.2,24.3h-155V419.9
		L670.6,419.9z"/>
	<path class="st45" d="M670.6,421.7c8.3-1.7,17-2.6,25.8-2.6c71.6,0,129.9,58,129.9,129.6c0,8.3-0.8,16.4-2.3,24.3H670.6V421.7
		L670.6,421.7z"/>
	<path class="st46" d="M670.6,423.3c8.3-1.7,17-2.6,25.8-2.6c70.8,0,128.1,57.5,128.1,128.1c0,8.3-0.8,16.4-2.3,24.3H670.6V423.3
		L670.6,423.3z"/>
	<path class="st47" d="M670.6,424.8c8.3-1.7,17-2.6,25.8-2.6c69.8,0,126.6,56.8,126.6,126.6c0,8.3-0.8,16.4-2.3,24.3h-150V424.8
		L670.6,424.8z"/>
	<path class="st48" d="M670.6,426.7c8.3-1.7,17-2.7,25.8-2.7c69,0,125,55.7,125,124.8c0,8.3-0.8,16.4-2.4,24.3H670.6V426.7
		L670.6,426.7z"/>
	<path class="st49" d="M670.6,428.2c8.3-1.8,17-2.7,25.8-2.7c68,0,123.2,55.2,123.2,123.2c0,8.3-0.8,16.4-2.4,24.3H670.6V428.2
		L670.6,428.2z"/>
	<path class="st50" d="M670.6,430.1c8.3-1.8,17-2.7,25.8-2.7c67.2,0,121.7,54.5,121.7,121.5c0,8.3-0.8,16.4-2.4,24.3H670.6V430.1
		L670.6,430.1z"/>
	<path class="st50" d="M670.6,431.6c8.3-1.8,17-2.8,25.8-2.8c66.2,0,119.9,53.7,119.9,119.9c0,8.3-0.8,16.4-2.5,24.3H670.6V431.6
		L670.6,431.6z"/>
	<path class="st50" d="M670.6,494.7c7.8-3.7,16.6-5.8,25.8-5.8c33.2,0,60.1,26.8,60.1,59.8c0,8.7-1.8,16.9-5.1,24.3h-80.8V494.7
		L670.6,494.7z"/>
	<path class="st51" d="M792.8,437.3c2.6,1.3,4.3,3.8,4.1,5.9c-0.5,2-2.8,2.8-5.4,1.8c-2.6-1.3-4.3-3.8-4.1-5.9
		C788,437,790.3,436.3,792.8,437.3L792.8,437.3z"/>
	<path class="st51" d="M798.9,396.1c2,1,3.6,2.8,3.3,4.1c0,1.3-1.8,1.5-4.1,0.5c-2-1-3.6-2.8-3.3-4.1
		C794.9,395.3,796.9,395.1,798.9,396.1L798.9,396.1z"/>
	<path class="st51" d="M799.5,392c1.8,0.8,3.1,2.3,2.8,3.3c0,1.3-1.5,1.3-3.3,0.5c-1.8-1-3.1-2.3-2.8-3.6
		C796.1,391.3,797.7,391.3,799.5,392L799.5,392z"/>
	<path class="st51" d="M800,387.9c1.5,1,2.8,2.3,2.8,3.1c-0.3,1-1.5,1-3.3,0.3c-1.5-0.8-2.8-2-2.6-3.1
		C796.9,387.4,798.4,387.2,800,387.9L800,387.9z"/>
	<path class="st51" d="M800.5,384.1c1.5,0.8,2.6,1.8,2.6,2.8c-0.3,0.8-1.3,0.8-3.1,0c-1.5-0.8-2.6-1.8-2.3-2.8
		C797.7,383.3,798.9,383.3,800.5,384.1L800.5,384.1z"/>
	<path class="st51" d="M801,380.3c1.3,0.8,2.3,1.8,2.3,2.6c0,0.8-1.3,1-2.8,0.3c-1.3-0.8-2.3-2-2.3-2.8
		C798.4,379.7,799.5,379.7,801,380.3L801,380.3z"/>
	<path class="st51" d="M801.2,377.2c1.5,0.5,2.3,1.5,2.3,2.3c0,0.5-1.3,0.5-2.6,0c-1.3-0.8-2-1.8-2-2.3
		C798.9,376.4,800,376.4,801.2,377.2L801.2,377.2z"/>
	<path class="st51" d="M801.8,373.9c1.3,0.5,2,1.3,2,2c-0.3,0.8-1,0.5-2.3,0c-1.3-0.5-2-1.3-2-2
		C799.7,373.1,800.5,373.4,801.8,373.9L801.8,373.9z"/>
	<path class="st51" d="M802.3,370.5c1,0.5,1.8,1.3,1.8,1.8c-0.3,0.8-1,0.5-2,0c-1-0.5-1.8-1.3-1.8-1.8
		C800.2,370,801.2,370,802.3,370.5L802.3,370.5z"/>
	<path class="st51" d="M802.5,367.5c1,0.5,1.8,1.3,1.8,1.8c-0.3,0.5-1,0.3-2,0c-0.8-0.5-1.5-1.3-1.5-1.8
		C801,367,801.5,367.2,802.5,367.5L802.5,367.5z"/>
	<path class="st51" d="M803,364.7c0.8,0.3,1.3,0.8,1.3,1.3c0,0.5-0.8,0.3-1.5,0c-0.8-0.5-1.5-1-1.5-1.5
		C801.5,364.2,802,364.2,803,364.7L803,364.7z"/>
	<path class="st51" d="M803.3,361.8c0.8,0.3,1.3,0.8,1.3,1c-0.3,0.5-0.8,0.5-1.3,0c-0.8-0.3-1.3-0.8-1.3-1.3
		C802,361.3,802.5,361.3,803.3,361.8L803.3,361.8z"/>
	<path class="st51" d="M790.5,451.9c-2.3-1-3.6-3.3-3.3-5.1c0.3-1.8,2.3-2.6,4.3-1.5c2,1,3.6,3.1,3.3,5.1
		C794.6,452.1,792.8,452.6,790.5,451.9L790.5,451.9z"/>
	<path class="st51" d="M789.2,460.5c-2.3-1-3.6-3.1-3.3-5.1c0.3-1.8,2-2.6,4.3-1.5c2,1,3.3,3.1,3.1,4.9
		C793.1,460.8,791.3,461.6,789.2,460.5L789.2,460.5z"/>
	<path class="st51" d="M787.7,469.8c-2-1-3.6-3.1-3.1-5.1c0.3-1.8,2-2.6,4.1-1.8c2,1,3.3,3.1,3.1,5.1
		C791.5,469.8,789.7,470.5,787.7,469.8L787.7,469.8z"/>
	<path class="st51" d="M785.9,479.7c-1.8-0.8-3.3-3.1-2.8-4.9c0.3-2,2-2.8,4.1-2c2,1,3.3,3.1,3.1,5.1
		C789.7,479.7,788,480.5,785.9,479.7L785.9,479.7z"/>
	<path class="st51" d="M784.4,490c-1.8-1-2.8-2.8-2.6-4.6c0.3-1.8,1.8-2.6,3.6-1.8c1.8,0.8,2.8,2.6,2.6,4.3
		C787.7,489.7,786.2,490.5,784.4,490L784.4,490z"/>
	<path class="st51" d="M782.3,502c-1.8-0.5-2.8-2.6-2.6-4.3c0.3-1.8,1.8-2.8,3.6-2c1.5,0.8,2.8,2.6,2.6,4.3
		C785.4,501.7,783.9,502.7,782.3,502L782.3,502z"/>
	<path class="st51" d="M780,515.3c-1.5-0.5-2.6-2.6-2.3-4.3c0.3-1.5,1.8-2.6,3.3-1.8c1.5,0.5,2.3,2.3,2,4.1
		C782.8,515,781.6,515.8,780,515.3L780,515.3z"/>
	<path class="st51" d="M777.7,528.3c-1.3-0.5-2-2-1.8-3.6c0.3-1.5,1.3-2.3,2.8-1.8c1.3,0.3,2,1.8,1.8,3.6
		C780,528,779,528.8,777.7,528.3L777.7,528.3z"/>
	<path class="st51" d="M801.8,441.9c2,1,3.6,3.1,3.3,4.9c-0.3,1.8-1.8,2.3-3.8,1.3c-2.3-1-3.6-3.1-3.6-4.9
		C798.2,441.6,799.7,441.1,801.8,441.9L801.8,441.9z"/>
	<path class="st51" d="M810.7,445.5c2.6,1.3,4.3,3.8,4.3,5.9c-0.3,2-2.3,2.8-4.9,1.8c-2.6-1.3-4.3-3.8-4.3-6.1
		C806.1,444.9,808.2,444.2,810.7,445.5L810.7,445.5z"/>
	<path class="st51" d="M878,438.3c-1.3-0.5-1.8-0.5-1.5,0.5c0,1,1,2.3,2.3,3.1c1,0.5,1.5,0.5,1.5-0.5C880,440.3,879,439.1,878,438.3
		L878,438.3z"/>
	<path class="st51" d="M870.8,434.2c-1-0.5-1.8-0.3-1.5,0.5c0.3,0.8,1,2,2,2.6c1,0.5,1.8,0.5,1.5-0.3
		C872.6,436,871.8,435,870.8,434.2L870.8,434.2z"/>
	<path class="st51" d="M871.8,440.1c-1-0.8-1.8-0.5-1.8,0.5c0.3,1,1.3,2.3,2.3,3.1c1.3,0.5,1.8,0.3,1.8-0.5
		C873.9,442.1,872.8,440.9,871.8,440.1L871.8,440.1z"/>
	<path class="st51" d="M864.7,435.5c-1.5-0.8-2.3-0.3-2.3,0.8c0.3,1,1.5,2.6,2.8,3.3c1.3,0.8,2.3,0.5,2-0.5
		C867.2,437.8,865.9,436.3,864.7,435.5L864.7,435.5z"/>
	<path class="st51" d="M846.8,502.7c-1.8-1-3.1-0.3-3.1,1.8c0.3,2,1.5,4.3,3.3,5.4c1.8,1,3.1,0.3,3.1-1.8
		C849.8,506.1,848.6,503.8,846.8,502.7L846.8,502.7z"/>
	<path class="st51" d="M837.8,486.1c-2-1-3.6-0.3-3.6,1.8c0,2.3,1.5,4.9,3.6,5.9c2,1.3,3.6,0.3,3.6-1.8
		C841.4,489.7,839.9,487.1,837.8,486.1L837.8,486.1z"/>
	<path class="st51" d="M828.4,471.8c-2-1-3.6-0.3-3.6,1.8c0,2,1.5,4.3,3.6,5.4c2,1,3.6,0.3,3.6-1.8
		C831.9,475.1,830.4,472.8,828.4,471.8L828.4,471.8z"/>
	<path class="st51" d="M820.9,412.5c-1.8-1-3.3-0.8-3.3,0.5c0,1.3,1.5,3.1,3.3,3.8c1.8,1,3.3,0.8,3.3-0.5
		C824.3,415,822.7,413.2,820.9,412.5L820.9,412.5z"/>
	<path class="st51" d="M858.3,437.8c-1.5-0.8-2.3-0.5-2.3,0.5c0.3,1.3,1.3,2.8,2.8,3.6c1.3,0.8,2.3,0.5,2.3-0.8
		C860.8,440.1,859.5,438.6,858.3,437.8L858.3,437.8z"/>
	<path class="st51" d="M850.9,433.4c-1.5-0.8-2.6-0.3-2.3,0.8c0,1.3,1.3,2.8,2.8,3.8c1.5,0.8,2.6,0.5,2.6-0.8
		C853.7,436,852.4,434.5,850.9,433.4L850.9,433.4z"/>
	<path class="st51" d="M836.5,431.7c-1.8-1-3.1-0.5-3.1,0.8c0,1.5,1.5,3.3,3.3,4.1c1.8,1,3.1,0.5,3.1-0.8
		C839.6,434.2,838.3,432.4,836.5,431.7L836.5,431.7z"/>
	<path class="st51" d="M843.7,429.1c-1.8-0.8-3.3-0.5-3.1,1c0,1.3,1.5,3.3,3.3,4.3c2,1,3.3,0.5,3.3-1
		C847,432.2,845.5,430.1,843.7,429.1L843.7,429.1z"/>
	<path class="st51" d="M836,425c-2.3-1-3.8-0.8-3.8,1c0.3,1.5,1.8,3.6,4.1,4.9c2,1,3.6,0.5,3.6-1C839.9,428.1,838.1,426,836,425
		L836,425z"/>
	<path class="st51" d="M828.6,427.3c-1.8-1-3.3-0.5-3.3,1c0,1.5,1.5,3.3,3.6,4.6c1.8,0.8,3.3,0.5,3.3-1
		C832.2,430.4,830.7,428.3,828.6,427.3L828.6,427.3z"/>
	<path class="st51" d="M819.4,458.2c-2-1-3.6-0.3-3.8,1.5c0,1.8,1.5,4.1,3.6,5.1c2,1,3.8,0.3,3.8-1.5
		C823,461.3,821.4,459.3,819.4,458.2L819.4,458.2z"/>
	<path class="st51" d="M819.9,450.1c-2.3-1-4.1-0.3-4.3,1.5c0,2,1.5,4.3,3.8,5.6c2.3,1,4.1,0.3,4.3-1.5
		C823.7,453.6,822,451.3,819.9,450.1L819.9,450.1z"/>
	<path class="st51" d="M820.2,442.6c-2.6-1.3-4.3-0.5-4.6,1.3c0,2.3,1.8,4.9,4.3,5.9c2.3,1.3,4.3,0.5,4.3-1.5
		C824.3,446.2,822.5,443.7,820.2,442.6L820.2,442.6z"/>
	<path class="st51" d="M820.4,435.5c-2.3-1-4.3-0.5-4.3,1.3c-0.3,1.8,1.5,4.3,4.1,5.6c2.3,1,4.1,0.5,4.3-1.5
		C824.5,439.1,822.7,436.8,820.4,435.5L820.4,435.5z"/>
	<path class="st51" d="M820.4,429.4c-2-1-3.6-0.5-3.8,1c0,1.5,1.5,3.6,3.6,4.6c2.3,1,3.8,0.5,3.8-1
		C824,432.4,822.5,430.4,820.4,429.4L820.4,429.4z"/>
	<path class="st51" d="M820.7,423c-2.3-0.8-3.8-0.5-4.1,1c0,1.8,1.8,3.8,4.1,5.1c2,1,3.8,0.5,3.8-1C824.5,426.3,823,424.2,820.7,423
		L820.7,423z"/>
	<path class="st51" d="M820.9,417.3c-2.3-1-3.8-0.5-4.1,1c0,1.5,1.8,3.6,3.8,4.6c2.3,1,3.8,0.8,3.8-0.8
		C824.5,420.7,823,418.4,820.9,417.3L820.9,417.3z"/>
	<path class="st51" d="M806.6,400.5c-1.5-0.8-2.8-0.5-2.8,0.5c-0.3,1,1,2.3,2.6,3.1c1.5,0.5,2.6,0.5,2.8-0.5
		C809.2,402.5,808.2,401.2,806.6,400.5L806.6,400.5z"/>
	<path class="st51" d="M806.6,396.1c-1.3-0.8-2.3-0.5-2.6,0.3c0,0.8,1,2,2.6,2.8c1.3,0.5,2.3,0.5,2.6-0.3
		C809.2,397.9,808.2,396.6,806.6,396.1L806.6,396.1z"/>
	<path class="st51" d="M806.9,392c-1.3-0.8-2.3-0.8-2.3,0c0,0.8,0.8,1.8,2,2.3c1.3,0.8,2.3,0.5,2.3,0
		C808.9,393.6,808.2,392.5,806.9,392L806.9,392z"/>
	<path class="st51" d="M806.9,387.9c-1-0.5-1.8-0.5-2,0c0,0.8,0.8,1.5,1.8,2c1.3,0.5,2,0.5,2,0C808.9,389.2,807.9,388.4,806.9,387.9
		L806.9,387.9z"/>
	<path class="st51" d="M806.9,384.1c-1-0.5-1.8-0.5-1.8,0c0,0.8,0.8,1.5,1.8,2c1,0.5,1.8,0.5,1.8-0.3
		C808.7,385.4,807.9,384.6,806.9,384.1L806.9,384.1z"/>
	<path class="st51" d="M807.1,380.3c-1-0.5-1.8-0.5-1.8,0c0,0.5,0.8,1.3,1.5,1.5c1,0.5,1.5,0.8,1.8,0
		C808.7,381.3,807.9,380.8,807.1,380.3L807.1,380.3z"/>
	<path class="st51" d="M807.1,376.9c-0.8-0.5-1.5-0.5-1.5,0c0,0.5,0.5,1,1.3,1.5c1,0.3,1.5,0.5,1.5,0
		C808.4,378,807.9,377.4,807.1,376.9L807.1,376.9z"/>
	<path class="st51" d="M807.1,373.4c-0.8-0.3-1.3-0.3-1.3,0c0,0.5,0.5,1,1.3,1.5c0.8,0.3,1.3,0.3,1.3,0
		C808.4,374.4,807.9,373.9,807.1,373.4L807.1,373.4z"/>
	<path class="st51" d="M800.5,455.2c1.5,0.8,2.8,0.3,3.1-1c0-1.5-1-3.1-2.6-3.8c-1.8-0.8-3.1-0.3-3.3,1
		C797.7,452.9,798.7,454.4,800.5,455.2L800.5,455.2z"/>
	<path class="st51" d="M799.2,464.1c1.5,0.5,2.8,0,3.1-1.3c0.3-1.5-1-3.1-2.6-3.8c-1.3-0.5-2.6,0-2.8,1.3
		C796.6,461.8,797.7,463.4,799.2,464.1L799.2,464.1z"/>
	<path class="st51" d="M797.4,473.1c1.5,0.8,2.8,0,3.1-1.3c0-1.5-0.8-3.1-2.3-3.8c-1.5-0.5-2.8,0-3.1,1.5
		C794.9,470.8,795.9,472.3,797.4,473.1L797.4,473.1z"/>
	<path class="st51" d="M795.9,483c1.5,0.5,2.6,0,2.8-1.5c0.3-1.3-0.8-2.8-2-3.6c-1.5-0.5-2.8,0-3.1,1.5
		C793.6,480.7,794.3,482.3,795.9,483L795.9,483z"/>
	<path class="st51" d="M793.8,492.8c1.3,0.5,2.6,0,2.8-1.5c0-1.3-0.8-2.6-2-3.3c-1.3-0.5-2.6,0.3-2.8,1.5
		C791.8,490.7,792.6,492.3,793.8,492.8L793.8,492.8z"/>
	<path class="st51" d="M791.5,504.5c1.3,0.5,2.3,0,2.6-1.5c0-1.3-0.8-2.6-1.8-3.1c-1.3-0.8-2.3,0-2.6,1.3
		C789.5,502.5,790.3,504,791.5,504.5L791.5,504.5z"/>
	<path class="st51" d="M828.4,421.4c-1.8-1-3.3-0.5-3.3,0.8c0,1.5,1.5,3.3,3.3,4.3c2,1,3.6,0.5,3.6-0.8
		C831.7,424.2,830.4,422.4,828.4,421.4L828.4,421.4z"/>
	<path class="st51" d="M828.4,434c-1.5-0.8-2.8-0.5-2.8,0.8c0,1.3,1.3,3.1,2.8,3.8c1.8,0.8,3.1,0.5,3.1-1
		C831.4,436.3,829.9,434.7,828.4,434L828.4,434z"/>
	<path class="st51" d="M828.4,440.1c-1.8-0.8-3.1-0.5-3.3,1c0,1.8,1.5,3.6,3.3,4.6c2,1,3.3,0.5,3.3-1
		C831.7,443.2,830.4,441.1,828.4,440.1L828.4,440.1z"/>
	<path class="st51" d="M828.4,462.8c-1.8-0.8-3.3-0.3-3.3,1.5c0,1.8,1.3,3.8,3.1,4.6c2,1,3.3,0.5,3.3-1.3
		C831.4,465.9,830.1,463.9,828.4,462.8L828.4,462.8z"/>
	<path class="st51" d="M857.5,431.4c-1.5-0.8-2.6-0.5-2.6,0.8c0.3,1.3,1.5,2.8,3.1,3.8c1.5,0.8,2.6,0.5,2.6-0.8
		C860.3,434,859,432.4,857.5,431.4L857.5,431.4z"/>
	<path class="st51" d="M837.6,496.9c-1.8-0.8-3.1,0-3.1,1.8c0,2,1.3,4.3,3.1,5.1c1.8,1,3.1,0.3,3.1-1.8
		C840.4,500.2,839.1,497.9,837.6,496.9L837.6,496.9z"/>
	<path class="st51" d="M847.3,514c-1.5-1-2.8-0.3-2.8,1.8c0,2,1.3,4.3,3.1,5.4c1.5,1,2.8,0,2.6-1.8C850.1,517.1,848.8,515,847.3,514
		L847.3,514z"/>
	<path class="st51" d="M827.8,481.3c-1.8-0.8-3.3,0-3.3,1.8c0,2,1.5,4.3,3.3,5.1c1.8,1,3.3,0.3,3.3-1.8
		C831.2,484.6,829.9,482.3,827.8,481.3L827.8,481.3z"/>
	<path class="st51" d="M819.1,467.4c-2-0.8-3.3-0.3-3.6,1.5c0,1.8,1.3,3.8,3.1,4.9c2,0.8,3.3,0.3,3.6-1.8
		C822.2,470.5,820.7,468.5,819.1,467.4L819.1,467.4z"/>
	<path class="st51" d="M810.2,453.9c-2-0.8-3.6-0.3-3.8,1.5c0,1.8,1.3,4.1,3.3,4.9c2,1,3.8,0.3,3.8-1.5
		C813.8,457,812.2,454.9,810.2,453.9L810.2,453.9z"/>
	<path class="st51" d="M828.4,455.2c-1.8-0.8-3.1-0.3-3.1,1.3c0,1.5,1.3,3.3,3.1,4.3c1.8,0.8,3.1,0.3,3.1-1.3
		C831.4,458,830.1,455.9,828.4,455.2L828.4,455.2z"/>
	<path class="st51" d="M821.2,407.6c-1.8-0.8-2.8-0.8-3.1,0.3c0,1.3,1.3,2.6,2.8,3.6c1.8,0.8,2.8,0.5,2.8-0.8
		C823.7,409.7,822.7,408.4,821.2,407.6L821.2,407.6z"/>
	<path class="st51" d="M850.3,428.1c-1.3-0.8-2-0.5-2,0.5c0,1,1,2.3,2.6,3.1c1,0.5,2,0.3,2-0.8C852.6,430.1,851.6,428.6,850.3,428.1
		L850.3,428.1z"/>
	<path class="st51" d="M837,445.2c-1.5-0.8-2.6-0.5-2.6,0.8c0,1.3,1.3,2.8,2.6,3.6c1.5,0.8,2.6,0.3,2.6-0.8
		C839.6,447.5,838.3,446,837,445.2L837,445.2z"/>
	<path class="st51" d="M837.3,476.7c-1.8-0.8-3.1,0-3.1,1.5c0,2,1.3,4.1,3.1,5.1c2,1,3.3,0.3,3.3-1.5
		C840.4,479.7,839.1,477.7,837.3,476.7L837.3,476.7z"/>
	<path class="st51" d="M828.4,447.8c-1.5-0.8-2.8-0.3-3.1,1c0,1.5,1.5,3.3,3.1,4.1c1.8,1,3.1,0.5,3.1-1
		C831.4,450.3,830.1,448.8,828.4,447.8L828.4,447.8z"/>
	<path class="st51" d="M845.5,456.7c-1.5-0.8-2.8-0.3-2.8,1c0.3,1.5,1.5,3.3,3.1,4.3c1.5,0.8,2.8,0.5,2.8-1
		C848.3,459.5,847,457.5,845.5,456.7L845.5,456.7z"/>
	<path class="st51" d="M854.7,532.9c-1.3-0.8-2.3,0-2.3,1.8c0.3,1.8,1.3,3.8,2.6,4.9c1.3,0.8,2.3,0,2.3-1.8
		C857,536,856,533.9,854.7,532.9L854.7,532.9z"/>
	<path class="st51" d="M844.2,435.7c-1.5-0.8-2.6-0.5-2.6,0.8c0,1.3,1.3,2.8,2.8,3.6c1.5,0.8,2.6,0.5,2.6-0.8
		C846.8,438,845.5,436.5,844.2,435.7L844.2,435.7z"/>
	<path class="st51" d="M813.5,404c-1.3-0.8-2.6-0.5-2.6,0.5c0,0.8,1,2,2.6,2.8c1.3,0.8,2.6,0.5,2.6-0.5
		C816.1,406.1,815.1,404.8,813.5,404L813.5,404z"/>
	<path class="st51" d="M828.1,406.6c-1.3-0.8-2.3-0.5-2.3,0.3c0,1,1,2.3,2.6,3.1c1.3,0.5,2.3,0.5,2.3-0.5
		C830.7,408.4,829.6,407.4,828.1,406.6L828.1,406.6z"/>
	<path class="st51" d="M843.2,424.5c-1-0.8-1.8-0.5-1.8,0.3c0,1,1,2,2,2.8c1.3,0.5,2,0.3,2-0.5C845.5,426,844.5,425,843.2,424.5
		L843.2,424.5z"/>
	<path class="st51" d="M836.8,452.4c-1.5-0.8-2.6-0.3-2.6,1c0.3,1.3,1.3,3.1,2.8,3.8c1.3,0.8,2.6,0.3,2.6-1
		C839.6,454.9,838.3,453.1,836.8,452.4L836.8,452.4z"/>
	<path class="st51" d="M844.7,449.6c-1.3-0.8-2-0.5-2,0.8c0,1,1,2.6,2.3,3.1c1.3,0.8,2.3,0.5,2.3-0.8
		C847,451.6,846,450.1,844.7,449.6L844.7,449.6z"/>
	<path class="st51" d="M853.4,461.3c-1.5-0.8-2.6-0.3-2.3,1c0,1.3,1.3,3.1,2.6,4.1c1.5,0.8,2.6,0.3,2.3-1.3
		C856,463.9,854.7,462.1,853.4,461.3L853.4,461.3z"/>
	<path class="st51" d="M865.2,441.9c-1-0.5-1.8-0.3-1.8,0.8c0.3,1,1.3,2.3,2.3,2.8c1.3,0.8,2,0.5,1.8-0.5
		C867.2,443.9,866.5,442.6,865.2,441.9L865.2,441.9z"/>
	<path class="st51" d="M828.1,402.2c-1.3-0.5-2.3-0.5-2.3,0.3c0.3,0.8,1,2,2.3,2.6c1.3,0.5,2,0.5,2-0.3
		C830.1,404,829.1,403,828.1,402.2L828.1,402.2z"/>
	<path class="st51" d="M828.4,411.5c-1.5-0.8-2.3-0.5-2.3,0.5c0,0.8,1,2,2.3,2.6c1.3,0.8,2.3,0.5,2.3-0.3
		C830.4,413.2,829.6,412.2,828.4,411.5L828.4,411.5z"/>
	<path class="st51" d="M855.7,521.1c-1.5-0.8-2.6-0.3-2.6,1.8c0.3,1.8,1.5,4.1,2.8,5.4c1.5,0.8,2.6,0.3,2.6-1.8
		C858.5,524.5,857.2,522.2,855.7,521.1L855.7,521.1z"/>
	<path class="st51" d="M821.2,403.3c-1.3-0.8-2.3-0.5-2.3,0.3c0,0.8,1,2,2.3,2.6c1.3,0.8,2,0.5,2.3-0.3
		C823.2,405.1,822.5,403.8,821.2,403.3L821.2,403.3z"/>
	<path class="st51" d="M836.5,438.6c-1.3-0.8-2.3-0.5-2.3,0.5c0,1,1,2.3,2.3,3.1c1.3,0.5,2.3,0.3,2-0.8
		C838.6,440.3,837.6,439.1,836.5,438.6L836.5,438.6z"/>
	<path class="st51" d="M835.8,420.7c-1-0.5-1.8-0.3-1.8,0.5c0,0.8,0.8,1.8,2,2.3c1,0.5,1.8,0.3,1.5-0.5
		C837.6,422.2,836.8,421.2,835.8,420.7L835.8,420.7z"/>
	<path class="st51" d="M837.3,468.5c-1.3-0.8-2.3-0.3-2.3,1c0,1.3,1,2.6,2.3,3.3c1.3,0.8,2.3,0.3,2-1
		C839.3,470.5,838.3,469,837.3,468.5L837.3,468.5z"/>
	<path class="st51" d="M846.8,492.3c-1.5-0.8-2.6-0.3-2.6,1.5c0,1.5,1.3,3.6,2.8,4.3c1.3,0.8,2.3,0.3,2.3-1.5
		C849.3,495.1,848,493,846.8,492.3L846.8,492.3z"/>
	<path class="st51" d="M828.4,417.1c-1-0.5-1.8-0.3-1.8,0.3c0,0.8,0.8,1.8,1.8,2.3c1,0.3,1.8,0.3,1.8-0.5
		C829.9,418.4,829.4,417.6,828.4,417.1L828.4,417.1z"/>
	<path class="st51" d="M847,525.5c-1-0.8-2,0-2,1.5c0,1.5,1,3.1,2,3.8c1.3,0.8,2,0,2-1.5C849.1,527.8,848,526.3,847,525.5L847,525.5
		z"/>
	<path class="st51" d="M884.1,442.4c-0.8-0.3-1.3-0.3-1.3,0.5c0.3,0.8,1,1.8,1.8,2.3c1,0.5,1.5,0.5,1.3-0.3
		C885.6,444.2,884.9,443.2,884.1,442.4L884.1,442.4z"/>
	<path class="st51" d="M851.6,440.1c-1.3-0.5-2-0.3-2,0.8c0.3,1,1.3,2.3,2.3,3.1c1.3,0.5,2,0.3,2-0.8
		C853.7,442.1,852.6,440.9,851.6,440.1L851.6,440.1z"/>
	<path class="st51" d="M835.3,406.1c-1-0.5-2-0.5-2,0.3c0.3,0.8,1,1.8,2,2.3c1.3,0.5,2,0.5,2-0.3C837,407.6,836.3,406.6,835.3,406.1
		L835.3,406.1z"/>
	<path class="st51" d="M879,444.7c-1-0.8-1.8-0.5-1.5,0.5c0.3,0.8,1,1.8,2,2.6c1,0.5,1.5,0.5,1.5-0.5
		C880.8,446.2,879.7,445.2,879,444.7L879,444.7z"/>
	<path class="st51" d="M861.3,466.2c-1.3-0.5-2-0.3-2,1c0.3,1.3,1.3,2.8,2.6,3.6c1.3,0.8,2,0.5,2-0.8
		C863.6,468.7,862.6,466.9,861.3,466.2L861.3,466.2z"/>
	<path class="st51" d="M891,447c-0.8-0.5-1.3-0.3-1.3,0.5c0.3,0.5,1,1.5,1.8,2c0.5,0.5,1,0.3,1-0.3C892.3,448.5,891.5,447.5,891,447
		L891,447z"/>
	<path class="st51" d="M863.6,430.6c-0.8-0.5-1.3-0.5-1.3,0.3c0.3,0.8,1,1.5,1.8,2c0.8,0.5,1.5,0.5,1.3-0.3
		C865.4,431.9,864.7,430.9,863.6,430.6L863.6,430.6z"/>
	<path class="st51" d="M860.1,545.4c-1-1-1.8-0.3-1.5,1.3c0,1.8,0.8,3.8,1.8,4.6c1.3,1,2,0.3,1.8-1.5
		C862.1,548.2,861.1,546.2,860.1,545.4L860.1,545.4z"/>
	<path class="st51" d="M837.6,508.4c-1.3-0.5-2.3,0-2.3,1.5c0,1.5,1,3.3,2.3,4.1c1.3,0.5,2.3,0,2.3-1.5
		C839.6,510.9,838.8,509.1,837.6,508.4L837.6,508.4z"/>
	<path class="st51" d="M852.9,454.4c-1-0.5-1.5-0.3-1.5,0.5c0,0.8,0.8,2,1.8,2.6c0.8,0.5,1.5,0.3,1.5-0.8
		C854.4,455.9,853.7,454.9,852.9,454.4L852.9,454.4z"/>
	<path class="st51" d="M834.7,401.7c-1-0.5-1.8-0.5-1.8,0.3c0.3,0.5,0.8,1.3,1.8,1.8c1,0.5,1.8,0.5,1.5-0.3
		C836.3,403,835.5,402.2,834.7,401.7L834.7,401.7z"/>
	<path class="st51" d="M841.4,405.3c-0.8-0.3-1.3-0.3-1.3,0.3c0,0.5,0.8,1.3,1.5,1.5c0.8,0.5,1.3,0.5,1,0
		C842.7,406.3,842.2,405.8,841.4,405.3L841.4,405.3z"/>
	<path class="st51" d="M827.8,493c-1-0.5-2,0-2,1.3c0,1,0.8,2.6,2,3.1c1,0.5,2,0.3,2-1C829.9,495.1,829.1,493.8,827.8,493L827.8,493
		z"/>
	<path class="st51" d="M818.4,478.2c-1.3-0.8-2.3-0.3-2.3,0.8c0,1.3,0.8,2.6,2,3.1c1,0.5,1.8,0,2-1
		C820.2,480,819.4,478.7,818.4,478.2L818.4,478.2z"/>
	<path class="st51" d="M809.2,464.1c-1-0.5-1.8,0-2,0.8c0,1.3,0.8,2.3,1.8,2.8c1.3,0.5,2,0.3,2.3-0.8
		C811.2,465.9,810.5,464.6,809.2,464.1L809.2,464.1z"/>
	<path class="st51" d="M840.9,401.2c-0.8-0.3-1.5-0.3-1.5,0.3c0.3,0.5,0.8,1.3,1.5,1.5c1,0.5,1.5,0.5,1.5,0
		C842.4,402.2,841.6,401.7,840.9,401.2L840.9,401.2z"/>
	<path class="st51" d="M846,401.2c-0.8-0.3-1.3-0.3-1.3,0c0,0.8,0.8,1.3,1.3,1.5c0.8,0.5,1.3,0.5,1.3,0
		C847.3,402.2,846.5,401.7,846,401.2L846,401.2z"/>
	<path class="st51" d="M869.3,472.1c-0.8-0.5-1.3-0.3-1.3,0.5c0.3,1,0.8,2,1.8,2.6c0.8,0.5,1.3,0.3,1.3-0.8
		C870.8,473.6,870.3,472.6,869.3,472.1L869.3,472.1z"/>
	<path class="st51" d="M862.4,474.1c-1-0.5-1.8-0.3-1.8,1c0.3,1,1,2.3,2,3.1c1,0.5,1.8,0,1.5-1C864.1,476.1,863.4,474.9,862.4,474.1
		L862.4,474.1z"/>
	<path class="st51" d="M853.9,469.5c-0.8-0.5-1.5-0.3-1.5,0.8c0.3,0.8,1,2,1.8,2.6c1,0.5,1.8,0.3,1.5-0.8
		C855.7,471.3,854.9,470,853.9,469.5L853.9,469.5z"/>
	<path class="st51" d="M845.7,464.9c-1-0.5-1.5-0.3-1.5,0.5c0,1,0.8,2,1.5,2.6c1,0.3,1.5,0,1.5-0.8
		C847.3,466.4,846.5,465.4,845.7,464.9L845.7,464.9z"/>
	<path class="st51" d="M837,460.3c-0.8-0.5-1.5-0.3-1.5,0.5c0,1,0.8,1.8,1.5,2.3c1,0.5,1.5,0.3,1.5-0.5
		C838.6,461.8,838.1,460.8,837,460.3L837,460.3z"/>
	<path class="st51" d="M870,479.5c-0.8-0.5-1.3-0.3-1.3,0.8c0,0.8,0.8,2,1.5,2.6c0.8,0.5,1.5,0.3,1.3-0.8
		C871.6,481.3,870.8,480,870,479.5L870,479.5z"/>
	<path class="st51" d="M878.2,485.1c-0.8-0.5-1.3,0-1,0.8c0,0.8,0.5,1.8,1.3,2.3c0.8,0.8,1.3,0.3,1-0.5
		C879.5,486.9,878.7,485.9,878.2,485.1L878.2,485.1z"/>
	<path class="st51" d="M835.3,410.7c-0.8-0.5-1.5-0.3-1.5,0.3c0,0.8,0.8,1.5,1.5,2c1,0.3,1.5,0.3,1.5-0.3
		C836.8,412,836,411.2,835.3,410.7L835.3,410.7z"/>
	<path class="st51" d="M783.4,433.4c-2.3-0.8-4.1-0.3-4.3,1.3c-0.3,1.8,1,3.8,3.1,4.6c2,1,4.1,0.5,4.3-1.3
		C786.7,436.5,785.4,434.5,783.4,433.4L783.4,433.4z"/>
	<path class="st51" d="M774.1,428.8c-2.6-1.3-5.1-0.5-5.6,1.5c-0.5,2,1,4.3,3.8,5.6c2.8,1.3,5.1,0.5,5.6-1.5
		C778.5,432.4,776.7,429.9,774.1,428.8L774.1,428.8z"/>
	<path class="st51" d="M705.4,359.3c1.5,0.5,2.3,1.3,1.8,2c-0.5,0.8-2.3,1-3.8,0.5c-1.5-0.5-2.3-1.5-1.8-2
		C702,359,703.8,358.8,705.4,359.3L705.4,359.3z"/>
	<path class="st51" d="M715.1,362.4c1.5,0.5,2.3,1.3,1.8,2c-0.5,0.5-2,0.8-3.3,0.3c-1.5-0.5-2.3-1.3-1.8-2
		C712.3,362.1,713.8,361.8,715.1,362.4L715.1,362.4z"/>
	<path class="st51" d="M712,367.2c1.5,0.3,2.3,1.3,2,2c-0.5,0.8-2.3,1-3.8,0.5c-1.5-0.5-2.3-1.5-1.8-2.3
		C708.9,367,710.5,366.7,712,367.2L712,367.2z"/>
	<path class="st51" d="M722,369.8c1.8,0.8,2.8,1.8,2.3,2.8c-0.5,0.8-2.3,1-4.3,0.5c-1.8-0.8-2.8-1.8-2-2.8
		C718.4,369.5,720.2,369.3,722,369.8L722,369.8z"/>
	<path class="st51" d="M720.7,448.5c1.8,0.5,2.6,2,2,3.3c-0.8,1.3-2.3,2-3.8,1.5c-1.8-0.8-2.6-2.3-2-3.6
		C717.4,448.5,719.2,448,720.7,448.5L720.7,448.5z"/>
	<path class="st51" d="M734.8,440.9c2,1,3.3,2.8,2.8,4.6c-0.8,1.8-3.1,2.6-5.4,1.8c-2-1-3.3-2.8-2.6-4.6
		C730.4,440.9,732.5,440.1,734.8,440.9L734.8,440.9z"/>
	<path class="st51" d="M748.8,436.3c2.3,1,3.6,3.1,3.1,4.9c-0.5,2-2.8,2.6-5.1,1.8c-2.3-1-3.8-3.1-3.1-4.9
		C744.2,436.3,746.5,435.5,748.8,436.3L748.8,436.3z"/>
	<path class="st51" d="M774.1,390c1.8,1,3.1,2.6,2.8,3.6c-0.3,1.3-2,1.5-4.1,0.8c-2-1-3.3-2.6-2.8-3.8
		C770.3,389.5,772.1,389.2,774.1,390L774.1,390z"/>
	<path class="st51" d="M728.6,378c1.8,0.5,2.8,1.8,2.3,2.6c-0.8,1-2.6,1.3-4.3,0.8c-1.8-0.8-2.8-1.8-2.3-2.8
		C724.8,377.4,726.6,377.2,728.6,378L728.6,378z"/>
	<path class="st51" d="M737.8,381c1.8,0.8,2.8,2,2.3,3.1c-0.5,1-2.3,1.3-4.1,0.5c-2-0.5-3.1-2-2.6-3.1
		C734,380.5,736,380.3,737.8,381L737.8,381z"/>
	<path class="st51" d="M753.4,392.8c2,1,3.3,2.6,2.8,3.8c-0.5,1-2.3,1.5-4.6,0.8c-2-1-3.3-2.6-2.8-3.8
		C749.3,392.3,751.4,392,753.4,392.8L753.4,392.8z"/>
	<path class="st51" d="M746.8,384.1c2.3,0.8,3.6,2.6,3.1,3.6c-0.5,1.3-2.6,1.8-4.9,0.8c-2.3-0.8-3.6-2.6-3.1-3.8
		C742.4,383.6,744.7,383.1,746.8,384.1L746.8,384.1z"/>
	<path class="st51" d="M756,387.4c2.3,1,3.8,2.8,3.3,4.3c-0.5,1.3-2.8,1.8-5.4,0.8c-2.6-1-4.1-3.1-3.3-4.3
		C751.1,386.7,753.4,386.4,756,387.4L756,387.4z"/>
	<path class="st51" d="M762.4,396.4c2,1,3.6,2.8,3.1,4.1c-0.5,1.3-2.6,1.8-4.6,0.8c-2.3-1-3.8-2.8-3.3-4.1
		C758,395.9,760.1,395.3,762.4,396.4L762.4,396.4z"/>
	<path class="st51" d="M761.9,432.4c2.3,1,3.6,3.1,3.3,4.6c-0.5,2-2.8,2.6-5.1,1.5c-2.3-0.8-3.6-3.1-3.1-4.6
		C757.5,432.2,759.8,431.4,761.9,432.4L761.9,432.4z"/>
	<path class="st51" d="M763.9,425c2.6,1,4.1,3.1,3.6,5.1c-0.5,1.8-2.8,2.3-5.4,1.3c-2.6-1-3.8-3.3-3.6-5.1
		C759.3,424.5,761.6,424,763.9,425L763.9,425z"/>
	<path class="st51" d="M766,417.8c2.6,1.3,4.1,3.6,3.6,5.4c-0.5,2-2.8,2.6-5.6,1.5c-2.8-1.3-4.3-3.6-3.8-5.6
		C760.8,417.3,763.2,416.8,766,417.8L766,417.8z"/>
	<path class="st51" d="M767.8,411.5c2.6,1,4.1,3.1,3.6,4.9c-0.5,1.8-2.8,2.3-5.4,1.3c-2.6-1-4.3-3.3-3.8-5.1
		C762.9,410.7,765.2,410.4,767.8,411.5L767.8,411.5z"/>
	<path class="st51" d="M769.3,405.8c2.3,0.8,3.6,2.8,3.3,4.1c-0.5,1.5-2.6,2-4.9,1c-2.3-1-3.6-2.8-3.1-4.3
		C764.9,405.1,767,404.8,769.3,405.8L769.3,405.8z"/>
	<path class="st51" d="M771.1,399.9c2.6,1,4.1,3.1,3.6,4.6c-0.5,1.5-2.6,2-5.1,0.8c-2.3-1-3.8-3.1-3.6-4.6
		C766.5,399.2,768.8,398.9,771.1,399.9L771.1,399.9z"/>
	<path class="st51" d="M772.6,394.6c2.6,1.3,3.8,3.1,3.6,4.6c-0.5,1.3-2.6,1.8-4.9,0.5c-2.6-1-3.8-2.8-3.6-4.3
		C768.3,394.1,770.3,393.6,772.6,394.6L772.6,394.6z"/>
	<path class="st51" d="M790.8,393c1.5,0.5,2.6,2,2.6,2.8c-0.3,1-1.5,1-3.1,0.5c-1.5-0.8-2.6-2-2.6-3.1
		C788,392.3,789.2,392.3,790.8,393L790.8,393z"/>
	<path class="st51" d="M792,388.7c1.3,0.8,2.3,1.8,2,2.6c0,1-1.3,1-2.8,0.5c-1.3-0.8-2.3-2-2-2.8C789.2,388.2,790.5,388.2,792,388.7
		L792,388.7z"/>
	<path class="st51" d="M793.1,384.9c1,0.5,2,1.5,1.8,2.3c0,0.5-1,0.8-2.3,0.3c-1.3-0.8-2-1.8-2-2.3
		C790.8,384.4,791.8,384.4,793.1,384.9L793.1,384.9z"/>
	<path class="st51" d="M794.1,381c1,0.5,1.8,1.3,1.5,2c0,0.5-1,0.5-2,0c-1-0.5-1.8-1.3-1.8-2C792,380.5,792.8,380.5,794.1,381
		L794.1,381z"/>
	<path class="st51" d="M794.9,377.7c1,0.3,1.8,1,1.8,1.8c-0.3,0.5-1,0.5-2,0c-1-0.5-1.8-1.3-1.8-1.8
		C793.1,376.9,793.8,377.2,794.9,377.7L794.9,377.7z"/>
	<path class="st51" d="M795.6,374.4c1,0.5,1.8,1,1.5,1.5c0,0.5-0.8,0.5-1.8,0c-0.8-0.3-1.5-1-1.3-1.5
		C794.1,373.9,794.9,373.9,795.6,374.4L795.6,374.4z"/>
	<path class="st51" d="M796.4,371.6c1,0.5,1.5,1,1.5,1.5c-0.3,0.5-0.8,0.3-1.8,0c-0.8-0.5-1.3-1-1.3-1.5
		C794.9,371.1,795.6,371.1,796.4,371.6L796.4,371.6z"/>
	<path class="st51" d="M797.2,368.8c0.8,0.5,1.3,1,1.3,1.3c0,0.5-0.8,0.3-1.5,0c-0.5-0.5-1.3-0.8-1-1.3
		C795.9,368.2,796.6,368.5,797.2,368.8L797.2,368.8z"/>
	<path class="st51" d="M780.8,446.2c-1.8-0.8-2.8-2.3-2.6-3.6c0.3-1.3,1.8-1.8,3.3-1c1.8,0.8,2.8,2.3,2.6,3.6
		C783.9,446.5,782.3,447,780.8,446.2L780.8,446.2z"/>
	<path class="st51" d="M779.3,454.9c-1.5-0.8-2.6-2.3-2.3-3.6c0.3-1.3,1.8-1.8,3.3-1c1.5,0.5,2.3,2,2.3,3.3
		C782.1,455.2,780.8,455.7,779.3,454.9L779.3,454.9z"/>
	<path class="st51" d="M778,464.1c-1.5-0.8-2.6-2.3-2.3-3.8c0.3-1.3,1.5-1.8,3.1-1.3c1.5,0.8,2.6,2.3,2.3,3.6
		C780.8,464.1,779.5,464.6,778,464.1L778,464.1z"/>
	<path class="st51" d="M776.7,473.8c-1.5-0.5-2.3-2-2-3.3c0.3-1.5,1.5-2,3.1-1.5c1.3,0.8,2.3,2.3,2,3.6
		C779.5,473.8,778,474.6,776.7,473.8L776.7,473.8z"/>
	<path class="st51" d="M774.9,484.6c-1.3-0.5-2-1.8-1.8-3.3c0.3-1.3,1.5-1.8,2.8-1.3c1.3,0.5,2.3,2,2,3.3
		C777.7,484.6,776.4,485.1,774.9,484.6L774.9,484.6z"/>
	<path class="st51" d="M773.4,496.9c-1.3-0.5-2-1.8-1.8-3.3c0.3-1.3,1.5-1.8,2.8-1.3c1.3,0.5,2,1.8,1.8,3.1
		C775.7,496.9,774.7,497.4,773.4,496.9L773.4,496.9z"/>
	<path class="st51" d="M764.4,391.3c2,1,3.3,2.6,3.1,3.8c-0.5,1.5-2.6,1.8-4.6,0.8c-2-1-3.6-2.6-3.1-3.8
		C760.3,390.7,762.4,390.5,764.4,391.3L764.4,391.3z"/>
	<path class="st51" d="M760.1,402.2c2,0.8,3.1,2.3,2.8,3.6c-0.5,1-2,1.5-4.1,0.8c-1.8-0.8-3.1-2.3-2.6-3.6
		C756.8,401.7,758.3,401.5,760.1,402.2L760.1,402.2z"/>
	<path class="st51" d="M758.3,407.9c2,1,3.3,2.8,3.1,4.1c-0.5,1.5-2.6,1.8-4.6,1c-2.3-0.8-3.6-2.6-3.1-4.1
		C754.2,407.6,756.2,407.1,758.3,407.9L758.3,407.9z"/>
	<path class="st51" d="M751.4,428.6c2,0.8,3.3,2.6,2.8,4.1c-0.5,1.5-2.6,2.3-4.6,1.3c-2-0.8-3.3-2.6-2.8-4.1
		C747.3,428.3,749.3,427.8,751.4,428.6L751.4,428.6z"/>
	<path class="st51" d="M731.4,372.8c1.8,0.8,2.8,2,2.3,3.1c-0.5,1-2.6,1.3-4.6,0.5c-1.8-0.8-3.1-2-2.3-3.1
		C727.4,372.3,729.4,372.1,731.4,372.8L731.4,372.8z"/>
	<path class="st51" d="M731.4,450.6c1.8,0.8,3.1,2.8,2.3,4.3c-0.5,1.8-2.8,2.6-4.9,1.8c-2-0.8-3.1-2.6-2.3-4.3
		C727.1,450.6,729.1,450.1,731.4,450.6L731.4,450.6z"/>
	<path class="st51" d="M717.4,456.7c2,0.8,3.1,2.8,2.3,4.6c-0.8,1.8-3.1,2.6-5.1,1.8c-2-0.8-3.1-2.8-2.3-4.3
		C713,457,715.1,456.2,717.4,456.7L717.4,456.7z"/>
	<path class="st51" d="M746,445.5c2,0.8,3.1,2.8,2.8,4.6c-0.8,1.8-2.8,2.6-5.1,1.8c-2-1-3.3-3.1-2.8-4.9
		C741.7,445.2,743.7,444.7,746,445.5L746,445.5z"/>
	<path class="st51" d="M759.6,440.9c2,1,3.1,2.8,2.8,4.6c-0.5,1.5-2.6,2.3-4.6,1.5c-2-1-3.3-2.8-2.8-4.6
		C755.5,440.9,757.5,440.1,759.6,440.9L759.6,440.9z"/>
	<path class="st51" d="M772.1,436.8c2,1,3.3,2.8,3.1,4.6c-0.5,1.8-2.6,2.3-4.6,1.5c-2.3-1-3.6-3.1-3.1-4.9
		C767.8,436.5,769.8,435.7,772.1,436.8L772.1,436.8z"/>
	<path class="st51" d="M753.7,421.2c2,1,3.1,2.6,2.8,4.1c-0.5,1.3-2.6,1.8-4.3,1c-2-0.8-3.1-2.6-2.8-4.1
		C749.9,420.9,751.9,420.7,753.7,421.2L753.7,421.2z"/>
	<path class="st51" d="M775.4,385.6c1.5,0.8,2.8,2,2.6,3.1c-0.3,1-1.8,1-3.6,0.3c-1.8-0.8-2.8-2-2.6-3.1
		C772.1,384.9,773.6,384.9,775.4,385.6L775.4,385.6z"/>
	<path class="st51" d="M740.4,376.7c1.5,0.5,2.3,1.8,2,2.6c-0.5,0.8-2,1-3.6,0.3c-1.5-0.5-2.3-1.5-2-2.3
		C737.3,376.2,738.9,376.2,740.4,376.7L740.4,376.7z"/>
	<path class="st51" d="M748.8,404.8c1.8,0.5,2.6,2,2.3,3.1c-0.5,1-2,1.3-3.8,0.8c-1.5-0.8-2.6-2-2.3-3.3
		C745.5,404.6,747.3,404,748.8,404.8L748.8,404.8z"/>
	<path class="st51" d="M737.8,432.4c2,0.8,3.3,2.6,2.8,4.3c-0.8,1.5-2.8,2.3-4.9,1.5c-2.3-1-3.3-2.8-2.8-4.3
		C733.7,432.4,735.8,431.7,737.8,432.4L737.8,432.4z"/>
	<path class="st51" d="M756,414.8c1.8,0.8,3.1,2.3,2.6,3.8c-0.5,1.3-2.3,1.5-4.1,0.8c-2-0.8-3.1-2.3-2.6-3.6
		C752.2,414.5,753.9,414,756,414.8L756,414.8z"/>
	<path class="st51" d="M736.6,407.1c1.8,0.8,2.8,2.3,2.6,3.6c-0.8,1.3-2.6,1.5-4.6,1c-2-0.8-3.1-2.3-2.6-3.6
		C732.5,406.9,734.5,406.3,736.6,407.1L736.6,407.1z"/>
	<path class="st51" d="M705.1,463.4c1.3,0.5,2,1.8,1.5,3.1c-0.8,1.3-2.3,1.8-3.8,1.5c-1.3-0.5-2-2-1.5-3.3
		C702,463.4,703.6,462.8,705.1,463.4L705.1,463.4z"/>
	<path class="st51" d="M744.2,389.5c1.8,0.8,2.8,2,2.3,3.1c-0.5,1-2,1.3-3.8,0.8c-2-0.8-2.8-2-2.6-3.1
		C740.7,389.2,742.4,389,744.2,389.5L744.2,389.5z"/>
	<path class="st51" d="M783.4,389.5c1.5,0.8,2.3,1.8,2.3,2.8c-0.3,0.8-1.5,1-3.1,0.3c-1.5-0.5-2.6-2-2.3-2.8
		C780.3,389,781.8,388.7,783.4,389.5L783.4,389.5z"/>
	<path class="st51" d="M760.8,375.1c1.3,0.5,2,1.3,1.8,2c0,0.5-1,0.8-2.3,0.3c-1-0.5-1.8-1.3-1.8-1.8
		C758.8,374.9,759.8,374.9,760.8,375.1L760.8,375.1z"/>
	<path class="st51" d="M748.8,380c1.3,0.5,2,1.5,1.8,2.3c-0.3,0.5-1.5,0.8-3.1,0.3c-1.3-0.5-2-1.5-1.8-2.3
		C746,379.5,747.6,379.5,748.8,380L748.8,380z"/>
	<path class="st51" d="M746.3,411.2c1.5,0.8,2.6,2,2.3,3.3c-0.5,1.3-2.3,1.5-4.1,0.8c-1.5-0.5-2.6-2-2.3-3.1
		C742.7,410.9,744.5,410.7,746.3,411.2L746.3,411.2z"/>
	<path class="st51" d="M739.1,401.2c1.5,0.8,2.6,1.8,2,2.8c-0.5,1-1.8,1.3-3.6,0.8c-1.5-0.5-2.3-1.8-1.8-2.8
		C736,401,737.6,400.7,739.1,401.2L739.1,401.2z"/>
	<path class="st51" d="M726.1,403.8c2,0.8,2.8,2,2.3,3.3c-0.5,1-2.3,1.5-4.1,0.8c-2-0.5-3.1-1.8-2.3-3.1
		C722.5,403.8,724.3,403.3,726.1,403.8L726.1,403.8z"/>
	<path class="st51" d="M719.2,375.1c1.5,0.5,2.3,1.5,1.8,2.3c-0.5,0.8-2,1-3.6,0.5c-1.5-0.5-2.3-1.5-1.8-2.3
		C716.1,374.9,717.6,374.6,719.2,375.1L719.2,375.1z"/>
	<path class="st51" d="M762.9,371.3c1,0.5,2,1.3,1.8,2c0,0.5-1.3,0.8-2.6,0.3c-1.3-0.5-2-1.3-1.8-2
		C760.3,371.1,761.6,370.8,762.9,371.3L762.9,371.3z"/>
	<path class="st51" d="M767.5,382.3c1.5,0.5,2.6,1.8,2.3,2.8c-0.5,0.8-1.8,0.8-3.3,0.3c-1.5-0.8-2.6-2-2.3-2.8
		C764.4,381.8,766,381.5,767.5,382.3L767.5,382.3z"/>
	<path class="st51" d="M769,378c1.3,0.8,2.3,1.8,2,2.3c-0.3,0.8-1.3,1-2.8,0.3c-1.3-0.5-2-1.5-2-2.3
		C766.5,377.4,767.8,377.4,769,378L769,378z"/>
	<path class="st51" d="M750.9,399.2c1.5,0.5,2.3,1.8,2,2.8c-0.3,0.8-1.8,1-3.1,0.5c-1.5-0.8-2.6-1.8-2-2.8
		C748.1,398.9,749.6,398.7,750.9,399.2L750.9,399.2z"/>
	<path class="st51" d="M757.5,383.6c1.3,0.8,1.8,1.5,1.8,2.3c-0.3,0.5-1.5,0.8-2.8,0.3c-1-0.5-1.8-1.5-1.5-2
		C755.2,383.3,756.2,383.1,757.5,383.6L757.5,383.6z"/>
	<path class="st51" d="M740.7,425.3c1.5,0.5,2.3,1.8,2,2.8c-0.5,1.3-1.8,1.5-3.3,1c-1.5-0.5-2.6-1.8-2-3.1
		C737.8,425,739.4,424.7,740.7,425.3L740.7,425.3z"/>
	<path class="st51" d="M765.7,387.4c1,0.5,1.5,1.3,1.5,1.8c-0.3,0.5-1.3,0.8-2.3,0.3c-1-0.5-1.8-1.3-1.5-1.8
		C763.7,386.9,764.7,386.9,765.7,387.4L765.7,387.4z"/>
	<path class="st51" d="M776.4,381.5c1,0.5,2,1.5,1.8,2.3c-0.3,0.5-1.3,0.8-2.6,0.3c-1-0.5-1.8-1.5-1.8-2.3
		C774.1,381,775.2,381,776.4,381.5L776.4,381.5z"/>
	<path class="st51" d="M695.9,356.7c1.3,0.3,1.8,1,1.3,1.5c-0.5,0.5-1.8,0.8-3.1,0.5c-1.3-0.3-2-1-1.5-1.5
		C693.3,356.7,694.6,356.5,695.9,356.7L695.9,356.7z"/>
	<path class="st51" d="M734.8,386.4c1.5,0.5,2.3,1.5,2,2.6c-0.5,0.8-2,1-3.6,0.5c-1.5-0.5-2.3-1.8-1.8-2.6
		C731.7,386.1,733.2,385.9,734.8,386.4L734.8,386.4z"/>
	<path class="st51" d="M702.3,364.2c1.3,0.3,2,1.3,1.5,1.8c-0.5,0.8-2,0.8-3.6,0.5c-1.3-0.5-2-1.3-1.5-1.8
		C699.2,363.9,700.8,363.6,702.3,364.2L702.3,364.2z"/>
	<path class="st51" d="M715.8,400.7c1.5,0.5,2.3,1.5,1.8,2.8c-0.5,1-2.3,1.3-4.1,0.8c-1.5-0.5-2.3-1.8-1.8-2.8
		C712.3,400.5,714.1,400.2,715.8,400.7L715.8,400.7z"/>
	<path class="st51" d="M687.5,354.7c1,0.3,1.5,0.8,1,1.3c-0.5,0.5-1.5,0.8-2.8,0.5c-1-0.3-1.8-0.8-1.3-1
		C684.9,354.7,686.2,354.7,687.5,354.7L687.5,354.7z"/>
	<path class="st51" d="M724.5,365.9c1,0.5,1.8,1,1.3,1.5c-0.3,0.5-1.5,0.8-2.6,0.3c-1.3-0.3-1.8-1-1.5-1.5
		C722.2,365.7,723.3,365.4,724.5,365.9L724.5,365.9z"/>
	<path class="st51" d="M701.8,472.8c1.5,0.3,2,1.5,1.5,2.8c-0.8,1.3-2.3,2-3.6,1.5c-1.5-0.5-2-1.8-1.3-3.1
		C699,472.8,700.5,472.3,701.8,472.8L701.8,472.8z"/>
	<path class="st51" d="M691.6,478.4c1.3,0.5,1.8,1.5,1.3,2.6c-0.8,1-2,1.8-3.3,1.3c-1-0.3-1.5-1.5-1-2.6
		C689,478.7,690.3,478.2,691.6,478.4L691.6,478.4z"/>
	<path class="st51" d="M727.9,460c1.5,0.5,2.3,2,1.8,3.3c-0.5,1.5-2,2-3.6,1.5c-1.5-0.5-2.3-2-1.8-3.6
		C724.8,460,726.3,459.5,727.9,460L727.9,460z"/>
	<path class="st51" d="M713.8,466.4c1.5,0.8,2.3,2.3,2,3.6c-0.8,1.3-2.3,2-3.8,1.5c-1.5-0.8-2.3-2-1.8-3.6
		C710.7,466.7,712.3,465.9,713.8,466.4L713.8,466.4z"/>
	<path class="st51" d="M729.1,398.2c1.3,0.5,1.8,1.3,1.5,2c-0.3,0.5-1.5,0.8-2.6,0.5c-1.3-0.5-2-1.3-1.5-2
		C726.8,398.2,728.1,397.9,729.1,398.2L729.1,398.2z"/>
	<path class="st51" d="M757.5,365.7c1,0.3,1.5,1,1.5,1.5c-0.3,0.5-1,0.5-2,0c-1-0.3-1.5-0.8-1.5-1.3
		C755.7,365.4,756.5,365.4,757.5,365.7L757.5,365.7z"/>
	<path class="st51" d="M743,454.9c1,0.5,1.8,1.5,1.5,2.8c-0.5,1-1.8,1.8-3.1,1c-1.3-0.5-2-1.5-1.5-2.8
		C740.1,454.9,741.4,454.4,743,454.9L743,454.9z"/>
	<path class="st51" d="M756.8,449.6c1,0.5,1.8,1.8,1.5,2.8c-0.3,1-1.3,1.5-2.8,1c-1-0.5-1.8-1.8-1.5-2.8
		C754.2,449.6,755.5,449,756.8,449.6L756.8,449.6z"/>
	<path class="st51" d="M769.5,446.2c1.3,0.5,2,1.5,1.8,2.6c-0.3,1-1.3,1.5-2.6,1c-1.3-0.5-1.8-1.8-1.8-2.8
		C767.2,446.2,768.5,445.7,769.5,446.2L769.5,446.2z"/>
	<path class="st51" d="M733.2,369.5c0.8,0.3,1.3,0.8,1,1.3c-0.3,0.5-1,0.5-2,0.3c-0.8-0.5-1.3-1-1-1.5
		C731.4,369.3,732.2,369,733.2,369.5L733.2,369.5z"/>
	<path class="st51" d="M704.3,398.2c1.3,0.3,1.8,1,1.3,1.5c-0.3,0.8-1.5,1-2.6,0.8c-1.3-0.3-1.8-1-1.3-1.8
		C702,398.2,703.3,397.9,704.3,398.2L704.3,398.2z"/>
	<path class="st51" d="M712,406.1c1.5,0.3,2,1.3,1.5,2.3c-0.3,0.8-1.8,1-3.1,0.8c-1.5-0.5-2.3-1.5-1.8-2.3
		C709.2,406.1,710.7,405.6,712,406.1L712,406.1z"/>
	<path class="st51" d="M722.8,410.4c1.3,0.3,1.8,1.3,1.5,2c-0.5,0.8-1.5,1-2.8,0.8c-1.3-0.5-1.8-1.3-1.5-2.3
		C720.5,410.2,721.5,409.9,722.8,410.4L722.8,410.4z"/>
	<path class="st51" d="M733.5,414.3c1,0.3,1.5,1.3,1.3,1.8c-0.3,0.8-1.3,1-2.6,0.8c-1-0.5-1.5-1.3-1.3-2
		C731.2,414,732.2,413.8,733.5,414.3L733.5,414.3z"/>
	<path class="st51" d="M743.5,418.1c1,0.5,1.8,1.3,1.3,2c-0.3,0.8-1.3,1-2.3,0.5c-1-0.3-1.5-1.3-1.3-2
		C741.4,417.8,742.4,417.6,743.5,418.1L743.5,418.1z"/>
	<path class="st51" d="M764.4,368c1,0.5,1.5,1,1.5,1.5c-0.3,0.5-1,0.5-2,0.3c-0.8-0.3-1.5-1-1.5-1.5
		C762.6,367.7,763.4,367.7,764.4,368L764.4,368z"/>
	<path class="st51" d="M759.3,362.6c0.8,0.3,1.5,0.8,1.3,1.3c0,0.5-0.8,0.5-1.5,0.3c-1-0.5-1.5-1-1.5-1.5
		C757.8,362.4,758.5,362.1,759.3,362.6L759.3,362.6z"/>
	<path class="st51" d="M753.9,357.8c0.8,0.3,1.3,0.8,1.3,1c-0.3,0.5-0.8,0.5-1.5,0.3c-0.8-0.3-1.3-0.8-1.3-1.3
		C752.7,357.5,753.2,357.5,753.9,357.8L753.9,357.8z"/>
	<path class="st51" d="M770.3,374.6c1,0.3,1.5,1,1.5,1.8c-0.3,0.5-1,0.5-2,0c-1-0.5-1.8-1.3-1.5-1.8
		C768.5,374.1,769.3,374.1,770.3,374.6L770.3,374.6z"/>
	<path class="st51" d="M701,403.3c1,0.3,1.5,1,1.3,1.8c-0.5,0.5-1.8,1-2.8,0.5c-1.3-0.3-1.8-1-1.5-1.8
		C698.5,403.3,699.7,402.8,701,403.3L701,403.3z"/>
	<path class="st51" d="M690.5,400.7c1.3,0.3,1.5,1,1.3,1.5c-0.5,0.5-1.5,1-2.8,0.8c-1-0.3-1.5-1-1.3-1.5
		C688.2,400.7,689.5,400.5,690.5,400.7L690.5,400.7z"/>
	<path class="st51" d="M778,394.1c-0.5,1.3,0.8,2.8,2.6,3.8c-2.3-0.5-3.8-0.3-4.3,1.3c-0.3,1,0.5,2.6,2,3.8
		c-1.8-0.3-3.1,0.3-3.3,1.5c-0.5,1.5,0.8,3.3,2.8,4.6c-2.3-0.8-4.1,0-4.6,1.5c-0.3,1.3,0.5,2.8,2,4.1c-1.8-0.3-3.1,0.5-3.6,1.8
		c-0.3,1.5,0.8,3.3,2.6,4.6c-2.3-0.3-3.8,0.5-4.3,2c-0.5,2,1.3,4.9,4.3,6.1c2.3,1,4.6,0.8,5.4-0.5c0.5,1.8,2,3.8,4.3,4.9
		c2,0.8,3.8,0.8,4.9-0.3c0.8,1.8,2.3,3.3,4.3,4.3c1.8,0.8,3.6,0.8,4.6-0.3c0.8,1.8,2.3,3.3,4.1,4.1c2,1,3.8,0.8,4.9,0
		c0.5,1.5,2,3.3,4.1,4.3c2.8,1.3,4.9,0.5,5.1-1.8c0-1.8-1-3.6-2.8-5.1c1.8,0.3,3.1-0.5,3.3-2c0-1.5-1-3.1-2.6-4.6
		c1.5,0.3,2.8-0.5,2.8-1.8c0-1.8-1.3-3.6-3.3-5.1c2,0.8,3.6,0,3.6-1.5c0-1.3-1-2.8-2.6-4.1c1.5,0.3,2.8-0.3,2.8-1.5
		c0-1.5-1.3-3.3-3.3-4.6c1.8,0.5,3.1,0.3,3.3-1c0-1.5-1.5-3.3-3.8-4.3c-1.8-1-3.3-0.8-3.8,0c-0.3-1.3-1.5-2.8-3.6-3.6
		c-1.5-1-3.1-1-3.8,0c-0.3-1.5-1.8-3.1-3.8-4.1c-2-1-3.6-0.8-4.3,0c-0.3-1.3-1.5-2.6-3.6-3.3c-2-1.3-3.8-1-4.3,0.3l0,0
		c0.3-1.3-1.3-3.1-3.6-4.1C780.3,392.5,778.2,392.8,778,394.1L778,394.1z M807.1,434.2c1,0.5,1.8,1.5,1.8,2.3c0,1-1,1.3-2,0.8
		c-1-0.5-1.8-1.5-1.8-2.6C805.1,434,806.1,433.7,807.1,434.2L807.1,434.2z M798.7,430.4c1,0.5,1.5,1.3,1.5,2s-1,1-1.8,0.8
		c-1-0.5-1.8-1.5-1.8-2.3C796.9,430.1,797.7,430.1,798.7,430.4L798.7,430.4z M790,426.5c1,0.5,1.8,1.3,1.5,2c0,0.8-1,1-1.8,0.5
		c-1-0.5-1.8-1.3-1.5-2C788.2,426.3,789.2,426,790,426.5L790,426.5z M782.6,424.5c-0.3,0.8-1.3,1-2.6,0.5c-1-0.5-1.8-1.5-1.5-2.3
		c0.3-0.8,1-1,2.3-0.5C781.8,422.7,782.6,423.7,782.6,424.5L782.6,424.5z M808.2,428.3c0.8,0.3,1.5,1.3,1.5,2
		c-0.3,0.5-1,0.8-1.8,0.5c-1-0.5-1.8-1.5-1.5-2.3C806.4,428.1,807.1,427.8,808.2,428.3L808.2,428.3z M782.1,416.3
		c1,0.5,1.5,1.3,1.3,2c0,0.5-0.8,0.8-1.8,0.3c-1-0.3-1.8-1.3-1.5-1.8C780.3,416.1,781,415.8,782.1,416.3L782.1,416.3z M808.7,421.9
		c0.8,0.5,1.5,1.3,1.5,2c-0.3,0.8-1,0.8-1.8,0.5c-1-0.5-1.5-1.5-1.5-2C806.9,421.7,807.6,421.7,808.7,421.9L808.7,421.9z
		 M783.4,410.2c0.8,0.5,1.5,1.3,1.5,2c-0.3,0.5-1,0.8-2,0.3c-1-0.3-1.8-1.3-1.5-1.8C781.6,409.9,782.3,409.9,783.4,410.2
		L783.4,410.2z M808.9,416.3c1,0.3,1.5,1.3,1.5,1.8c0,0.8-0.8,0.8-1.5,0.3c-1-0.3-1.5-1-1.5-1.8
		C807.4,416.1,808.2,415.8,808.9,416.3L808.9,416.3z M784.4,404.6c1,0.5,1.5,1.3,1.5,2c-0.3,0.5-1,0.8-1.8,0.3
		c-1-0.5-1.5-1.3-1.5-1.8C782.6,404.3,783.6,404.3,784.4,404.6L784.4,404.6z M809.2,410.2c1,0.5,1.8,1.3,1.8,2c-0.3,0.8-1,0.8-2,0.3
		c-0.8-0.3-1.5-1.3-1.5-1.8C807.4,409.9,808.2,409.9,809.2,410.2L809.2,410.2z M801.8,406.9c0.8,0.3,1.3,1,1.3,1.5
		c0,0.8-0.8,0.8-1.5,0.5c-1-0.5-1.5-1.3-1.5-1.8C800,406.3,800.7,406.3,801.8,406.9L801.8,406.9z M794.1,403
		c0.8,0.5,1.3,1.3,1.3,1.8c0,0.5-0.8,0.8-1.8,0.3c-0.8-0.5-1.5-1-1.3-1.8C792.3,402.8,793.1,402.8,794.1,403L794.1,403z
		 M785.7,398.9c1,0.5,1.5,1.5,1.5,2c0,0.8-1,0.8-2,0.3c-1-0.5-1.8-1.3-1.5-1.8C783.9,398.7,784.6,398.7,785.7,398.9L785.7,398.9z"/>
</g>
</svg>
