<svg xmlns="http://www.w3.org/2000/svg" version="1.1" xmlns:xlink="http://www.w3.org/1999/xlink" xmlns:svgjs="http://svgjs.com/svgjs" width="512" height="512" x="0" y="0" viewBox="0 0 512 512" style="enable-background:new 0 0 512 512" xml:space="preserve" class=""><g><path fill-rule="evenodd" d="M99.372 408.83v27.78c0 22.904-18.765 41.669-41.698 41.669s-41.669-18.765-41.669-41.669v-27.78c0-22.932 18.765-41.698 41.669-41.698s41.698 18.765 41.698 41.698zm90.539-152.816c-22.932 0-41.698 18.737-41.698 41.669v138.926c0 22.904 18.765 41.669 41.698 41.669s41.669-18.765 41.669-41.669V297.683c0-22.932-18.765-41.669-41.669-41.669zm132.208-111.146c-22.932 0-41.669 18.737-41.669 41.669v250.072c0 22.904 18.737 41.669 41.669 41.669s41.669-18.765 41.669-41.669V186.537c0-22.932-18.737-41.669-41.669-41.669zM454.326 33.721c-22.932 0-41.669 18.765-41.669 41.669v361.219c0 22.904 18.737 41.669 41.669 41.669s41.669-18.765 41.669-41.669V75.391c0-22.904-18.737-41.669-41.669-41.669z" fill="#2B4D9E" data-original="#000000"></path></g></svg>