<svg xmlns="http://www.w3.org/2000/svg" version="1.1" xmlns:xlink="http://www.w3.org/1999/xlink" xmlns:svgjs="http://svgjs.com/svgjs" width="512" height="512" x="0" y="0" viewBox="0 0 20 20" style="enable-background:new 0 0 512 512" xml:space="preserve" class=""><g><path d="M18.3 7.6C13.7 3 6.3 3 1.7 7.6c-.4.4-1 .4-1.4 0s-.4-1 0-1.4C5.7.8 14.4.8 19.7 6.2c.4.4.4 1 0 1.4s-1 .4-1.4 0z" fill="#2B4D9E" data-original="#000000"></path><path d="M15.4 10.4c-3-2.9-7.8-2.9-10.7 0-.4.4-1 .4-1.4 0s-.4-1 0-1.4C7 5.2 13.1 5.2 16.8 9c.4.4.4 1 0 1.4s-1 .4-1.4 0z" fill="#2B4D9E" data-original="#000000"></path><path d="M12.6 13.4C11.2 12 9 12 7.7 13.4c-.4.4-1 .4-1.4 0s-.4-1.1 0-1.5c2.1-2.3 5.6-2.3 7.7 0 .4.4.4 1.1 0 1.5s-1 .4-1.4 0z" fill="#2B4D9E" data-original="#000000"></path><circle cx="10.1" cy="16" r="1.9" fill="#2B4D9E" data-original="#000000"></circle></g></svg>