<svg xmlns="http://www.w3.org/2000/svg" version="1.1" xmlns:xlink="http://www.w3.org/1999/xlink" xmlns:svgjs="http://svgjs.com/svgjs" width="512" height="512" x="0" y="0" viewBox="0 0 384.219 384.219" style="enable-background:new 0 0 512 512" xml:space="preserve" class=""><g><path d="m332.683 224.942-20.979-25.567c-1.777-2.167-4.291-3.409-6.895-3.409-2.605 0-5.118 1.242-6.896 3.409l-20.979 25.567c-2.655 3.235-2.101 5.8-1.534 6.997.566 1.198 2.142 3.279 6.328 3.279h5.999c-2.705 40-34.619 70.397-77.619 77.156V147.219h38.525c4.238 4.081 9.836 6.315 15.886 6.315 12.842 0 23.29-10.437 23.29-23.265s-10.448-23.265-23.29-23.265c-6.102 0-11.699 2.198-15.884 6.214h-38.527V81.526a42.766 42.766 0 0 0 24.786-38.825C234.895 19.155 215.673 0 192.127 0c-23.545 0-42.819 19.155-42.819 42.701 0 16.814 9.801 31.873 24.801 38.825v31.692h-38.65c-4.185-4.015-9.782-6.213-15.884-6.213-12.842 0-23.29 10.453-23.29 23.302 0 12.804 10.448 23.221 23.29 23.221 6.052 0 11.65-2.232 15.886-6.31h38.648v165.153c-43-6.764-74.999-37.153-77.703-77.153h6.083c4.186 0 5.761-2.081 6.328-3.279.566-1.198 1.121-3.726-1.534-6.961l-20.979-25.585c-1.777-2.167-4.291-3.418-6.896-3.418-2.604 0-5.118 1.238-6.895 3.405l-20.978 25.565c-2.655 3.235-2.101 5.799-1.534 6.996.566 1.198 2.142 3.278 6.328 3.278h7.387c1.572 31 16.726 61.847 41.987 85.94 20.259 19.323 44.406 31.954 68.406 36.22v13.515c0 7.468 6.246 13.325 13.714 13.325h8.477c7.468 0 13.809-5.857 13.809-13.325v-13.517c24-4.267 48.064-16.895 68.331-36.217 25.285-24.104 40.404-54.94 41.977-85.94h7.472c4.186 0 5.761-2.081 6.328-3.279.567-1.199 1.121-3.763-1.534-6.999zM169.848 42.701c0-12.248 9.965-22.213 22.213-22.213s22.213 9.965 22.213 22.213c0 12.249-9.965 22.214-22.213 22.214s-22.213-9.965-22.213-22.214z" fill="#2B4D9E" data-original="#000000"></path></g></svg>