<svg xmlns="http://www.w3.org/2000/svg" version="1.1" xmlns:xlink="http://www.w3.org/1999/xlink" xmlns:svgjs="http://svgjs.com/svgjs" width="512" height="512" x="0" y="0" viewBox="0 0 32 32" style="enable-background:new 0 0 512 512" xml:space="preserve" class=""><g><path d="M16 1C7.729 1 1 7.729 1 16s6.729 15 15 15 15-6.729 15-15S24.271 1 16 1zm6.313 21.636c.375-1.703.602-3.6.66-5.636h5.986a12.91 12.91 0 0 1-2.53 6.741 31.93 31.93 0 0 0-4.116-1.105zM5.571 23.741A12.91 12.91 0 0 1 3.041 17h5.986c.058 2.036.285 3.933.66 5.636a32.132 32.132 0 0 0-4.116 1.104zM9.686 9.37c-.374 1.701-.601 3.597-.659 5.63H3.041a12.902 12.902 0 0 1 2.53-6.741c1.351.462 2.724.832 4.115 1.11zm1.973.338a32.344 32.344 0 0 0 8.682 0c.351 1.559.578 3.343.638 5.292h-9.958c.06-1.949.287-3.733.638-5.292zM11.021 17h9.957c-.06 1.953-.287 3.739-.639 5.3a32.536 32.536 0 0 0-8.678 0c-.352-1.561-.58-3.348-.639-5.3zm11.951-2c-.057-2.033-.284-3.929-.659-5.63a32.187 32.187 0 0 0 4.115-1.11 12.91 12.91 0 0 1 2.53 6.74zm2.008-8.371a29.8 29.8 0 0 1-3.173.797c-.465-1.474-1.049-2.748-1.731-3.761a13.028 13.028 0 0 1 4.903 2.964zM15.999 3c1.363 0 2.813 1.78 3.799 4.749a30.47 30.47 0 0 1-7.598 0C13.186 4.78 14.636 3 15.999 3zM10.19 7.426a30.167 30.167 0 0 1-3.173-.797 13.028 13.028 0 0 1 4.903-2.964c-.682 1.013-1.266 2.287-1.731 3.761zM7.018 25.372a30.087 30.087 0 0 1 3.172-.797c.464 1.474 1.049 2.747 1.73 3.76a13.034 13.034 0 0 1-4.902-2.963zM15.999 29c-1.363 0-2.813-1.78-3.799-4.748a30.47 30.47 0 0 1 7.598 0c-.986 2.969-2.436 4.749-3.799 4.749zm5.809-4.426c1.069.208 2.128.474 3.173.797a13.028 13.028 0 0 1-4.903 2.964c.682-1.013 1.266-2.287 1.731-3.761z" fill="#2B4D9E" data-original="#000000" class=""></path></g></svg>