<?xml version="1.0" encoding="utf-8"?>
<!-- Generator: Adobe Illustrator 22.0.1, SVG Export Plug-In . SVG Version: 6.00 Build 0)  -->
<svg version="1.1" id="Layer_1" xmlns="http://www.w3.org/2000/svg" xmlns:xlink="http://www.w3.org/1999/xlink" x="0px" y="0px"
	 viewBox="0 0 1000 1000" style="enable-background:new 0 0 1000 1000;" xml:space="preserve">
<style type="text/css">
	.st0{fill:#006A3B;}
	.st1{fill:#8A6D43;}
	.st2{fill:#C0932D;}
	.st3{fill:#FCB615;}
	.st4{fill:#619B42;}
	.st5{fill:#BF7529;}
	.st6{fill:#6D461B;}
	.st7{fill:#6A3515;}
	.st8{fill:#5C7233;}
	.st9{fill:#544F21;}
	.st10{fill:#302B13;}
	.st11{fill:#3B4E26;}
	.st12{fill:#30351B;}
	.st13{fill:#302814;}
	.st14{fill:#162213;}
	.st15{fill:#01542C;}
	.st16{fill:#064321;}
	.st17{fill:#0E2B17;}
	.st18{fill:#0B2C19;}
	.st19{fill:#0C1C0F;}
	.st20{fill:#0A1D11;}
	.st21{fill:#0D2D19;}
	.st22{fill:#0D1F12;}
	.st23{fill:#0B1F12;}
	.st24{fill:#0C190F;}
	.st25{fill:#0E190E;}
	.st26{fill:#094722;}
	.st27{fill:#0C311B;}
	.st28{fill:#0E2113;}
	.st29{fill:#122314;}
	.st30{fill:#0E1B0F;}
	.st31{fill:#090E0A;}
</style>
<g>
	<polyline class="st0" points="692.8,523.3 692.3,523.7 692.3,531.2 692.8,531.7 700.3,531.7 700.8,531.2 700.8,523.7 700.3,523.3 
		692.8,523.3 	"/>
	<path class="st0" d="M693.8,540.9l-0.8,0.2V585c0,6.8-3.7,12-10.5,12c-2.6,0-7.6-0.3-10-4l-0.4-0.2l-1.3,0.7l-0.2,0.5
		c2.6,6,7.4,8.6,12.2,8.6c8.4,0,17.6-3.8,17.6-19.4v-43.5l-0.4-0.5L693.8,540.9"/>
	<polyline class="st0" points="607.2,531.7 607.7,531.2 607.7,523.7 607.2,523.3 599.7,523.3 599.2,523.7 599.2,531.2 599.7,531.7 
		607.2,531.7 	"/>
	<polyline class="st0" points="593.3,531.7 593.8,531.2 593.8,523.7 593.3,523.3 585.8,523.3 585.3,523.7 585.3,531.2 585.8,531.7 
		593.3,531.7 	"/>
	<path class="st0" d="M613.9,553.7c0-10.1-7.4-15.7-17.4-15.7c-10,0-17.4,5.5-17.4,15.7v15.6c0,10.1,7.4,15.7,17.4,15.7
		c10,0,17.4-5.5,17.4-15.7V553.7 M606.6,567.8c0,7-3.8,10.7-10.1,10.7c-6.5,0-10.1-3.7-10.1-10.7v-12.6c0-7,3.6-10.6,10.1-10.6
		c6.4,0,10.1,3.6,10.1,10.6V567.8z"/>
	<path class="st0" d="M662,515.3l-0.4,0.1l-0.4,0.4V585c6.7-3.8,7.3-11.7,7.3-11.7v-59.2l-0.6-0.4L662,515.3"/>
	<path class="st0" d="M636.8,540.8l-0.8,0.2V585c0,6.8-3.7,12.1-10.5,12.1c-2.6,0-7.7-0.4-10-4.1l-0.5-0.2l-1.4,0.7l-0.2,0.5
		c2.6,6,7.4,8.6,12.2,8.6c8.4,0,17.6-3.8,17.6-19.4v-43.5l-0.4-0.5L636.8,540.8"/>
	<path class="st0" d="M749.7,539.2l-6,1.6c0,0-5.1-2.8-10.4-2.8c-9.3,0-17.9,5.5-18,15.7v15.4c0,10.5,7.4,15.9,15.4,15.9
		c9.2,0,11.9-5.4,12.6-7.1l-0.5,4v3.1c0,6.8-3.7,12-10.5,12c-2.6,0-7.7-0.3-10-4l-0.5-0.2l-1.3,0.7l-0.2,0.5c2.6,6,7.4,8.6,12.2,8.6
		c8.4,0,17.6-3.8,17.6-19.4v-43.5L749.7,539.2 M742.9,576.4c-1.3,0.7-3.1,2.1-9.1,2.1c-5.4,0-11.2-2.8-11.2-10.6v-12.6
		c0-7,5.3-10.7,10.9-10.7c6.1,0,9.3,3.3,9.3,9.6V576.4z"/>
	<path class="st0" d="M544.1,515.3l-0.4,0.1l-0.4,0.4V585c6.7-3.8,7.3-11.7,7.3-11.7v-59.2l-0.6-0.4L544.1,515.3"/>
	<path class="st0" d="M529,514.1l-0.4-0.4l-6,1.6l-0.4,0.1l-0.4,0.4V575l0.8,2.7h-50.1c-1.3-0.8-2.4-2.2-2.4-3.6v-18.9
		c0-7,3.9-10.7,9.5-10.7c2.9,0,6,0,8.3,0c5.6,0,9.3,1.9,10.3,2.5l0.5-0.3l0.3-1.2c0,0-2-7.6-12-7.6h-7.5c-9.3,0-16.5,5.5-16.5,15.7
		v16.1c0,2.8,0.8,6.2,3.4,7.9H437v-12.2c0-10.2-7.4-15.7-17.4-15.7c-10,0-17.4,5.5-17.4,15.7v12.2h-28.4v-63.6l-0.5-0.5l-6,1.7
		l-0.4,0.1l-0.4,0.4v65.6c0,6.9-2.1,14.5-14.4,14.5c-15.7,0-14.7-13.1-14.7-13.1c0-1.3,0-2.8,0.4-4.7c0.3-1.7,0.9-3.5,1.9-5.3
		l-0.2-0.6l-0.9-0.4l-0.6,0.2c-4.8,5.3-4.7,13.2-4.7,13.2s-1.4,17.5,19,17.5c21.3,0,21.3-17.6,21.3-17.6h29.7
		c2.5,6,8.6,9.2,16.2,9.2c7.6,0,13.7-3.2,16.2-9.2h88.9l6.1-1.4l0.5-0.5l-2.3-8L529,514.1 M429.8,577c0,7-3.8,10.7-10.2,10.7
		c-6.5,0-10.1-3.7-10.1-10.7v-10c0-7,3.6-10.6,10.1-10.6c6.4,0,10.2,3.6,10.2,10.6V577z"/>
	<polyline class="st1" points="393.9,812.1 393.6,812.4 393.6,816.8 393.9,817.1 398.3,817.1 398.5,816.8 398.5,812.4 398.3,812.1 
		393.9,812.1 	"/>
	<polyline class="st1" points="129.7,812.1 129.4,812.4 129.4,816.8 129.7,817.1 134.1,817.1 134.4,816.8 134.4,812.4 134.1,812.1 
		129.7,812.1 	"/>
	<polyline class="st1" points="385.8,812.1 385.5,812.4 385.5,816.8 385.8,817.1 390.2,817.1 390.4,816.8 390.4,812.4 390.2,812.1 
		385.8,812.1 	"/>
	<polyline class="st1" points="137.8,812.1 137.5,812.4 137.5,816.8 137.8,817.1 142.2,817.1 142.4,816.8 142.4,812.4 142.2,812.1 
		137.8,812.1 	"/>
	<polyline class="st1" points="425.1,812.1 424.9,812.4 424.9,816.8 425.1,817.1 429.5,817.1 429.8,816.8 429.8,812.4 429.5,812.1 
		425.1,812.1 	"/>
	<path class="st1" d="M515.8,765.2l-0.3-0.2l-3.5,0.9l-0.2,0.1l-0.2,0.2v34.5l0.5,1.6h-31.1c-0.7-0.5-1.4-1.3-1.4-2.1v-11
		c0-4.1,2.3-6.2,5.6-6.2h4.8c3.3,0,5.4,1.1,6,1.4l0.3-0.1l0.2-0.7c0,0-1.1-4.4-7-4.4h-4.4c-5.4,0-9.6,3.2-9.6,9.1v9.4
		c0,1.7,0.5,3.6,2,4.6h-22.1v-22.2l-0.3-0.2l-3.5,0.9l-0.5,0.1v25.6c0,4-2.1,7-6.1,7c-1.5,0-4.5-0.2-5.8-2.4l-0.3-0.1l-0.8,0.4
		l-0.1,0.3c1.6,3.5,5.4,5,8.2,5c4.7,0,8.8-2.1,9.2-10.3h58.1l3.6-0.9l0.3-0.3l-1.3-4.6L515.8,765.2"/>
	<path class="st1" d="M524.5,765.9l-0.2,0.1l-0.3,0.2v40.3c3.9-2.2,4.2-6.8,4.2-6.8v-34.5L528,765L524.5,765.9"/>
	<path class="st1" d="M435.4,780.1l-0.3-0.2l-3.5,0.9l-0.2,0.1l-0.3,0.3l0,19.6l0.5,1.6h-21.7c-3.1,0-5.7-1.2-5.7-5.7v-16.5
		l-0.3-0.2l-3.5,0.9l-0.2,0.1l-0.3,0.3v15.5c0,4.5-2.6,5.7-5.7,5.7h-15.8c-3.1,0-5.7-1.2-5.7-5.7v-18.5l-0.3-0.3l-3.5,0.9
		c0,0-3-1.6-6.1-1.6c-5.4,0-10.4,3.2-10.5,9.1v9c0,6.1,4.3,9.2,9,9.2c5.3,0,7-3.2,7.4-4.1l0,0c1,4.1,4,6.2,7.7,6.2H396
		c2.4,0,4.5-0.9,6-2.6c1.4,1.7,3.6,2.6,6,2.6h24.8l3.6-0.9l0.3-0.3l-1.3-4.6V780.1 M368.5,799.4c-0.8,0.4-1.8,1.2-5.3,1.2
		c-3.1,0-6.5-1.6-6.5-6.2v-7.3c0-4.1,3.1-6.2,6.4-6.2c3.5,0,5.4,1.9,5.4,5.6V799.4z"/>
	<polyline class="st1" points="370.4,772.3 370.7,772 370.7,767.7 370.4,767.4 366,767.4 365.8,767.7 365.8,772 366,772.3 
		370.4,772.3 	"/>
	<polyline class="st1" points="362.3,772.3 362.6,772 362.6,767.7 362.3,767.4 357.9,767.4 357.7,767.7 357.7,772 357.9,772.3 
		362.3,772.3 	"/>
	<polyline class="st1" points="109.6,772.3 109.9,772 109.9,767.7 109.6,767.4 105.2,767.4 105,767.7 105,772 105.2,772.3 
		109.6,772.3 	"/>
	<polyline class="st1" points="117.7,772.3 118,772 118,767.7 117.7,767.4 113.3,767.4 113.1,767.7 113.1,772 113.3,772.3 
		117.7,772.3 	"/>
	<path class="st1" d="M320.7,765.2l-0.3-0.2l-3.5,0.9l-0.2,0.1l-0.3,0.2v34.5l0.4,1.6h-11.4c-2.9,0-5.8-0.6-7-1
		c0.4-1.1,0.6-2.4,0.6-3.9v-14.2h-0.1l-0.4-0.3l-3.4,0.9l-0.2,0.1l-0.1,0.1v12.5c0,4.5-2.6,6.1-5.6,6.1c-1.2,0-4.3-0.8-5.5-1.2
		c0.3-1.1,0.6-2.3,0.6-3.7v-14.7l-0.3-0.3l-3.4,0.9l-0.2,0.1l-0.2,0.2h0v12.4c0,4.5-2.1,6.2-5.1,6.2c-1.1,0-4.4-0.9-5.4-1.2v-18.3
		l-0.4-0.3l-3.4,0.9l-0.2,0.1l-0.2,0.2v16.2l-0.5,1.9H235c-0.8-0.5-1.4-1.3-1.4-2.1v-11c0-4.1,2.3-6.2,5.6-6.2h4.8
		c3.3,0,5.4,1.1,6,1.4l0.3-0.1l0.1-0.7c0,0-1.2-4.4-7-4.4H239c-5.5,0-9.6,3.2-9.6,9.1v9.4c0,1.6,0.5,3.6,2,4.6h-17.5
		c-1.9,0-2.6-0.3-3.1-0.8v-21.4l-0.2-0.2l-3.5,0.9c0,0-3-1.7-6.1-1.7c-5.4,0-10.4,3.2-10.5,9.1v9c0,6.1,4.4,9.3,9,9.3
		c5.3,0,6.9-3.2,7.3-4.1l-0.3,2.3v1.8c0,4-2.1,7-6.2,7c-1.5,0-4.5-0.2-5.8-2.4l-0.3-0.1l-0.8,0.4l-0.1,0.3c1.5,3.5,5.4,5,8.2,5
		c4.8,0,9-2.2,9.2-10.9c1,0.4,2.3,0.7,3.7,0.7h53l0.3-0.2l1.5-4.1c0.2,0.7,1.7,4.3,7.4,4.3c3,0,5.3-1.3,6.5-3.9
		c0.6,1.1,2.6,3.9,7.7,3.9c3,0,5.5-1.4,6.9-3.9c0.8,1.4,2.9,3.9,7.3,3.9h13l3.6-0.9l0.3-0.3l-1.3-4.6V765.2 M206.6,801.5
		c-0.8,0.4-1.8,1.2-5.3,1.2c-3.1,0-6.5-1.7-6.5-6.2v-7.4c0-4.1,3.1-6.2,6.4-6.2c3.5,0,5.4,1.9,5.4,5.6V801.5z"/>
	<path class="st1" d="M148.5,780.1l-0.3-0.2l-3.5,0.9l-0.2,0.1l-0.3,0.3v19.6l0.4,1.6h-19c-3.1,0-5.7-1.2-5.7-5.7v-18.5l-0.3-0.3
		l-3.5,0.9c0,0-3-1.6-6.1-1.6c-5.4,0-10.4,3.2-10.4,9.1v9c0,6.1,4.3,9.2,9,9.2c5.3,0,7-3.2,7.5-4.1v0c1,4.1,4,6.2,7.7,6.2h22
		l3.6-0.9l0.2-0.3l-1.3-4.6L148.5,780.1 M115.8,788.3v11.2c-0.7,0.4-1.8,1.2-5.3,1.2c-3.1,0-6.5-1.6-6.5-6.2v-7.4
		c0-4.1,3.1-6.2,6.4-6.2c3.5,0,5.4,1.9,5.4,5.6V788.3z"/>
	<path class="st1" d="M181.1,788.3c0-5.9-4.2-9.1-9.6-9.1h-4.4c-5.9,0-7,4.4-7,4.4l0.2,0.7l0.3,0.1c0.6-0.4,2.8-1.4,6-1.4h4.8
		c3.3,0,5.5,2.2,5.5,6.2v11.5l0.5,1.6h-13.9c-3.5,0-6.9-0.8-7.6-1.2l-0.4,0.8c0.4,0.9,2.3,4.5,7.5,4.6v0h15.6l3.6-0.9l0.3-0.3
		l-1.3-4.6V788.3"/>
	<path class="st1" d="M329.4,765.9l-0.2,0.1l-0.3,0.2v40.3c3.9-2.2,4.2-6.8,4.2-6.8v-34.5l-0.4-0.2L329.4,765.9"/>
	<polyline class="st1" points="557.5,772.3 557.7,772 557.7,767.7 557.5,767.4 553.1,767.4 552.8,767.7 552.8,772 553.1,772.3 
		557.5,772.3 	"/>
	<polyline class="st1" points="565.6,772.3 565.9,772 565.9,767.7 565.6,767.4 561.2,767.4 560.9,767.7 560.9,772 561.2,772.3 
		565.6,772.3 	"/>
	<path class="st1" d="M749.7,765l-3.4,0.9l-0.2,0.1l-0.3,0.2v40.3c3.9-2.2,4.2-6.8,4.2-6.8v-34.5L749.7,765"/>
	<path class="st1" d="M737.5,765.2l-0.3-0.2l-3.5,0.9l-0.2,0.1l-0.2,0.2v34.5l0.4,1.6h-16.2v-7.1c0-5.9-4.3-9.2-10.1-9.2
		c-5.8,0-10.1,3.2-10.1,9.2v7.1h-16.1v-7.1c0-5.9-4.3-9.2-10.1-9.2c-5.8,0-10.1,3.2-10.1,9.2v7.1h-11.1c-3.1,0-5.7-1.2-5.7-5.8
		l0-31.3l-0.2-0.2l-3.5,0.9l-0.2,0.1l-0.3,0.2v30.3c0,4.5-2.6,5.8-5.7,5.8h-15c1.5-1,2-2.9,2-4.6v-5.9c0-5.9-4.2-9.1-9.6-9.1h-19.6
		c-3.4,0-4.9-1.6-4.9-5.2v-2.3c0.1-3.4,1.6-4.9,4.9-4.9l2.9,0c3.3,0,5.4,1.1,6,1.4l0.3-0.1l0.1-0.7c0,0-1.2-4.4-7-4.4h-2.3
		c-5.2,0-9.1,2.9-9.1,8.2v3.6c0,5.3,3.9,8.2,9.1,8.2h19.4c3.3,0,5.5,2.2,5.5,6.2v7.5c0,0.8-0.7,1.6-1.4,2.1h-41.9
		c-3.1,0-5.7-1.2-5.7-5.8v-7.3h0v-11.1l-0.3-0.3l-3.5,1c0,0-2.9-1.6-6.1-1.6c-5.4,0-10.4,3.2-10.5,9.1v9c0,6.1,4.4,9.2,9,9.2
		c5.3,0,7-3.2,7.4-4.1l0,0c1,4,4,6.1,7.7,6.1h64.1c2.5,0,4.6-0.9,6-2.6c1.5,1.7,3.6,2.6,6,2.6h13.6c1.4,3.5,5,5.4,9.4,5.4
		c4.4,0,8-1.9,9.4-5.4H698c1.4,3.5,5,5.4,9.4,5.4s8-1.9,9.4-5.4H735l3.6-0.8l0.3-0.3l-1.3-4.6V765.2 M563.7,788.3v11.2
		c-0.7,0.4-1.8,1.2-5.3,1.2c-3.1,0-6.5-1.6-6.5-6.2v-7.4c0-4.1,3.1-6.2,6.4-6.2c3.5,0,5.4,1.9,5.4,5.6V788.3z M676.9,801.9
		c0,4.1-2.2,6.2-5.9,6.2c-3.8,0-5.9-2.2-5.9-6.2v-5.8c0-4.1,2.1-6.2,5.9-6.2c3.7,0,5.9,2.1,5.9,6.2V801.9z M713.3,801.9
		c0,4.1-2.2,6.2-5.9,6.2c-3.8,0-5.9-2.2-5.9-6.2v-5.8c0-4.1,2.1-6.2,5.9-6.2c3.7,0,5.9,2.1,5.9,6.2V801.9z"/>
	<path class="st0" d="M749.7,666.3l-6,1.6c0,0-5.1-2.8-10.4-2.8c-9.3,0-17.9,5.5-18,15.7v15.4c0,10.5,7.4,15.9,15.4,15.9
		c9.2,0,11.9-5.4,12.6-7.1l-0.5,4v3.1c0,6.8-3.7,12-10.5,12c-2.6,0-7.7-0.3-10-4l-0.5-0.2l-1.3,0.7l-0.2,0.5c2.6,6,7.4,8.6,12.2,8.6
		c8.4,0,17.6-3.8,17.6-19.4v-43.5L749.7,666.3 M742.9,703.5c-1.3,0.7-3.1,2.1-9.1,2.1c-5.4,0-11.2-2.8-11.2-10.6v-12.6
		c0-7,5.3-10.7,10.9-10.7c6.1,0,9.3,3.3,9.3,9.6V703.5z"/>
	<polyline class="st0" points="126.5,654 127,653.6 127,646.1 126.5,645.7 119.1,645.7 118.6,646.1 118.6,653.6 119.1,654 
		126.5,654 	"/>
	<polyline class="st0" points="113.7,654 114.1,653.6 114.1,646.1 113.7,645.7 106.2,645.7 105.8,646.1 105.8,653.6 106.2,654 
		113.7,654 	"/>
	<path class="st0" d="M215.1,700.7c-1,0.3-2,0.6-3.1,0.8c-1,0.3-1.8,0.4-2.4,0.4h-10.3c-3.2,0-5.7-0.9-7.5-2.7
		c-1.7-1.8-2.6-4.4-2.6-7.9v-11.4c0-3.5,0.9-6.1,2.6-7.9c1.7-1.8,4.2-2.7,7.5-2.7c3.1,0,5.5,0.9,7.3,2.6c1.7,1.7,2.7,4.2,2.8,7.5
		l0.4,0.5h6.4l0.4-0.5v-1c0-2.5-0.4-4.8-1.3-6.7c-0.9-1.9-2.1-3.6-3.6-4.9c-1.5-1.3-3.4-2.3-5.5-3c-2.1-0.7-4.4-1-6.9-1
		c-2.5,0-4.8,0.3-6.9,1c-2.1,0.7-4,1.7-5.5,3c-1.5,1.3-2.7,2.9-3.6,4.9c-0.9,1.9-1.3,4.2-1.3,6.7v14.4c0,3.6,0.9,6.6,2.7,9.1h-23.6
		v-38l-0.4-0.4l-6.3,0.9L154,665v37h-21.1v-37.4l-0.4-0.5l-5.9,1.6c-1-0.5-2.1-0.9-3.1-1.3c-1-0.4-2.1-0.7-3.3-1
		c-1.3-0.3-2.6-0.4-3.9-0.4c-2.3,0-4.5,0.3-6.5,1c-2,0.7-3.7,1.7-5.2,3s-2.6,2.9-3.5,4.9c-0.8,1.9-1.3,4.2-1.3,6.7v15.3
		c0,5.2,1.3,9.1,4,11.8c2.6,2.6,5.9,4,9.9,4c2.3,0,4.2-0.3,5.7-0.8c1.5-0.6,2.8-1.3,3.7-2c0.9-0.8,1.6-1.6,2.1-2.3
		c0.5-0.8,0.8-1.4,1-1.8l-0.4,4.8v2H207c2,0,3.7-0.2,5.1-0.7c1.4-0.5,2.6-1.1,3.6-1.8c1-0.7,1.7-1.5,2.2-2.4c0.5-0.9,1-2.5,1.3-3.4
		l-0.4-1.5C217.5,699.9,216.2,700.3,215.1,700.7 M125.7,701c-0.4,0.1-1,0.3-1.8,0.5c-0.8,0.2-1.7,0.5-2.6,0.7
		c-0.9,0.2-1.8,0.4-2.6,0.6c-0.8,0.2-1.5,0.3-2,0.3c-1.3,0-2.6-0.2-3.7-0.5c-1.2-0.4-2.2-1-3.1-1.8c-0.9-0.8-1.6-1.9-2.1-3.3
		c-0.5-1.4-0.8-3-0.8-4.9V680c0-3.5,0.9-6.1,2.6-7.9c1.7-1.8,4-2.7,6.8-2.7c6.2,0,9.3,3.2,9.3,9.5V701z"/>
	<polyline class="st0" points="309.4,653.9 309.9,653.5 309.9,646 309.4,645.6 302,645.6 301.5,646 301.5,653.5 302,653.9 
		309.4,653.9 	"/>
	<polyline class="st0" points="322.3,653.9 322.7,653.5 322.7,646 322.3,645.6 314.8,645.6 314.4,646 314.4,653.5 314.8,653.9 
		322.3,653.9 	"/>
	<polyline class="st0" points="349.1,720.7 348.7,721.2 348.7,728.6 349.1,729.1 356.6,729.1 357,728.6 357,721.2 356.6,720.7 
		349.1,720.7 	"/>
	<path class="st0" d="M372.3,697.3v-18.7c0-2.5-0.4-4.8-1.3-6.7c-0.9-1.9-2.1-3.6-3.6-4.9c-1.5-1.3-3.4-2.3-5.5-3
		c-2.1-0.7-4.4-1-6.9-1h-6.6c-2,0-3.8,0.2-5.2,0.7c-1.4,0.5-2.7,1.1-3.6,1.8c-1,0.7-1.8,1.5-2.4,2.4c-0.6,0.9-1,1.7-1.3,2.6l0.4,1.5
		c1.3-0.5,2.5-0.9,3.7-1.3c1-0.3,2-0.6,3-0.9c1-0.3,1.8-0.4,2.5-0.4h9.6c3.2,0,5.7,0.9,7.5,2.6c1.7,1.8,2.6,4.4,2.6,7.9v21.7
		l0.1,0.4h-6.7v0h-42.8v-38l-0.4-0.4l-6.3,0.9l-0.4,0.5V702h-20.2v-12.2c0-10.2-7.4-15.7-17.4-15.7c-10,0-17.4,5.5-17.4,15.7V702
		h-11.4c-3,0-4.5-0.9-6.2-2.7c-1.8-1.8-2.7-4.4-2.7-7.9v-53.1l-0.4-0.4l-6.3,0.9l-0.4,0.5v54.3c0,2.5,0.4,4.8,1.3,6.7
		c0.9,1.9,2.1,3.6,3.6,4.8c1.5,1.3,3.3,2.3,5.5,3c2.1,0.7,3.4,1,5.9,1h12.4c2.5,6,8.6,9.2,16.2,9.2c7.6,0,13.7-3.2,16.2-9.2h81.6
		l5.4-0.8l0.4-0.5l-2.2-7.9V697.3 M281.1,701.3c0,7-3.8,10.7-10.2,10.7c-6.5,0-10.1-3.7-10.1-10.7v-10c0-7,3.6-10.6,10.1-10.6
		c6.4,0,10.2,3.6,10.2,10.6V701.3z"/>
	<path class="st0" d="M419.4,638.9l-0.5,0.5v51.9c0,3.5-0.9,6.1-2.7,7.9c-1.8,1.8-4.2,2.7-7.4,2.7h-3.1l-0.8-2.8v-60.8l-0.4-0.4
		l-6.3,0.9l-0.4,0.5v62.2l0.2,0.4h-6.9c-0.7,0-1.5-0.1-2.5-0.4c-1-0.3-2-0.6-3-0.8c-1.1-0.4-2.4-0.8-3.7-1.3l-0.4,1.5
		c0.2,0.8,0.6,2.5,1.2,3.3c0.6,0.8,1.3,1.6,2.3,2.3c1,0.7,2.2,1.3,3.6,1.8c1.4,0.5,3.1,0.8,5,0.8h15.2c2.5,0,4.8-0.3,6.9-1
		c2.1-0.7,4-1.7,5.5-3c1.5-1.3,2.7-2.9,3.6-4.8c0.9-1.9,1.3-4.2,1.3-6.7v-55.3l-0.4-0.4L419.4,638.9"/>
	<polyline class="st0" points="440.9,638.9 440.4,639.4 440.4,708 440.8,708.4 447.2,708.4 447.6,708 447.6,638.3 447.2,638 
		440.9,638.9 	"/>
	<polyline class="st0" points="490,654 490.4,653.6 490.4,646.1 490,645.7 482.5,645.7 482.1,646.1 482.1,653.6 482.5,654 490,654 	
		"/>
	<polyline class="st0" points="502.9,654 503.3,653.6 503.3,646.1 502.9,645.7 495.4,645.7 494.9,646.1 494.9,653.6 495.4,654 
		502.9,654 	"/>
	<polyline class="st0" points="523.7,720.7 523.3,721.2 523.3,728.6 523.7,729.1 531.2,729.1 531.7,728.6 531.7,721.2 531.2,720.7 
		523.7,720.7 	"/>
	<polyline class="st0" points="536.6,720.7 536.2,721.2 536.2,728.6 536.6,729.1 544.1,729.1 544.5,728.6 544.5,721.2 544.1,720.7 
		536.6,720.7 	"/>
	<polyline class="st0" points="147.5,720.7 147,721.2 147,728.6 147.5,729.1 154.9,729.1 155.4,728.6 155.4,721.2 154.9,720.7 
		147.5,720.7 	"/>
	<polyline class="st0" points="160.3,720.7 159.9,721.2 159.9,728.6 160.3,729.1 167.8,729.1 168.2,728.6 168.2,721.2 167.8,720.7 
		160.3,720.7 	"/>
	<polyline class="st0" points="622,654 622.5,653.6 622.5,646.1 622,645.7 614.5,645.7 614.1,646.1 614.1,653.6 614.5,654 622,654 	
		"/>
	<polyline class="st0" points="644,653.9 644.4,653.5 644.4,646 644,645.6 636.5,645.6 636.1,646 636.1,653.5 636.5,653.9 
		644,653.9 	"/>
	<polyline class="st0" points="656.8,653.9 657.3,653.5 657.3,646 656.8,645.6 649.4,645.6 648.9,646 648.9,653.5 649.4,653.9 
		656.8,653.9 	"/>
	<path class="st0" d="M693.7,639.6l-0.4,0.1l-0.4,0.4v69.2c6.7-3.8,7.3-11.7,7.3-11.7v-59.2l-0.6-0.4L693.7,639.6"/>
	<path class="st0" d="M678.6,638.4l-0.4-0.4l-6,1.6l-0.4,0.1l-0.4,0.4v59.2l0.8,2.7h-21.9V664l-0.4-0.4l-6.3,0.9l-0.5,0.5v37h-21.2
		V664l-0.5-0.4l-6.3,0.9l-0.4,0.5v37h-7.9v0h-13.4v-12.2c0-10.2-7.4-15.7-17.4-15.7c-10,0-17.4,5.5-17.4,15.7V702h-21.1v-38
		l-0.5-0.4l-6.3,0.9l-0.4,0.5v37h-21.1v-37.4l-0.5-0.4l-5.9,1.6c-1-0.5-2.1-0.9-3.1-1.3c-1-0.4-2.1-0.7-3.3-1
		c-1.3-0.3-2.5-0.4-3.9-0.4c-2.3,0-4.5,0.3-6.5,1c-2,0.7-3.7,1.7-5.2,3c-1.5,1.3-2.6,2.9-3.5,4.9c-0.8,1.9-1.3,4.2-1.3,6.7v15.3
		c0,5.2,1.3,9.1,4,11.8c2.6,2.6,5.9,4,9.9,4c2.3,0,4.2-0.3,5.7-0.9c1.5-0.6,2.8-1.2,3.7-2c0.9-0.8,1.6-1.6,2.1-2.3
		c0.5-0.7,0.8-1.3,1-1.7l-0.4,3.9v2.8h57.8c2.5,6,8.6,9.2,16.2,9.2c7.6,0,13.7-3.2,16.2-9.2h82.1l6.2-1.4l0.5-0.5l-2.3-8
		L678.6,638.4 M502.1,701c-0.4,0.1-1,0.3-1.8,0.5c-0.8,0.2-1.7,0.5-2.6,0.7c-0.9,0.2-1.8,0.4-2.6,0.6c-0.8,0.2-1.5,0.3-2,0.3
		c-1.3,0-2.6-0.2-3.7-0.5c-1.2-0.4-2.2-1-3.1-1.8c-0.9-0.8-1.6-1.9-2.1-3.3c-0.5-1.4-0.8-3-0.8-4.9V680c0-3.5,0.9-6.1,2.6-7.9
		c1.7-1.8,4-2.7,6.8-2.7c6.2,0,9.3,3.2,9.3,9.5V701z M586.2,701.3c0,7-3.8,10.7-10.2,10.7c-6.5,0-10.1-3.7-10.1-10.7v-10
		c0-7,3.6-10.6,10.1-10.6c6.4,0,10.2,3.6,10.2,10.6V701.3z"/>
	<path class="st2" d="M833.6,282.9c22.8,1.8,44.2,4,64.1,5.7c-18.7-17-46.3-31.3-76.8-40.5c-7.8,2.9-15.7,6.1-23.7,9.5
		C810.4,265,822.6,273.6,833.6,282.9"/>
	<path class="st2" d="M678.8,248.1c-30.5,9.2-58,23.5-76.8,40.5c19.7-1.7,40.9-3.6,63.4-5.2c11.2-9.6,23.6-18.3,37.1-25.9
		C694.4,254.2,686.5,251.1,678.8,248.1"/>
	<path class="st3" d="M713.3,229.2c-29-4.1-56.2-2.2-78.7,4.5c14.3,4,29.1,8.8,44.1,14.5c13.7-4.1,28-7.2,42.4-9
		C718.6,235.7,716,232.4,713.3,229.2"/>
	<path class="st3" d="M811.8,301.9c3.7,6.4,7.1,12.9,10.2,19.5c28.7,19.3,54.6,40,78.1,60.5c-9.1-32.8-32-69.7-66.5-99
		c-11.7-0.9-23.6-1.8-35.9-2.3C802.7,287.3,807.4,294.4,811.8,301.9"/>
	<path class="st1" d="M820.9,248.1c15.1-5.7,29.8-10.6,44.1-14.5c-22.4-6.7-49.7-8.5-78.7-4.5c-2.6,3.2-5.2,6.6-7.8,10
		C792.8,240.9,807.1,244,820.9,248.1"/>
	<path class="st1" d="M701.4,281.3c-12.3,0.6-24.4,1.4-36.1,2.2c-34.1,29.2-56.8,65.8-65.8,98.4c23.5-20.6,49.4-41.3,78.1-60.5
		c3-6.6,6.4-13,10.2-19.5C692,294.7,696.6,287.8,701.4,281.3"/>
	<path class="st4" d="M773.3,291.8c-0.8-0.4-1.6-0.9-2.4-1.3c0.7,8.1,1.2,16.2,1.5,24.5c25.1,40.5,58.6,109.5,69.5,150.2
		c6.2-40,3.5-93.6-19.9-144C806.6,311,790.4,301.1,773.3,291.8"/>
	<path class="st4" d="M738.2,225.5c0-0.2,0.2-0.8,0.3-1.3v0v0c-18.6-12.5-37.6-21.5-54.9-26.4c9.9,8.6,19.9,19.4,29.7,31.5
		c7.6,1.1,15.4,2.6,23.2,4.5C737.1,230.9,737.6,228.2,738.2,225.5"/>
	<path class="st4" d="M761.1,224.1c0.2,0.5,0.3,1,0.3,1.3v0c0.6,2.7,1.2,5.5,1.7,8.2c7.8-1.9,15.6-3.4,23.2-4.5
		c9.8-12.1,19.9-22.9,29.8-31.5C798.7,202.6,779.7,211.6,761.1,224.1L761.1,224.1L761.1,224.1"/>
	<path class="st4" d="M726.3,291.8c-17.1,9.3-33.3,19.2-48.7,29.5c-23.4,50.3-26,104-19.9,144c10.9-40.7,44.4-109.8,69.5-150.3
		c0.3-8.3,0.8-16.5,1.5-24.5C728,291,727.2,291.4,726.3,291.8"/>
	<path class="st0" d="M761.1,224.1c-3.2-14.7-7-28.5-11.3-41.1c-4.3,12.7-8.1,26.5-11.3,41.2c3.8,2.5,7.6,5.2,11.3,8.1
		C753.6,229.3,757.4,226.6,761.1,224.1"/>
	<path class="st0" d="M749.8,279.7c-7.9,11.9-15.4,23.9-22.3,35.1l-0.2,0.2v0c-0.4,7.9-0.6,16-0.6,24.1c0,59.5,8.7,113.9,23.1,156.2
		c14.4-42.3,23.1-96.7,23.1-156.2c0-8.1-0.2-16.1-0.5-23.9l-0.1-0.1l-0.2-0.3C765.2,303.6,757.7,291.6,749.8,279.7"/>
	<path class="st5" d="M705.6,255.9c6.9-3.7,13.8-7,20.7-10c-1.7-2.3-3.4-4.5-5.1-6.8c-14.4,1.8-28.7,4.9-42.4,9
		c7.8,2.9,15.7,6.1,23.7,9.5C703.5,257.1,704.5,256.4,705.6,255.9"/>
	<path class="st5" d="M783.8,263.5c4.8,5.4,9.5,11.1,13.9,17.1c12.3,0.6,24.3,1.4,35.9,2.3c-11-9.4-23.2-17.9-36.4-25.3
		C792.7,259.5,788.2,261.5,783.8,263.5"/>
	<path class="st6" d="M773.4,245.9c6.9,3,13.8,6.3,20.7,10c1,0.6,2,1.2,3.1,1.8c8-3.4,15.9-6.5,23.7-9.5c-13.7-4.1-28-7.2-42.4-9
		C776.7,241.4,775,243.6,773.4,245.9"/>
	<path class="st6" d="M715.9,263.5c-4.5-2-8.9-4-13.4-5.8c-13.5,7.5-25.9,16.3-37.1,25.9c11.7-0.8,23.7-1.6,36.1-2.2
		C706,275,710.8,269.1,715.9,263.5"/>
	<path class="st7" d="M729.2,249.8c-1-1.3-1.9-2.6-2.9-3.9c-6.9,3-13.8,6.3-20.7,10c-1,0.6-2,1.2-3.1,1.8c4.4,1.9,8.9,3.8,13.4,5.8
		C720.1,258.7,724.6,254.1,729.2,249.8"/>
	<path class="st7" d="M783.8,263.5c4.5-2,8.9-4,13.4-5.8c-1-0.6-2-1.2-3.1-1.8c-6.9-3.7-13.8-7-20.7-10c-1,1.3-1.9,2.6-2.9,3.9
		C775,254.1,779.5,258.7,783.8,263.5"/>
	<path class="st8" d="M735.8,237.8c0.2-1.4,0.5-2.7,0.8-4.1c-7.8-1.9-15.6-3.4-23.2-4.5c2.7,3.2,5.2,6.6,7.9,10
		C726,238.5,730.9,238.1,735.8,237.8"/>
	<path class="st8" d="M797.7,280.6c-9.1-0.4-18.4-0.8-27.8-0.9c0.3,3.6,0.7,7.2,1,10.9c0.8,0.4,1.6,0.9,2.4,1.3
		c17.1,9.3,33.3,19.2,48.7,29.5c-3-6.6-6.4-13.1-10.2-19.5C807.5,294.4,802.7,287.3,797.7,280.6"/>
	<path class="st9" d="M769.9,279.7c9.4,0.1,18.7,0.5,27.8,0.9c-4.4-6-9.1-11.7-13.9-17.1c-4.9,2.2-9.9,4.5-14.9,6.9
		C769.2,273.4,769.6,276.5,769.9,279.7"/>
	<path class="st9" d="M735.8,237.8c-4.9,0.3-9.7,0.8-14.6,1.4c1.7,2.2,3.4,4.5,5.1,6.8c2.9-1.2,5.7-2.3,8.6-3.4
		C735.2,240.9,735.4,239.3,735.8,237.8"/>
	<path class="st10" d="M734.5,244.9c0.1-0.8,0.3-1.6,0.4-2.4c-2.9,1.1-5.7,2.2-8.6,3.4c1,1.3,1.9,2.6,2.9,3.9
		C730.9,248.1,732.7,246.5,734.5,244.9"/>
	<path class="st10" d="M770.5,249.8c-1.2,1.7-2.5,3.4-3.7,5.1c0.8,5.1,1.5,10.2,2.1,15.4c5-2.4,10-4.7,14.9-6.9
		C779.5,258.7,775,254.1,770.5,249.8"/>
	<path class="st11" d="M728.8,290.5c0.3-3.5,0.6-7,1-10.4c-9.6,0.3-19,0.7-28.3,1.2c-4.8,6.6-9.4,13.4-13.6,20.6
		c-3.8,6.4-7.1,12.9-10.2,19.5c15.4-10.3,31.6-20.2,48.7-29.5C727.2,291.4,728,291,728.8,290.5"/>
	<path class="st11" d="M763.9,237.8c4.9,0.3,9.7,0.8,14.5,1.4c2.6-3.4,5.2-6.7,7.8-10c-7.6,1.1-15.3,2.6-23.2,4.5
		C763.4,235,763.6,236.4,763.9,237.8"/>
	<path class="st12" d="M715.9,263.5c-5.1,5.6-9.9,11.6-14.5,17.8c9.3-0.5,18.7-0.9,28.3-1.2c0.3-3.3,0.7-6.5,1.1-9.8
		C725.8,268,720.8,265.7,715.9,263.5"/>
	<path class="st12" d="M773.4,245.9c1.7-2.3,3.4-4.5,5.1-6.8c-4.9-0.6-9.7-1.1-14.5-1.4c0.3,1.6,0.6,3.1,0.8,4.7
		C767.6,243.6,770.5,244.7,773.4,245.9"/>
	<path class="st13" d="M765.2,244.9c1.8,1.6,3.6,3.2,5.3,4.9c1-1.3,1.9-2.6,2.9-3.9c-2.9-1.2-5.8-2.3-8.6-3.4
		C764.9,243.3,765,244.1,765.2,244.9"/>
	<path class="st13" d="M732.9,255c-1.2-1.7-2.5-3.5-3.7-5.2c-4.6,4.3-9,8.9-13.3,13.7c4.9,2.2,9.9,4.5,15,6.9
		C731.4,265.2,732.1,260,732.9,255"/>
	<path class="st14" d="M770.5,249.8c-1.7-1.7-3.5-3.3-5.3-4.9c0.6,3.3,1.1,6.6,1.6,10C768,253.2,769.2,251.5,770.5,249.8"/>
	<path class="st14" d="M729.2,249.8c1.2,1.7,2.5,3.4,3.7,5.2c0.5-3.4,1-6.8,1.6-10.1C732.7,246.5,730.9,248.1,729.2,249.8"/>
	<path class="st15" d="M738.5,224.1c-0.2,0.6-0.3,1.1-0.3,1.3c-0.6,2.7-1.1,5.5-1.7,8.2c2.8,0.7,5.7,1.5,8.5,2.3
		c1.6-1.3,3.2-2.5,4.7-3.7C746,229.3,742.3,226.6,738.5,224.1L738.5,224.1L738.5,224.1"/>
	<path class="st15" d="M749.9,279.7L749.9,279.7L749.9,279.7c7.8,12,15.3,23.9,22.3,35.1l0.2,0.3c-0.3-8.3-0.8-16.5-1.5-24.5
		C763.8,286.8,756.8,283.2,749.9,279.7"/>
	<path class="st16" d="M745,235.9c-2.8-0.8-5.7-1.6-8.5-2.3c-0.3,1.4-0.5,2.7-0.8,4.1c2.5-0.2,4.9-0.3,7.4-0.3
		C743.8,236.9,744.4,236.4,745,235.9"/>
	<path class="st16" d="M749.9,279.7c6.9,3.5,13.9,7.1,21,10.9c-0.3-3.7-0.6-7.3-1-10.9C763.3,279.6,756.6,279.6,749.9,279.7"/>
	<path class="st17" d="M738.9,241c1.4-1.2,2.9-2.4,4.3-3.5c-2.5,0.1-4.9,0.2-7.4,0.3c-0.3,1.6-0.6,3.1-0.9,4.7
		C736.2,242,737.6,241.4,738.9,241"/>
	<path class="st18" d="M769.9,279.7c-0.3-3.1-0.7-6.2-1-9.3c-6.3,3-12.6,6-19,9.3l0,0.1h0C756.6,279.6,763.3,279.6,769.9,279.7"/>
	<path class="st19" d="M734.9,242.5c-0.2,0.8-0.3,1.6-0.4,2.4c1.5-1.3,2.9-2.7,4.4-3.9C737.6,241.4,736.2,242,734.9,242.5"/>
	<path class="st20" d="M749.9,279.6c6.4-3.2,12.7-6.3,19-9.3c-0.6-5.2-1.3-10.4-2.1-15.4C761,263,755.3,271.3,749.9,279.6"/>
	<path class="st15" d="M749.8,279.7L749.8,279.7L749.8,279.7c-7,3.5-14,7.1-21,10.8c-0.7,8-1.2,16.2-1.5,24.5l0.2-0.2
		C734.4,303.6,741.9,291.6,749.8,279.7"/>
	<path class="st15" d="M754.6,235.9c2.9-0.8,5.7-1.6,8.5-2.3c-0.5-2.8-1.1-5.5-1.7-8.2v0c-0.1-0.3-0.2-0.8-0.3-1.3l0,0v0
		c-3.8,2.6-7.5,5.2-11.3,8.1C751.4,233.4,753,234.6,754.6,235.9"/>
	<path class="st21" d="M728.8,290.5c7.1-3.8,14-7.4,21-10.9c-6.7,0.1-13.4,0.3-20,0.5C729.4,283.6,729.1,287,728.8,290.5"/>
	<path class="st21" d="M763.9,237.8c-0.3-1.4-0.5-2.8-0.8-4.1c-2.8,0.7-5.7,1.4-8.5,2.3c0.6,0.5,1.2,1,1.9,1.5
		C758.9,237.5,761.4,237.6,763.9,237.8"/>
	<path class="st22" d="M760.7,241c1.3,0.5,2.7,1,4.1,1.5c-0.3-1.6-0.6-3.1-0.9-4.7c-2.5-0.2-5-0.3-7.5-0.4
		C757.9,238.6,759.3,239.7,760.7,241"/>
	<path class="st23" d="M749.8,279.6c-6.4-3.2-12.7-6.3-18.9-9.2c-0.4,3.2-0.8,6.5-1.1,9.8C736.3,279.9,743,279.8,749.8,279.6
		L749.8,279.6L749.8,279.6"/>
	<path class="st24" d="M730.8,270.4c6.3,3,12.6,6,18.9,9.2c-5.5-8.3-11.1-16.6-16.9-24.6C732.1,260,731.4,265.2,730.8,270.4"/>
	<path class="st25" d="M764.8,242.5c-1.3-0.5-2.7-1-4.1-1.5c1.5,1.3,3,2.6,4.5,4C765,244.1,764.9,243.3,764.8,242.5"/>
	<path class="st26" d="M749.8,237.3h0.2c1.5-0.5,3.1-0.9,4.6-1.3c-1.6-1.3-3.2-2.5-4.8-3.7c-1.6,1.2-3.2,2.5-4.7,3.7
		c1.5,0.4,3.1,0.9,4.6,1.3H749.8"/>
	<path class="st27" d="M749.7,237.3c-1.5-0.5-3.1-0.9-4.6-1.3c-0.7,0.5-1.3,1-1.9,1.5C745.4,237.4,747.5,237.3,749.7,237.3"/>
	<path class="st28" d="M749.7,237.3c-2.2,0-4.3,0.1-6.5,0.2c-1.4,1.2-2.9,2.3-4.3,3.5c3.7-1.3,7.3-2.5,10.9-3.7L749.7,237.3"/>
	<path class="st29" d="M756.4,237.4c-0.6-0.5-1.2-1-1.9-1.5c-1.5,0.4-3.1,0.9-4.6,1.3C752.1,237.3,754.3,237.4,756.4,237.4"/>
	<path class="st30" d="M760.7,241c-1.4-1.2-2.8-2.4-4.3-3.5c-2.2-0.1-4.3-0.2-6.5-0.2l-0.2,0C753.5,238.4,757.1,239.6,760.7,241"/>
	<path class="st31" d="M765.2,244.9c-1.5-1.3-3-2.7-4.5-4c-3.6-1.3-7.2-2.6-10.9-3.7c-3.6,1.1-7.3,2.4-10.9,3.7
		c-1.5,1.3-2.9,2.6-4.4,3.9c-0.6,3.3-1.1,6.7-1.6,10.1c5.8,8.1,11.4,16.4,16.9,24.6l0,0l0.1,0c5.5-8.3,11.1-16.6,16.9-24.7
		C766.3,251.6,765.8,248.2,765.2,244.9"/>
</g>
</svg>
