<?xml version="1.0" encoding="utf-8"?>
<!-- Generator: Adobe Illustrator 22.0.1, SVG Export Plug-In . SVG Version: 6.00 Build 0)  -->
<svg version="1.1" id="Layer_1" xmlns="http://www.w3.org/2000/svg" xmlns:xlink="http://www.w3.org/1999/xlink" x="0px" y="0px"
	 viewBox="0 0 1000 1000" style="enable-background:new 0 0 1000 1000;" xml:space="preserve">
<style type="text/css">
	.st0{fill:#259146;}
	.st1{fill:#FFFFFF;}
</style>
<g>
	<g id="XMLID_2_">
		<g>
			<path class="st0" d="M826.5,468.6c1.8,20.5-12.5,37.1-26.7,46.3c-1,9.8-3.2,18.3-5.6,26.7c12.2-10.7,22.1-23.7,32.3-36.5
				c1.2,29.8-34.5,34.7-39.3,63.1c10.6-6.7,24.3-22.4,36.5-32.3c-4,18-19.8,36.3-39.3,43.5c-2.4,3.7-3.3,8.9-5.6,12.6
				c16.2-8.6,27.7-21.8,46.3-28.1c-7.5,19.6-24.2,30-46.3,35.1c-4.6,4.3-6.6,11.1-8.4,18.2c15.6-4.5,29.9-22.5,51.9-25.3
				c-6.8,12.7-17.4,21.3-30.9,28.1c-13.3,6.7-31.6,5.9-35.1,22.4c18.6-6.6,33.1-17.4,57.5-18.2c-9.8,19.7-31.2,27.7-61.7,26.7
				c-3.8,7-10.8,10.7-14,18.2c19-5.6,38.8-16.9,63.1-12.6c-9.8,19.8-39.2,31.4-68.7,22.4c-7.3,3.4-9.9,11.6-15.4,16.8
				c18.7-3.5,42.5-8.7,60.3-1.4c-9.4,18.1-49.4,20.1-64.5,5.6c-8.2,6.8-15,14.9-23.8,21c18.8,2,47.9-2.3,60.3,9.8
				c-16.6,11.4-57.5,8.9-71.5-2.8c-8.6,5-16.4,10.7-26.7,14c9.6,4.5,32.7,4.9,49.1,7c-13.7,4.7-26.3,5.9-40.7,4.2
				c-6.6-0.8-13.6-5.6-19.6-5.6c-15.6,0-34.6,11.5-50.5,16.8c-17.5,5.9-33.8,11.6-50.5,16.8c33.4,18.5,71.7,32.1,108,47.7
				c-14.8,9.5-32.9,15.7-47.7,25.3c-26.6-26.7-67.4-39.3-103.8-56.1c-35.1,15.9-75.2,26.8-98.2,54.7c-16.8-8.4-33.7-16.8-50.5-25.3
				c34.4-16.5,75.7-29.9,103.8-44.9c-14.8-5.8-29.4-10.1-44.9-15.4c-13.6-4.7-30.2-14.9-43.5-15.4c-15.3-0.7-37,12.9-58.9,2.8
				c11.2-6.6,34.2-1.3,44.9-8.4c-8.6-3.1-16.2-7.2-22.4-12.6c-20.2,9.6-49.2,11.7-72.9,4.2c7.9-14.6,40.3-11.9,60.3-9.8
				c-5.9-9.1-16.9-13-22.4-22.4c-16.9,13.1-51.9,12.2-64.5-4.2c14.9-10.2,41.6-3.4,58.9,0c-4.6-5.7-8.5-12-14-16.8
				c-28.6,8-59.6-0.8-67.3-22.4c26.1-1.3,42.9,6.6,60.3,14c-1.8-9-10.5-11-12.6-19.6c-30.4,2.8-54.5-8.1-60.3-25.3
				c22.7,1.6,37.8,10.9,54.7,18.2c1.3-4.7-6-11.3-9.8-15.4c-26.1-2.9-42.3-15.7-53.3-33.7c21.1,3.7,33.5,16.1,49.1,25.3
				c1.7-5.5-3.9-14.5-7-19.6c-22.2-3.9-37.9-14.5-44.9-33.7c17.2,6.2,28.4,18.4,43.5,26.7c0.7-4.4-2-5.5-2.8-8.4
				c-17.4-11.1-33.6-23.4-40.7-44.9c14.1,8.9,24.1,21.7,36.5,32.3c-3.6-30-36.2-31.1-39.3-61.7c12.6,9.8,20.4,24.4,32.3,35.1
				c-0.1-34.5-32-37.2-32.3-71.5c10.9,9.7,16.8,24.3,25.3,36.5c7.1-32.8-22.9-40.7-21-72.9c9.3,9.9,13.3,25,19.6,37.9
				c8.9-39.8-19.3-54.6-19.6-89.8c10,12.5,14.7,30.1,21,46.3c11.8-28.1-14.8-45.7-9.8-80c8.6,13.4,9.5,34.4,15.4,50.5
				c17-25.2-8.4-49.4-1.4-80c6.8,10.9,9.6,25.9,11.2,42.1c16.9-14.6-0.4-41.6,5.6-64.5c4.2,9.8,6.1,22,5.6,36.5
				c16.4-9.7,1-43.6,9.8-61.7c3.7,10.2,4.5,24.6,2.8,36.5c16.2-5.7,8-35.9,15.4-50.5c3.2,6.1,0.5,18.2,1.4,26.7
				c2.2-0.6,4.3-2.1,6.2-4.2c-1,1.4-1.7,3.3-2,5.6c4.6,1.6,15.5-1.2,22.4,1.4c-8.9,11.7-37.8,3.3-37.9,23.8
				c8.9-2.3,19.9-2.6,29.5-4.2c-5.8,7.7-17.9,9.2-32.3,8.4c-4.4,4.1-6.4,10.5-8.4,16.8c5.1-1.9,18.8-8.4,30.9-4.2
				c-3.7,11.3-18.1,11.8-33.7,11.2c-4.3,5.5-7,12.6-8.4,21c11.7-3.3,22.7-7.3,33.7-11.2c-3.5,9.1-21.9,15.5-36.5,18.2
				c-5.2,6.5-5.4,18-8.4,26.7c12.7-8.4,21.5-20.6,37.9-25.3c-7.5,15.8-23.9,22.9-39.3,30.9c-0.4,8.5-2.1,15.6-2.8,23.8
				c10.8-9.7,23.3-17.9,35.1-26.7c-3.4,14.4-21.3,26.4-36.5,33.7c-0.6,6.4,1.4,15.4-1.4,19.6c6.9-0.1,6.4-7.7,9.8-11.2
				c8.6-6.3,17.1-12.8,26.7-18.2c-3.9,13.9-19.9,27.8-35.1,35.1c0.9,9.4-1.9,22.4,1.4,29.5c8.6-15.2,18.9-28.8,32.3-39.3
				c-2.4,16.8-18.4,32.1-32.3,42.1c0.1,9.3-0.8,19.5,2.8,25.3c8.8-14.5,15.2-31.6,29.5-40.7c-2.2,16.9-18.1,32.4-29.5,44.9
				c1.8,10.4,3.1,21.2,8.4,28.1c5.1-20.7,15.1-36.3,25.3-51.9c0.7,26.3-35.3,51.5-16.8,78.6c6.1-18.6,12.7-36.9,22.4-51.9
				c-1.3,18.8-13.1,39.3-21,56.1c1.7,7.2,4.5,13.2,8.4,18.2c3.7-19.2,11.6-34.2,18.2-50.5c0.6,23.5-25.7,55.3-4.2,75.8
				c7.1-15.8,8.5-37.4,12.6-56.1c5.7,30.8-20.3,66.5,5.6,82.8c2.9-8.3,1.5-20.9,4.2-29.5c0-2.8,0-5.6,0-8.4c-0.2-3.5,1.7-2.4,1.4,0
				c-0.3,25.5-3.3,53.8,14,61.7c3.1-11.3,1.4-27.6,4.2-39.3c0-2.8,0-5.6,0-8.4c3.1,10.9,1.4,38.8,4.2,54.7c4.8,5.1,8.3,11.3,15.4,14
				c-1.9-11.7-3.8-35.5-2.8-54.7c12.2,22.9-1.3,71.5,28.1,77.2c-4.4-16.2-8.1-33-8.4-53.3c9.7,10.9,12.9,35.8,11.2,53.3
				c4.8,7.3,13.8,10.5,22.4,14c-2.4-8.3-9.1-24.6-9.8-39.3c11.1,2,14.6,23.8,15.4,40.7c37.2,11.4,81.6,27.2,126.3,26.7
				c44.1-0.5,93.1-20.6,131.9-29.5c1.6-13.3,3.4-36.2,14-44.9c4,14.7-4.1,29.5-8.4,40.7c5.9,0.7,16-6.4,22.4-9.8
				c0.1-22.8,2.8-43,11.2-57.5c2.9,17.4-3,38.1-7,53.3c5.1-1.1,14.8-9.5,19.6-15.4c0.8-23.5,3-45.6,8.4-64.5
				c3.9,18.4-0.1,41-2.8,57.5c4-0.7,12.5-8.9,16.8-14c0.7-18,2.4-35,2.8-53.3c-0.2-1.6,0.3-2.5,1.4-2.8c0,5.1,0,10.3,0,15.4
				c1.4,10.7,2.8,21.5,2.8,33.7c7.1-3.6,9.7-11.8,15.4-16.8c0.1-5.9-0.1-20,0-30.9c0.1-9.7,0.5-27.6,1.4-9.8
				c2.2,10.4,1.9,23.4,4.2,33.7c24.8-18.5,2.8-52.7,4.2-87c5.2,18.2,8.8,38,12.6,57.5c25.3-16.7-0.8-48.3-2.8-74.4
				c8.1,14.4,15.8,29.1,18.2,49.1c6.5-2.4,6-11.8,9.8-16.8c-8.5-18.1-17.7-35.6-22.4-57.5c11.3,13.5,17.6,32,22.4,51.9
				c20.4-26.3-14.8-52.8-18.2-81.4c11.7,15.4,23.5,30.8,26.7,54.7c7.6-5,7.2-18,9.8-28.1c-10.7-15-25.2-26.2-30.9-46.3
				c15.1,8.2,22.7,24.1,29.5,40.7c20.6-30.3-26.2-41.8-29.5-65.9c14.9,3.3,25.4,23.2,33.7,37.9c3.3-7,0.5-20.1,1.4-29.5
				c-14.7-9.1-27.3-20.4-36.5-35.1c5-5.5,12.7,8.5,12.6,8.4c2.8,1.7,6-0.5,8.4,1.4c5.7,4.5,9.1,12.3,15.4,18.2c3.7-4.7-2-12,0-19.6
				c-15.3-8.1-28.6-18.1-37.9-32.3c12.5,1.5,24.5,15.7,35.1,23.8c3.1-5.5-1.3-15.5-1.4-22.4c-14.5-9.8-32.1-16.6-40.7-32.3
				c12.9,2.6,27.9,15.1,37.9,25.3c1.9-8-3.8-20.5-7-28.1c-16.8-1-27.6-7.9-37.9-15.4c10.3-1.9,22.4,6.6,33.7,8.4
				c2.6-6.4-4.7-14.9-7-21c-16,0.5-30.9,0.1-35.1-11.2c11.7-3.8,24.2,0.1,32.3,4.2c-1.8-6.6-5.1-11.7-8.4-16.8
				c-13.9,0.8-25.4-0.7-32.3-7c8.1-3.4,20,1.4,28.1,2.8c-0.2-8.2-6.4-10.4-8.4-16.8c-11.7,0-22.4-0.9-29.5-5.6
				c3.4-5.4,14.4-4.5,21-2.8c2.7-4.6-6.1-9.8-8.4-14c-9.9,2.6-27.3,2.6-30.9-5.6c8.8,0,18.3-0.6,25.3,1.4c2.8-1.1,3.3-12.5,2.8-21
				c3.1,15.1,5.1,31.4,16.8,37.9c-0.7-11,0.7-19.8,1.4-29.5c8.2,17.7-0.4,43.5,15.4,53.3c-0.1-9.6,0-28.2,2.8-39.3
				c10.9,18.9-4.8,49.3,8.4,63.1c3.9-10.6,4.1-24.9,7-36.5c9.2,23.6-10.6,48.5,5.6,65.9c4.8-13.9,5.7-31.7,12.6-43.5
				c8.2,32.8-18.5,56-1.4,82.8c5.5-16,8.1-35,14-50.5c8,34.2-18.4,49.7-9.8,81.4c8.6-14.7,12.8-33.9,22.4-47.7
				c1.3,33.1-25.7,50.1-21,91.2c9-11.1,12.9-27.3,21-39.3c4,31.1-25.3,41.1-22.4,75.8C810.5,495.6,816.6,480.2,826.5,468.6z"/>
			<path class="st0" d="M694.6,230.1c12.6,5.2,19.8,15.8,28.1,25.3C715.3,250.5,699.3,242.3,694.6,230.1z"/>
			<path class="st0" d="M304.6,246.9c0.2,10.9-17.8,15.9-23.8,25.3C281.3,267.4,294.8,251.7,304.6,246.9z"/>
			<path class="st0" d="M276.6,277.8c8.8,0,18.7-3.4,26.7,0c-9.3,9.2-29.5,1.8-37.5,9.8c5-6.7,8.4-18,8-29.4
				C275.9,263.1,275.6,276.3,276.6,277.8z"/>
			<path class="st0" d="M265.7,287.6c-0.4,0.5-0.7,0.9-1.1,1.4C264.9,288.5,265.3,288,265.7,287.6z"/>
		</g>
	</g>
	<path class="st0" d="M527.8,362L505,378.5L482.2,362h17.2c0,0-5.3-12.6,0.7-14c0,0-7-11.6-1.8-13c0,0-7.7-9.1,0.7-13.3
		c0,0-6-10.2,0.4-13.3c0,0-7.4-11.9,0-14c0,0-6.3-11.6,0.4-13.3v-16.8v-15.4c0,0-8.7-5.4-6,23.8l-2.1,2.1l0.7,8.4
		c0,0-7.7-3.9-4.9-9.5l-5.3,2.1c0,0-2.1-4.2,0-12.6c0,0-1-2.1-3,2.8c0,0-10.4-8.4,0.5-19.6v-2.5c0,0-4.9-6,4.6-10.5
		c0,0,6-8.8-5.1-9.1c0,0-2.7,10.5-6.2,10.5c0,0-0.4,7.7-4.1,7.7c0,0,0.5,7.9-4.9,9.8c0,0,1.4,5.6-1.2,6.3c0,0-0.5,4.9,1.2,5.8
		c0,0-12.4-10.1-5.8-26.9l7.7-15.9c0,0,2.1-4.7-5.8-3.3l-0.5,5.4c0,0-2.2,3.5-3.3-0.9c0,0-5.1-4-4.6,8.2l0.9,6.8
		c0,0-1.9,3.7-3.5-2.3c0,0-8.4,0.2,0,16.4c0,0-15.7-11.9-5.8-29l19.9-21.3c0,0-0.9-8.9-15.2-2.1c0,0-4.1,2.3-7.9,6.5
		c0,0,7-19.9,26.1-22.9h13.6c0,0,4.7-11.2-15-5.8c0,0-3.3-15.2,16.6-11.5l13.3,11.5l1.2,0.2v-14.5l8-8.4l9.4,8.2v14.7l13.6-11.9
		c0,0,18.5-4.9,19.2,10.8c0,0-20.1-4.9-17.1,6.5h17.1c0,0,19.9,1.9,24.8,21.7c0,0-13.8-13.8-24.8-5.1l23.6,24.3
		c0,0,9.1,14.7-5.4,27.4c0,0,6.3-13.6-1.2-16.6c0,0-1.6-0.5-3.5,3c0,0,2.1-12.2-1.9-15c0,0-3.7-1.6-5.8,1.9c0,0,0.5-8.2-7.7-5.8
		c0,0-0.9,4.7,7.9,17.1c0,0,7.5,18.9-4.2,28.3c0,0,1.2-12.2-5.6-15.7c0,0,3-7-4.2-9.1c0,0,2.3-3.3-4-6.3c0,0-2.8-1.2-2.3-6.5
		c0,0-7.2-6.1-7,4.4c0,0,10.3,7.9,5.1,12.4c0,0,10.8,9.8,4,16.1c0,0,1.6,9.1-4,5.4c0,0-3.3-5.6-2.6,5.6c0,0,3.5,7.2-3.7,4.2
		c0,0-0.7,6.3-5.1,8.7v-8.7h-2.1V255c0,0,0.7-6.3-6.1-5.6v30.4c0,0,6.1,3,0.2,14.3c0,0,7,1.4,0.2,13.6c0,0,6.3,1.4,0.5,13.3
		c0,0,8.2,0.5,1.2,14.5c0,0,6.1,0-1.9,12.4c0,0,7-0.7,0.7,13.3L527.8,362z"/>
	<path class="st0" d="M577,432l-7.9,6.3c-13.3,5.6-26.9-7.5-26.9-7.5c-4.9-4,3.3-6.3,3.3-6.3c12.2-4.4,2.3-11.7,2.3-11.7
		c-11.9-2.1-8.2,7-8.2,7c2.8,6.8-3.7,5.8-3.7,5.8l-22.3-21.1c13.8-13.2,41.4-38.3,63.1-49c0,0,19.9-14.5,76.5-16.8
		c0,0-45.6-20.6-94.5,12.4c0,0-38.6,24.6-54,42.8l-0.6,0.6l-0.6-0.6c-15.4-18.2-54-42.8-54-42.8c-48.9-33-94.5-12.4-94.5-12.4
		c56.6,2.3,76.5,16.8,76.5,16.8c21.7,10.8,49.4,35.8,63.1,49l-22.3,21.1c0,0-6.5,0.9-3.7-5.8c0,0,3.7-9.1-8.2-7
		c0,0-9.8,7.2,2.3,11.7c0,0,8.2,2.3,3.3,6.3c0,0-13.6,13.1-26.9,7.5l-7.9-6.3c0,0-11.5-4.2-13.3,7.7c0,0,9.4,24.1,40.4,12.6
		c0,0,11.9-4,20.6-14.5l4.4,4c0,0-0.5,9.1,7,9.6c0,0,5.1-0.9,4.9-7.5c0,0-1.4-5.1-8.9-5.6l-3.7-3.3c0,0,14.1-13,21.4-21.1
		c7.3,8.1,21.4,21.1,21.4,21.1l-3.7,3.3c-7.5,0.5-8.9,5.6-8.9,5.6c-0.2,6.5,4.9,7.5,4.9,7.5c7.5-0.5,7-9.6,7-9.6l4.4-4
		c8.6,10.5,20.6,14.5,20.6,14.5c31.1,11.5,40.4-12.6,40.4-12.6C588.4,427.8,577,432,577,432z"/>
	<path class="st0" d="M591.6,465.4h59.6c0,0-15.4,127-150.1,127c0,0-112.9,1.4-141.7-127h58.2c0,0,23.1,55.4,87.7,59.6
		C505.3,525.1,569.2,525.1,591.6,465.4z"/>
	<path class="st0" d="M666,461.9h68.7c0,0-18.9,186.6-220.2,204.1c0,0-194.3,16.8-238.5-200.6h67.3c0,0,23.8,134.7,162,134.7
		C505.3,600.1,633,608.5,666,461.9z"/>
	<g>
		<path class="st0" d="M500.4,901.2c-27.2,0-54.3-2.7-80.7-8.1c-25.7-5.3-51-13.1-75.2-23.4c-23.7-10-46.6-22.5-68.1-36.9
			c-21.2-14.3-41.2-30.8-59.3-48.9c-18.1-18.1-34.6-38.1-48.9-59.3c-14.5-21.4-26.9-44.3-36.9-68.1c-10.2-24.2-18.1-49.5-23.4-75.2
			c-5.4-26.4-8.1-53.6-8.1-80.7c0-27.2,2.7-54.3,8.1-80.7c5.3-25.7,13.1-51,23.4-75.2c10-23.7,22.5-46.6,36.9-68.1
			c14.3-21.2,30.8-41.2,48.9-59.3c18.1-18.1,38.1-34.6,59.3-48.9c21.4-14.5,44.3-26.9,68.1-36.9c24.2-10.2,49.5-18.1,75.2-23.4
			c26.4-5.4,53.6-8.1,80.7-8.1c27.2,0,54.3,2.7,80.7,8.1c25.7,5.3,51,13.1,75.2,23.4c23.7,10,46.6,22.5,68.1,36.9
			c21.2,14.3,41.2,30.8,59.3,48.9c18.1,18.1,34.6,38.1,48.9,59.3c14.5,21.4,26.9,44.3,36.9,68.1c10.2,24.2,18.1,49.5,23.4,75.2
			c5.4,26.4,8.1,53.6,8.1,80.7c0,27.2-2.7,54.3-8.1,80.7c-5.3,25.7-13.1,51-23.4,75.2c-10,23.7-22.5,46.6-36.9,68.1
			c-14.3,21.2-30.8,41.2-48.9,59.3c-18.1,18.1-38.1,34.6-59.3,48.9c-21.4,14.5-44.3,26.9-68.1,36.9c-24.2,10.2-49.5,18.1-75.2,23.4
			C554.8,898.5,527.6,901.2,500.4,901.2z M500.4,117c-26,0-52,2.6-77.3,7.8c-24.6,5-48.8,12.6-72,22.3
			c-22.7,9.6-44.6,21.5-65.1,35.4c-20.3,13.7-39.4,29.5-56.8,46.8c-17.4,17.4-33.1,36.5-46.8,56.8c-13.9,20.5-25.7,42.4-35.4,65.1
			c-9.8,23.1-17.3,47.4-22.3,72c-5.2,25.3-7.8,51.3-7.8,77.3s2.6,52,7.8,77.3c5,24.6,12.6,48.8,22.3,72
			c9.6,22.7,21.5,44.6,35.4,65.1c13.7,20.3,29.5,39.4,46.8,56.8c17.4,17.4,36.5,33.1,56.8,46.8c20.5,13.9,42.4,25.7,65.1,35.4
			c23.1,9.8,47.4,17.3,72,22.3c25.3,5.2,51.3,7.8,77.3,7.8c26,0,52-2.6,77.3-7.8c24.6-5,48.8-12.6,72-22.3
			c22.7-9.6,44.6-21.5,65.1-35.4c20.3-13.7,39.4-29.5,56.8-46.8c17.4-17.4,33.1-36.5,46.8-56.8c13.9-20.5,25.7-42.4,35.4-65.1
			c9.8-23.1,17.3-47.4,22.3-72c5.2-25.3,7.8-51.3,7.8-77.3s-2.6-52-7.8-77.3c-5-24.6-12.6-48.8-22.3-72
			c-9.6-22.7-21.5-44.6-35.4-65.1c-13.7-20.3-29.5-39.4-46.8-56.8c-17.4-17.4-36.5-33.1-56.8-46.8c-20.5-13.9-42.4-25.7-65.1-35.4
			c-23.1-9.8-47.4-17.3-72-22.3C552.4,119.6,526.4,117,500.4,117z"/>
	</g>
	<g>
		<path class="st1" d="M606.9,496.9c0,0-5.1,6.3-6.3-3.5c0,0,8.9-7.5,15.7,9.8c0,0,0.9,13.3-6.8,13.8c0,0,5.1-8.6,2.1-15.7
			C611.6,501.3,611.9,495.9,606.9,496.9z"/>
		<path class="st1" d="M594.7,505.8c0,0-1.4,8.4,6.8,16.1c0,0,4.7,13.6-6.9,19.6c0,0-4.2,1.1,0-5.6c0,0,6.8-5.8-0.9-19.8
			c0,0-6.7-8.3-3-11.8C590.8,504.4,594.7,502,594.7,505.8z"/>
		<path class="st1" d="M577.3,532.1c0,0-14.2-4.9-18.1-18.8c0,0,17.4,2.8,25.8,18.8c0,0,5.1,14.6-8.1,18.2c0,0-0.2-1.6,3.5-9.6
			c0,0,2.6-7.5-1.2-11.4c0,0-5.4-7-13.2-9.6C566,519.7,573.2,528.3,577.3,532.1z"/>
		<path class="st1" d="M693.3,498.5c0,0-16.9-0.2-26.1-13.9c0,0,19.4-3.2,34.3,11.1c0,0,10.8,14-1.7,22.8c0,0-0.8-1.7,0.1-11.8
			c0,0,0-9.2-5.5-12c0,0-8.4-5.7-17.5-5.8C676.8,489,687.7,495.8,693.3,498.5z"/>
		<path class="st1" d="M514.7,560.8c0,0-8.6-12.3-3.5-25.8c0,0,12.4,12.5,9.7,30.4c0,0-4.5,14.8-17.3,10c0,0,0.8-1.4,8.5-5.7
			c0,0,6.6-4.5,5.7-9.9c0,0-0.2-8.9-4.9-15.5C512.9,544.1,513.7,555.3,514.7,560.8z"/>
		<path class="st1" d="M589.3,614.5c0,0-11.9-9.3-10.9-24.5c0,0,15.6,8.1,18.3,26.8c0,0-0.1,16.4-13.8,16.2c0,0,0.4-1.7,6.6-8.8
			c0,0,5.1-6.9,2.7-12c0,0-2.8-8.8-9.3-13.8C582.8,598.4,586.8,609.3,589.3,614.5z"/>
		<path class="st1" d="M417.6,613c0,0-0.8-15.1,11.5-24.3c0,0,4.1,17.1-8.4,31.4c0,0-12.4,10.6-21.3,0.1c0,0,1.5-0.8,11-0.7
			c0,0,8.5-0.7,10.8-5.8c0,0,4.8-7.9,4.4-16C425.5,597.6,419.9,607.7,417.6,613z"/>
		<path class="st1" d="M468.2,556.7c0,0-4.5-14.4,4.4-25.7c0,0,8,15.7,0.1,31.9c0,0-8.7,12.7-19.5,4.3c0,0,1.2-1.1,9.9-2.9
			c0,0,7.6-2.3,8.5-7.7c0,0,2.4-8.5,0-16.3C471.6,540.2,468.9,551.1,468.2,556.7z"/>
		<path class="st1" d="M570.1,537.2c0,0-3-1.2-1.1,9.3c0,0,6.1,19.1-11.2,22.6c0,0-3.3,0.9,1.4-4.4c4.7-5.3,8.1-7.9,6.8-18.6
			c0,0-3.7-12.7,1.8-14.3C567.8,531.9,571.6,531.5,570.1,537.2z"/>
		<g>
			<path class="st1" d="M551.3,548.3c-4.9-0.4-8.6-2.8-8.6-2.8l-1.8,4.9c3.5,1.6,1.8,5.8,1.8,5.8c0,10.7,8.6,6.3,8.6,6.3
				C558.3,553.7,551.3,548.3,551.3,548.3z M550.9,557.6c0,0-4.7,2.5-5.8-1.4c0,0-0.4-4.8,0-5.6C545.2,550.5,554.1,551.8,550.9,557.6
				z"/>
		</g>
		<path class="st1" d="M499.7,561.9c0,0-4.2-12.6,0-24.2c0,0,9.5,10.2,6.3,28.2c0,0-1.9,10.2-10,8.1c0,0-5.6,0.9-7-6.7
			c0,0-6.3,19.8-18.9,7.7c0,0,14.6,1.1,16.7-11.7l3.5-7.7c0,0,1.4,3.1,1.6,10.2c0,0,4.4,7.7,11.7-0.4c0,0,1.9-9.6-3-19.1
			C500.6,546.3,498.9,552.8,499.7,561.9z"/>
		<g>
			<path class="st1" d="M431.5,559.6L431.5,559.6C431.5,559.7,431.5,559.7,431.5,559.6z"/>
			<g>
				<path class="st1" d="M458.4,555.6c-2.1-2.1-6.8-10.2-6.8-10.2c-4.9-6.5-15.3,5.1-15.3,5.1c-7.7-1.4-5.8-6.3-5.8-6.3l16.3-21.7
					l-4.4,0.7L428,542.1c-8.2,2.1-9.5-7.1-9.5-7.1c3.9-2.6,1.2-4.1,1.2-4.1c-8.1,1.8-11.7-2.8-11.7-2.8c-3.7-4.4,3.5-9.6,3.5-9.6
					c5.6-6.7-2.6-7.4-2.6-7.4l-17.2-0.2c-2.1-6,7.4-13,7.4-13c10.9-2.6,15.8,5.6,15.8,5.6c6.1,6.7,6.3,4.4,6.3,4.4L411,495.8
					c-12.1-5.6-22.3,7.5-22.3,7.5c-6.1,8.6,0,11.6,0,11.6h16.7c5.1,1.8-2.5,7.5-2.5,7.5c-2.1,11.7,11.7,12.5,11.7,12.5
					c-1.4,11.8,11.7,10.5,11.7,10.5c0,8.2,6.7,9,6.7,9c-1.2,4.5-1.5,5.1-1.6,5.2l3.8-4c14,0.2,16,1.9,16,1.9
					C461.9,559.8,458.4,555.6,458.4,555.6z M440.6,551.8c0.7-4,4-4.2,4-4.2c5.9-0.5,6,4.2,6,4.2H440.6z"/>
			</g>
		</g>
		<polygon class="st1" points="424.2,503 424.2,498.8 418.9,498.8 418.9,503 422.5,503.9 422.5,507.4 427.1,508.5 427.1,504.6 		"/>
		<g>
			<path class="st1" d="M689,523.7c6.5-10.7-2.4-11.6-2.4-11.6l-0.7,4.9c-4,4-3-7.8-3-7.8c-4.4-15.1-20.5-13.5-20.5-13.5
				c0.4,7.7,13.9,15.8,13.9,15.8c-0.4-2.6-7.7-10-7.7-10c9.6,2.3,11.6,6.3,11.6,6.3l0.4,5.6c-1,7.9,4.2,9.3,4.2,9.3
				c3.7,11.4-5.1,16.9-5.1,16.9l-5.6,0.4l0.4,1.8c3.3,10-7,12.1-7,12.1l-21-18.6l-0.7,3.7l19.8,18.2c0.9,10.5-10.2,10.7-10.2,10.7
				l-14.9-15.5l1.9-8.3l8.2,10.5c-3.5-8.1-10.5-19.8-10.5-19.8c0,15.6-9.5,31.4-9.5,31.4c5.4-3,8.8-10.3,8.8-10.3l13.1,14.4
				c3.7,6-7,12.8-7,12.8l-4.2-2.6c-7.1-7.2-9.5,1.1-9.5,1.1l0.2,19.6l-1.2,2.5c-16.7-1.1-14.3-18.8-14.3-18.8
				c11.8-11,11-15.4,11-15.4L614.8,583c-5.8,14,7,21.6,7,21.6c8.1,8.2,13.7,1.9,13.7,1.9l-0.5-14.6c-1.6-11.4,3-9.6,3-9.6
				c4.2,6,7.4,5.3,7.4,5.3c12.5,0.5,11.6-14.6,11.6-14.6c15.6-0.7,11.7-14.7,11.7-14.7c7.2,2.2,8.9-8,8.9-8c3.9,7.4,8.2,3.3,8.2,3.3
				c3.9-6.1-2.3-12.1-2.3-12.1C691.2,539.7,689,523.7,689,523.7z M679.5,545.5c0,0,4-0.7,3.9,3.5C683.3,549,679.5,551.4,679.5,545.5
				z"/>
		</g>
		<path class="st1" d="M573.4,620.9c0,0-12.5-13.7-8.1-26c0,0,13.3,6.7,15.6,26c0,0,4,18.6-15.1,13c0,0-6,8.9-19.3,7.9
			c0,0-4.7,1.6-6.7,8.8c0,0-2.4,10.2-18.7,7c0,0-5.9-0.7,7.1-3c0,0,8.9-4.6,12.6-14.6c0,0,2.9-3.3,10.7-3.5c0,0,9.3-3,10.9-5.4
			c0,0-0.7-2.5-5.9-1.4c0,0-1.3-6,6.9-8.4c0,0,5.1-1.2,4.9,3.7l0.2,4.9c0,0,11.2,1.2,9.3-11.4c0,0-3.5-9.5-9.1-14.4L573.4,620.9z"/>
		<path class="st1" d="M519.9,625.1c0,0,8.8,5.1,1.3,18.4c0,0-14,8.6-22.2,0c0,0,0.2-1.8-3.2-0.4c0,0-12.6,9.5-22.1-2.5
			c0,0-2-2.5-1.1-7.4c0,0-3-4.7-8,2.1l-9.9,10.2c0,0-7.9,4.5-8.4-9.4c0,0-5.1-22,13.7-22.3c0,0,11,2.6,15.3,2.1
			c0,0-4.6,3.3-17.5,0.9c0,0-8.4-0.7-7.2,12.5c0,0,0.4,11.8,5.3,11l13.2-13.8c0,0,6.6-4.8,7.1,5.4c0,0-0.8,7.2,5.5,9.1
			c0,0,14.6,3.9,18.2-6.5l3.7,6.1c0,0,10.5,3.9,16.3-1.6c0,0,3.5-3.3-1.6-5.4C518.3,633.7,512.7,629.1,519.9,625.1z"/>
		<path class="st1" d="M402.4,604.2c0,0,6.3-22.4,14-23.3c0,0,5.4,18.2-10.9,33c0,0-4.9,3.5-14-1.9l-20.5-17v-4.4l-5.3-0.7l-7.9-6.1
			v-3.5c0,0-16.3,9.3-20.7-11.4c0,0,8.1,12.5,18.8,9.5v-2c0,0-4.4-3.5-1.1-6.2c0,0,6.1-1.1,6.1,1.4l0.5,9.3l7.4,6.1h1.9v-3.5
			l-1.4-0.2l0.7-2.8l7.1,0.7l1.1,7.9l-2.8,1.1l0.2,3.2l5.1,4l3.9-2.3l-1.4,3.7l3.9,3.3l4.9-1.2l-2.3,2.8l1.8,1.2l5.1-1.6l-3.3,3.9
			c0,0,7.7,8.7,14.7,1.1c0,0,5.6-7.7,4-19.1C412.1,588.9,404.5,603.9,402.4,604.2z"/>
		<path class="st1" d="M340,550.5c0,0-2.1-12.3,10.5-12.8h4.7c0,0,5.6,17.5-6.1,21.9c0,0-15.1,7.6-23.3-12.1v-2.2
			c0,0,9.4,9.4,15.4,13.1c0,0,10.4,1.5,10.4-8.9c0,0,2.6-7.5-3-8.9c0,0-3.2-0.9-2.5,8.1C346.1,548.6,343.7,552.4,340,550.5z"/>
		<path class="st1" d="M341.9,533h-5.8l-2.5,5.8h-2.8l-7.4-9.6V526v-2.5l5.4-5.3c0,0,4.7-3.9-5.4-7.2c0,0-13.5-2.8-14.2-2.6
			c-0.7,0.2-3-6.7,2.1-11.2c0,0,11.4-11,18.1,1.6c0,0,2.8,9.1,8.9,11.7c0,0-5.4-8.6-7.2-14.4c0,0-8-13.9-23-0.5
			c0,0-9.2,6.8-4.3,14.9c0.2,1.1,4.6,3.9,15.8,3c0,0,10,1.8,1.6,8.2c0,0-4.7,0.9-3.5,9.2l10.5,12.4c0,0,6,4.7,13.7-6.7V533z"/>
		<polygon class="st1" points="579.5,499.9 585.9,499.9 585.9,505.3 580.4,504.4 		"/>
		<path class="st1" d="M539,537.7v-3.3l5.1,0.6v4.7L539,539l-0.9,4.4l-4.7-2.5c0,0-0.4-3.9,0-4C533.8,536.7,539,537.7,539,537.7z"/>
		<polygon class="st1" points="622.1,565.3 622.1,561.8 627.6,561.8 627.6,566.5 622.1,566.5 622.1,571.6 616.3,571.6 617.4,566.7 
					"/>
		<polygon class="st1" points="514.1,650.5 518.2,655.2 514.1,658.7 511.1,655.4 		"/>
		<polygon class="st1" points="500.4,653.1 504.7,656.8 500.4,661.9 496.6,657.5 493.3,661.9 488.4,657.5 492.9,653.1 496.5,655.8 
					"/>
		<polygon class="st1" points="473.8,608.8 477.5,606.8 481.3,611.5 476.2,615 472.9,611.5 469.2,613 465.9,608.1 470.1,604.6 		"/>
		<polygon class="st1" points="454.7,533.5 456.1,538.9 450.6,538.9 450.6,534.4 		"/>
		<polygon class="st1" points="408.7,543.4 408.7,547.5 404.2,547.5 404.2,543.4 400.1,543.4 399.4,538.9 404.9,538.9 405.4,543.2 
					"/>
		<path class="st1" d="M322.8,543.2c0,0,0.7,4.3,0,4.3c-0.7,0-6.5,0-6.5,0l1.1-6.1H314v-6.1l6,0.9l-0.2,5.2L322.8,543.2z"/>
		<polygon class="st1" points="346.1,506.2 344.6,511.8 341.2,510.2 341.2,505 337.2,503 337.2,497.9 343.7,498.8 341.9,504.3 		"/>
	</g>
</g>
</svg>
