<?xml version="1.0" encoding="utf-8"?>
<!-- Generator: Adobe Illustrator 27.2.0, SVG Export Plug-In . SVG Version: 6.00 Build 0)  -->
<svg version="1.1" id="Layer_1" xmlns="http://www.w3.org/2000/svg" xmlns:xlink="http://www.w3.org/1999/xlink" x="0px" y="0px"
	 viewBox="0 0 1000 1000" style="enable-background:new 0 0 1000 1000;" xml:space="preserve">
<style type="text/css">
	.st0{fill:#008CFF;}
</style>
<symbol  id="icon-MobilyLogo" viewBox="-36.9 -58.7 73.8 117.4">
	<path class="st0" d="M33.2,0.2c0.6,0.3,1.1,0.9,1.1,1.7c0,1-0.8,1.8-1.8,1.8c-0.2,0-0.3,0-0.5-0.1l-61.1-15.5
		c-3.1-0.8-5.5-3.7-5.5-7.1v-32.3c0-4.1,3.3-7.4,7.4-7.4H27c4.1,0,7.4,3.3,7.4,7.4v35.4c0,1-0.8,1.8-1.8,1.8c-0.3,0-0.5-0.1-0.7-0.2
		l-12.2-5.5c-0.6-0.3-2.1-1.3-2.1-3.3v-15c0-2-1.6-3.7-3.7-3.7H-14c-2,0-3.7,1.6-3.7,3.7v10.5c0,3,1.8,5.6,4.3,6.7
		C-12.4-20.5,33.2,0.2,33.2,0.2z"/>
	<path class="st0" d="M-27.3,30c-1.1,0-1.6,0.5-1.6,1.6s0.5,1.6,1.6,1.6s1.6-0.5,1.6-1.6S-26.2,30-27.3,30z"/>
	<path class="st0" d="M-31.2,30c-1.1,0-1.6,0.5-1.6,1.6s0.5,1.6,1.6,1.6s1.6-0.5,1.6-1.6S-30.1,30-31.2,30z"/>
	<path class="st0" d="M-7.8,25c-1.1,0-1.6,0.5-1.6,1.6s0.5,1.6,1.6,1.6c0.6,0,1-0.1,1.2-0.4c0.3-0.3,0.4-0.7,0.4-1.2
		C-6.2,25.6-6.7,25-7.8,25z"/>
	<path class="st0" d="M-11.7,25c-1.1,0-1.6,0.5-1.6,1.6s0.5,1.6,1.6,1.6c1.1,0,1.6-0.5,1.6-1.6C-10.1,25.6-10.6,25-11.7,25z"/>
	<path class="st0" d="M-9.4,11.4v6.8c0,0.8-0.1,1.3-0.4,1.7c-0.3,0.3-0.8,0.5-1.5,0.5h-1.9h-0.5h-0.7c-0.7,0-1.2-0.2-1.5-0.5
		c-0.3-0.3-0.4-0.9-0.4-1.7V7.7l-0.9-1.1h-2.4v11.7c0,0.8-0.1,1.3-0.4,1.7c-0.3,0.3-0.8,0.5-1.5,0.5h-0.4h-0.8h-3.2l-0.9,0.9v1.9
		h1.5c-0.2,2.2-1.6,3.3-4.3,3.3c-1.3,0-2.3-0.3-3.1-1c-0.8-0.7-1.2-1.7-1.2-2.9c0-0.7,0.2-1.4,0.6-2.1l-0.2-1.1l-1.5-1.1
		c-0.5,0.5-0.9,1.2-1.2,2c-0.3,0.8-0.4,1.6-0.4,2.3c0,1.5,0.5,2.8,1.5,3.9c1.3,1.4,3.1,2.2,5.5,2.2c2.2,0,3.9-0.4,5.3-1.3
		c1.5-1,2.3-2.4,2.4-4.3h0.2h0.4c1.7,0,2.9-0.5,3.7-1.4c0.7,0.9,1.9,1.4,3.4,1.4h0.7h0.5h2.1c1.4,0,2.6-0.4,3.4-1.1
		c1-0.8,1.5-2.1,1.5-3.8v-5.7l-0.9-1.1h-2.5V11.4z"/>
	<path class="st0" d="M5.8,11.4v6.8c0,0.8-0.1,1.3-0.4,1.7c-0.3,0.3-0.8,0.5-1.5,0.5H3.2H2.7H2c-0.7,0-1.2-0.2-1.5-0.5
		c-0.3-0.3-0.4-0.9-0.4-1.7V7.7l-0.9-1.1h-2.4v11.8c0,1.5,0.4,2.7,1.1,3.5c0.8,1,2.1,1.4,3.7,1.4h1.1h0.5h1c1.4,0,2.6-0.4,3.4-1.1
		c1-0.8,1.4-2.1,1.4-3.8v-5.7l-0.9-1.1H5.8V11.4z"/>
	<path class="st0" d="M6.3,25c-1.1,0-1.6,0.5-1.6,1.6s0.5,1.6,1.6,1.6c1.1,0,1.6-0.5,1.6-1.6C7.9,25.6,7.4,25,6.3,25z"/>
	<path class="st0" d="M35.4,13.5c-1-1.4-2.4-2.1-4.3-2.1H29c-1.9,0-2.9,1-2.9,3.1v3.8c0,0.8-0.1,1.3-0.4,1.7
		c-0.3,0.3-0.8,0.5-1.5,0.5h-0.4h-0.5h-1.6v-5.9c0-2.1-1-3.1-2.9-3.1h-2.2c-1.6,0-2.9,0.5-3.8,1.6c-1,1.1-1.5,2.4-1.5,4.2
		c0,1.6,0.5,3,1.4,4.1c1.2,1.4,2.8,2.1,5,2.1h0.7v1.3c0,1.4-0.6,2.1-1.8,2.1c-0.5,0-1-0.1-1.6-0.3l-0.5,0.5l-0.3,1.3
		c1,0.4,2,0.6,3.1,0.6c1.2,0,2.1-0.3,2.9-1c1-0.8,1.5-2,1.5-3.5v-1.1h1.6h0.5h0.7c1.3,0,2.3-0.4,3-1.2c0.9,0.9,2.1,1.4,3.6,1.4
		c1.4,0,2.7-0.4,3.6-1.2c1.2-1,1.8-2.6,1.8-4.6C36.6,16,36.2,14.6,35.4,13.5z M18.4,20.4h-0.8c-1,0-1.8-0.3-2.4-0.9
		c-0.7-0.7-1.1-1.6-1.1-2.7c0-0.8,0.2-1.6,0.6-2.1c0.5-0.7,1.2-1.1,2.1-1.1h0.9c0.5,0,0.7,0.2,0.7,0.7V20.4z M32.9,20
		c-0.4,0.8-1.1,1.2-1.9,1.2c-1.2,0-1.7-0.6-1.7-1.8v-5.1c0-0.5,0.2-0.7,0.7-0.7h0.8c0.8,0,1.4,0.3,1.9,1c0.5,0.7,0.7,1.7,0.7,2.9
		C33.4,18.6,33.2,19.4,32.9,20z"/>
	<path class="st0" d="M-20.8,36.1V53h-3.5V42.5l-3.4,7.4h-2.4l-3.2-7.4V53h-3.6V34.9h3.4l4.7,10.2l4.6-10.2h2.4L-20.8,36.1z"/>
	<path class="st0" d="M-5.2,46.6c0,4.4-2.1,6.7-6.2,6.7s-6.2-2.2-6.2-6.7c0-4.4,2.1-6.7,6.2-6.7C-7.3,40-5.2,42.2-5.2,46.6z
		 M-8.6,46.6c0-1.4-0.2-2.4-0.6-3c-0.4-0.6-1.2-0.9-2.2-0.9s-1.7,0.3-2.2,0.9s-0.7,1.6-0.7,3.1c0,1.4,0.2,2.4,0.6,3
		c0.4,0.6,1.2,0.9,2.2,0.9s1.7-0.3,2.2-0.9S-8.6,48.1-8.6,46.6z"/>
	<path class="st0" d="M9.9,46.8c0,4.4-2.3,6.5-6.8,6.5c-1.8,0-3.6-0.2-5.2-0.5v-18h2.4l1,1.2v4.3c1-0.3,2-0.4,3.1-0.4
		c2,0,3.5,0.7,4.5,2.1C9.5,43.2,9.9,44.8,9.9,46.8z M6.6,46.8c0-2.8-1-4.2-3-4.2c-0.8,0-1.6,0.2-2.4,0.5v7.4
		c0.7,0.1,1.4,0.2,2.2,0.2C5.5,50.8,6.6,49.5,6.6,46.8z"/>
	<path class="st0" d="M16.5,36.6c0,0.7-0.1,1.2-0.4,1.5c-0.3,0.3-0.8,0.4-1.4,0.4c-0.6,0-1.1-0.1-1.4-0.4c-0.3-0.3-0.4-0.8-0.4-1.5
		c0-0.7,0.1-1.2,0.4-1.5c0.3-0.3,0.8-0.4,1.4-0.4c0.7,0,1.2,0.1,1.4,0.4C16.3,35.5,16.5,36,16.5,36.6z M16.3,41.5V53H13V40.2h2.4
		L16.3,41.5z"/>
	<path class="st0" d="M23.1,36.1V53h-3.3V34.9h2.4L23.1,36.1z"/>
	<path class="st0" d="M36.9,41.5l-6.5,17.2h-3.2l2.2-5.7L25,40.3h3.5l2.6,8.5l2.8-8.5h2L36.9,41.5z"/>
</symbol>
<use xlink:href="#icon-MobilyLogo"  width="73.8" height="117.4" x="-36.9" y="-58.7" transform="matrix(6.109 0 0 6.109 500 500)" style="overflow:visible;"/>
</svg>
